<?xml version="1.0" encoding="UTF-8" standalone="no"?>
<!DOCTYPE svg PUBLIC "-//W3C//DTD SVG 1.1//EN"
 "http://www.w3.org/Graphics/SVG/1.1/DTD/svg11.dtd">
<!-- Generated by graphviz version 2.36.0 (20140111.2315)
 -->
<!-- Title: include/shad/data_structures/abstract_data_structure.h Pages: 1 -->
<svg width="1056pt" height="186pt"
 viewBox="0.00 0.00 1056.00 186.00" xmlns="http://www.w3.org/2000/svg" xmlns:xlink="http://www.w3.org/1999/xlink">
<g id="graph0" class="graph" transform="scale(1 1) rotate(0) translate(4 182)">
<title>include/shad/data_structures/abstract_data_structure.h</title>
<polygon fill="white" stroke="none" points="-4,4 -4,-182 1052,-182 1052,4 -4,4"/>
<!-- Node1 -->
<g id="node1" class="node"><title>Node1</title>
<polygon fill="#bfbfbf" stroke="black" points="507,-147 507,-177 649,-177 649,-147 507,-147"/>
<text text-anchor="start" x="515" y="-165" font-family="Helvetica,sans-Serif" font-size="10.00">include/shad/data_structures</text>
<text text-anchor="middle" x="578" y="-154" font-family="Helvetica,sans-Serif" font-size="10.00">/abstract_data_structure.h</text>
</g>
<!-- Node2 -->
<g id="node2" class="node"><title>Node2</title>
<g id="a_node2"><a xlink:href="data__structures_2array_8h.html" target="_top" xlink:title="include/shad/data_structures\l/array.h">
<polygon fill="white" stroke="black" points="112,-79 112,-109 254,-109 254,-79 112,-79"/>
<text text-anchor="start" x="120" y="-97" font-family="Helvetica,sans-Serif" font-size="10.00">include/shad/data_structures</text>
<text text-anchor="middle" x="183" y="-86" font-family="Helvetica,sans-Serif" font-size="10.00">/array.h</text>
</a>
</g>
</g>
<!-- Node1&#45;&gt;Node2 -->
<g id="edge1" class="edge"><title>Node1&#45;&gt;Node2</title>
<path fill="none" stroke="midnightblue" d="M496.938,-148.443C433.263,-138.442 342.387,-123.867 263,-110 260.077,-109.489 257.095,-108.962 254.083,-108.423"/>
<polygon fill="midnightblue" stroke="midnightblue" points="496.497,-151.916 506.919,-150.008 497.582,-145.001 496.497,-151.916"/>
</g>
<!-- Node5 -->
<g id="node5" class="node"><title>Node5</title>
<g id="a_node5"><a xlink:href="hashmap_8h.html" target="_top" xlink:title="include/shad/data_structures\l/hashmap.h">
<polygon fill="white" stroke="black" points="586,-79 586,-109 728,-109 728,-79 586,-79"/>
<text text-anchor="start" x="594" y="-97" font-family="Helvetica,sans-Serif" font-size="10.00">include/shad/data_structures</text>
<text text-anchor="middle" x="657" y="-86" font-family="Helvetica,sans-Serif" font-size="10.00">/hashmap.h</text>
</a>
</g>
</g>
<!-- Node1&#45;&gt;Node5 -->
<g id="edge4" class="edge"><title>Node1&#45;&gt;Node5</title>
<path fill="none" stroke="midnightblue" d="M603.114,-140.018C615.208,-129.915 629.386,-118.07 640.163,-109.066"/>
<polygon fill="midnightblue" stroke="midnightblue" points="600.572,-137.582 595.142,-146.679 605.06,-142.954 600.572,-137.582"/>
</g>
<!-- Node7 -->
<g id="node7" class="node"><title>Node7</title>
<g id="a_node7"><a xlink:href="one__per__locality_8h.html" target="_top" xlink:title="include/shad/data_structures\l/one_per_locality.h">
<polygon fill="white" stroke="black" points="746,-79 746,-109 888,-109 888,-79 746,-79"/>
<text text-anchor="start" x="754" y="-97" font-family="Helvetica,sans-Serif" font-size="10.00">include/shad/data_structures</text>
<text text-anchor="middle" x="817" y="-86" font-family="Helvetica,sans-Serif" font-size="10.00">/one_per_locality.h</text>
</a>
</g>
</g>
<!-- Node1&#45;&gt;Node7 -->
<g id="edge6" class="edge"><title>Node1&#45;&gt;Node7</title>
<path fill="none" stroke="midnightblue" d="M638.732,-144.229C678.114,-133.353 728.836,-119.347 766.1,-109.056"/>
<polygon fill="midnightblue" stroke="midnightblue" points="637.686,-140.887 628.978,-146.922 639.549,-147.634 637.686,-140.887"/>
</g>
<!-- Node8 -->
<g id="node8" class="node"><title>Node8</title>
<g id="a_node8"><a xlink:href="set_8h.html" target="_top" xlink:title="include/shad/data_structures\l/set.h">
<polygon fill="white" stroke="black" points="272,-79 272,-109 414,-109 414,-79 272,-79"/>
<text text-anchor="start" x="280" y="-97" font-family="Helvetica,sans-Serif" font-size="10.00">include/shad/data_structures</text>
<text text-anchor="middle" x="343" y="-86" font-family="Helvetica,sans-Serif" font-size="10.00">/set.h</text>
</a>
</g>
</g>
<!-- Node1&#45;&gt;Node8 -->
<g id="edge7" class="edge"><title>Node1&#45;&gt;Node8</title>
<path fill="none" stroke="midnightblue" d="M517.792,-144.091C479.139,-133.235 429.533,-119.303 393.048,-109.056"/>
<polygon fill="midnightblue" stroke="midnightblue" points="517.301,-147.588 527.875,-146.922 519.194,-140.849 517.301,-147.588"/>
</g>
<!-- Node10 -->
<g id="node10" class="node"><title>Node10</title>
<g id="a_node10"><a xlink:href="vector_8h.html" target="_top" xlink:title="include/shad/data_structures\l/vector.h">
<polygon fill="white" stroke="black" points="906,-79 906,-109 1048,-109 1048,-79 906,-79"/>
<text text-anchor="start" x="914" y="-97" font-family="Helvetica,sans-Serif" font-size="10.00">include/shad/data_structures</text>
<text text-anchor="middle" x="977" y="-86" font-family="Helvetica,sans-Serif" font-size="10.00">/vector.h</text>
</a>
</g>
</g>
<!-- Node1&#45;&gt;Node10 -->
<g id="edge10" class="edge"><title>Node1&#45;&gt;Node10</title>
<path fill="none" stroke="midnightblue" d="M659.153,-148.64C723.684,-138.664 816.224,-124.027 897,-110 899.924,-109.492 902.906,-108.967 905.918,-108.43"/>
<polygon fill="midnightblue" stroke="midnightblue" points="658.391,-145.216 649.042,-150.201 659.459,-152.134 658.391,-145.216"/>
</g>
<!-- Node11 -->
<g id="node11" class="node"><title>Node11</title>
<g id="a_node11"><a xlink:href="edge__index_8h.html" target="_top" xlink:title="include/shad/extensions\l/graph_library/edge_index.h">
<polygon fill="white" stroke="black" points="432,-79 432,-109 568,-109 568,-79 432,-79"/>
<text text-anchor="start" x="440" y="-97" font-family="Helvetica,sans-Serif" font-size="10.00">include/shad/extensions</text>
<text text-anchor="middle" x="500" y="-86" font-family="Helvetica,sans-Serif" font-size="10.00">/graph_library/edge_index.h</text>
</a>
</g>
</g>
<!-- Node1&#45;&gt;Node11 -->
<g id="edge11" class="edge"><title>Node1&#45;&gt;Node11</title>
<path fill="none" stroke="midnightblue" d="M553.204,-140.018C541.263,-129.915 527.264,-118.07 516.624,-109.066"/>
<polygon fill="midnightblue" stroke="midnightblue" points="551.18,-142.891 561.075,-146.679 555.702,-137.548 551.18,-142.891"/>
</g>
<!-- Node3 -->
<g id="node3" class="node"><title>Node3</title>
<g id="a_node3"><a xlink:href="core_2array_8h.html" target="_top" xlink:title="include/shad/core/array.h">
<polygon fill="white" stroke="black" points="0,-11.5 0,-30.5 126,-30.5 126,-11.5 0,-11.5"/>
<text text-anchor="middle" x="63" y="-18.5" font-family="Helvetica,sans-Serif" font-size="10.00">include/shad/core/array.h</text>
</a>
</g>
</g>
<!-- Node2&#45;&gt;Node3 -->
<g id="edge2" class="edge"><title>Node2&#45;&gt;Node3</title>
<path fill="none" stroke="midnightblue" d="M150.581,-73.8185C126.795,-59.7455 95.6187,-41.2994 77.5981,-30.6372"/>
<polygon fill="midnightblue" stroke="midnightblue" points="148.903,-76.8928 159.292,-78.9727 152.468,-70.8683 148.903,-76.8928"/>
</g>
<!-- Node4 -->
<g id="node4" class="node"><title>Node4</title>
<g id="a_node4"><a xlink:href="sssp_8h.html" target="_top" xlink:title="include/shad/extensions\l/graph_library/algorithms\l/sssp.h">
<polygon fill="white" stroke="black" points="301.5,-0.5 301.5,-41.5 424.5,-41.5 424.5,-0.5 301.5,-0.5"/>
<text text-anchor="start" x="309.5" y="-29.5" font-family="Helvetica,sans-Serif" font-size="10.00">include/shad/extensions</text>
<text text-anchor="start" x="309.5" y="-18.5" font-family="Helvetica,sans-Serif" font-size="10.00">/graph_library/algorithms</text>
<text text-anchor="middle" x="363" y="-7.5" font-family="Helvetica,sans-Serif" font-size="10.00">/sssp.h</text>
</a>
</g>
</g>
<!-- Node2&#45;&gt;Node4 -->
<g id="edge3" class="edge"><title>Node2&#45;&gt;Node4</title>
<path fill="none" stroke="midnightblue" d="M228.17,-75.1828C254.165,-64.9293 286.861,-52.0328 313.544,-41.5075"/>
<polygon fill="midnightblue" stroke="midnightblue" points="226.58,-72.0474 218.562,-78.9727 229.149,-78.5592 226.58,-72.0474"/>
</g>
<!-- Node6 -->
<g id="node6" class="node"><title>Node6</title>
<g id="a_node6"><a xlink:href="unordered__map_8h.html" target="_top" xlink:title="include/shad/core/unordered\l_map.h">
<polygon fill="white" stroke="black" points="587.5,-6 587.5,-36 726.5,-36 726.5,-6 587.5,-6"/>
<text text-anchor="start" x="595.5" y="-24" font-family="Helvetica,sans-Serif" font-size="10.00">include/shad/core/unordered</text>
<text text-anchor="middle" x="657" y="-13" font-family="Helvetica,sans-Serif" font-size="10.00">_map.h</text>
</a>
</g>
</g>
<!-- Node5&#45;&gt;Node6 -->
<g id="edge5" class="edge"><title>Node5&#45;&gt;Node6</title>
<path fill="none" stroke="midnightblue" d="M657,-68.8976C657,-58.1314 657,-45.8005 657,-36.4856"/>
<polygon fill="midnightblue" stroke="midnightblue" points="653.5,-68.9727 657,-78.9727 660.5,-68.9727 653.5,-68.9727"/>
</g>
<!-- Node8&#45;&gt;Node4 -->
<g id="edge9" class="edge"><title>Node8&#45;&gt;Node4</title>
<path fill="none" stroke="midnightblue" d="M349.72,-69.1453C352.238,-60.2054 355.068,-50.1575 357.467,-41.642"/>
<polygon fill="midnightblue" stroke="midnightblue" points="346.294,-68.3983 346.951,-78.9727 353.032,-70.2963 346.294,-68.3983"/>
</g>
<!-- Node9 -->
<g id="node9" class="node"><title>Node9</title>
<g id="a_node9"><a xlink:href="unordered__set_8h.html" target="_top" xlink:title="include/shad/core/unordered\l_set.h">
<polygon fill="white" stroke="black" points="144.5,-6 144.5,-36 283.5,-36 283.5,-6 144.5,-6"/>
<text text-anchor="start" x="152.5" y="-24" font-family="Helvetica,sans-Serif" font-size="10.00">include/shad/core/unordered</text>
<text text-anchor="middle" x="214" y="-13" font-family="Helvetica,sans-Serif" font-size="10.00">_set.h</text>
</a>
</g>
</g>
<!-- Node8&#45;&gt;Node9 -->
<g id="edge8" class="edge"><title>Node8&#45;&gt;Node9</title>
<path fill="none" stroke="midnightblue" d="M308.653,-74.0959C287.055,-62.2085 259.636,-47.1176 239.875,-36.2412"/>
<polygon fill="midnightblue" stroke="midnightblue" points="307.065,-77.2171 317.514,-78.9727 310.441,-71.0846 307.065,-77.2171"/>
</g>
<!-- Node11&#45;&gt;Node4 -->
<g id="edge12" class="edge"><title>Node11&#45;&gt;Node4</title>
<path fill="none" stroke="midnightblue" d="M464.041,-74.3643C444.523,-64.2492 420.414,-51.7546 400.641,-41.5075"/>
<polygon fill="midnightblue" stroke="midnightblue" points="462.444,-77.4788 472.933,-78.9727 465.665,-71.2639 462.444,-77.4788"/>
</g>
<!-- Node12 -->
<g id="node12" class="node"><title>Node12</title>
<g id="a_node12"><a xlink:href="attributed__edge__index_8h.html" target="_top" xlink:title="include/shad/extensions\l/graph_library/attributed\l_edge_index.h">
<polygon fill="white" stroke="black" points="443,-0.5 443,-41.5 565,-41.5 565,-0.5 443,-0.5"/>
<text text-anchor="start" x="451" y="-29.5" font-family="Helvetica,sans-Serif" font-size="10.00">include/shad/extensions</text>
<text text-anchor="start" x="451" y="-18.5" font-family="Helvetica,sans-Serif" font-size="10.00">/graph_library/attributed</text>
<text text-anchor="middle" x="504" y="-7.5" font-family="Helvetica,sans-Serif" font-size="10.00">_edge_index.h</text>
</a>
</g>
</g>
<!-- Node11&#45;&gt;Node12 -->
<g id="edge13" class="edge"><title>Node11&#45;&gt;Node12</title>
<path fill="none" stroke="midnightblue" d="M501.36,-68.8534C501.86,-59.9872 502.419,-50.065 502.893,-41.642"/>
<polygon fill="midnightblue" stroke="midnightblue" points="497.858,-68.7916 500.79,-78.9727 504.847,-69.1854 497.858,-68.7916"/>
</g>
</g>
</svg>
