<?xml version="1.0" encoding="UTF-8" standalone="no"?>
<!DOCTYPE svg PUBLIC "-//W3C//DTD SVG 1.1//EN"
 "http://www.w3.org/Graphics/SVG/1.1/DTD/svg11.dtd">
<!-- Generated by graphviz version 2.36.0 (20140111.2315)
 -->
<!-- Title: include/shad/data_structures/compare_and_hash_utils.h Pages: 1 -->
<svg width="412pt" height="96pt"
 viewBox="0.00 0.00 412.00 96.00" xmlns="http://www.w3.org/2000/svg" xmlns:xlink="http://www.w3.org/1999/xlink">
<g id="graph0" class="graph" transform="scale(1 1) rotate(0) translate(4 92)">
<title>include/shad/data_structures/compare_and_hash_utils.h</title>
<polygon fill="white" stroke="none" points="-4,4 -4,-92 408,-92 408,4 -4,4"/>
<!-- Node1 -->
<g id="node1" class="node"><title>Node1</title>
<polygon fill="#bfbfbf" stroke="black" points="125,-57 125,-87 267,-87 267,-57 125,-57"/>
<text text-anchor="start" x="133" y="-75" font-family="Helvetica,sans-Serif" font-size="10.00">include/shad/data_structures</text>
<text text-anchor="middle" x="196" y="-64" font-family="Helvetica,sans-Serif" font-size="10.00">/compare_and_hash_utils.h</text>
</g>
<!-- Node2 -->
<g id="node2" class="node"><title>Node2</title>
<polygon fill="white" stroke="#bfbfbf" points="0,-0.5 0,-19.5 56,-19.5 56,-0.5 0,-0.5"/>
<text text-anchor="middle" x="28" y="-7.5" font-family="Helvetica,sans-Serif" font-size="10.00">algorithm</text>
</g>
<!-- Node1&#45;&gt;Node2 -->
<g id="edge1" class="edge"><title>Node1&#45;&gt;Node2</title>
<path fill="none" stroke="midnightblue" d="M156.611,-56.9327C127.762,-46.6292 89.0218,-32.7935 61.6222,-23.0079"/>
<polygon fill="midnightblue" stroke="midnightblue" points="62.6747,-19.6674 52.0801,-19.6 60.3203,-26.2596 62.6747,-19.6674"/>
</g>
<!-- Node3 -->
<g id="node3" class="node"><title>Node3</title>
<polygon fill="white" stroke="#bfbfbf" points="74,-0.5 74,-19.5 120,-19.5 120,-0.5 74,-0.5"/>
<text text-anchor="middle" x="97" y="-7.5" font-family="Helvetica,sans-Serif" font-size="10.00">cstdint</text>
</g>
<!-- Node1&#45;&gt;Node3 -->
<g id="edge2" class="edge"><title>Node1&#45;&gt;Node3</title>
<path fill="none" stroke="midnightblue" d="M172.789,-56.9327C156.832,-47.2619 135.741,-34.4793 119.86,-24.8546"/>
<polygon fill="midnightblue" stroke="midnightblue" points="121.556,-21.7899 111.19,-19.6 117.928,-27.7763 121.556,-21.7899"/>
</g>
<!-- Node4 -->
<g id="node4" class="node"><title>Node4</title>
<polygon fill="white" stroke="#bfbfbf" points="138,-0.5 138,-19.5 184,-19.5 184,-0.5 138,-0.5"/>
<text text-anchor="middle" x="161" y="-7.5" font-family="Helvetica,sans-Serif" font-size="10.00">cstring</text>
</g>
<!-- Node1&#45;&gt;Node4 -->
<g id="edge3" class="edge"><title>Node1&#45;&gt;Node4</title>
<path fill="none" stroke="midnightblue" d="M187.705,-56.7808C182.777,-48.3318 176.486,-37.5481 171.249,-28.5693"/>
<polygon fill="midnightblue" stroke="midnightblue" points="174.155,-26.6048 166.093,-19.7305 168.108,-30.1319 174.155,-26.6048"/>
</g>
<!-- Node5 -->
<g id="node5" class="node"><title>Node5</title>
<polygon fill="white" stroke="#bfbfbf" points="202.5,-0.5 202.5,-19.5 261.5,-19.5 261.5,-0.5 202.5,-0.5"/>
<text text-anchor="middle" x="232" y="-7.5" font-family="Helvetica,sans-Serif" font-size="10.00">functional</text>
</g>
<!-- Node1&#45;&gt;Node5 -->
<g id="edge4" class="edge"><title>Node1&#45;&gt;Node5</title>
<path fill="none" stroke="midnightblue" d="M204.531,-56.7808C209.601,-48.3318 216.071,-37.5481 221.458,-28.5693"/>
<polygon fill="midnightblue" stroke="midnightblue" points="224.618,-30.1062 226.762,-19.7305 218.615,-26.5047 224.618,-30.1062"/>
</g>
<!-- Node6 -->
<g id="node6" class="node"><title>Node6</title>
<polygon fill="white" stroke="#bfbfbf" points="280,-0.5 280,-19.5 342,-19.5 342,-0.5 280,-0.5"/>
<text text-anchor="middle" x="311" y="-7.5" font-family="Helvetica,sans-Serif" font-size="10.00">type_traits</text>
</g>
<!-- Node1&#45;&gt;Node6 -->
<g id="edge5" class="edge"><title>Node1&#45;&gt;Node6</title>
<path fill="none" stroke="midnightblue" d="M222.962,-56.9327C241.845,-47.0811 266.916,-34.0004 285.473,-24.3182"/>
<polygon fill="midnightblue" stroke="midnightblue" points="287.27,-27.3288 294.517,-19.6 284.032,-21.1227 287.27,-27.3288"/>
</g>
<!-- Node7 -->
<g id="node7" class="node"><title>Node7</title>
<polygon fill="white" stroke="#bfbfbf" points="360,-0.5 360,-19.5 404,-19.5 404,-0.5 360,-0.5"/>
<text text-anchor="middle" x="382" y="-7.5" font-family="Helvetica,sans-Serif" font-size="10.00">vector</text>
</g>
<!-- Node1&#45;&gt;Node7 -->
<g id="edge6" class="edge"><title>Node1&#45;&gt;Node7</title>
<path fill="none" stroke="midnightblue" d="M239.609,-56.9327C273.47,-46.0098 319.637,-31.1172 350.105,-21.2887"/>
<polygon fill="midnightblue" stroke="midnightblue" points="351.353,-24.5638 359.796,-18.1627 349.204,-17.9018 351.353,-24.5638"/>
</g>
</g>
</svg>
