<?xml version="1.0" encoding="UTF-8" standalone="no"?>
<!DOCTYPE svg PUBLIC "-//W3C//DTD SVG 1.1//EN"
 "http://www.w3.org/Graphics/SVG/1.1/DTD/svg11.dtd">
<!-- Generated by graphviz version 2.36.0 (20140111.2315)
 -->
<!-- Title: include/shad/core/array.h Pages: 1 -->
<svg width="1363pt" height="560pt"
 viewBox="0.00 0.00 1363.30 560.00" xmlns="http://www.w3.org/2000/svg" xmlns:xlink="http://www.w3.org/1999/xlink">
<g id="graph0" class="graph" transform="scale(1 1) rotate(0) translate(4 556)">
<title>include/shad/core/array.h</title>
<polygon fill="white" stroke="none" points="-4,4 -4,-556 1359.3,-556 1359.3,4 -4,4"/>
<!-- Node1 -->
<g id="node1" class="node"><title>Node1</title>
<polygon fill="#bfbfbf" stroke="black" points="292.305,-532.5 292.305,-551.5 418.305,-551.5 418.305,-532.5 292.305,-532.5"/>
<text text-anchor="middle" x="355.305" y="-539.5" font-family="Helvetica,sans-Serif" font-size="10.00">include/shad/core/array.h</text>
</g>
<!-- Node2 -->
<g id="node2" class="node"><title>Node2</title>
<polygon fill="white" stroke="#bfbfbf" points="285.805,-470.5 285.805,-489.5 330.805,-489.5 330.805,-470.5 285.805,-470.5"/>
<text text-anchor="middle" x="308.305" y="-477.5" font-family="Helvetica,sans-Serif" font-size="10.00">cstdlib</text>
</g>
<!-- Node1&#45;&gt;Node2 -->
<g id="edge1" class="edge"><title>Node1&#45;&gt;Node2</title>
<path fill="none" stroke="midnightblue" d="M348.571,-532.403C341.521,-523.403 330.27,-509.041 321.451,-497.782"/>
<polygon fill="midnightblue" stroke="midnightblue" points="323.948,-495.295 315.026,-489.581 318.438,-499.611 323.948,-495.295"/>
</g>
<!-- Node3 -->
<g id="node3" class="node"><title>Node3</title>
<g id="a_node3"><a xlink:href="data__structures_2array_8h.html" target="_top" xlink:title="shad/data_structures\l/array.h">
<polygon fill="white" stroke="black" points="349.305,-465 349.305,-495 457.305,-495 457.305,-465 349.305,-465"/>
<text text-anchor="start" x="357.305" y="-483" font-family="Helvetica,sans-Serif" font-size="10.00">shad/data_structures</text>
<text text-anchor="middle" x="403.305" y="-472" font-family="Helvetica,sans-Serif" font-size="10.00">/array.h</text>
</a>
</g>
</g>
<!-- Node1&#45;&gt;Node3 -->
<g id="edge2" class="edge"><title>Node1&#45;&gt;Node3</title>
<path fill="none" stroke="midnightblue" d="M362.182,-532.403C368.258,-524.809 377.388,-513.396 385.503,-503.252"/>
<polygon fill="midnightblue" stroke="midnightblue" points="388.478,-505.136 391.992,-495.141 383.012,-500.763 388.478,-505.136"/>
</g>
<!-- Node4 -->
<g id="node4" class="node"><title>Node4</title>
<polygon fill="white" stroke="#bfbfbf" points="680.305,-334.5 680.305,-353.5 736.305,-353.5 736.305,-334.5 680.305,-334.5"/>
<text text-anchor="middle" x="708.305" y="-341.5" font-family="Helvetica,sans-Serif" font-size="10.00">algorithm</text>
</g>
<!-- Node3&#45;&gt;Node4 -->
<g id="edge3" class="edge"><title>Node3&#45;&gt;Node4</title>
<path fill="none" stroke="midnightblue" d="M457.321,-474.131C524.437,-467.143 634.064,-452.355 666.305,-428 687.408,-412.058 698.699,-382.546 704.096,-363.35"/>
<polygon fill="midnightblue" stroke="midnightblue" points="707.488,-364.213 706.567,-353.659 700.705,-362.484 707.488,-364.213"/>
</g>
<!-- Node5 -->
<g id="node5" class="node"><title>Node5</title>
<polygon fill="white" stroke="#bfbfbf" points="30.3047,-402.5 30.3047,-421.5 76.3047,-421.5 76.3047,-402.5 30.3047,-402.5"/>
<text text-anchor="middle" x="53.3047" y="-409.5" font-family="Helvetica,sans-Serif" font-size="10.00">cstring</text>
</g>
<!-- Node3&#45;&gt;Node5 -->
<g id="edge4" class="edge"><title>Node3&#45;&gt;Node5</title>
<path fill="none" stroke="midnightblue" d="M349.253,-465.984C345.893,-465.283 342.557,-464.615 339.305,-464 229.435,-443.223 198.237,-457.218 90.3047,-428 87.3232,-427.193 84.2586,-426.212 81.23,-425.143"/>
<polygon fill="midnightblue" stroke="midnightblue" points="82.4151,-421.849 71.8251,-421.529 79.9043,-428.383 82.4151,-421.849"/>
</g>
<!-- Node6 -->
<g id="node6" class="node"><title>Node6</title>
<polygon fill="white" stroke="#bfbfbf" points="302.805,-198.5 302.805,-217.5 361.805,-217.5 361.805,-198.5 302.805,-198.5"/>
<text text-anchor="middle" x="332.305" y="-205.5" font-family="Helvetica,sans-Serif" font-size="10.00">functional</text>
</g>
<!-- Node3&#45;&gt;Node6 -->
<g id="edge5" class="edge"><title>Node3&#45;&gt;Node6</title>
<path fill="none" stroke="midnightblue" d="M349.144,-465.061C308.471,-454.094 256.601,-438.895 237.305,-428 197.836,-405.716 179.805,-401.377 161.305,-360 130.971,-292.155 236.978,-242.641 295.752,-221.037"/>
<polygon fill="midnightblue" stroke="midnightblue" points="297.207,-224.234 305.443,-217.569 294.848,-217.643 297.207,-224.234"/>
</g>
<!-- Node7 -->
<g id="node7" class="node"><title>Node7</title>
<polygon fill="white" stroke="#bfbfbf" points="1166.8,-198.5 1166.8,-217.5 1213.8,-217.5 1213.8,-198.5 1166.8,-198.5"/>
<text text-anchor="middle" x="1190.3" y="-205.5" font-family="Helvetica,sans-Serif" font-size="10.00">iterator</text>
</g>
<!-- Node3&#45;&gt;Node7 -->
<g id="edge6" class="edge"><title>Node3&#45;&gt;Node7</title>
<path fill="none" stroke="midnightblue" d="M457.577,-475.529C557.528,-468.654 766.749,-451.876 835.305,-428 907.982,-402.689 1104.69,-268.443 1169.37,-223.599"/>
<polygon fill="midnightblue" stroke="midnightblue" points="1171.71,-226.235 1177.93,-217.655 1167.72,-220.487 1171.71,-226.235"/>
</g>
<!-- Node8 -->
<g id="node8" class="node"><title>Node8</title>
<polygon fill="white" stroke="#bfbfbf" points="329.305,-130.5 329.305,-149.5 381.305,-149.5 381.305,-130.5 329.305,-130.5"/>
<text text-anchor="middle" x="355.305" y="-137.5" font-family="Helvetica,sans-Serif" font-size="10.00">memory</text>
</g>
<!-- Node3&#45;&gt;Node8 -->
<g id="edge7" class="edge"><title>Node3&#45;&gt;Node8</title>
<path fill="none" stroke="midnightblue" d="M349.275,-465.866C345.909,-465.194 342.566,-464.565 339.305,-464 269.23,-451.865 74.3359,-475.386 21.3047,-428 -6.9141,-402.785 2.3047,-382.843 2.3047,-345 2.3047,-345 2.3047,-345 2.3047,-275 2.3047,-207.767 228.949,-162.244 319.026,-146.807"/>
<polygon fill="midnightblue" stroke="midnightblue" points="319.782,-150.229 329.061,-145.115 318.618,-143.326 319.782,-150.229"/>
</g>
<!-- Node9 -->
<g id="node9" class="node"><title>Node9</title>
<polygon fill="white" stroke="#bfbfbf" points="170.305,-334.5 170.305,-353.5 208.305,-353.5 208.305,-334.5 170.305,-334.5"/>
<text text-anchor="middle" x="189.305" y="-341.5" font-family="Helvetica,sans-Serif" font-size="10.00">tuple</text>
</g>
<!-- Node3&#45;&gt;Node9 -->
<g id="edge8" class="edge"><title>Node3&#45;&gt;Node9</title>
<path fill="none" stroke="midnightblue" d="M360.062,-464.988C335.909,-456.183 305.832,-443.548 281.305,-428 251.054,-408.824 221.236,-379.482 204.084,-361.309"/>
<polygon fill="midnightblue" stroke="midnightblue" points="206.506,-358.773 197.139,-353.822 201.374,-363.534 206.506,-358.773"/>
</g>
<!-- Node10 -->
<g id="node10" class="node"><title>Node10</title>
<polygon fill="white" stroke="#bfbfbf" points="206.305,-198.5 206.305,-217.5 246.305,-217.5 246.305,-198.5 206.305,-198.5"/>
<text text-anchor="middle" x="226.305" y="-205.5" font-family="Helvetica,sans-Serif" font-size="10.00">utility</text>
</g>
<!-- Node3&#45;&gt;Node10 -->
<g id="edge9" class="edge"><title>Node3&#45;&gt;Node10</title>
<path fill="none" stroke="midnightblue" d="M349.187,-466.297C345.844,-465.518 342.529,-464.747 339.305,-464 269.566,-447.832 237.501,-473.588 182.305,-428 146.528,-398.451 139.563,-372.618 152.305,-328 163.871,-287.496 193.643,-247.345 211.702,-225.599"/>
<polygon fill="midnightblue" stroke="midnightblue" points="214.605,-227.589 218.422,-217.705 209.275,-223.051 214.605,-227.589"/>
</g>
<!-- Node11 -->
<g id="node11" class="node"><title>Node11</title>
<polygon fill="white" stroke="#bfbfbf" points="380.305,-198.5 380.305,-217.5 424.305,-217.5 424.305,-198.5 380.305,-198.5"/>
<text text-anchor="middle" x="402.305" y="-205.5" font-family="Helvetica,sans-Serif" font-size="10.00">vector</text>
</g>
<!-- Node3&#45;&gt;Node11 -->
<g id="edge10" class="edge"><title>Node3&#45;&gt;Node11</title>
<path fill="none" stroke="midnightblue" d="M412.605,-464.896C418.668,-454.989 426.193,-441.2 430.305,-428 452.614,-356.39 472.44,-330.304 446.305,-260 441.211,-246.299 430.601,-233.818 421.077,-224.633"/>
<polygon fill="midnightblue" stroke="midnightblue" points="423.234,-221.865 413.476,-217.738 418.531,-227.049 423.234,-221.865"/>
</g>
<!-- Node12 -->
<g id="node12" class="node"><title>Node12</title>
<g id="a_node12"><a xlink:href="abstract__data__structure_8h.html" target="_top" xlink:title="shad/data_structures\l/abstract_data_structure.h">
<polygon fill="white" stroke="black" points="290.805,-397 290.805,-427 421.805,-427 421.805,-397 290.805,-397"/>
<text text-anchor="start" x="298.805" y="-415" font-family="Helvetica,sans-Serif" font-size="10.00">shad/data_structures</text>
<text text-anchor="middle" x="356.305" y="-404" font-family="Helvetica,sans-Serif" font-size="10.00">/abstract_data_structure.h</text>
</a>
</g>
</g>
<!-- Node3&#45;&gt;Node12 -->
<g id="edge11" class="edge"><title>Node3&#45;&gt;Node12</title>
<path fill="none" stroke="midnightblue" d="M393.106,-464.679C387.071,-456.203 379.289,-445.276 372.437,-435.655"/>
<polygon fill="midnightblue" stroke="midnightblue" points="375.135,-433.408 366.483,-427.293 369.433,-437.469 375.135,-433.408"/>
</g>
<!-- Node17 -->
<g id="node17" class="node"><title>Node17</title>
<g id="a_node17"><a xlink:href="runtime_8h.html" target="_top" xlink:title="shad/runtime/runtime.h">
<polygon fill="white" stroke="black" points="702.305,-266.5 702.305,-285.5 818.305,-285.5 818.305,-266.5 702.305,-266.5"/>
<text text-anchor="middle" x="760.305" y="-273.5" font-family="Helvetica,sans-Serif" font-size="10.00">shad/runtime/runtime.h</text>
</a>
</g>
</g>
<!-- Node3&#45;&gt;Node17 -->
<g id="edge65" class="edge"><title>Node3&#45;&gt;Node17</title>
<path fill="none" stroke="midnightblue" d="M435.813,-464.965C481.552,-444.61 566.749,-404.436 633.305,-360 651.668,-347.74 653.209,-340.651 671.305,-328 691.688,-313.75 716.319,-299.87 734.496,-290.197"/>
<polygon fill="midnightblue" stroke="midnightblue" points="736.132,-293.291 743.357,-285.542 732.877,-287.094 736.132,-293.291"/>
</g>
<!-- Node33 -->
<g id="node33" class="node"><title>Node33</title>
<g id="a_node33"><a xlink:href="buffer_8h.html" target="_top" xlink:title="shad/data_structures\l/buffer.h">
<polygon fill="white" stroke="black" points="718.305,-397 718.305,-427 826.305,-427 826.305,-397 718.305,-397"/>
<text text-anchor="start" x="726.305" y="-415" font-family="Helvetica,sans-Serif" font-size="10.00">shad/data_structures</text>
<text text-anchor="middle" x="772.305" y="-404" font-family="Helvetica,sans-Serif" font-size="10.00">/buffer.h</text>
</a>
</g>
</g>
<!-- Node3&#45;&gt;Node33 -->
<g id="edge55" class="edge"><title>Node3&#45;&gt;Node33</title>
<path fill="none" stroke="midnightblue" d="M457.553,-470.633C517.934,-461.129 618.337,-444.754 704.305,-428 705.573,-427.753 706.854,-427.5 708.144,-427.243"/>
<polygon fill="midnightblue" stroke="midnightblue" points="709.068,-430.627 718.164,-425.195 707.666,-423.768 709.068,-430.627"/>
</g>
<!-- Node35 -->
<g id="node35" class="node"><title>Node35</title>
<g id="a_node35"><a xlink:href="distributed__iterator__traits_8h.html" target="_top" xlink:title="shad/distributed_iterator\l_traits.h">
<polygon fill="white" stroke="black" points="1129.8,-261 1129.8,-291 1250.8,-291 1250.8,-261 1129.8,-261"/>
<text text-anchor="start" x="1137.8" y="-279" font-family="Helvetica,sans-Serif" font-size="10.00">shad/distributed_iterator</text>
<text text-anchor="middle" x="1190.3" y="-268" font-family="Helvetica,sans-Serif" font-size="10.00">_traits.h</text>
</a>
</g>
</g>
<!-- Node3&#45;&gt;Node35 -->
<g id="edge62" class="edge"><title>Node3&#45;&gt;Node35</title>
<path fill="none" stroke="midnightblue" d="M457.509,-479.206C590.633,-478.986 930.225,-473.81 1032.3,-428 1095.86,-399.479 1149.52,-334.204 1174.79,-299.561"/>
<polygon fill="midnightblue" stroke="midnightblue" points="1177.9,-301.226 1180.87,-291.055 1172.21,-297.154 1177.9,-301.226"/>
</g>
<!-- Node12&#45;&gt;Node8 -->
<g id="edge14" class="edge"><title>Node12&#45;&gt;Node8</title>
<path fill="none" stroke="midnightblue" d="M349.636,-396.878C330.095,-354.633 275.438,-229.831 293.305,-192 300.752,-176.231 315.731,-163.693 329.1,-154.995"/>
<polygon fill="midnightblue" stroke="midnightblue" points="331.258,-157.779 337.985,-149.594 327.622,-151.797 331.258,-157.779"/>
</g>
<!-- Node12&#45;&gt;Node9 -->
<g id="edge15" class="edge"><title>Node12&#45;&gt;Node9</title>
<path fill="none" stroke="midnightblue" d="M317.348,-396.911C290.47,-387.01 254.008,-373.223 222.305,-360 220.667,-359.317 218.991,-358.603 217.303,-357.872"/>
<polygon fill="midnightblue" stroke="midnightblue" points="218.275,-354.475 207.715,-353.616 215.435,-360.872 218.275,-354.475"/>
</g>
<!-- Node12&#45;&gt;Node10 -->
<g id="edge16" class="edge"><title>Node12&#45;&gt;Node10</title>
<path fill="none" stroke="midnightblue" d="M307.923,-396.986C288.799,-389.089 268.321,-377.248 255.305,-360 225.362,-320.322 223.636,-258.474 224.919,-227.701"/>
<polygon fill="midnightblue" stroke="midnightblue" points="228.424,-227.725 225.506,-217.54 221.435,-227.321 228.424,-227.725"/>
</g>
<!-- Node12&#45;&gt;Node11 -->
<g id="edge17" class="edge"><title>Node12&#45;&gt;Node11</title>
<path fill="none" stroke="midnightblue" d="M359.027,-396.781C364.23,-369.936 376.156,-309.996 388.305,-260 390.951,-249.109 394.257,-237.01 396.991,-227.33"/>
<polygon fill="midnightblue" stroke="midnightblue" points="400.383,-228.2 399.77,-217.622 393.653,-226.273 400.383,-228.2"/>
</g>
<!-- Node13 -->
<g id="node13" class="node"><title>Node13</title>
<polygon fill="white" stroke="#bfbfbf" points="264.805,-334.5 264.805,-353.5 307.805,-353.5 307.805,-334.5 264.805,-334.5"/>
<text text-anchor="middle" x="286.305" y="-341.5" font-family="Helvetica,sans-Serif" font-size="10.00">deque</text>
</g>
<!-- Node12&#45;&gt;Node13 -->
<g id="edge12" class="edge"><title>Node12&#45;&gt;Node13</title>
<path fill="none" stroke="midnightblue" d="M341.116,-396.679C329.877,-386.082 314.575,-371.655 302.995,-360.736"/>
<polygon fill="midnightblue" stroke="midnightblue" points="305.345,-358.142 295.668,-353.828 300.543,-363.235 305.345,-358.142"/>
</g>
<!-- Node14 -->
<g id="node14" class="node"><title>Node14</title>
<polygon fill="white" stroke="#bfbfbf" points="397.305,-266.5 397.305,-285.5 437.305,-285.5 437.305,-266.5 397.305,-266.5"/>
<text text-anchor="middle" x="417.305" y="-273.5" font-family="Helvetica,sans-Serif" font-size="10.00">limits</text>
</g>
<!-- Node12&#45;&gt;Node14 -->
<g id="edge13" class="edge"><title>Node12&#45;&gt;Node14</title>
<path fill="none" stroke="midnightblue" d="M366.449,-396.768C373.243,-386.804 382.053,-373 388.305,-360 398.507,-338.786 406.941,-313.01 412.035,-295.867"/>
<polygon fill="midnightblue" stroke="midnightblue" points="415.478,-296.562 414.886,-285.983 408.752,-294.622 415.478,-296.562"/>
</g>
<!-- Node15 -->
<g id="node15" class="node"><title>Node15</title>
<g id="a_node15"><a xlink:href="object__identifier_8h.html" target="_top" xlink:title="shad/data_structures\l/object_identifier.h">
<polygon fill="white" stroke="black" points="516.305,-329 516.305,-359 624.305,-359 624.305,-329 516.305,-329"/>
<text text-anchor="start" x="524.305" y="-347" font-family="Helvetica,sans-Serif" font-size="10.00">shad/data_structures</text>
<text text-anchor="middle" x="570.305" y="-336" font-family="Helvetica,sans-Serif" font-size="10.00">/object_identifier.h</text>
</a>
</g>
</g>
<!-- Node12&#45;&gt;Node15 -->
<g id="edge18" class="edge"><title>Node12&#45;&gt;Node15</title>
<path fill="none" stroke="midnightblue" d="M401.951,-396.922C435.051,-386.714 479.982,-372.857 515.102,-362.025"/>
<polygon fill="midnightblue" stroke="midnightblue" points="516.205,-365.348 524.729,-359.056 514.142,-358.659 516.205,-365.348"/>
</g>
<!-- Node12&#45;&gt;Node17 -->
<g id="edge54" class="edge"><title>Node12&#45;&gt;Node17</title>
<path fill="none" stroke="midnightblue" d="M377.324,-396.733C405.631,-378.169 458.142,-345.988 507.305,-328 567.859,-305.844 640.281,-292.482 692.093,-285.028"/>
<polygon fill="midnightblue" stroke="midnightblue" points="692.754,-288.469 702.171,-283.615 691.782,-281.537 692.754,-288.469"/>
</g>
<!-- Node15&#45;&gt;Node14 -->
<g id="edge20" class="edge"><title>Node15&#45;&gt;Node14</title>
<path fill="none" stroke="midnightblue" d="M537.482,-328.841C510.543,-317.221 472.737,-300.912 446.76,-289.706"/>
<polygon fill="midnightblue" stroke="midnightblue" points="447.999,-286.429 437.431,-285.682 445.227,-292.857 447.999,-286.429"/>
</g>
<!-- Node16 -->
<g id="node16" class="node"><title>Node16</title>
<polygon fill="white" stroke="#bfbfbf" points="849.305,-266.5 849.305,-285.5 895.305,-285.5 895.305,-266.5 849.305,-266.5"/>
<text text-anchor="middle" x="872.305" y="-273.5" font-family="Helvetica,sans-Serif" font-size="10.00">atomic</text>
</g>
<!-- Node15&#45;&gt;Node16 -->
<g id="edge19" class="edge"><title>Node15&#45;&gt;Node16</title>
<path fill="none" stroke="midnightblue" d="M624.667,-334.098C676.783,-325.112 757.473,-310.011 826.305,-292 830.51,-290.9 834.895,-289.631 839.215,-288.307"/>
<polygon fill="midnightblue" stroke="midnightblue" points="840.595,-291.541 849.062,-285.172 838.472,-284.871 840.595,-291.541"/>
</g>
<!-- Node15&#45;&gt;Node17 -->
<g id="edge21" class="edge"><title>Node15&#45;&gt;Node17</title>
<path fill="none" stroke="midnightblue" d="M611.064,-328.841C645.354,-316.93 693.822,-300.094 726.116,-288.876"/>
<polygon fill="midnightblue" stroke="midnightblue" points="727.287,-292.174 735.585,-285.587 724.99,-285.562 727.287,-292.174"/>
</g>
<!-- Node17&#45;&gt;Node6 -->
<g id="edge24" class="edge"><title>Node17&#45;&gt;Node6</title>
<path fill="none" stroke="midnightblue" d="M702.156,-271.682C625.396,-266.329 486.502,-253.264 371.305,-224 368.07,-223.178 364.739,-222.168 361.45,-221.063"/>
<polygon fill="midnightblue" stroke="midnightblue" points="362.444,-217.699 351.85,-217.558 360.043,-224.275 362.444,-217.699"/>
</g>
<!-- Node17&#45;&gt;Node7 -->
<g id="edge26" class="edge"><title>Node17&#45;&gt;Node7</title>
<path fill="none" stroke="midnightblue" d="M802.974,-266.423C815.016,-264.16 828.149,-261.839 840.305,-260 978.322,-239.125 1016.9,-257.914 1152.3,-224 1155.37,-223.232 1158.52,-222.277 1161.63,-221.223"/>
<polygon fill="midnightblue" stroke="midnightblue" points="1163.14,-224.396 1171.29,-217.629 1160.7,-217.836 1163.14,-224.396"/>
</g>
<!-- Node17&#45;&gt;Node8 -->
<g id="edge28" class="edge"><title>Node17&#45;&gt;Node8</title>
<path fill="none" stroke="midnightblue" d="M720.746,-266.483C710.218,-264.292 698.844,-261.992 688.305,-260 594.396,-242.251 564.387,-261.085 476.305,-224 454.019,-214.617 452.167,-205.791 432.305,-192 413.918,-179.234 392.687,-165.225 377.181,-155.125"/>
<polygon fill="midnightblue" stroke="midnightblue" points="379.071,-152.179 368.778,-149.669 375.259,-158.05 379.071,-152.179"/>
</g>
<!-- Node17&#45;&gt;Node10 -->
<g id="edge31" class="edge"><title>Node17&#45;&gt;Node10</title>
<path fill="none" stroke="midnightblue" d="M702.141,-270.744C613.519,-263.788 439.536,-248.276 293.305,-224 281.151,-221.982 267.889,-219.149 256.396,-216.487"/>
<polygon fill="midnightblue" stroke="midnightblue" points="256.958,-213.023 246.42,-214.119 255.341,-219.834 256.958,-213.023"/>
</g>
<!-- Node17&#45;&gt;Node11 -->
<g id="edge32" class="edge"><title>Node17&#45;&gt;Node11</title>
<path fill="none" stroke="midnightblue" d="M721.529,-266.459C710.793,-264.221 699.119,-261.903 688.305,-260 577.747,-240.543 546.528,-253.824 438.305,-224 435.49,-223.224 432.602,-222.284 429.745,-221.257"/>
<polygon fill="midnightblue" stroke="midnightblue" points="430.892,-217.947 420.304,-217.543 428.329,-224.461 430.892,-217.947"/>
</g>
<!-- Node18 -->
<g id="node18" class="node"><title>Node18</title>
<polygon fill="white" stroke="#bfbfbf" points="663.805,-130.5 663.805,-149.5 712.805,-149.5 712.805,-130.5 663.805,-130.5"/>
<text text-anchor="middle" x="688.305" y="-137.5" font-family="Helvetica,sans-Serif" font-size="10.00">cstddef</text>
</g>
<!-- Node17&#45;&gt;Node18 -->
<g id="edge22" class="edge"><title>Node17&#45;&gt;Node18</title>
<path fill="none" stroke="midnightblue" d="M731.589,-266.409C711.63,-258.767 686.504,-245.418 674.305,-224 662.757,-203.726 671.059,-176.455 678.943,-158.802"/>
<polygon fill="midnightblue" stroke="midnightblue" points="682.17,-160.17 683.384,-149.645 675.871,-157.116 682.17,-160.17"/>
</g>
<!-- Node19 -->
<g id="node19" class="node"><title>Node19</title>
<polygon fill="white" stroke="#bfbfbf" points="819.305,-62.5 819.305,-81.5 865.305,-81.5 865.305,-62.5 819.305,-62.5"/>
<text text-anchor="middle" x="842.305" y="-69.5" font-family="Helvetica,sans-Serif" font-size="10.00">cstdint</text>
</g>
<!-- Node17&#45;&gt;Node19 -->
<g id="edge23" class="edge"><title>Node17&#45;&gt;Node19</title>
<path fill="none" stroke="midnightblue" d="M776.462,-266.434C791.033,-257.787 811.746,-243.007 822.305,-224 845.998,-181.348 845.928,-121.739 844.04,-91.7724"/>
<polygon fill="midnightblue" stroke="midnightblue" points="847.507,-91.2138 843.244,-81.5147 840.528,-91.7556 847.507,-91.2138"/>
</g>
<!-- Node20 -->
<g id="node20" class="node"><title>Node20</title>
<polygon fill="white" stroke="#bfbfbf" points="518.305,-198.5 518.305,-217.5 572.305,-217.5 572.305,-198.5 518.305,-198.5"/>
<text text-anchor="middle" x="545.305" y="-205.5" font-family="Helvetica,sans-Serif" font-size="10.00">iostream</text>
</g>
<!-- Node17&#45;&gt;Node20 -->
<g id="edge25" class="edge"><title>Node17&#45;&gt;Node20</title>
<path fill="none" stroke="midnightblue" d="M725.95,-266.492C689.638,-257.202 630.874,-241.322 581.305,-224 578.9,-223.16 576.424,-222.242 573.951,-221.289"/>
<polygon fill="midnightblue" stroke="midnightblue" points="575.158,-218.002 564.574,-217.518 572.546,-224.496 575.158,-218.002"/>
</g>
<!-- Node21 -->
<g id="node21" class="node"><title>Node21</title>
<polygon fill="white" stroke="#bfbfbf" points="590.805,-198.5 590.805,-217.5 625.805,-217.5 625.805,-198.5 590.805,-198.5"/>
<text text-anchor="middle" x="608.305" y="-205.5" font-family="Helvetica,sans-Serif" font-size="10.00">map</text>
</g>
<!-- Node17&#45;&gt;Node21 -->
<g id="edge27" class="edge"><title>Node17&#45;&gt;Node21</title>
<path fill="none" stroke="midnightblue" d="M739.393,-266.384C715.371,-256.424 674.821,-239.418 640.305,-224 638.687,-223.277 637.027,-222.527 635.355,-221.764"/>
<polygon fill="midnightblue" stroke="midnightblue" points="636.402,-218.392 625.857,-217.368 633.462,-224.745 636.402,-218.392"/>
</g>
<!-- Node22 -->
<g id="node22" class="node"><title>Node22</title>
<polygon fill="white" stroke="#bfbfbf" points="870.305,-198.5 870.305,-217.5 900.305,-217.5 900.305,-198.5 870.305,-198.5"/>
<text text-anchor="middle" x="885.305" y="-205.5" font-family="Helvetica,sans-Serif" font-size="10.00">set</text>
</g>
<!-- Node17&#45;&gt;Node22 -->
<g id="edge29" class="edge"><title>Node17&#45;&gt;Node22</title>
<path fill="none" stroke="midnightblue" d="M776.646,-266.372C798.146,-255.02 836.109,-234.975 860.987,-221.84"/>
<polygon fill="midnightblue" stroke="midnightblue" points="862.925,-224.775 870.133,-217.01 859.656,-218.585 862.925,-224.775"/>
</g>
<!-- Node23 -->
<g id="node23" class="node"><title>Node23</title>
<polygon fill="white" stroke="#bfbfbf" points="918.305,-198.5 918.305,-217.5 996.305,-217.5 996.305,-198.5 918.305,-198.5"/>
<text text-anchor="middle" x="957.305" y="-205.5" font-family="Helvetica,sans-Serif" font-size="10.00">unordered_set</text>
</g>
<!-- Node17&#45;&gt;Node23 -->
<g id="edge30" class="edge"><title>Node17&#45;&gt;Node23</title>
<path fill="none" stroke="midnightblue" d="M786.059,-266.372C820.887,-254.704 883.128,-233.851 922.21,-220.758"/>
<polygon fill="midnightblue" stroke="midnightblue" points="923.486,-224.021 931.856,-217.526 921.262,-217.384 923.486,-224.021"/>
</g>
<!-- Node24 -->
<g id="node24" class="node"><title>Node24</title>
<polygon fill="white" stroke="#bfbfbf" points="885.305,-0.5 885.305,-19.5 989.305,-19.5 989.305,-0.5 885.305,-0.5"/>
<text text-anchor="middle" x="937.305" y="-7.5" font-family="Helvetica,sans-Serif" font-size="10.00">shad/config/config.h</text>
</g>
<!-- Node17&#45;&gt;Node24 -->
<g id="edge33" class="edge"><title>Node17&#45;&gt;Node24</title>
<path fill="none" stroke="midnightblue" d="M702.098,-267.089C631.823,-256.947 521.475,-238.891 509.305,-224 500.305,-212.988 501.66,-203.993 509.305,-192 589.507,-66.1711 777.226,-27.682 875.241,-16.0101"/>
<polygon fill="midnightblue" stroke="midnightblue" points="875.759,-19.4738 885.301,-14.869 874.97,-12.5184 875.759,-19.4738"/>
</g>
<!-- Node25 -->
<g id="node25" class="node"><title>Node25</title>
<g id="a_node25"><a xlink:href="handle_8h.html" target="_top" xlink:title="shad/runtime/handle.h">
<polygon fill="white" stroke="black" points="1226.8,-130.5 1226.8,-149.5 1339.8,-149.5 1339.8,-130.5 1226.8,-130.5"/>
<text text-anchor="middle" x="1283.3" y="-137.5" font-family="Helvetica,sans-Serif" font-size="10.00">shad/runtime/handle.h</text>
</a>
</g>
</g>
<!-- Node17&#45;&gt;Node25 -->
<g id="edge34" class="edge"><title>Node17&#45;&gt;Node25</title>
<path fill="none" stroke="midnightblue" d="M803.412,-266.494C815.341,-264.255 828.306,-261.929 840.305,-260 958.961,-240.92 995.469,-265.37 1108.3,-224 1133.08,-214.918 1134.88,-204.145 1158.3,-192 1188.06,-176.57 1223.58,-162.463 1249.14,-153.017"/>
<polygon fill="midnightblue" stroke="midnightblue" points="1250.56,-156.225 1258.76,-149.509 1248.16,-149.649 1250.56,-156.225"/>
</g>
<!-- Node27 -->
<g id="node27" class="node"><title>Node27</title>
<g id="a_node27"><a xlink:href="mapping__traits_8h.html" target="_top" xlink:title="shad/runtime/mapping\l_traits.h">
<polygon fill="white" stroke="black" points="965.805,-57 965.805,-87 1078.8,-87 1078.8,-57 965.805,-57"/>
<text text-anchor="start" x="973.805" y="-75" font-family="Helvetica,sans-Serif" font-size="10.00">shad/runtime/mapping</text>
<text text-anchor="middle" x="1022.3" y="-64" font-family="Helvetica,sans-Serif" font-size="10.00">_traits.h</text>
</a>
</g>
</g>
<!-- Node17&#45;&gt;Node27 -->
<g id="edge46" class="edge"><title>Node17&#45;&gt;Node27</title>
<path fill="none" stroke="midnightblue" d="M805.813,-266.448C880.31,-252.407 1020.29,-225.83 1022.3,-224 1055.82,-193.488 1050.73,-168.536 1042.3,-124 1040.55,-114.731 1037.16,-104.988 1033.65,-96.5307"/>
<polygon fill="midnightblue" stroke="midnightblue" points="1036.82,-95.0362 1029.58,-87.2979 1030.41,-97.86 1036.82,-95.0362"/>
</g>
<!-- Node30 -->
<g id="node30" class="node"><title>Node30</title>
<g id="a_node30"><a xlink:href="locality_8h.html" target="_top" xlink:title="shad/runtime/locality.h">
<polygon fill="white" stroke="black" points="918.805,-130.5 918.805,-149.5 1033.8,-149.5 1033.8,-130.5 918.805,-130.5"/>
<text text-anchor="middle" x="976.305" y="-137.5" font-family="Helvetica,sans-Serif" font-size="10.00">shad/runtime/locality.h</text>
</a>
</g>
</g>
<!-- Node17&#45;&gt;Node30 -->
<g id="edge41" class="edge"><title>Node17&#45;&gt;Node30</title>
<path fill="none" stroke="midnightblue" d="M804.808,-266.47C874.572,-252.998 1002.12,-227.913 1005.3,-224 1021.2,-204.461 1004.55,-175.629 990.717,-157.6"/>
<polygon fill="midnightblue" stroke="midnightblue" points="993.325,-155.26 984.303,-149.706 987.892,-159.674 993.325,-155.26"/>
</g>
<!-- Node31 -->
<g id="node31" class="node"><title>Node31</title>
<g id="a_node31"><a xlink:href="available__mappings_8h.html" target="_top" xlink:title="shad/runtime/mappings\l/available_mappings.h">
<polygon fill="white" stroke="black" points="1090.3,-125 1090.3,-155 1208.3,-155 1208.3,-125 1090.3,-125"/>
<text text-anchor="start" x="1098.3" y="-143" font-family="Helvetica,sans-Serif" font-size="10.00">shad/runtime/mappings</text>
<text text-anchor="middle" x="1149.3" y="-132" font-family="Helvetica,sans-Serif" font-size="10.00">/available_mappings.h</text>
</a>
</g>
</g>
<!-- Node17&#45;&gt;Node31 -->
<g id="edge47" class="edge"><title>Node17&#45;&gt;Node31</title>
<path fill="none" stroke="midnightblue" d="M804.27,-266.479C815.967,-264.288 828.603,-261.989 840.305,-260 944.907,-242.221 983.211,-274.905 1076.3,-224 1102.03,-209.932 1123.05,-183.088 1135.82,-163.731"/>
<polygon fill="midnightblue" stroke="midnightblue" points="1138.85,-165.496 1141.25,-155.178 1132.94,-161.744 1138.85,-165.496"/>
</g>
<!-- Node32 -->
<g id="node32" class="node"><title>Node32</title>
<g id="a_node32"><a xlink:href="synchronous__interface_8h.html" target="_top" xlink:title="shad/runtime/synchronous\l_interface.h">
<polygon fill="white" stroke="black" points="682.805,-193 682.805,-223 813.805,-223 813.805,-193 682.805,-193"/>
<text text-anchor="start" x="690.805" y="-211" font-family="Helvetica,sans-Serif" font-size="10.00">shad/runtime/synchronous</text>
<text text-anchor="middle" x="748.305" y="-200" font-family="Helvetica,sans-Serif" font-size="10.00">_interface.h</text>
</a>
</g>
</g>
<!-- Node17&#45;&gt;Node32 -->
<g id="edge49" class="edge"><title>Node17&#45;&gt;Node32</title>
<path fill="none" stroke="midnightblue" d="M758.736,-266.372C757.209,-257.971 754.816,-244.811 752.707,-233.213"/>
<polygon fill="midnightblue" stroke="midnightblue" points="756.116,-232.394 750.883,-223.181 749.229,-233.646 756.116,-232.394"/>
</g>
<!-- Node25&#45;&gt;Node24 -->
<g id="edge36" class="edge"><title>Node25&#45;&gt;Node24</title>
<path fill="none" stroke="midnightblue" d="M1282.18,-130.271C1279.46,-113.008 1270.83,-74.5701 1246.3,-56 1246.15,-55.8835 1089.65,-33.1316 999.46,-20.0282"/>
<polygon fill="midnightblue" stroke="midnightblue" points="999.74,-16.5323 989.34,-18.5581 998.733,-23.4595 999.74,-16.5323"/>
</g>
<!-- Node26 -->
<g id="node26" class="node"><title>Node26</title>
<polygon fill="white" stroke="#bfbfbf" points="1293.3,-62.5 1293.3,-81.5 1355.3,-81.5 1355.3,-62.5 1293.3,-62.5"/>
<text text-anchor="middle" x="1324.3" y="-69.5" font-family="Helvetica,sans-Serif" font-size="10.00">type_traits</text>
</g>
<!-- Node25&#45;&gt;Node26 -->
<g id="edge35" class="edge"><title>Node25&#45;&gt;Node26</title>
<path fill="none" stroke="midnightblue" d="M1288.66,-130.372C1294.89,-120.348 1305.33,-103.546 1313.3,-90.7076"/>
<polygon fill="midnightblue" stroke="midnightblue" points="1316.51,-92.1825 1318.81,-81.8411 1310.56,-88.4886 1316.51,-92.1825"/>
</g>
<!-- Node25&#45;&gt;Node27 -->
<g id="edge37" class="edge"><title>Node25&#45;&gt;Node27</title>
<path fill="none" stroke="midnightblue" d="M1249.45,-130.439C1208.63,-120.118 1139.12,-102.539 1087.71,-89.5404"/>
<polygon fill="midnightblue" stroke="midnightblue" points="1088.57,-86.1458 1078.01,-87.0873 1086.85,-92.9322 1088.57,-86.1458"/>
</g>
<!-- Node29 -->
<g id="node29" class="node"><title>Node29</title>
<g id="a_node29"><a xlink:href="available__traits__mappings_8h.html" target="_top" xlink:title="shad/runtime/mappings\l/available_traits_mappings.h">
<polygon fill="white" stroke="black" points="1097.3,-57 1097.3,-87 1237.3,-87 1237.3,-57 1097.3,-57"/>
<text text-anchor="start" x="1105.3" y="-75" font-family="Helvetica,sans-Serif" font-size="10.00">shad/runtime/mappings</text>
<text text-anchor="middle" x="1167.3" y="-64" font-family="Helvetica,sans-Serif" font-size="10.00">/available_traits_mappings.h</text>
</a>
</g>
</g>
<!-- Node25&#45;&gt;Node29 -->
<g id="edge40" class="edge"><title>Node25&#45;&gt;Node29</title>
<path fill="none" stroke="midnightblue" d="M1268.14,-130.372C1251.19,-120.729 1223.22,-104.812 1201.03,-92.1874"/>
<polygon fill="midnightblue" stroke="midnightblue" points="1202.65,-89.0847 1192.23,-87.1815 1199.19,-95.1688 1202.65,-89.0847"/>
</g>
<!-- Node27&#45;&gt;Node24 -->
<g id="edge39" class="edge"><title>Node27&#45;&gt;Node24</title>
<path fill="none" stroke="midnightblue" d="M1002.16,-56.7808C988.71,-47.2862 971.083,-34.8434 957.601,-25.3267"/>
<polygon fill="midnightblue" stroke="midnightblue" points="959.613,-22.4632 949.425,-19.5557 955.577,-28.182 959.613,-22.4632"/>
</g>
<!-- Node28 -->
<g id="node28" class="node"><title>Node28</title>
<polygon fill="white" stroke="#bfbfbf" points="1007.8,-0.5 1007.8,-19.5 1048.8,-19.5 1048.8,-0.5 1007.8,-0.5"/>
<text text-anchor="middle" x="1028.3" y="-7.5" font-family="Helvetica,sans-Serif" font-size="10.00">string</text>
</g>
<!-- Node27&#45;&gt;Node28 -->
<g id="edge38" class="edge"><title>Node27&#45;&gt;Node28</title>
<path fill="none" stroke="midnightblue" d="M1023.73,-56.7808C1024.54,-48.6913 1025.56,-38.4617 1026.43,-29.725"/>
<polygon fill="midnightblue" stroke="midnightblue" points="1029.92,-30.0292 1027.43,-19.7305 1022.95,-29.3326 1029.92,-30.0292"/>
</g>
<!-- Node30&#45;&gt;Node19 -->
<g id="edge42" class="edge"><title>Node30&#45;&gt;Node19</title>
<path fill="none" stroke="midnightblue" d="M958.787,-130.372C935.914,-119.106 895.66,-99.2794 868.984,-86.1403"/>
<polygon fill="midnightblue" stroke="midnightblue" points="870.345,-82.9092 859.827,-81.6305 867.252,-89.1888 870.345,-82.9092"/>
</g>
<!-- Node30&#45;&gt;Node24 -->
<g id="edge43" class="edge"><title>Node30&#45;&gt;Node24</title>
<path fill="none" stroke="midnightblue" d="M972.805,-130.431C968.768,-120.372 962.077,-103.139 957.305,-88 951.09,-68.2843 945.305,-45.302 941.573,-29.6122"/>
<polygon fill="midnightblue" stroke="midnightblue" points="944.923,-28.5691 939.241,-19.6273 938.107,-30.1613 944.923,-28.5691"/>
</g>
<!-- Node30&#45;&gt;Node27 -->
<g id="edge44" class="edge"><title>Node30&#45;&gt;Node27</title>
<path fill="none" stroke="midnightblue" d="M982.318,-130.372C988.472,-121.543 998.29,-107.456 1006.66,-95.4503"/>
<polygon fill="midnightblue" stroke="midnightblue" points="1009.57,-97.3867 1012.42,-87.1815 1003.83,-93.3842 1009.57,-97.3867"/>
</g>
<!-- Node30&#45;&gt;Node29 -->
<g id="edge45" class="edge"><title>Node30&#45;&gt;Node29</title>
<path fill="none" stroke="midnightblue" d="M1001.27,-130.372C1030.51,-120.268 1079.68,-103.277 1116.95,-90.4016"/>
<polygon fill="midnightblue" stroke="midnightblue" points="1118.32,-93.6304 1126.63,-87.0562 1116.03,-87.0142 1118.32,-93.6304"/>
</g>
<!-- Node31&#45;&gt;Node29 -->
<g id="edge48" class="edge"><title>Node31&#45;&gt;Node29</title>
<path fill="none" stroke="midnightblue" d="M1153.21,-124.679C1155.4,-116.636 1158.2,-106.385 1160.72,-97.1369"/>
<polygon fill="midnightblue" stroke="midnightblue" points="1164.15,-97.8616 1163.41,-87.2931 1157.4,-96.0198 1164.15,-97.8616"/>
</g>
<!-- Node32&#45;&gt;Node8 -->
<g id="edge52" class="edge"><title>Node32&#45;&gt;Node8</title>
<path fill="none" stroke="midnightblue" d="M682.525,-195.953C598.937,-181.915 457.593,-158.178 391.457,-147.071"/>
<polygon fill="midnightblue" stroke="midnightblue" points="391.95,-143.605 381.508,-145.401 390.79,-150.509 391.95,-143.605"/>
</g>
<!-- Node32&#45;&gt;Node18 -->
<g id="edge50" class="edge"><title>Node32&#45;&gt;Node18</title>
<path fill="none" stroke="midnightblue" d="M735.286,-192.679C725.838,-182.286 713.039,-168.208 703.187,-157.37"/>
<polygon fill="midnightblue" stroke="midnightblue" points="705.647,-154.873 696.33,-149.828 700.467,-159.582 705.647,-154.873"/>
</g>
<!-- Node32&#45;&gt;Node19 -->
<g id="edge51" class="edge"><title>Node32&#45;&gt;Node19</title>
<path fill="none" stroke="midnightblue" d="M758.364,-192.66C775.82,-167.777 811.638,-116.716 830.34,-90.0567"/>
<polygon fill="midnightblue" stroke="midnightblue" points="833.305,-91.9241 836.182,-81.7275 827.574,-87.9041 833.305,-91.9241"/>
</g>
<!-- Node32&#45;&gt;Node30 -->
<g id="edge53" class="edge"><title>Node32&#45;&gt;Node30</title>
<path fill="none" stroke="midnightblue" d="M796.937,-192.922C838.716,-180.828 898.187,-163.613 937.008,-152.375"/>
<polygon fill="midnightblue" stroke="midnightblue" points="938.261,-155.656 946.894,-149.514 936.315,-148.932 938.261,-155.656"/>
</g>
<!-- Node33&#45;&gt;Node4 -->
<g id="edge56" class="edge"><title>Node33&#45;&gt;Node4</title>
<path fill="none" stroke="midnightblue" d="M758.418,-396.679C748.241,-386.184 734.42,-371.932 723.87,-361.052"/>
<polygon fill="midnightblue" stroke="midnightblue" points="726.34,-358.571 716.865,-353.828 721.314,-363.444 726.34,-358.571"/>
</g>
<!-- Node33&#45;&gt;Node11 -->
<g id="edge59" class="edge"><title>Node33&#45;&gt;Node11</title>
<path fill="none" stroke="midnightblue" d="M771.342,-396.961C769.342,-378.65 763.193,-346.749 744.305,-328 691.837,-275.919 495.789,-254.186 428.305,-224 427.282,-223.543 426.248,-223.056 425.211,-222.549"/>
<polygon fill="midnightblue" stroke="midnightblue" points="426.528,-219.283 416.061,-217.638 423.217,-225.451 426.528,-219.283"/>
</g>
<!-- Node33&#45;&gt;Node15 -->
<g id="edge60" class="edge"><title>Node33&#45;&gt;Node15</title>
<path fill="none" stroke="midnightblue" d="M728.971,-396.841C697.978,-386.715 656.092,-373.03 623.138,-362.262"/>
<polygon fill="midnightblue" stroke="midnightblue" points="623.812,-358.801 613.22,-359.022 621.638,-365.455 623.812,-358.801"/>
</g>
<!-- Node33&#45;&gt;Node16 -->
<g id="edge58" class="edge"><title>Node33&#45;&gt;Node16</title>
<path fill="none" stroke="midnightblue" d="M826.467,-397.744C845.945,-390.082 865.906,-378.208 877.305,-360 889.541,-340.453 884.559,-312.981 879.083,-295.086"/>
<polygon fill="midnightblue" stroke="midnightblue" points="882.378,-293.904 875.843,-285.564 875.751,-296.158 882.378,-293.904"/>
</g>
<!-- Node33&#45;&gt;Node17 -->
<g id="edge61" class="edge"><title>Node33&#45;&gt;Node17</title>
<path fill="none" stroke="midnightblue" d="M775.397,-396.8C778.538,-380.192 782.403,-351.923 778.305,-328 776.372,-316.718 772.198,-304.616 768.356,-295.033"/>
<polygon fill="midnightblue" stroke="midnightblue" points="771.561,-293.626 764.439,-285.782 765.115,-296.355 771.561,-293.626"/>
</g>
<!-- Node34 -->
<g id="node34" class="node"><title>Node34</title>
<polygon fill="white" stroke="#bfbfbf" points="830.305,-334.5 830.305,-353.5 868.305,-353.5 868.305,-334.5 830.305,-334.5"/>
<text text-anchor="middle" x="849.305" y="-341.5" font-family="Helvetica,sans-Serif" font-size="10.00">array</text>
</g>
<!-- Node33&#45;&gt;Node34 -->
<g id="edge57" class="edge"><title>Node33&#45;&gt;Node34</title>
<path fill="none" stroke="midnightblue" d="M789.013,-396.679C801.494,-385.981 818.532,-371.377 831.312,-360.422"/>
<polygon fill="midnightblue" stroke="midnightblue" points="833.69,-362.994 839.005,-353.828 829.135,-357.679 833.69,-362.994"/>
</g>
<!-- Node35&#45;&gt;Node7 -->
<g id="edge63" class="edge"><title>Node35&#45;&gt;Node7</title>
<path fill="none" stroke="midnightblue" d="M1190.3,-260.679C1190.3,-251.101 1190.3,-238.394 1190.3,-227.977"/>
<polygon fill="midnightblue" stroke="midnightblue" points="1193.8,-227.828 1190.3,-217.828 1186.8,-227.828 1193.8,-227.828"/>
</g>
<!-- Node35&#45;&gt;Node30 -->
<g id="edge64" class="edge"><title>Node35&#45;&gt;Node30</title>
<path fill="none" stroke="midnightblue" d="M1203.8,-260.71C1218.86,-242.987 1239.07,-212.601 1222.3,-192 1210.99,-178.096 1112.74,-161.015 1043.89,-150.573"/>
<polygon fill="midnightblue" stroke="midnightblue" points="1044.37,-147.106 1033.96,-149.082 1043.33,-154.028 1044.37,-147.106"/>
</g>
</g>
</svg>
