<?xml version="1.0" encoding="UTF-8" standalone="no"?>
<!DOCTYPE svg PUBLIC "-//W3C//DTD SVG 1.1//EN"
 "http://www.w3.org/Graphics/SVG/1.1/DTD/svg11.dtd">
<!-- Generated by graphviz version 2.36.0 (20140111.2315)
 -->
<!-- Title: include/shad/core Pages: 1 -->
<svg width="128pt" height="223pt"
 viewBox="0.00 0.00 128.00 223.00" xmlns="http://www.w3.org/2000/svg" xmlns:xlink="http://www.w3.org/1999/xlink">
<g id="graph0" class="graph" transform="scale(1 1) rotate(0) translate(4 219)">
<title>include/shad/core</title>
<polygon fill="white" stroke="none" points="-4,4 -4,-219 124,-219 124,4 -4,4"/>
<g id="clust1" class="cluster"><title>clusterdir_9f4b75f0797092e60f89150fa08197c6</title>
<g id="a_clust1"><a xlink:href="dir_9f4b75f0797092e60f89150fa08197c6.html" target="_top" xlink:title="shad">
<polygon fill="#ddddee" stroke="black" points="42,-136 42,-207 112,-207 112,-136 42,-136"/>
<text text-anchor="middle" x="77" y="-195" font-family="Helvetica,sans-Serif" font-size="10.00">shad</text>
</a>
</g>
</g>
<!-- dir_f5647c7144d69c9861b4540b4c743c40 -->
<g id="node1" class="node"><title>dir_f5647c7144d69c9861b4540b4c743c40</title>
<g id="a_node1"><a xlink:href="dir_f5647c7144d69c9861b4540b4c743c40.html" target="_top" xlink:title="core">
<polygon fill="#eeeeff" stroke="black" points="104,-180 50,-180 50,-144 104,-144 104,-180"/>
<text text-anchor="middle" x="77" y="-159.5" font-family="Helvetica,sans-Serif" font-size="10.00">core</text>
</a>
</g>
</g>
<!-- dir_d92486b4c1fe4d8b6a38d0915b7a9263 -->
<g id="node2" class="node"><title>dir_d92486b4c1fe4d8b6a38d0915b7a9263</title>
<g id="a_node2"><a xlink:href="dir_d92486b4c1fe4d8b6a38d0915b7a9263.html" target="_top" xlink:title="data_structures">
<polygon fill="none" stroke="black" points="83.5,-108 0.5,-108 0.5,-72 83.5,-72 83.5,-108"/>
<text text-anchor="middle" x="42" y="-87.5" font-family="Helvetica,sans-Serif" font-size="10.00">data_structures</text>
</a>
</g>
</g>
<!-- dir_f5647c7144d69c9861b4540b4c743c40&#45;&gt;dir_d92486b4c1fe4d8b6a38d0915b7a9263 -->
<g id="edge2" class="edge"><title>dir_f5647c7144d69c9861b4540b4c743c40&#45;&gt;dir_d92486b4c1fe4d8b6a38d0915b7a9263</title>
<path fill="none" stroke="black" d="M68.3483,-143.697C64.3642,-135.728 59.5498,-126.1 55.1321,-117.264"/>
<polygon fill="black" stroke="black" points="58.1549,-115.483 50.5522,-108.104 51.8939,-118.614 58.1549,-115.483"/>
<g id="a_edge2&#45;headlabel"><a xlink:href="dir_000002_000003.html" target="_top" xlink:title="5">
<text text-anchor="middle" x="62.3019" y="-114.929" font-family="Helvetica,sans-Serif" font-size="10.00">5</text>
</a>
</g>
</g>
<!-- dir_3f01395c42c30902c27ec001a70001a2 -->
<g id="node3" class="node"><title>dir_3f01395c42c30902c27ec001a70001a2</title>
<g id="a_node3"><a xlink:href="dir_3f01395c42c30902c27ec001a70001a2.html" target="_top" xlink:title="runtime">
<polygon fill="white" stroke="red" points="104,-36 50,-36 50,-0 104,-0 104,-36"/>
<text text-anchor="middle" x="77" y="-15.5" font-family="Helvetica,sans-Serif" font-size="10.00">runtime</text>
</a>
</g>
</g>
<!-- dir_f5647c7144d69c9861b4540b4c743c40&#45;&gt;dir_3f01395c42c30902c27ec001a70001a2 -->
<g id="edge3" class="edge"><title>dir_f5647c7144d69c9861b4540b4c743c40&#45;&gt;dir_3f01395c42c30902c27ec001a70001a2</title>
<path fill="none" stroke="black" d="M83.238,-143.593C86.5674,-133.374 90.3174,-120.124 92,-108 94.1995,-92.1519 94.1995,-87.8481 92,-72 90.8169,-63.4752 88.6117,-54.3938 86.2493,-46.2008"/>
<polygon fill="black" stroke="black" points="89.5224,-44.9366 83.238,-36.4069 82.8316,-46.9939 89.5224,-44.9366"/>
<g id="a_edge3&#45;headlabel"><a xlink:href="dir_000002_000007.html" target="_top" xlink:title="1">
<text text-anchor="middle" x="93.2927" y="-45.0381" font-family="Helvetica,sans-Serif" font-size="10.00">1</text>
</a>
</g>
</g>
<!-- dir_d92486b4c1fe4d8b6a38d0915b7a9263&#45;&gt;dir_3f01395c42c30902c27ec001a70001a2 -->
<g id="edge1" class="edge"><title>dir_d92486b4c1fe4d8b6a38d0915b7a9263&#45;&gt;dir_3f01395c42c30902c27ec001a70001a2</title>
<path fill="none" stroke="black" d="M50.6517,-71.6966C54.6358,-63.7284 59.4502,-54.0995 63.8679,-45.2641"/>
<polygon fill="black" stroke="black" points="67.1061,-46.6139 68.4478,-36.1043 60.8451,-43.4833 67.1061,-46.6139"/>
<g id="a_edge1&#45;headlabel"><a xlink:href="dir_000003_000007.html" target="_top" xlink:title="9">
<text text-anchor="middle" x="68.0382" y="-48.5987" font-family="Helvetica,sans-Serif" font-size="10.00">9</text>
</a>
</g>
</g>
</g>
</svg>
