<?xml version="1.0" encoding="UTF-8" standalone="no"?>
<!DOCTYPE svg PUBLIC "-//W3C//DTD SVG 1.1//EN"
 "http://www.w3.org/Graphics/SVG/1.1/DTD/svg11.dtd">
<!-- Generated by graphviz version 2.36.0 (20140111.2315)
 -->
<!-- Title: include/shad/extensions/graph_library Pages: 1 -->
<svg width="267pt" height="231pt"
 viewBox="0.00 0.00 267.00 231.00" xmlns="http://www.w3.org/2000/svg" xmlns:xlink="http://www.w3.org/1999/xlink">
<g id="graph0" class="graph" transform="scale(1 1) rotate(0) translate(4 227)">
<title>include/shad/extensions/graph_library</title>
<polygon fill="white" stroke="none" points="-4,4 -4,-227 263,-227 263,4 -4,4"/>
<g id="clust1" class="cluster"><title>clusterdir_dea2f706b1f92ede7ba14aef86aafb8a</title>
<g id="a_clust1"><a xlink:href="dir_dea2f706b1f92ede7ba14aef86aafb8a.html" target="_top" xlink:title="extensions">
<polygon fill="#ddddee" stroke="black" points="67,-128 67,-215 251,-215 251,-128 67,-128"/>
<text text-anchor="middle" x="159" y="-203" font-family="Helvetica,sans-Serif" font-size="10.00">extensions</text>
</a>
</g>
</g>
<g id="clust2" class="cluster"><title>clusterdir_2d63820c0214a26490d40db8b330e4e0</title>
<g id="a_clust2"><a xlink:href="dir_2d63820c0214a26490d40db8b330e4e0.html" target="_top">
<polygon fill="#eeeeff" stroke="black" points="75,-136 75,-188 243,-188 243,-136 75,-136"/>
</a>
</g>
</g>
<!-- dir_2d63820c0214a26490d40db8b330e4e0 -->
<g id="node1" class="node"><title>dir_2d63820c0214a26490d40db8b330e4e0</title>
<text text-anchor="middle" x="199" y="-159.5" font-family="Helvetica,sans-Serif" font-size="10.00">graph_library</text>
</g>
<!-- dir_0879289045080a2978c1db5aa4e6ac3b -->
<g id="node2" class="node"><title>dir_0879289045080a2978c1db5aa4e6ac3b</title>
<g id="a_node2"><a xlink:href="dir_0879289045080a2978c1db5aa4e6ac3b.html" target="_top" xlink:title="algorithms">
<polygon fill="white" stroke="black" points="144.5,-180 83.5,-180 83.5,-144 144.5,-144 144.5,-180"/>
<text text-anchor="middle" x="114" y="-159.5" font-family="Helvetica,sans-Serif" font-size="10.00">algorithms</text>
</a>
</g>
</g>
<!-- dir_02bf455e86be3bc2fdb7e1801475a796 -->
<g id="node3" class="node"><title>dir_02bf455e86be3bc2fdb7e1801475a796</title>
<g id="a_node3"><a xlink:href="dir_02bf455e86be3bc2fdb7e1801475a796.html" target="_top" xlink:title="util">
<polygon fill="none" stroke="black" points="54,-108 0,-108 0,-72 54,-72 54,-108"/>
<text text-anchor="middle" x="27" y="-87.5" font-family="Helvetica,sans-Serif" font-size="10.00">util</text>
</a>
</g>
</g>
<!-- dir_0879289045080a2978c1db5aa4e6ac3b&#45;&gt;dir_02bf455e86be3bc2fdb7e1801475a796 -->
<g id="edge2" class="edge"><title>dir_0879289045080a2978c1db5aa4e6ac3b&#45;&gt;dir_02bf455e86be3bc2fdb7e1801475a796</title>
<path fill="none" stroke="black" d="M92.4944,-143.697C81.5375,-134.881 68.0541,-124.032 56.1751,-114.474"/>
<polygon fill="black" stroke="black" points="58.2435,-111.646 48.2582,-108.104 53.8554,-117.1 58.2435,-111.646"/>
<g id="a_edge2&#45;headlabel"><a xlink:href="dir_000007_000013.html" target="_top" xlink:title="1">
<text text-anchor="middle" x="62.824" y="-109.187" font-family="Helvetica,sans-Serif" font-size="10.00">1</text>
</a>
</g>
</g>
<!-- dir_d92486b4c1fe4d8b6a38d0915b7a9263 -->
<g id="node4" class="node"><title>dir_d92486b4c1fe4d8b6a38d0915b7a9263</title>
<g id="a_node4"><a xlink:href="dir_d92486b4c1fe4d8b6a38d0915b7a9263.html" target="_top" xlink:title="data_structures">
<polygon fill="none" stroke="black" points="155.5,-108 72.5,-108 72.5,-72 155.5,-72 155.5,-108"/>
<text text-anchor="middle" x="114" y="-87.5" font-family="Helvetica,sans-Serif" font-size="10.00">data_structures</text>
</a>
</g>
</g>
<!-- dir_0879289045080a2978c1db5aa4e6ac3b&#45;&gt;dir_d92486b4c1fe4d8b6a38d0915b7a9263 -->
<g id="edge3" class="edge"><title>dir_0879289045080a2978c1db5aa4e6ac3b&#45;&gt;dir_d92486b4c1fe4d8b6a38d0915b7a9263</title>
<path fill="none" stroke="black" d="M114,-143.697C114,-135.983 114,-126.712 114,-118.112"/>
<polygon fill="black" stroke="black" points="117.5,-118.104 114,-108.104 110.5,-118.104 117.5,-118.104"/>
<g id="a_edge3&#45;headlabel"><a xlink:href="dir_000007_000003.html" target="_top" xlink:title="2">
<text text-anchor="middle" x="120.339" y="-119.199" font-family="Helvetica,sans-Serif" font-size="10.00">2</text>
</a>
</g>
</g>
<!-- dir_3f01395c42c30902c27ec001a70001a2 -->
<g id="node5" class="node"><title>dir_3f01395c42c30902c27ec001a70001a2</title>
<g id="a_node5"><a xlink:href="dir_3f01395c42c30902c27ec001a70001a2.html" target="_top" xlink:title="runtime">
<polygon fill="white" stroke="red" points="176,-36 122,-36 122,-0 176,-0 176,-36"/>
<text text-anchor="middle" x="149" y="-15.5" font-family="Helvetica,sans-Serif" font-size="10.00">runtime</text>
</a>
</g>
</g>
<!-- dir_0879289045080a2978c1db5aa4e6ac3b&#45;&gt;dir_3f01395c42c30902c27ec001a70001a2 -->
<g id="edge4" class="edge"><title>dir_0879289045080a2978c1db5aa4e6ac3b&#45;&gt;dir_3f01395c42c30902c27ec001a70001a2</title>
<path fill="none" stroke="black" d="M136.596,-143.963C147.059,-134.635 158.396,-122.107 164,-108 171.956,-87.9723 167.034,-63.7766 160.775,-45.6717"/>
<polygon fill="black" stroke="black" points="164.044,-44.421 157.234,-36.3052 157.497,-46.8967 164.044,-44.421"/>
<g id="a_edge4&#45;headlabel"><a xlink:href="dir_000007_000008.html" target="_top" xlink:title="1">
<text text-anchor="middle" x="167.971" y="-44.2791" font-family="Helvetica,sans-Serif" font-size="10.00">1</text>
</a>
</g>
</g>
<!-- dir_d92486b4c1fe4d8b6a38d0915b7a9263&#45;&gt;dir_3f01395c42c30902c27ec001a70001a2 -->
<g id="edge1" class="edge"><title>dir_d92486b4c1fe4d8b6a38d0915b7a9263&#45;&gt;dir_3f01395c42c30902c27ec001a70001a2</title>
<path fill="none" stroke="black" d="M122.652,-71.6966C126.636,-63.7284 131.45,-54.0995 135.868,-45.2641"/>
<polygon fill="black" stroke="black" points="139.106,-46.6139 140.448,-36.1043 132.845,-43.4833 139.106,-46.6139"/>
<g id="a_edge1&#45;headlabel"><a xlink:href="dir_000003_000008.html" target="_top" xlink:title="9">
<text text-anchor="middle" x="140.038" y="-48.5987" font-family="Helvetica,sans-Serif" font-size="10.00">9</text>
</a>
</g>
</g>
</g>
</svg>
