<?xml version="1.0" encoding="UTF-8" standalone="no"?>
<!DOCTYPE svg PUBLIC "-//W3C//DTD SVG 1.1//EN"
 "http://www.w3.org/Graphics/SVG/1.1/DTD/svg11.dtd">
<!-- Generated by graphviz version 2.36.0 (20140111.2315)
 -->
<!-- Title: include/shad/distributed_iterator_traits.h Pages: 1 -->
<svg width="373pt" height="186pt"
 viewBox="0.00 0.00 373.00 186.00" xmlns="http://www.w3.org/2000/svg" xmlns:xlink="http://www.w3.org/1999/xlink">
<g id="graph0" class="graph" transform="scale(1 1) rotate(0) translate(4 182)">
<title>include/shad/distributed_iterator_traits.h</title>
<polygon fill="white" stroke="none" points="-4,4 -4,-182 369,-182 369,4 -4,4"/>
<!-- Node1 -->
<g id="node1" class="node"><title>Node1</title>
<polygon fill="#bfbfbf" stroke="black" points="92.5,-147 92.5,-177 211.5,-177 211.5,-147 92.5,-147"/>
<text text-anchor="start" x="100.5" y="-165" font-family="Helvetica,sans-Serif" font-size="10.00">include/shad/distributed</text>
<text text-anchor="middle" x="152" y="-154" font-family="Helvetica,sans-Serif" font-size="10.00">_iterator_traits.h</text>
</g>
<!-- Node2 -->
<g id="node2" class="node"><title>Node2</title>
<g id="a_node2"><a xlink:href="algorithm_8h.html" target="_top" xlink:title="include/shad/core/algorithm.h">
<polygon fill="white" stroke="black" points="0,-84.5 0,-103.5 144,-103.5 144,-84.5 0,-84.5"/>
<text text-anchor="middle" x="72" y="-91.5" font-family="Helvetica,sans-Serif" font-size="10.00">include/shad/core/algorithm.h</text>
</a>
</g>
</g>
<!-- Node1&#45;&gt;Node2 -->
<g id="edge1" class="edge"><title>Node1&#45;&gt;Node2</title>
<path fill="none" stroke="midnightblue" d="M126.779,-140.193C111.928,-127.94 93.9134,-113.079 82.701,-103.828"/>
<polygon fill="midnightblue" stroke="midnightblue" points="124.7,-143.015 134.641,-146.679 129.155,-137.615 124.7,-143.015"/>
</g>
<!-- Node3 -->
<g id="node3" class="node"><title>Node3</title>
<g id="a_node3"><a xlink:href="data__structures_2array_8h.html" target="_top" xlink:title="include/shad/data_structures\l/array.h">
<polygon fill="white" stroke="black" points="162,-79 162,-109 304,-109 304,-79 162,-79"/>
<text text-anchor="start" x="170" y="-97" font-family="Helvetica,sans-Serif" font-size="10.00">include/shad/data_structures</text>
<text text-anchor="middle" x="233" y="-86" font-family="Helvetica,sans-Serif" font-size="10.00">/array.h</text>
</a>
</g>
</g>
<!-- Node1&#45;&gt;Node3 -->
<g id="edge2" class="edge"><title>Node1&#45;&gt;Node3</title>
<path fill="none" stroke="midnightblue" d="M177.393,-140.309C189.87,-130.143 204.581,-118.156 215.737,-109.066"/>
<polygon fill="midnightblue" stroke="midnightblue" points="175.117,-137.649 169.576,-146.679 179.539,-143.076 175.117,-137.649"/>
</g>
<!-- Node4 -->
<g id="node4" class="node"><title>Node4</title>
<g id="a_node4"><a xlink:href="core_2array_8h.html" target="_top" xlink:title="include/shad/core/array.h">
<polygon fill="white" stroke="black" points="98,-11.5 98,-30.5 224,-30.5 224,-11.5 98,-11.5"/>
<text text-anchor="middle" x="161" y="-18.5" font-family="Helvetica,sans-Serif" font-size="10.00">include/shad/core/array.h</text>
</a>
</g>
</g>
<!-- Node3&#45;&gt;Node4 -->
<g id="edge3" class="edge"><title>Node3&#45;&gt;Node4</title>
<path fill="none" stroke="midnightblue" d="M211.444,-71.7432C197.483,-57.976 180.047,-40.7828 169.759,-30.6372"/>
<polygon fill="midnightblue" stroke="midnightblue" points="209.197,-74.4433 218.775,-78.9727 214.112,-69.4591 209.197,-74.4433"/>
</g>
<!-- Node5 -->
<g id="node5" class="node"><title>Node5</title>
<g id="a_node5"><a xlink:href="sssp_8h.html" target="_top" xlink:title="include/shad/extensions\l/graph_library/algorithms\l/sssp.h">
<polygon fill="white" stroke="black" points="242.5,-0.5 242.5,-41.5 365.5,-41.5 365.5,-0.5 242.5,-0.5"/>
<text text-anchor="start" x="250.5" y="-29.5" font-family="Helvetica,sans-Serif" font-size="10.00">include/shad/extensions</text>
<text text-anchor="start" x="250.5" y="-18.5" font-family="Helvetica,sans-Serif" font-size="10.00">/graph_library/algorithms</text>
<text text-anchor="middle" x="304" y="-7.5" font-family="Helvetica,sans-Serif" font-size="10.00">/sssp.h</text>
</a>
</g>
</g>
<!-- Node3&#45;&gt;Node5 -->
<g id="edge4" class="edge"><title>Node3&#45;&gt;Node5</title>
<path fill="none" stroke="midnightblue" d="M254.265,-71.7346C263.814,-62.186 275.009,-50.9906 284.358,-41.642"/>
<polygon fill="midnightblue" stroke="midnightblue" points="251.624,-69.4267 247.027,-78.9727 256.573,-74.3765 251.624,-69.4267"/>
</g>
</g>
</svg>
