<?xml version="1.0" encoding="UTF-8" standalone="no"?>
<!DOCTYPE svg PUBLIC "-//W3C//DTD SVG 1.1//EN"
 "http://www.w3.org/Graphics/SVG/1.1/DTD/svg11.dtd">
<!-- Generated by graphviz version 2.36.0 (20140111.2315)
 -->
<!-- Title: include/shad/runtime/handle.h Pages: 1 -->
<svg width="1780pt" height="422pt"
 viewBox="0.00 0.00 1780.30 422.00" xmlns="http://www.w3.org/2000/svg" xmlns:xlink="http://www.w3.org/1999/xlink">
<g id="graph0" class="graph" transform="scale(1 1) rotate(0) translate(4 418)">
<title>include/shad/runtime/handle.h</title>
<polygon fill="white" stroke="none" points="-4,4 -4,-418 1776.3,-418 1776.3,4 -4,4"/>
<!-- Node1 -->
<g id="node1" class="node"><title>Node1</title>
<polygon fill="#bfbfbf" stroke="black" points="276.5,-383 276.5,-413 383.5,-413 383.5,-383 276.5,-383"/>
<text text-anchor="start" x="284.5" y="-401" font-family="Helvetica,sans-Serif" font-size="10.00">include/shad/runtime</text>
<text text-anchor="middle" x="330" y="-390" font-family="Helvetica,sans-Serif" font-size="10.00">/handle.h</text>
</g>
<!-- Node2 -->
<g id="node2" class="node"><title>Node2</title>
<g id="a_node2"><a xlink:href="asynchronous__interface_8h.html" target="_top" xlink:title="include/shad/runtime\l/asynchronous_interface.h">
<polygon fill="white" stroke="black" points="170.5,-315 170.5,-345 301.5,-345 301.5,-315 170.5,-315"/>
<text text-anchor="start" x="178.5" y="-333" font-family="Helvetica,sans-Serif" font-size="10.00">include/shad/runtime</text>
<text text-anchor="middle" x="236" y="-322" font-family="Helvetica,sans-Serif" font-size="10.00">/asynchronous_interface.h</text>
</a>
</g>
</g>
<!-- Node1&#45;&gt;Node2 -->
<g id="edge1" class="edge"><title>Node1&#45;&gt;Node2</title>
<path fill="none" stroke="midnightblue" d="M301.356,-376.888C286.703,-366.6 269.227,-354.329 256.034,-345.066"/>
<polygon fill="midnightblue" stroke="midnightblue" points="299.408,-379.797 309.603,-382.679 303.43,-374.068 299.408,-379.797"/>
</g>
<!-- Node3 -->
<g id="node3" class="node"><title>Node3</title>
<g id="a_node3"><a xlink:href="cpp__simple__asynchronous__interface_8h.html" target="_top" xlink:title="include/shad/runtime\l/mappings/cpp_simple\l/cpp_simple_asynchronous\l_interface.h">
<polygon fill="white" stroke="black" points="-0.5,-225 -0.5,-277 134.5,-277 134.5,-225 -0.5,-225"/>
<text text-anchor="start" x="7.5" y="-265" font-family="Helvetica,sans-Serif" font-size="10.00">include/shad/runtime</text>
<text text-anchor="start" x="7.5" y="-254" font-family="Helvetica,sans-Serif" font-size="10.00">/mappings/cpp_simple</text>
<text text-anchor="start" x="7.5" y="-243" font-family="Helvetica,sans-Serif" font-size="10.00">/cpp_simple_asynchronous</text>
<text text-anchor="middle" x="67" y="-232" font-family="Helvetica,sans-Serif" font-size="10.00">_interface.h</text>
</a>
</g>
</g>
<!-- Node1&#45;&gt;Node3 -->
<g id="edge5" class="edge"><title>Node1&#45;&gt;Node3</title>
<path fill="none" stroke="midnightblue" d="M266.213,-385.555C233.195,-377.752 193.174,-365.253 161,-346 130.898,-327.987 103.403,-298.226 86.0319,-277.017"/>
<polygon fill="midnightblue" stroke="midnightblue" points="265.692,-389.026 276.219,-387.828 267.243,-382.2 265.692,-389.026"/>
</g>
<!-- Node4 -->
<g id="node4" class="node"><title>Node4</title>
<g id="a_node4"><a xlink:href="gmt__asynchronous__interface_8h.html" target="_top" xlink:title="include/shad/runtime\l/mappings/gmt/gmt_asynchronous\l_interface.h">
<polygon fill="white" stroke="black" points="152.5,-230.5 152.5,-271.5 319.5,-271.5 319.5,-230.5 152.5,-230.5"/>
<text text-anchor="start" x="160.5" y="-259.5" font-family="Helvetica,sans-Serif" font-size="10.00">include/shad/runtime</text>
<text text-anchor="start" x="160.5" y="-248.5" font-family="Helvetica,sans-Serif" font-size="10.00">/mappings/gmt/gmt_asynchronous</text>
<text text-anchor="middle" x="236" y="-237.5" font-family="Helvetica,sans-Serif" font-size="10.00">_interface.h</text>
</a>
</g>
</g>
<!-- Node1&#45;&gt;Node4 -->
<g id="edge6" class="edge"><title>Node1&#45;&gt;Node4</title>
<path fill="none" stroke="midnightblue" d="M328.213,-372.78C326.003,-355.34 321.059,-331.84 310,-314 299.491,-297.048 282.763,-282.459 267.867,-271.699"/>
<polygon fill="midnightblue" stroke="midnightblue" points="324.735,-373.173 329.266,-382.75 331.696,-372.438 324.735,-373.173"/>
</g>
<!-- Node5 -->
<g id="node5" class="node"><title>Node5</title>
<g id="a_node5"><a xlink:href="tbb__asynchronous__interface_8h.html" target="_top" xlink:title="include/shad/runtime\l/mappings/tbb/tbb_asynchronous\l_interface.h">
<polygon fill="white" stroke="black" points="337.5,-230.5 337.5,-271.5 498.5,-271.5 498.5,-230.5 337.5,-230.5"/>
<text text-anchor="start" x="345.5" y="-259.5" font-family="Helvetica,sans-Serif" font-size="10.00">include/shad/runtime</text>
<text text-anchor="start" x="345.5" y="-248.5" font-family="Helvetica,sans-Serif" font-size="10.00">/mappings/tbb/tbb_asynchronous</text>
<text text-anchor="middle" x="418" y="-237.5" font-family="Helvetica,sans-Serif" font-size="10.00">_interface.h</text>
</a>
</g>
</g>
<!-- Node1&#45;&gt;Node5 -->
<g id="edge7" class="edge"><title>Node1&#45;&gt;Node5</title>
<path fill="none" stroke="midnightblue" d="M343.909,-374.082C360.984,-345.947 389.664,-298.69 405.878,-271.974"/>
<polygon fill="midnightblue" stroke="midnightblue" points="340.794,-372.468 338.598,-382.833 346.778,-376.1 340.794,-372.468"/>
</g>
<!-- Node6 -->
<g id="node6" class="node"><title>Node6</title>
<g id="a_node6"><a xlink:href="runtime_8h.html" target="_top" xlink:title="include/shad/runtime\l/runtime.h">
<polygon fill="white" stroke="black" points="1011.5,-315 1011.5,-345 1118.5,-345 1118.5,-315 1011.5,-315"/>
<text text-anchor="start" x="1019.5" y="-333" font-family="Helvetica,sans-Serif" font-size="10.00">include/shad/runtime</text>
<text text-anchor="middle" x="1065" y="-322" font-family="Helvetica,sans-Serif" font-size="10.00">/runtime.h</text>
</a>
</g>
</g>
<!-- Node1&#45;&gt;Node6 -->
<g id="edge8" class="edge"><title>Node1&#45;&gt;Node6</title>
<path fill="none" stroke="midnightblue" d="M394.085,-391.245C536.845,-378.426 878.844,-347.716 1011.31,-335.821"/>
<polygon fill="midnightblue" stroke="midnightblue" points="393.395,-387.793 383.749,-392.174 394.022,-394.765 393.395,-387.793"/>
</g>
<!-- Node2&#45;&gt;Node3 -->
<g id="edge2" class="edge"><title>Node2&#45;&gt;Node3</title>
<path fill="none" stroke="midnightblue" d="M195.624,-310.604C173.609,-300.573 146.04,-288.012 122.078,-277.094"/>
<polygon fill="midnightblue" stroke="midnightblue" points="194.452,-313.916 205.003,-314.877 197.354,-307.546 194.452,-313.916"/>
</g>
<!-- Node2&#45;&gt;Node4 -->
<g id="edge3" class="edge"><title>Node2&#45;&gt;Node4</title>
<path fill="none" stroke="midnightblue" d="M236,-304.542C236,-293.888 236,-281.571 236,-271.542"/>
<polygon fill="midnightblue" stroke="midnightblue" points="232.5,-304.877 236,-314.877 239.5,-304.877 232.5,-304.877"/>
</g>
<!-- Node2&#45;&gt;Node5 -->
<g id="edge4" class="edge"><title>Node2&#45;&gt;Node5</title>
<path fill="none" stroke="midnightblue" d="M278.881,-310.858C306.814,-299.04 343.238,-283.63 371.809,-271.542"/>
<polygon fill="midnightblue" stroke="midnightblue" points="277.228,-307.757 269.382,-314.877 279.955,-314.204 277.228,-307.757"/>
</g>
<!-- Node7 -->
<g id="node7" class="node"><title>Node7</title>
<g id="a_node7"><a xlink:href="algorithm_8h.html" target="_top" xlink:title="include/shad/core/algorithm.h">
<polygon fill="white" stroke="black" points="817,-241.5 817,-260.5 961,-260.5 961,-241.5 817,-241.5"/>
<text text-anchor="middle" x="889" y="-248.5" font-family="Helvetica,sans-Serif" font-size="10.00">include/shad/core/algorithm.h</text>
</a>
</g>
</g>
<!-- Node6&#45;&gt;Node7 -->
<g id="edge9" class="edge"><title>Node6&#45;&gt;Node7</title>
<path fill="none" stroke="midnightblue" d="M1023.37,-310.788C987.097,-294.917 936.101,-272.607 908.534,-260.546"/>
<polygon fill="midnightblue" stroke="midnightblue" points="1022.15,-314.075 1032.72,-314.877 1024.96,-307.662 1022.15,-314.075"/>
</g>
<!-- Node8 -->
<g id="node8" class="node"><title>Node8</title>
<g id="a_node8"><a xlink:href="abstract__data__structure_8h.html" target="_top" xlink:title="include/shad/data_structures\l/abstract_data_structure.h">
<polygon fill="white" stroke="black" points="1173,-152 1173,-182 1315,-182 1315,-152 1173,-152"/>
<text text-anchor="start" x="1181" y="-170" font-family="Helvetica,sans-Serif" font-size="10.00">include/shad/data_structures</text>
<text text-anchor="middle" x="1244" y="-159" font-family="Helvetica,sans-Serif" font-size="10.00">/abstract_data_structure.h</text>
</a>
</g>
</g>
<!-- Node6&#45;&gt;Node8 -->
<g id="edge10" class="edge"><title>Node6&#45;&gt;Node8</title>
<path fill="none" stroke="midnightblue" d="M1128.5,-319.155C1174.08,-310.64 1229.85,-296.741 1244,-278 1265.29,-249.802 1255.81,-204.914 1248.91,-182.183"/>
<polygon fill="midnightblue" stroke="midnightblue" points="1127.86,-315.713 1118.65,-320.942 1129.11,-322.6 1127.86,-315.713"/>
</g>
<!-- Node9 -->
<g id="node9" class="node"><title>Node9</title>
<g id="a_node9"><a xlink:href="data__structures_2array_8h.html" target="_top" xlink:title="include/shad/data_structures\l/array.h">
<polygon fill="white" stroke="black" points="632,-79 632,-109 774,-109 774,-79 632,-79"/>
<text text-anchor="start" x="640" y="-97" font-family="Helvetica,sans-Serif" font-size="10.00">include/shad/data_structures</text>
<text text-anchor="middle" x="703" y="-86" font-family="Helvetica,sans-Serif" font-size="10.00">/array.h</text>
</a>
</g>
</g>
<!-- Node6&#45;&gt;Node9 -->
<g id="edge24" class="edge"><title>Node6&#45;&gt;Node9</title>
<path fill="none" stroke="midnightblue" d="M1001.25,-326.896C876.84,-322.132 611.415,-308.476 584,-278 533.182,-221.509 634.961,-141.253 681.48,-109.109"/>
<polygon fill="midnightblue" stroke="midnightblue" points="1001.27,-330.4 1011.4,-327.277 1001.53,-323.404 1001.27,-330.4"/>
</g>
<!-- Node11 -->
<g id="node11" class="node"><title>Node11</title>
<g id="a_node11"><a xlink:href="sssp_8h.html" target="_top" xlink:title="include/shad/extensions\l/graph_library/algorithms\l/sssp.h">
<polygon fill="white" stroke="black" points="798.5,-0.5 798.5,-41.5 921.5,-41.5 921.5,-0.5 798.5,-0.5"/>
<text text-anchor="start" x="806.5" y="-29.5" font-family="Helvetica,sans-Serif" font-size="10.00">include/shad/extensions</text>
<text text-anchor="start" x="806.5" y="-18.5" font-family="Helvetica,sans-Serif" font-size="10.00">/graph_library/algorithms</text>
<text text-anchor="middle" x="860" y="-7.5" font-family="Helvetica,sans-Serif" font-size="10.00">/sssp.h</text>
</a>
</g>
</g>
<!-- Node6&#45;&gt;Node11 -->
<g id="edge48" class="edge"><title>Node6&#45;&gt;Node11</title>
<path fill="none" stroke="midnightblue" d="M1001.17,-327.156C873.129,-322.798 594.661,-309.739 566,-278 504.055,-209.401 551.217,-136.226 623,-78 623.219,-77.8226 728.274,-53.0412 798.423,-36.5078"/>
<polygon fill="midnightblue" stroke="midnightblue" points="1001.13,-330.657 1011.24,-327.492 1001.36,-323.661 1001.13,-330.657"/>
</g>
<!-- Node12 -->
<g id="node12" class="node"><title>Node12</title>
<g id="a_node12"><a xlink:href="hashmap_8h.html" target="_top" xlink:title="include/shad/data_structures\l/hashmap.h">
<polygon fill="white" stroke="black" points="1272,-79 1272,-109 1414,-109 1414,-79 1272,-79"/>
<text text-anchor="start" x="1280" y="-97" font-family="Helvetica,sans-Serif" font-size="10.00">include/shad/data_structures</text>
<text text-anchor="middle" x="1343" y="-86" font-family="Helvetica,sans-Serif" font-size="10.00">/hashmap.h</text>
</a>
</g>
</g>
<!-- Node6&#45;&gt;Node12 -->
<g id="edge31" class="edge"><title>Node6&#45;&gt;Node12</title>
<path fill="none" stroke="midnightblue" d="M1128.86,-324.416C1170.53,-318.747 1224.36,-306.113 1264,-278 1321.87,-236.964 1337.71,-144.301 1341.73,-109.009"/>
<polygon fill="midnightblue" stroke="midnightblue" points="1128.3,-320.959 1118.81,-325.681 1129.17,-327.904 1128.3,-320.959"/>
</g>
<!-- Node15 -->
<g id="node15" class="node"><title>Node15</title>
<g id="a_node15"><a xlink:href="set_8h.html" target="_top" xlink:title="include/shad/data_structures\l/set.h">
<polygon fill="white" stroke="black" points="952,-79 952,-109 1094,-109 1094,-79 952,-79"/>
<text text-anchor="start" x="960" y="-97" font-family="Helvetica,sans-Serif" font-size="10.00">include/shad/data_structures</text>
<text text-anchor="middle" x="1023" y="-86" font-family="Helvetica,sans-Serif" font-size="10.00">/set.h</text>
</a>
</g>
</g>
<!-- Node6&#45;&gt;Node15 -->
<g id="edge46" class="edge"><title>Node6&#45;&gt;Node15</title>
<path fill="none" stroke="midnightblue" d="M1051.6,-306.109C1036.56,-278.986 1013.09,-231.923 1004,-188 1000.22,-169.721 1000.69,-164.371 1004,-146 1006.31,-133.168 1011.65,-119.35 1016.09,-109.339"/>
<polygon fill="midnightblue" stroke="midnightblue" points="1048.56,-307.848 1056.53,-314.833 1054.66,-304.405 1048.56,-307.848"/>
</g>
<!-- Node17 -->
<g id="node17" class="node"><title>Node17</title>
<g id="a_node17"><a xlink:href="vector_8h.html" target="_top" xlink:title="include/shad/data_structures\l/vector.h">
<polygon fill="white" stroke="black" points="792,-79 792,-109 934,-109 934,-79 792,-79"/>
<text text-anchor="start" x="800" y="-97" font-family="Helvetica,sans-Serif" font-size="10.00">include/shad/data_structures</text>
<text text-anchor="middle" x="863" y="-86" font-family="Helvetica,sans-Serif" font-size="10.00">/vector.h</text>
</a>
</g>
</g>
<!-- Node6&#45;&gt;Node17 -->
<g id="edge47" class="edge"><title>Node6&#45;&gt;Node17</title>
<path fill="none" stroke="midnightblue" d="M1040.33,-307.907C1030.49,-299.054 1019.32,-288.41 1010,-278 990.075,-255.75 988.43,-247.503 970,-224 936.604,-181.411 895.252,-132.611 875.135,-109.108"/>
<polygon fill="midnightblue" stroke="midnightblue" points="1038.06,-310.573 1047.86,-314.584 1042.7,-305.333 1038.06,-310.573"/>
</g>
<!-- Node18 -->
<g id="node18" class="node"><title>Node18</title>
<g id="a_node18"><a xlink:href="edge__index_8h.html" target="_top" xlink:title="include/shad/extensions\l/graph_library/edge_index.h">
<polygon fill="white" stroke="black" points="1432,-79 1432,-109 1568,-109 1568,-79 1432,-79"/>
<text text-anchor="start" x="1440" y="-97" font-family="Helvetica,sans-Serif" font-size="10.00">include/shad/extensions</text>
<text text-anchor="middle" x="1500" y="-86" font-family="Helvetica,sans-Serif" font-size="10.00">/graph_library/edge_index.h</text>
</a>
</g>
</g>
<!-- Node6&#45;&gt;Node18 -->
<g id="edge50" class="edge"><title>Node6&#45;&gt;Node18</title>
<path fill="none" stroke="midnightblue" d="M1128.91,-324.114C1177.75,-318.294 1245.54,-305.601 1299,-278 1384.54,-233.836 1461.39,-143.852 1489.08,-109.118"/>
<polygon fill="midnightblue" stroke="midnightblue" points="1128.33,-320.656 1118.79,-325.254 1129.12,-327.612 1128.33,-320.656"/>
</g>
<!-- Node19 -->
<g id="node19" class="node"><title>Node19</title>
<g id="a_node19"><a xlink:href="attributed__edge__index_8h.html" target="_top" xlink:title="include/shad/extensions\l/graph_library/attributed\l_edge_index.h">
<polygon fill="white" stroke="black" points="1586,-0.5 1586,-41.5 1708,-41.5 1708,-0.5 1586,-0.5"/>
<text text-anchor="start" x="1594" y="-29.5" font-family="Helvetica,sans-Serif" font-size="10.00">include/shad/extensions</text>
<text text-anchor="start" x="1594" y="-18.5" font-family="Helvetica,sans-Serif" font-size="10.00">/graph_library/attributed</text>
<text text-anchor="middle" x="1647" y="-7.5" font-family="Helvetica,sans-Serif" font-size="10.00">_edge_index.h</text>
</a>
</g>
</g>
<!-- Node6&#45;&gt;Node19 -->
<g id="edge49" class="edge"><title>Node6&#45;&gt;Node19</title>
<path fill="none" stroke="midnightblue" d="M1128.86,-328.989C1289.05,-328.297 1698.04,-322.18 1739,-278 1799.74,-212.493 1767.24,-153.189 1719,-78 1709.59,-63.3386 1694.98,-50.9375 1681.37,-41.5612"/>
<polygon fill="midnightblue" stroke="midnightblue" points="1128.67,-325.489 1118.68,-329.027 1128.69,-332.489 1128.67,-325.489"/>
</g>
<!-- Node20 -->
<g id="node20" class="node"><title>Node20</title>
<g id="a_node20"><a xlink:href="buffer_8h.html" target="_top" xlink:title="include/shad/data_structures\l/buffer.h">
<polygon fill="white" stroke="black" points="1013,-152 1013,-182 1155,-182 1155,-152 1013,-152"/>
<text text-anchor="start" x="1021" y="-170" font-family="Helvetica,sans-Serif" font-size="10.00">include/shad/data_structures</text>
<text text-anchor="middle" x="1084" y="-159" font-family="Helvetica,sans-Serif" font-size="10.00">/buffer.h</text>
</a>
</g>
</g>
<!-- Node6&#45;&gt;Node20 -->
<g id="edge25" class="edge"><title>Node6&#45;&gt;Node20</title>
<path fill="none" stroke="midnightblue" d="M1067.84,-304.964C1071.86,-270.891 1079.09,-209.631 1082.34,-182.088"/>
<polygon fill="midnightblue" stroke="midnightblue" points="1064.35,-304.653 1066.65,-314.994 1071.3,-305.473 1064.35,-304.653"/>
</g>
<!-- Node21 -->
<g id="node21" class="node"><title>Node21</title>
<g id="a_node21"><a xlink:href="local__hashmap_8h.html" target="_top" xlink:title="include/shad/data_structures\l/local_hashmap.h">
<polygon fill="white" stroke="black" points="1569,-236 1569,-266 1711,-266 1711,-236 1569,-236"/>
<text text-anchor="start" x="1577" y="-254" font-family="Helvetica,sans-Serif" font-size="10.00">include/shad/data_structures</text>
<text text-anchor="middle" x="1640" y="-243" font-family="Helvetica,sans-Serif" font-size="10.00">/local_hashmap.h</text>
</a>
</g>
</g>
<!-- Node6&#45;&gt;Node21 -->
<g id="edge32" class="edge"><title>Node6&#45;&gt;Node21</title>
<path fill="none" stroke="midnightblue" d="M1128.7,-326.741C1223.59,-322.411 1407.3,-310.3 1560,-278 1574,-275.038 1589.01,-270.534 1602.2,-266.102"/>
<polygon fill="midnightblue" stroke="midnightblue" points="1128.52,-323.246 1118.68,-327.184 1128.83,-330.239 1128.52,-323.246"/>
</g>
<!-- Node22 -->
<g id="node22" class="node"><title>Node22</title>
<g id="a_node22"><a xlink:href="local__edge__index_8h.html" target="_top" xlink:title="include/shad/extensions\l/graph_library/local_edge\l_index.h">
<polygon fill="white" stroke="black" points="1584.5,-146.5 1584.5,-187.5 1709.5,-187.5 1709.5,-146.5 1584.5,-146.5"/>
<text text-anchor="start" x="1592.5" y="-175.5" font-family="Helvetica,sans-Serif" font-size="10.00">include/shad/extensions</text>
<text text-anchor="start" x="1592.5" y="-164.5" font-family="Helvetica,sans-Serif" font-size="10.00">/graph_library/local_edge</text>
<text text-anchor="middle" x="1647" y="-153.5" font-family="Helvetica,sans-Serif" font-size="10.00">_index.h</text>
</a>
</g>
</g>
<!-- Node6&#45;&gt;Node22 -->
<g id="edge51" class="edge"><title>Node6&#45;&gt;Node22</title>
<path fill="none" stroke="midnightblue" d="M1129.22,-328.834C1286.37,-327.761 1680.41,-320.789 1720,-278 1736.3,-260.383 1730.62,-245.524 1720,-224 1712.51,-208.815 1698.71,-196.604 1685.1,-187.508"/>
<polygon fill="midnightblue" stroke="midnightblue" points="1128.74,-325.337 1118.77,-328.899 1128.79,-332.337 1128.74,-325.337"/>
</g>
<!-- Node23 -->
<g id="node23" class="node"><title>Node23</title>
<g id="a_node23"><a xlink:href="local__set_8h.html" target="_top" xlink:title="include/shad/data_structures\l/local_set.h">
<polygon fill="white" stroke="black" points="1409,-236 1409,-266 1551,-266 1551,-236 1409,-236"/>
<text text-anchor="start" x="1417" y="-254" font-family="Helvetica,sans-Serif" font-size="10.00">include/shad/data_structures</text>
<text text-anchor="middle" x="1480" y="-243" font-family="Helvetica,sans-Serif" font-size="10.00">/local_set.h</text>
</a>
</g>
</g>
<!-- Node6&#45;&gt;Node23 -->
<g id="edge38" class="edge"><title>Node6&#45;&gt;Node23</title>
<path fill="none" stroke="midnightblue" d="M1128.56,-321.926C1195.39,-313.848 1303.36,-298.984 1395,-278 1409.29,-274.728 1424.68,-270.304 1438.39,-266.033"/>
<polygon fill="midnightblue" stroke="midnightblue" points="1128.11,-318.454 1118.6,-323.116 1128.95,-325.404 1128.11,-318.454"/>
</g>
<!-- Node24 -->
<g id="node24" class="node"><title>Node24</title>
<g id="a_node24"><a xlink:href="object__identifier_8h.html" target="_top" xlink:title="include/shad/data_structures\l/object_identifier.h">
<polygon fill="white" stroke="black" points="1093,-236 1093,-266 1235,-266 1235,-236 1093,-236"/>
<text text-anchor="start" x="1101" y="-254" font-family="Helvetica,sans-Serif" font-size="10.00">include/shad/data_structures</text>
<text text-anchor="middle" x="1164" y="-243" font-family="Helvetica,sans-Serif" font-size="10.00">/object_identifier.h</text>
</a>
</g>
</g>
<!-- Node6&#45;&gt;Node24 -->
<g id="edge43" class="edge"><title>Node6&#45;&gt;Node24</title>
<path fill="none" stroke="midnightblue" d="M1091.19,-308.629C1108.46,-295.196 1130.64,-277.946 1145.96,-266.033"/>
<polygon fill="midnightblue" stroke="midnightblue" points="1088.9,-305.975 1083.16,-314.877 1093.2,-311.5 1088.9,-305.975"/>
</g>
<!-- Node25 -->
<g id="node25" class="node"><title>Node25</title>
<g id="a_node25"><a xlink:href="shad_8h.html" target="_top" xlink:title="The API to the shad library. ">
<polygon fill="white" stroke="black" points="593,-241.5 593,-260.5 697,-260.5 697,-241.5 593,-241.5"/>
<text text-anchor="middle" x="645" y="-248.5" font-family="Helvetica,sans-Serif" font-size="10.00">include/shad/shad.h</text>
</a>
</g>
</g>
<!-- Node6&#45;&gt;Node25 -->
<g id="edge52" class="edge"><title>Node6&#45;&gt;Node25</title>
<path fill="none" stroke="midnightblue" d="M1001.04,-324.836C928.63,-318.99 807.653,-305.78 707,-278 691.361,-273.684 674.426,-266.389 662.214,-260.624"/>
<polygon fill="midnightblue" stroke="midnightblue" points="1001.12,-328.353 1011.36,-325.646 1001.66,-321.375 1001.12,-328.353"/>
</g>
<!-- Node26 -->
<g id="node26" class="node"><title>Node26</title>
<g id="a_node26"><a xlink:href="shad_8cc.html" target="_top" xlink:title="src/util/shad.cc">
<polygon fill="white" stroke="black" points="715.5,-241.5 715.5,-260.5 798.5,-260.5 798.5,-241.5 715.5,-241.5"/>
<text text-anchor="middle" x="757" y="-248.5" font-family="Helvetica,sans-Serif" font-size="10.00">src/util/shad.cc</text>
</a>
</g>
</g>
<!-- Node6&#45;&gt;Node26 -->
<g id="edge53" class="edge"><title>Node6&#45;&gt;Node26</title>
<path fill="none" stroke="midnightblue" d="M1001.3,-321.339C948.495,-313.816 871.997,-300.184 808,-278 795.041,-273.508 781.234,-266.304 771.258,-260.617"/>
<polygon fill="midnightblue" stroke="midnightblue" points="1000.82,-324.805 1011.2,-322.718 1001.78,-317.872 1000.82,-324.805"/>
</g>
<!-- Node8&#45;&gt;Node9 -->
<g id="edge11" class="edge"><title>Node8&#45;&gt;Node9</title>
<path fill="none" stroke="midnightblue" d="M1182.75,-149.691C1176.45,-148.312 1170.11,-147.047 1164,-146 996.353,-117.292 951.429,-133.697 783,-110 780.061,-109.587 777.067,-109.14 774.045,-108.669"/>
<polygon fill="midnightblue" stroke="midnightblue" points="1182.07,-153.126 1192.6,-151.938 1183.63,-146.301 1182.07,-153.126"/>
</g>
<!-- Node8&#45;&gt;Node12 -->
<g id="edge14" class="edge"><title>Node8&#45;&gt;Node12</title>
<path fill="none" stroke="midnightblue" d="M1271.7,-146.134C1288.06,-134.403 1308.38,-119.826 1323.14,-109.241"/>
<polygon fill="midnightblue" stroke="midnightblue" points="1269.65,-143.301 1263.56,-151.973 1273.73,-148.989 1269.65,-143.301"/>
</g>
<!-- Node14 -->
<g id="node14" class="node"><title>Node14</title>
<g id="a_node14"><a xlink:href="one__per__locality_8h.html" target="_top" xlink:title="include/shad/data_structures\l/one_per_locality.h">
<polygon fill="white" stroke="black" points="1112,-79 1112,-109 1254,-109 1254,-79 1112,-79"/>
<text text-anchor="start" x="1120" y="-97" font-family="Helvetica,sans-Serif" font-size="10.00">include/shad/data_structures</text>
<text text-anchor="middle" x="1183" y="-86" font-family="Helvetica,sans-Serif" font-size="10.00">/one_per_locality.h</text>
</a>
</g>
</g>
<!-- Node8&#45;&gt;Node14 -->
<g id="edge16" class="edge"><title>Node8&#45;&gt;Node14</title>
<path fill="none" stroke="midnightblue" d="M1225.29,-144.226C1215.6,-132.946 1204.03,-119.48 1195.45,-109.486"/>
<polygon fill="midnightblue" stroke="midnightblue" points="1222.78,-146.669 1231.95,-151.973 1228.09,-142.107 1222.78,-146.669"/>
</g>
<!-- Node8&#45;&gt;Node15 -->
<g id="edge17" class="edge"><title>Node8&#45;&gt;Node15</title>
<path fill="none" stroke="midnightblue" d="M1190.5,-148.812C1152.64,-136.648 1102.48,-120.534 1066.95,-109.12"/>
<polygon fill="midnightblue" stroke="midnightblue" points="1189.75,-152.246 1200.34,-151.973 1191.89,-145.582 1189.75,-152.246"/>
</g>
<!-- Node8&#45;&gt;Node17 -->
<g id="edge20" class="edge"><title>Node8&#45;&gt;Node17</title>
<path fill="none" stroke="midnightblue" d="M1180.41,-149.592C1174.87,-148.319 1169.35,-147.102 1164,-146 1066.53,-125.914 1041.02,-127.171 943,-110 940.077,-109.488 937.095,-108.959 934.084,-108.419"/>
<polygon fill="midnightblue" stroke="midnightblue" points="1179.81,-153.048 1190.35,-151.934 1181.42,-146.234 1179.81,-153.048"/>
</g>
<!-- Node8&#45;&gt;Node18 -->
<g id="edge21" class="edge"><title>Node8&#45;&gt;Node18</title>
<path fill="none" stroke="midnightblue" d="M1304.3,-149.276C1348.35,-137.06 1407.41,-120.68 1449.09,-109.12"/>
<polygon fill="midnightblue" stroke="midnightblue" points="1303.28,-145.927 1294.58,-151.973 1305.15,-152.673 1303.28,-145.927"/>
</g>
<!-- Node10 -->
<g id="node10" class="node"><title>Node10</title>
<g id="a_node10"><a xlink:href="core_2array_8h.html" target="_top" xlink:title="include/shad/core/array.h">
<polygon fill="white" stroke="black" points="640,-11.5 640,-30.5 766,-30.5 766,-11.5 640,-11.5"/>
<text text-anchor="middle" x="703" y="-18.5" font-family="Helvetica,sans-Serif" font-size="10.00">include/shad/core/array.h</text>
</a>
</g>
</g>
<!-- Node9&#45;&gt;Node10 -->
<g id="edge12" class="edge"><title>Node9&#45;&gt;Node10</title>
<path fill="none" stroke="midnightblue" d="M703,-68.6317C703,-55.4675 703,-40.0312 703,-30.6372"/>
<polygon fill="midnightblue" stroke="midnightblue" points="699.5,-68.9727 703,-78.9727 706.5,-68.9727 699.5,-68.9727"/>
</g>
<!-- Node9&#45;&gt;Node11 -->
<g id="edge13" class="edge"><title>Node9&#45;&gt;Node11</title>
<path fill="none" stroke="midnightblue" d="M743.301,-74.7749C765.825,-64.5889 793.897,-51.8937 816.864,-41.5075"/>
<polygon fill="midnightblue" stroke="midnightblue" points="741.688,-71.663 734.018,-78.9727 744.572,-78.0412 741.688,-71.663"/>
</g>
<!-- Node13 -->
<g id="node13" class="node"><title>Node13</title>
<g id="a_node13"><a xlink:href="unordered__map_8h.html" target="_top" xlink:title="include/shad/core/unordered\l_map.h">
<polygon fill="white" stroke="black" points="1273.5,-6 1273.5,-36 1412.5,-36 1412.5,-6 1273.5,-6"/>
<text text-anchor="start" x="1281.5" y="-24" font-family="Helvetica,sans-Serif" font-size="10.00">include/shad/core/unordered</text>
<text text-anchor="middle" x="1343" y="-13" font-family="Helvetica,sans-Serif" font-size="10.00">_map.h</text>
</a>
</g>
</g>
<!-- Node12&#45;&gt;Node13 -->
<g id="edge15" class="edge"><title>Node12&#45;&gt;Node13</title>
<path fill="none" stroke="midnightblue" d="M1343,-68.8976C1343,-58.1314 1343,-45.8005 1343,-36.4856"/>
<polygon fill="midnightblue" stroke="midnightblue" points="1339.5,-68.9727 1343,-78.9727 1346.5,-68.9727 1339.5,-68.9727"/>
</g>
<!-- Node15&#45;&gt;Node11 -->
<g id="edge19" class="edge"><title>Node15&#45;&gt;Node11</title>
<path fill="none" stroke="midnightblue" d="M981.472,-74.9112C958.035,-64.7023 928.736,-51.9401 904.785,-41.5075"/>
<polygon fill="midnightblue" stroke="midnightblue" points="980.231,-78.188 990.796,-78.9727 983.026,-71.7704 980.231,-78.188"/>
</g>
<!-- Node16 -->
<g id="node16" class="node"><title>Node16</title>
<g id="a_node16"><a xlink:href="unordered__set_8h.html" target="_top" xlink:title="include/shad/core/unordered\l_set.h">
<polygon fill="white" stroke="black" points="953.5,-6 953.5,-36 1092.5,-36 1092.5,-6 953.5,-6"/>
<text text-anchor="start" x="961.5" y="-24" font-family="Helvetica,sans-Serif" font-size="10.00">include/shad/core/unordered</text>
<text text-anchor="middle" x="1023" y="-13" font-family="Helvetica,sans-Serif" font-size="10.00">_set.h</text>
</a>
</g>
</g>
<!-- Node15&#45;&gt;Node16 -->
<g id="edge18" class="edge"><title>Node15&#45;&gt;Node16</title>
<path fill="none" stroke="midnightblue" d="M1023,-68.8976C1023,-58.1314 1023,-45.8005 1023,-36.4856"/>
<polygon fill="midnightblue" stroke="midnightblue" points="1019.5,-68.9727 1023,-78.9727 1026.5,-68.9727 1019.5,-68.9727"/>
</g>
<!-- Node18&#45;&gt;Node11 -->
<g id="edge22" class="edge"><title>Node18&#45;&gt;Node11</title>
<path fill="none" stroke="midnightblue" d="M1421.45,-77.8995C1210.06,-50.3474 1152.26,-73.9889 945,-42 937.359,-40.8207 929.389,-39.3175 921.524,-37.6663"/>
<polygon fill="midnightblue" stroke="midnightblue" points="1421.26,-81.4049 1431.64,-79.2507 1422.18,-74.4657 1421.26,-81.4049"/>
</g>
<!-- Node18&#45;&gt;Node19 -->
<g id="edge23" class="edge"><title>Node18&#45;&gt;Node19</title>
<path fill="none" stroke="midnightblue" d="M1538.3,-74.5015C1559.29,-64.3623 1585.3,-51.801 1606.61,-41.5075"/>
<polygon fill="midnightblue" stroke="midnightblue" points="1536.52,-71.4718 1529.04,-78.9727 1539.57,-77.7751 1536.52,-71.4718"/>
</g>
<!-- Node20&#45;&gt;Node9 -->
<g id="edge26" class="edge"><title>Node20&#45;&gt;Node9</title>
<path fill="none" stroke="midnightblue" d="M1002.95,-150.953C942.362,-139.697 857.49,-123.913 783,-110 780.083,-109.455 777.106,-108.899 774.099,-108.336"/>
<polygon fill="midnightblue" stroke="midnightblue" points="1002.37,-154.405 1012.84,-152.79 1003.65,-147.522 1002.37,-154.405"/>
</g>
<!-- Node20&#45;&gt;Node12 -->
<g id="edge27" class="edge"><title>Node20&#45;&gt;Node12</title>
<path fill="none" stroke="midnightblue" d="M1145.01,-149.276C1189.57,-137.06 1249.32,-120.68 1291.49,-109.12"/>
<polygon fill="midnightblue" stroke="midnightblue" points="1143.89,-145.953 1135.17,-151.973 1145.74,-152.704 1143.89,-145.953"/>
</g>
<!-- Node20&#45;&gt;Node15 -->
<g id="edge28" class="edge"><title>Node20&#45;&gt;Node15</title>
<path fill="none" stroke="midnightblue" d="M1065.29,-144.226C1055.6,-132.946 1044.03,-119.48 1035.45,-109.486"/>
<polygon fill="midnightblue" stroke="midnightblue" points="1062.78,-146.669 1071.95,-151.973 1068.09,-142.107 1062.78,-146.669"/>
</g>
<!-- Node20&#45;&gt;Node17 -->
<g id="edge29" class="edge"><title>Node20&#45;&gt;Node17</title>
<path fill="none" stroke="midnightblue" d="M1030.5,-148.812C992.638,-136.648 942.479,-120.534 906.949,-109.12"/>
<polygon fill="midnightblue" stroke="midnightblue" points="1029.75,-152.246 1040.34,-151.973 1031.89,-145.582 1029.75,-152.246"/>
</g>
<!-- Node20&#45;&gt;Node18 -->
<g id="edge30" class="edge"><title>Node20&#45;&gt;Node18</title>
<path fill="none" stroke="midnightblue" d="M1146.59,-149.676C1152.46,-148.35 1158.33,-147.1 1164,-146 1278.09,-123.875 1308.37,-129.118 1423,-110 1425.82,-109.53 1428.7,-109.035 1431.6,-108.524"/>
<polygon fill="midnightblue" stroke="midnightblue" points="1145.7,-146.289 1136.75,-151.965 1147.29,-153.107 1145.7,-146.289"/>
</g>
<!-- Node21&#45;&gt;Node12 -->
<g id="edge33" class="edge"><title>Node21&#45;&gt;Node12</title>
<path fill="none" stroke="midnightblue" d="M1603.98,-231.199C1543.69,-199.736 1423.7,-137.116 1370.03,-109.109"/>
<polygon fill="midnightblue" stroke="midnightblue" points="1602.63,-234.448 1613.12,-235.971 1605.87,-228.242 1602.63,-234.448"/>
</g>
<!-- Node21&#45;&gt;Node19 -->
<g id="edge34" class="edge"><title>Node21&#45;&gt;Node19</title>
<path fill="none" stroke="midnightblue" d="M1677.16,-230.531C1692.81,-220.185 1709.37,-205.877 1718,-188 1743.07,-136.057 1695.42,-73.0262 1666.64,-41.6801"/>
<polygon fill="midnightblue" stroke="midnightblue" points="1675.24,-227.603 1668.61,-235.869 1678.94,-233.54 1675.24,-227.603"/>
</g>
<!-- Node21&#45;&gt;Node22 -->
<g id="edge35" class="edge"><title>Node21&#45;&gt;Node22</title>
<path fill="none" stroke="midnightblue" d="M1642.1,-225.416C1643.13,-213.338 1644.36,-198.983 1645.32,-187.648"/>
<polygon fill="midnightblue" stroke="midnightblue" points="1638.58,-225.455 1641.22,-235.717 1645.56,-226.051 1638.58,-225.455"/>
</g>
<!-- Node22&#45;&gt;Node18 -->
<g id="edge37" class="edge"><title>Node22&#45;&gt;Node18</title>
<path fill="none" stroke="midnightblue" d="M1597.31,-141.999C1574.68,-131.068 1548.67,-118.508 1529.24,-109.123"/>
<polygon fill="midnightblue" stroke="midnightblue" points="1595.92,-145.213 1606.44,-146.411 1598.96,-138.91 1595.92,-145.213"/>
</g>
<!-- Node22&#45;&gt;Node19 -->
<g id="edge36" class="edge"><title>Node22&#45;&gt;Node19</title>
<path fill="none" stroke="midnightblue" d="M1647,-136.179C1647,-107.952 1647,-66.3654 1647,-41.9446"/>
<polygon fill="midnightblue" stroke="midnightblue" points="1643.5,-136.279 1647,-146.279 1650.5,-136.279 1643.5,-136.279"/>
</g>
<!-- Node23&#45;&gt;Node15 -->
<g id="edge39" class="edge"><title>Node23&#45;&gt;Node15</title>
<path fill="none" stroke="midnightblue" d="M1456.08,-229.23C1426.96,-205.143 1375.28,-166.17 1324,-146 1231.39,-109.574 1201.02,-127.171 1103,-110 1100.08,-109.488 1097.1,-108.959 1094.08,-108.419"/>
<polygon fill="midnightblue" stroke="midnightblue" points="1454.11,-232.149 1464.02,-235.896 1458.61,-226.786 1454.11,-232.149"/>
</g>
<!-- Node23&#45;&gt;Node18 -->
<g id="edge41" class="edge"><title>Node23&#45;&gt;Node18</title>
<path fill="none" stroke="midnightblue" d="M1483.11,-225.92C1487.32,-193.261 1494.72,-135.949 1498.15,-109.333"/>
<polygon fill="midnightblue" stroke="midnightblue" points="1479.62,-225.606 1481.81,-235.971 1486.56,-226.502 1479.62,-225.606"/>
</g>
<!-- Node23&#45;&gt;Node19 -->
<g id="edge40" class="edge"><title>Node23&#45;&gt;Node19</title>
<path fill="none" stroke="midnightblue" d="M1496.42,-227.577C1529.1,-182.97 1601.75,-83.7779 1632.65,-41.5948"/>
<polygon fill="midnightblue" stroke="midnightblue" points="1493.53,-225.602 1490.45,-235.738 1499.18,-229.738 1493.53,-225.602"/>
</g>
<!-- Node23&#45;&gt;Node22 -->
<g id="edge42" class="edge"><title>Node23&#45;&gt;Node22</title>
<path fill="none" stroke="midnightblue" d="M1517.73,-231.475C1544.37,-218.394 1580,-200.896 1607.11,-187.584"/>
<polygon fill="midnightblue" stroke="midnightblue" points="1516.14,-228.354 1508.71,-235.904 1519.23,-234.638 1516.14,-228.354"/>
</g>
<!-- Node24&#45;&gt;Node8 -->
<g id="edge44" class="edge"><title>Node24&#45;&gt;Node8</title>
<path fill="none" stroke="midnightblue" d="M1184.97,-228.508C1199.26,-213.861 1217.77,-194.883 1230.22,-182.12"/>
<polygon fill="midnightblue" stroke="midnightblue" points="1182.41,-226.115 1177.93,-235.717 1187.42,-231.003 1182.41,-226.115"/>
</g>
<!-- Node24&#45;&gt;Node20 -->
<g id="edge45" class="edge"><title>Node24&#45;&gt;Node20</title>
<path fill="none" stroke="midnightblue" d="M1143.03,-228.508C1128.74,-213.861 1110.23,-194.883 1097.78,-182.12"/>
<polygon fill="midnightblue" stroke="midnightblue" points="1140.58,-231.003 1150.07,-235.717 1145.59,-226.115 1140.58,-231.003"/>
</g>
</g>
</svg>
