<?xml version="1.0" encoding="UTF-8" standalone="no"?>
<!DOCTYPE svg PUBLIC "-//W3C//DTD SVG 1.1//EN"
 "http://www.w3.org/Graphics/SVG/1.1/DTD/svg11.dtd">
<!-- Generated by graphviz version 2.36.0 (20140111.2315)
 -->
<!-- Title: include/shad/data_structures/hashmap.h Pages: 1 -->
<svg width="1244pt" height="504pt"
 viewBox="0.00 0.00 1243.55 504.00" xmlns="http://www.w3.org/2000/svg" xmlns:xlink="http://www.w3.org/1999/xlink">
<g id="graph0" class="graph" transform="scale(1 1) rotate(0) translate(4 500)">
<title>include/shad/data_structures/hashmap.h</title>
<polygon fill="white" stroke="none" points="-4,4 -4,-500 1239.55,-500 1239.55,4 -4,4"/>
<!-- Node1 -->
<g id="node1" class="node"><title>Node1</title>
<polygon fill="#bfbfbf" stroke="black" points="702.546,-465 702.546,-495 844.546,-495 844.546,-465 702.546,-465"/>
<text text-anchor="start" x="710.546" y="-483" font-family="Helvetica,sans-Serif" font-size="10.00">include/shad/data_structures</text>
<text text-anchor="middle" x="773.546" y="-472" font-family="Helvetica,sans-Serif" font-size="10.00">/hashmap.h</text>
</g>
<!-- Node2 -->
<g id="node2" class="node"><title>Node2</title>
<polygon fill="white" stroke="#bfbfbf" points="1179.55,-198.5 1179.55,-217.5 1235.55,-217.5 1235.55,-198.5 1179.55,-198.5"/>
<text text-anchor="middle" x="1207.55" y="-205.5" font-family="Helvetica,sans-Serif" font-size="10.00">algorithm</text>
</g>
<!-- Node1&#45;&gt;Node2 -->
<g id="edge1" class="edge"><title>Node1&#45;&gt;Node2</title>
<path fill="none" stroke="midnightblue" d="M844.759,-470.663C891.18,-463.435 952.25,-450.472 1002.55,-428 1097.36,-385.637 1137.02,-379.755 1192.55,-292 1204.88,-272.511 1207.71,-245.586 1208.07,-227.752"/>
<polygon fill="midnightblue" stroke="midnightblue" points="1211.57,-227.497 1208.02,-217.514 1204.57,-227.531 1211.57,-227.497"/>
</g>
<!-- Node3 -->
<g id="node3" class="node"><title>Node3</title>
<polygon fill="white" stroke="#bfbfbf" points="962.046,-198.5 962.046,-217.5 1021.05,-217.5 1021.05,-198.5 962.046,-198.5"/>
<text text-anchor="middle" x="991.546" y="-205.5" font-family="Helvetica,sans-Serif" font-size="10.00">functional</text>
</g>
<!-- Node1&#45;&gt;Node3 -->
<g id="edge2" class="edge"><title>Node1&#45;&gt;Node3</title>
<path fill="none" stroke="midnightblue" d="M805.512,-464.791C823.285,-455.885 845.071,-443.214 861.546,-428 926.55,-367.971 969.365,-267.969 984.959,-227.17"/>
<polygon fill="midnightblue" stroke="midnightblue" points="988.268,-228.314 988.484,-217.721 981.71,-225.867 988.268,-228.314"/>
</g>
<!-- Node4 -->
<g id="node4" class="node"><title>Node4</title>
<polygon fill="white" stroke="#bfbfbf" points="700.546,-266.5 700.546,-285.5 738.546,-285.5 738.546,-266.5 700.546,-266.5"/>
<text text-anchor="middle" x="719.546" y="-273.5" font-family="Helvetica,sans-Serif" font-size="10.00">tuple</text>
</g>
<!-- Node1&#45;&gt;Node4 -->
<g id="edge3" class="edge"><title>Node1&#45;&gt;Node4</title>
<path fill="none" stroke="midnightblue" d="M769.062,-464.791C762.113,-442.555 748.508,-398.129 738.546,-360 732.839,-338.153 727.178,-312.827 723.54,-295.952"/>
<polygon fill="midnightblue" stroke="midnightblue" points="726.877,-294.817 721.369,-285.766 720.03,-296.276 726.877,-294.817"/>
</g>
<!-- Node5 -->
<g id="node5" class="node"><title>Node5</title>
<polygon fill="white" stroke="#bfbfbf" points="14.5464,-198.5 14.5464,-217.5 54.5464,-217.5 54.5464,-198.5 14.5464,-198.5"/>
<text text-anchor="middle" x="34.5464" y="-205.5" font-family="Helvetica,sans-Serif" font-size="10.00">utility</text>
</g>
<!-- Node1&#45;&gt;Node5 -->
<g id="edge4" class="edge"><title>Node1&#45;&gt;Node5</title>
<path fill="none" stroke="midnightblue" d="M702.21,-475.515C584.559,-469.123 355.219,-453.763 278.546,-428 178.732,-394.461 153.21,-371.832 84.5464,-292 67.032,-271.637 51.9153,-244.388 43.0183,-226.764"/>
<polygon fill="midnightblue" stroke="midnightblue" points="46.0787,-225.056 38.5275,-217.624 39.7961,-228.143 46.0787,-225.056"/>
</g>
<!-- Node6 -->
<g id="node6" class="node"><title>Node6</title>
<polygon fill="white" stroke="#bfbfbf" points="899.546,-198.5 899.546,-217.5 943.546,-217.5 943.546,-198.5 899.546,-198.5"/>
<text text-anchor="middle" x="921.546" y="-205.5" font-family="Helvetica,sans-Serif" font-size="10.00">vector</text>
</g>
<!-- Node1&#45;&gt;Node6 -->
<g id="edge5" class="edge"><title>Node1&#45;&gt;Node6</title>
<path fill="none" stroke="midnightblue" d="M791.49,-464.779C816.305,-444.202 860.93,-403.767 886.546,-360 911.507,-317.354 918.667,-258.197 920.721,-228.157"/>
<polygon fill="midnightblue" stroke="midnightblue" points="924.234,-228.02 921.298,-217.84 917.245,-227.629 924.234,-228.02"/>
</g>
<!-- Node7 -->
<g id="node7" class="node"><title>Node7</title>
<g id="a_node7"><a xlink:href="abstract__data__structure_8h.html" target="_top" xlink:title="shad/data_structures\l/abstract_data_structure.h">
<polygon fill="white" stroke="black" points="288.046,-397 288.046,-427 419.046,-427 419.046,-397 288.046,-397"/>
<text text-anchor="start" x="296.046" y="-415" font-family="Helvetica,sans-Serif" font-size="10.00">shad/data_structures</text>
<text text-anchor="middle" x="353.546" y="-404" font-family="Helvetica,sans-Serif" font-size="10.00">/abstract_data_structure.h</text>
</a>
</g>
</g>
<!-- Node1&#45;&gt;Node7 -->
<g id="edge6" class="edge"><title>Node1&#45;&gt;Node7</title>
<path fill="none" stroke="midnightblue" d="M702.299,-467.804C626.481,-455.89 506.987,-437.112 429.44,-424.926"/>
<polygon fill="midnightblue" stroke="midnightblue" points="429.678,-421.421 419.256,-423.326 428.592,-428.336 429.678,-421.421"/>
</g>
<!-- Node13 -->
<g id="node13" class="node"><title>Node13</title>
<g id="a_node13"><a xlink:href="runtime_8h.html" target="_top" xlink:title="shad/runtime/runtime.h">
<polygon fill="white" stroke="black" points="487.546,-266.5 487.546,-285.5 603.546,-285.5 603.546,-266.5 487.546,-266.5"/>
<text text-anchor="middle" x="545.546" y="-273.5" font-family="Helvetica,sans-Serif" font-size="10.00">shad/runtime/runtime.h</text>
</a>
</g>
</g>
<!-- Node1&#45;&gt;Node13 -->
<g id="edge74" class="edge"><title>Node1&#45;&gt;Node13</title>
<path fill="none" stroke="midnightblue" d="M702.44,-471.411C669.83,-464.67 632.7,-451.959 606.546,-428 567.368,-392.11 552.839,-327.544 547.882,-295.742"/>
<polygon fill="midnightblue" stroke="midnightblue" points="551.317,-295.038 546.461,-285.621 544.385,-296.011 551.317,-295.038"/>
</g>
<!-- Node30 -->
<g id="node30" class="node"><title>Node30</title>
<g id="a_node30"><a xlink:href="buffer_8h.html" target="_top" xlink:title="shad/data_structures\l/buffer.h">
<polygon fill="white" stroke="black" points="615.546,-397 615.546,-427 723.546,-427 723.546,-397 615.546,-397"/>
<text text-anchor="start" x="623.546" y="-415" font-family="Helvetica,sans-Serif" font-size="10.00">shad/data_structures</text>
<text text-anchor="middle" x="669.546" y="-404" font-family="Helvetica,sans-Serif" font-size="10.00">/buffer.h</text>
</a>
</g>
</g>
<!-- Node1&#45;&gt;Node30 -->
<g id="edge50" class="edge"><title>Node1&#45;&gt;Node30</title>
<path fill="none" stroke="midnightblue" d="M751.236,-464.841C736.43,-455.446 716.796,-442.985 700.487,-432.635"/>
<polygon fill="midnightblue" stroke="midnightblue" points="702.139,-429.538 691.82,-427.135 698.388,-435.449 702.139,-429.538"/>
</g>
<!-- Node32 -->
<g id="node32" class="node"><title>Node32</title>
<g id="a_node32"><a xlink:href="compare__and__hash__utils_8h.html" target="_top" xlink:title="shad/data_structures\l/compare_and_hash_utils.h">
<polygon fill="white" stroke="black" points="987.546,-261 987.546,-291 1123.55,-291 1123.55,-261 987.546,-261"/>
<text text-anchor="start" x="995.546" y="-279" font-family="Helvetica,sans-Serif" font-size="10.00">shad/data_structures</text>
<text text-anchor="middle" x="1055.55" y="-268" font-family="Helvetica,sans-Serif" font-size="10.00">/compare_and_hash_utils.h</text>
</a>
</g>
</g>
<!-- Node1&#45;&gt;Node32 -->
<g id="edge57" class="edge"><title>Node1&#45;&gt;Node32</title>
<path fill="none" stroke="midnightblue" d="M844.966,-474.83C886.18,-469.222 936.93,-456.506 973.546,-428 1015.6,-395.259 1038.9,-334.67 1049.13,-301.051"/>
<polygon fill="midnightblue" stroke="midnightblue" points="1052.58,-301.732 1052,-291.153 1045.86,-299.782 1052.58,-301.732"/>
</g>
<!-- Node34 -->
<g id="node34" class="node"><title>Node34</title>
<g id="a_node34"><a xlink:href="local__hashmap_8h.html" target="_top" xlink:title="shad/data_structures\l/local_hashmap.h">
<polygon fill="white" stroke="black" points="747.546,-329 747.546,-359 855.546,-359 855.546,-329 747.546,-329"/>
<text text-anchor="start" x="755.546" y="-347" font-family="Helvetica,sans-Serif" font-size="10.00">shad/data_structures</text>
<text text-anchor="middle" x="801.546" y="-336" font-family="Helvetica,sans-Serif" font-size="10.00">/local_hashmap.h</text>
</a>
</g>
</g>
<!-- Node1&#45;&gt;Node34 -->
<g id="edge64" class="edge"><title>Node1&#45;&gt;Node34</title>
<path fill="none" stroke="midnightblue" d="M776.543,-464.66C781.301,-441.891 790.638,-397.203 796.458,-369.349"/>
<polygon fill="midnightblue" stroke="midnightblue" points="799.952,-369.742 798.571,-359.237 793.1,-368.31 799.952,-369.742"/>
</g>
<!-- Node7&#45;&gt;Node4 -->
<g id="edge10" class="edge"><title>Node7&#45;&gt;Node4</title>
<path fill="none" stroke="midnightblue" d="M406.756,-396.942C441.002,-387.474 486.288,-374.164 525.546,-360 586.123,-338.144 654.983,-307.167 692.187,-289.901"/>
<polygon fill="midnightblue" stroke="midnightblue" points="693.79,-293.016 701.374,-285.617 690.831,-286.672 693.79,-293.016"/>
</g>
<!-- Node7&#45;&gt;Node5 -->
<g id="edge11" class="edge"><title>Node7&#45;&gt;Node5</title>
<path fill="none" stroke="midnightblue" d="M303.887,-396.979C277.047,-388.317 243.897,-375.822 216.546,-360 148.33,-320.536 80.0883,-255.358 50.2121,-225.215"/>
<polygon fill="midnightblue" stroke="midnightblue" points="52.3356,-222.381 42.8348,-217.692 47.3379,-227.282 52.3356,-222.381"/>
</g>
<!-- Node7&#45;&gt;Node6 -->
<g id="edge12" class="edge"><title>Node7&#45;&gt;Node6</title>
<path fill="none" stroke="midnightblue" d="M385.007,-396.841C407.096,-386.796 437.268,-372.866 463.546,-360 491.397,-346.364 497.394,-341.001 525.546,-328 534.594,-323.822 682.036,-262.978 691.546,-260 760.744,-238.329 844.406,-222.214 889.311,-214.353"/>
<polygon fill="midnightblue" stroke="midnightblue" points="890.078,-217.773 899.337,-212.623 888.887,-210.875 890.078,-217.773"/>
</g>
<!-- Node8 -->
<g id="node8" class="node"><title>Node8</title>
<polygon fill="white" stroke="#bfbfbf" points="238.046,-334.5 238.046,-353.5 281.046,-353.5 281.046,-334.5 238.046,-334.5"/>
<text text-anchor="middle" x="259.546" y="-341.5" font-family="Helvetica,sans-Serif" font-size="10.00">deque</text>
</g>
<!-- Node7&#45;&gt;Node8 -->
<g id="edge7" class="edge"><title>Node7&#45;&gt;Node8</title>
<path fill="none" stroke="midnightblue" d="M333.15,-396.679C317.532,-385.713 296.071,-370.645 280.352,-359.609"/>
<polygon fill="midnightblue" stroke="midnightblue" points="282.044,-356.52 271.849,-353.638 278.022,-362.249 282.044,-356.52"/>
</g>
<!-- Node9 -->
<g id="node9" class="node"><title>Node9</title>
<polygon fill="white" stroke="#bfbfbf" points="210.546,-266.5 210.546,-285.5 250.546,-285.5 250.546,-266.5 210.546,-266.5"/>
<text text-anchor="middle" x="230.546" y="-273.5" font-family="Helvetica,sans-Serif" font-size="10.00">limits</text>
</g>
<!-- Node7&#45;&gt;Node9 -->
<g id="edge8" class="edge"><title>Node7&#45;&gt;Node9</title>
<path fill="none" stroke="midnightblue" d="M287.726,-399.703C265.099,-392.324 242.077,-380.134 228.546,-360 215.703,-340.888 219.667,-313.308 224.464,-295.271"/>
<polygon fill="midnightblue" stroke="midnightblue" points="227.826,-296.246 227.34,-285.662 221.12,-294.239 227.826,-296.246"/>
</g>
<!-- Node10 -->
<g id="node10" class="node"><title>Node10</title>
<polygon fill="white" stroke="#bfbfbf" points="144.546,-130.5 144.546,-149.5 196.546,-149.5 196.546,-130.5 144.546,-130.5"/>
<text text-anchor="middle" x="170.546" y="-137.5" font-family="Helvetica,sans-Serif" font-size="10.00">memory</text>
</g>
<!-- Node7&#45;&gt;Node10 -->
<g id="edge9" class="edge"><title>Node7&#45;&gt;Node10</title>
<path fill="none" stroke="midnightblue" d="M287.944,-399.853C201.899,-381.097 55.9445,-333.878 5.54638,-224 -0.383028,-211.073 -2.89577,-203.446 5.54638,-192 34.9102,-152.189 94.9596,-142.51 133.945,-140.659"/>
<polygon fill="midnightblue" stroke="midnightblue" points="134.457,-144.145 144.339,-140.327 134.233,-137.149 134.457,-144.145"/>
</g>
<!-- Node11 -->
<g id="node11" class="node"><title>Node11</title>
<g id="a_node11"><a xlink:href="object__identifier_8h.html" target="_top" xlink:title="shad/data_structures\l/object_identifier.h">
<polygon fill="white" stroke="black" points="299.546,-329 299.546,-359 407.546,-359 407.546,-329 299.546,-329"/>
<text text-anchor="start" x="307.546" y="-347" font-family="Helvetica,sans-Serif" font-size="10.00">shad/data_structures</text>
<text text-anchor="middle" x="353.546" y="-336" font-family="Helvetica,sans-Serif" font-size="10.00">/object_identifier.h</text>
</a>
</g>
</g>
<!-- Node7&#45;&gt;Node11 -->
<g id="edge13" class="edge"><title>Node7&#45;&gt;Node11</title>
<path fill="none" stroke="midnightblue" d="M353.546,-396.679C353.546,-388.722 353.546,-378.605 353.546,-369.436"/>
<polygon fill="midnightblue" stroke="midnightblue" points="357.046,-369.293 353.546,-359.293 350.046,-369.293 357.046,-369.293"/>
</g>
<!-- Node7&#45;&gt;Node13 -->
<g id="edge49" class="edge"><title>Node7&#45;&gt;Node13</title>
<path fill="none" stroke="midnightblue" d="M373.731,-396.913C410.299,-371.391 487.163,-317.747 524.415,-291.748"/>
<polygon fill="midnightblue" stroke="midnightblue" points="526.786,-294.361 532.983,-285.768 522.78,-288.621 526.786,-294.361"/>
</g>
<!-- Node11&#45;&gt;Node9 -->
<g id="edge15" class="edge"><title>Node11&#45;&gt;Node9</title>
<path fill="none" stroke="midnightblue" d="M327.16,-328.841C305.98,-317.476 276.444,-301.628 255.62,-290.454"/>
<polygon fill="midnightblue" stroke="midnightblue" points="257.193,-287.326 246.726,-285.682 253.883,-293.494 257.193,-287.326"/>
</g>
<!-- Node12 -->
<g id="node12" class="node"><title>Node12</title>
<polygon fill="white" stroke="#bfbfbf" points="289.546,-266.5 289.546,-285.5 335.546,-285.5 335.546,-266.5 289.546,-266.5"/>
<text text-anchor="middle" x="312.546" y="-273.5" font-family="Helvetica,sans-Serif" font-size="10.00">atomic</text>
</g>
<!-- Node11&#45;&gt;Node12 -->
<g id="edge14" class="edge"><title>Node11&#45;&gt;Node12</title>
<path fill="none" stroke="midnightblue" d="M344.65,-328.679C338.384,-318.592 329.961,-305.033 323.315,-294.335"/>
<polygon fill="midnightblue" stroke="midnightblue" points="326.281,-292.476 318.031,-285.828 320.334,-296.17 326.281,-292.476"/>
</g>
<!-- Node11&#45;&gt;Node13 -->
<g id="edge16" class="edge"><title>Node11&#45;&gt;Node13</title>
<path fill="none" stroke="midnightblue" d="M394.735,-328.841C429.386,-316.93 478.363,-300.094 510.997,-288.876"/>
<polygon fill="midnightblue" stroke="midnightblue" points="512.247,-292.148 520.567,-285.587 509.972,-285.528 512.247,-292.148"/>
</g>
<!-- Node13&#45;&gt;Node3 -->
<g id="edge19" class="edge"><title>Node13&#45;&gt;Node3</title>
<path fill="none" stroke="midnightblue" d="M603.59,-268.47C707.72,-256.643 918.526,-232.146 951.546,-224 954.962,-223.157 958.486,-222.112 961.959,-220.968"/>
<polygon fill="midnightblue" stroke="midnightblue" points="963.245,-224.225 971.488,-217.568 960.893,-217.632 963.245,-224.225"/>
</g>
<!-- Node13&#45;&gt;Node5 -->
<g id="edge26" class="edge"><title>Node13&#45;&gt;Node5</title>
<path fill="none" stroke="midnightblue" d="M487.531,-269.809C369.282,-259.08 108.175,-234.585 68.5464,-224 65.8914,-223.291 63.1787,-222.402 60.501,-221.414"/>
<polygon fill="midnightblue" stroke="midnightblue" points="61.7002,-218.123 51.1215,-217.538 59.0267,-224.592 61.7002,-218.123"/>
</g>
<!-- Node13&#45;&gt;Node6 -->
<g id="edge27" class="edge"><title>Node13&#45;&gt;Node6</title>
<path fill="none" stroke="midnightblue" d="M583.936,-266.469C594.774,-264.206 606.597,-261.873 617.546,-260 736.006,-239.731 769.534,-255.379 885.546,-224 888.365,-223.238 891.256,-222.306 894.114,-221.285"/>
<polygon fill="midnightblue" stroke="midnightblue" points="895.527,-224.49 903.556,-217.578 892.969,-217.975 895.527,-224.49"/>
</g>
<!-- Node13&#45;&gt;Node10 -->
<g id="edge23" class="edge"><title>Node13&#45;&gt;Node10</title>
<path fill="none" stroke="midnightblue" d="M487.32,-266.865C407.624,-255.432 272.059,-234.801 251.546,-224 221.539,-208.199 195.953,-177.259 181.961,-157.942"/>
<polygon fill="midnightblue" stroke="midnightblue" points="184.659,-155.693 176.055,-149.511 178.925,-159.709 184.659,-155.693"/>
</g>
<!-- Node14 -->
<g id="node14" class="node"><title>Node14</title>
<polygon fill="white" stroke="#bfbfbf" points="249.046,-130.5 249.046,-149.5 298.046,-149.5 298.046,-130.5 249.046,-130.5"/>
<text text-anchor="middle" x="273.546" y="-137.5" font-family="Helvetica,sans-Serif" font-size="10.00">cstddef</text>
</g>
<!-- Node13&#45;&gt;Node14 -->
<g id="edge17" class="edge"><title>Node13&#45;&gt;Node14</title>
<path fill="none" stroke="midnightblue" d="M487.244,-268.453C408.899,-259.061 277.76,-241.015 263.546,-224 248.394,-205.861 256.565,-177.214 264.518,-158.767"/>
<polygon fill="midnightblue" stroke="midnightblue" points="267.693,-160.241 268.765,-149.7 261.354,-157.272 267.693,-160.241"/>
</g>
<!-- Node15 -->
<g id="node15" class="node"><title>Node15</title>
<polygon fill="white" stroke="#bfbfbf" points="347.546,-62.5 347.546,-81.5 393.546,-81.5 393.546,-62.5 347.546,-62.5"/>
<text text-anchor="middle" x="370.546" y="-69.5" font-family="Helvetica,sans-Serif" font-size="10.00">cstdint</text>
</g>
<!-- Node13&#45;&gt;Node15 -->
<g id="edge18" class="edge"><title>Node13&#45;&gt;Node15</title>
<path fill="none" stroke="midnightblue" d="M487.288,-269.648C377.821,-259.322 151.303,-236.562 139.546,-224 109.152,-191.524 107.628,-158.627 135.546,-124 160.523,-93.0213 278.615,-79.8993 337.293,-75.2179"/>
<polygon fill="midnightblue" stroke="midnightblue" points="337.816,-78.6883 347.522,-74.4397 337.285,-71.7085 337.816,-78.6883"/>
</g>
<!-- Node16 -->
<g id="node16" class="node"><title>Node16</title>
<polygon fill="white" stroke="#bfbfbf" points="518.546,-198.5 518.546,-217.5 572.546,-217.5 572.546,-198.5 518.546,-198.5"/>
<text text-anchor="middle" x="545.546" y="-205.5" font-family="Helvetica,sans-Serif" font-size="10.00">iostream</text>
</g>
<!-- Node13&#45;&gt;Node16 -->
<g id="edge20" class="edge"><title>Node13&#45;&gt;Node16</title>
<path fill="none" stroke="midnightblue" d="M545.546,-266.372C545.546,-256.643 545.546,-240.528 545.546,-227.85"/>
<polygon fill="midnightblue" stroke="midnightblue" points="549.046,-227.841 545.546,-217.841 542.046,-227.841 549.046,-227.841"/>
</g>
<!-- Node17 -->
<g id="node17" class="node"><title>Node17</title>
<polygon fill="white" stroke="#bfbfbf" points="591.046,-198.5 591.046,-217.5 638.046,-217.5 638.046,-198.5 591.046,-198.5"/>
<text text-anchor="middle" x="614.546" y="-205.5" font-family="Helvetica,sans-Serif" font-size="10.00">iterator</text>
</g>
<!-- Node13&#45;&gt;Node17 -->
<g id="edge21" class="edge"><title>Node13&#45;&gt;Node17</title>
<path fill="none" stroke="midnightblue" d="M554.567,-266.372C565.56,-255.856 584.352,-237.882 597.976,-224.85"/>
<polygon fill="midnightblue" stroke="midnightblue" points="600.496,-227.283 605.303,-217.841 595.658,-222.224 600.496,-227.283"/>
</g>
<!-- Node18 -->
<g id="node18" class="node"><title>Node18</title>
<polygon fill="white" stroke="#bfbfbf" points="656.046,-198.5 656.046,-217.5 691.046,-217.5 691.046,-198.5 656.046,-198.5"/>
<text text-anchor="middle" x="673.546" y="-205.5" font-family="Helvetica,sans-Serif" font-size="10.00">map</text>
</g>
<!-- Node13&#45;&gt;Node18 -->
<g id="edge22" class="edge"><title>Node13&#45;&gt;Node18</title>
<path fill="none" stroke="midnightblue" d="M563.171,-266.364C583.412,-256.384 617.561,-239.362 646.546,-224 647.518,-223.485 648.507,-222.957 649.504,-222.42"/>
<polygon fill="midnightblue" stroke="midnightblue" points="651.375,-225.386 658.467,-217.515 648.014,-219.245 651.375,-225.386"/>
</g>
<!-- Node19 -->
<g id="node19" class="node"><title>Node19</title>
<polygon fill="white" stroke="#bfbfbf" points="148.546,-198.5 148.546,-217.5 178.546,-217.5 178.546,-198.5 148.546,-198.5"/>
<text text-anchor="middle" x="163.546" y="-205.5" font-family="Helvetica,sans-Serif" font-size="10.00">set</text>
</g>
<!-- Node13&#45;&gt;Node19 -->
<g id="edge24" class="edge"><title>Node13&#45;&gt;Node19</title>
<path fill="none" stroke="midnightblue" d="M487.325,-267.666C394.354,-255.794 220,-232.807 192.546,-224 190.684,-223.403 188.797,-222.694 186.926,-221.915"/>
<polygon fill="midnightblue" stroke="midnightblue" points="188.423,-218.751 177.889,-217.619 185.418,-225.073 188.423,-218.751"/>
</g>
<!-- Node20 -->
<g id="node20" class="node"><title>Node20</title>
<polygon fill="white" stroke="#bfbfbf" points="272.546,-198.5 272.546,-217.5 350.546,-217.5 350.546,-198.5 272.546,-198.5"/>
<text text-anchor="middle" x="311.546" y="-205.5" font-family="Helvetica,sans-Serif" font-size="10.00">unordered_set</text>
</g>
<!-- Node13&#45;&gt;Node20 -->
<g id="edge25" class="edge"><title>Node13&#45;&gt;Node20</title>
<path fill="none" stroke="midnightblue" d="M513.191,-266.499C476.008,-256.644 413.204,-239.735 359.546,-224 355.789,-222.898 351.876,-221.722 347.976,-220.532"/>
<polygon fill="midnightblue" stroke="midnightblue" points="348.993,-217.183 338.406,-217.577 346.928,-223.871 348.993,-217.183"/>
</g>
<!-- Node21 -->
<g id="node21" class="node"><title>Node21</title>
<polygon fill="white" stroke="#bfbfbf" points="595.546,-0.5 595.546,-19.5 699.546,-19.5 699.546,-0.5 595.546,-0.5"/>
<text text-anchor="middle" x="647.546" y="-7.5" font-family="Helvetica,sans-Serif" font-size="10.00">shad/config/config.h</text>
</g>
<!-- Node13&#45;&gt;Node21 -->
<g id="edge28" class="edge"><title>Node13&#45;&gt;Node21</title>
<path fill="none" stroke="midnightblue" d="M581.97,-266.488C641.331,-252.575 752.759,-226.272 756.546,-224 825.921,-182.374 848.777,-163.617 877.546,-88 882.604,-74.7073 886.586,-66.9798 877.546,-56 872.15,-49.4456 775.996,-32.3051 709.739,-21.1713"/>
<polygon fill="midnightblue" stroke="midnightblue" points="710.229,-17.7046 699.788,-19.5064 709.074,-24.6086 710.229,-17.7046"/>
</g>
<!-- Node22 -->
<g id="node22" class="node"><title>Node22</title>
<g id="a_node22"><a xlink:href="handle_8h.html" target="_top" xlink:title="shad/runtime/handle.h">
<polygon fill="white" stroke="black" points="692.046,-130.5 692.046,-149.5 805.046,-149.5 805.046,-130.5 692.046,-130.5"/>
<text text-anchor="middle" x="748.546" y="-137.5" font-family="Helvetica,sans-Serif" font-size="10.00">shad/runtime/handle.h</text>
</a>
</g>
</g>
<!-- Node13&#45;&gt;Node22 -->
<g id="edge29" class="edge"><title>Node13&#45;&gt;Node22</title>
<path fill="none" stroke="midnightblue" d="M586.671,-266.446C639.465,-255.092 725.503,-235.179 735.546,-224 751.207,-206.569 752.331,-178.328 750.997,-159.71"/>
<polygon fill="midnightblue" stroke="midnightblue" points="754.456,-159.135 749.956,-149.543 747.493,-159.848 754.456,-159.135"/>
</g>
<!-- Node24 -->
<g id="node24" class="node"><title>Node24</title>
<g id="a_node24"><a xlink:href="mapping__traits_8h.html" target="_top" xlink:title="shad/runtime/mapping\l_traits.h">
<polygon fill="white" stroke="black" points="676.046,-57 676.046,-87 789.046,-87 789.046,-57 676.046,-57"/>
<text text-anchor="start" x="684.046" y="-75" font-family="Helvetica,sans-Serif" font-size="10.00">shad/runtime/mapping</text>
<text text-anchor="middle" x="732.546" y="-64" font-family="Helvetica,sans-Serif" font-size="10.00">_traits.h</text>
</a>
</g>
</g>
<!-- Node13&#45;&gt;Node24 -->
<g id="edge41" class="edge"><title>Node13&#45;&gt;Node24</title>
<path fill="none" stroke="midnightblue" d="M586.961,-266.447C644.22,-254.401 742.174,-232.914 756.546,-224 800.021,-197.036 838.272,-168.786 813.546,-124 805.97,-110.276 792.978,-99.7412 779.591,-91.9088"/>
<polygon fill="midnightblue" stroke="midnightblue" points="781.25,-88.8271 770.789,-87.1456 777.918,-94.9834 781.25,-88.8271"/>
</g>
<!-- Node27 -->
<g id="node27" class="node"><title>Node27</title>
<g id="a_node27"><a xlink:href="locality_8h.html" target="_top" xlink:title="shad/runtime/locality.h">
<polygon fill="white" stroke="black" points="422.046,-130.5 422.046,-149.5 537.046,-149.5 537.046,-130.5 422.046,-130.5"/>
<text text-anchor="middle" x="479.546" y="-137.5" font-family="Helvetica,sans-Serif" font-size="10.00">shad/runtime/locality.h</text>
</a>
</g>
</g>
<!-- Node13&#45;&gt;Node27 -->
<g id="edge36" class="edge"><title>Node13&#45;&gt;Node27</title>
<path fill="none" stroke="midnightblue" d="M589.09,-266.485C629.851,-257.525 686.396,-242.208 699.546,-224 707.873,-212.47 708.395,-203.134 699.546,-192 698.186,-190.288 591.819,-166.181 527.503,-151.733"/>
<polygon fill="midnightblue" stroke="midnightblue" points="528.088,-148.277 517.564,-149.502 526.555,-155.107 528.088,-148.277"/>
</g>
<!-- Node28 -->
<g id="node28" class="node"><title>Node28</title>
<g id="a_node28"><a xlink:href="available__mappings_8h.html" target="_top" xlink:title="shad/runtime/mappings\l/available_mappings.h">
<polygon fill="white" stroke="black" points="555.546,-125 555.546,-155 673.546,-155 673.546,-125 555.546,-125"/>
<text text-anchor="start" x="563.546" y="-143" font-family="Helvetica,sans-Serif" font-size="10.00">shad/runtime/mappings</text>
<text text-anchor="middle" x="614.546" y="-132" font-family="Helvetica,sans-Serif" font-size="10.00">/available_mappings.h</text>
</a>
</g>
</g>
<!-- Node13&#45;&gt;Node28 -->
<g id="edge42" class="edge"><title>Node13&#45;&gt;Node28</title>
<path fill="none" stroke="midnightblue" d="M582.628,-266.486C630.681,-255.083 709.325,-235.013 717.546,-224 726.054,-212.603 725.047,-204.084 717.546,-192 708.442,-177.332 693.726,-166.753 678.233,-159.175"/>
<polygon fill="midnightblue" stroke="midnightblue" points="679.613,-155.958 669.057,-155.052 676.743,-162.343 679.613,-155.958"/>
</g>
<!-- Node29 -->
<g id="node29" class="node"><title>Node29</title>
<g id="a_node29"><a xlink:href="synchronous__interface_8h.html" target="_top" xlink:title="shad/runtime/synchronous\l_interface.h">
<polygon fill="white" stroke="black" points="369.046,-193 369.046,-223 500.046,-223 500.046,-193 369.046,-193"/>
<text text-anchor="start" x="377.046" y="-211" font-family="Helvetica,sans-Serif" font-size="10.00">shad/runtime/synchronous</text>
<text text-anchor="middle" x="434.546" y="-200" font-family="Helvetica,sans-Serif" font-size="10.00">_interface.h</text>
</a>
</g>
</g>
<!-- Node13&#45;&gt;Node29 -->
<g id="edge44" class="edge"><title>Node13&#45;&gt;Node29</title>
<path fill="none" stroke="midnightblue" d="M531.035,-266.372C514.889,-256.771 488.287,-240.954 467.099,-228.356"/>
<polygon fill="midnightblue" stroke="midnightblue" points="468.781,-225.284 458.397,-223.181 465.204,-231.301 468.781,-225.284"/>
</g>
<!-- Node22&#45;&gt;Node21 -->
<g id="edge31" class="edge"><title>Node22&#45;&gt;Node21</title>
<path fill="none" stroke="midnightblue" d="M725.614,-130.475C706.937,-122.359 681.324,-108.347 666.546,-88 654.187,-70.9826 649.812,-46.859 648.294,-30.1681"/>
<polygon fill="midnightblue" stroke="midnightblue" points="651.773,-29.7328 647.636,-19.9791 644.788,-30.1838 651.773,-29.7328"/>
</g>
<!-- Node23 -->
<g id="node23" class="node"><title>Node23</title>
<polygon fill="white" stroke="#bfbfbf" points="807.546,-62.5 807.546,-81.5 869.546,-81.5 869.546,-62.5 807.546,-62.5"/>
<text text-anchor="middle" x="838.546" y="-69.5" font-family="Helvetica,sans-Serif" font-size="10.00">type_traits</text>
</g>
<!-- Node22&#45;&gt;Node23 -->
<g id="edge30" class="edge"><title>Node22&#45;&gt;Node23</title>
<path fill="none" stroke="midnightblue" d="M760.312,-130.372C775.135,-119.502 800.828,-100.66 818.709,-87.5474"/>
<polygon fill="midnightblue" stroke="midnightblue" points="820.783,-90.3666 826.778,-81.6305 816.644,-84.7217 820.783,-90.3666"/>
</g>
<!-- Node22&#45;&gt;Node24 -->
<g id="edge32" class="edge"><title>Node22&#45;&gt;Node24</title>
<path fill="none" stroke="midnightblue" d="M746.455,-130.372C744.418,-121.971 741.228,-108.811 738.416,-97.2126"/>
<polygon fill="midnightblue" stroke="midnightblue" points="741.742,-96.0753 735.984,-87.1815 734.939,-97.7246 741.742,-96.0753"/>
</g>
<!-- Node26 -->
<g id="node26" class="node"><title>Node26</title>
<g id="a_node26"><a xlink:href="available__traits__mappings_8h.html" target="_top" xlink:title="shad/runtime/mappings\l/available_traits_mappings.h">
<polygon fill="white" stroke="black" points="479.546,-57 479.546,-87 619.546,-87 619.546,-57 479.546,-57"/>
<text text-anchor="start" x="487.546" y="-75" font-family="Helvetica,sans-Serif" font-size="10.00">shad/runtime/mappings</text>
<text text-anchor="middle" x="549.546" y="-64" font-family="Helvetica,sans-Serif" font-size="10.00">/available_traits_mappings.h</text>
</a>
</g>
</g>
<!-- Node22&#45;&gt;Node26 -->
<g id="edge35" class="edge"><title>Node22&#45;&gt;Node26</title>
<path fill="none" stroke="midnightblue" d="M722.531,-130.372C691.937,-120.225 640.401,-103.133 601.52,-90.2375"/>
<polygon fill="midnightblue" stroke="midnightblue" points="602.521,-86.8822 591.928,-87.0562 600.318,-93.5263 602.521,-86.8822"/>
</g>
<!-- Node24&#45;&gt;Node21 -->
<g id="edge34" class="edge"><title>Node24&#45;&gt;Node21</title>
<path fill="none" stroke="midnightblue" d="M712.403,-56.7808C698.952,-47.2862 681.325,-34.8434 667.842,-25.3267"/>
<polygon fill="midnightblue" stroke="midnightblue" points="669.855,-22.4632 659.667,-19.5557 665.818,-28.182 669.855,-22.4632"/>
</g>
<!-- Node25 -->
<g id="node25" class="node"><title>Node25</title>
<polygon fill="white" stroke="#bfbfbf" points="718.046,-0.5 718.046,-19.5 759.046,-19.5 759.046,-0.5 718.046,-0.5"/>
<text text-anchor="middle" x="738.546" y="-7.5" font-family="Helvetica,sans-Serif" font-size="10.00">string</text>
</g>
<!-- Node24&#45;&gt;Node25 -->
<g id="edge33" class="edge"><title>Node24&#45;&gt;Node25</title>
<path fill="none" stroke="midnightblue" d="M733.968,-56.7808C734.777,-48.6913 735.8,-38.4617 736.674,-29.725"/>
<polygon fill="midnightblue" stroke="midnightblue" points="740.161,-30.0292 737.673,-19.7305 733.196,-29.3326 740.161,-30.0292"/>
</g>
<!-- Node27&#45;&gt;Node15 -->
<g id="edge37" class="edge"><title>Node27&#45;&gt;Node15</title>
<path fill="none" stroke="midnightblue" d="M465.297,-130.372C447.018,-119.304 415.092,-99.9724 393.4,-86.838"/>
<polygon fill="midnightblue" stroke="midnightblue" points="395.167,-83.8161 384.8,-81.6305 391.541,-89.804 395.167,-83.8161"/>
</g>
<!-- Node27&#45;&gt;Node21 -->
<g id="edge38" class="edge"><title>Node27&#45;&gt;Node21</title>
<path fill="none" stroke="midnightblue" d="M474.937,-130.15C467.068,-113.672 453.464,-77.9689 470.546,-56 484.75,-37.7328 540.297,-25.6674 585.425,-18.67"/>
<polygon fill="midnightblue" stroke="midnightblue" points="586.09,-22.1095 595.463,-17.1689 585.055,-15.1865 586.09,-22.1095"/>
</g>
<!-- Node27&#45;&gt;Node24 -->
<g id="edge39" class="edge"><title>Node27&#45;&gt;Node24</title>
<path fill="none" stroke="midnightblue" d="M512.362,-130.439C551.846,-120.139 619.033,-102.612 668.831,-89.6215"/>
<polygon fill="midnightblue" stroke="midnightblue" points="669.752,-92.9983 678.545,-87.0873 667.985,-86.225 669.752,-92.9983"/>
</g>
<!-- Node27&#45;&gt;Node26 -->
<g id="edge40" class="edge"><title>Node27&#45;&gt;Node26</title>
<path fill="none" stroke="midnightblue" d="M488.698,-130.372C498.425,-121.2 514.171,-106.354 527.208,-94.0615"/>
<polygon fill="midnightblue" stroke="midnightblue" points="529.631,-96.5882 534.505,-87.1815 524.828,-91.495 529.631,-96.5882"/>
</g>
<!-- Node28&#45;&gt;Node26 -->
<g id="edge43" class="edge"><title>Node28&#45;&gt;Node26</title>
<path fill="none" stroke="midnightblue" d="M600.442,-124.679C591.754,-115.857 580.451,-104.38 570.704,-94.4831"/>
<polygon fill="midnightblue" stroke="midnightblue" points="573.134,-91.962 563.623,-87.2931 568.146,-96.8739 573.134,-91.962"/>
</g>
<!-- Node29&#45;&gt;Node10 -->
<g id="edge47" class="edge"><title>Node29&#45;&gt;Node10</title>
<path fill="none" stroke="midnightblue" d="M378.236,-192.922C326.254,-179.927 250.621,-161.019 206.414,-149.967"/>
<polygon fill="midnightblue" stroke="midnightblue" points="207.232,-146.564 196.682,-147.534 205.534,-153.355 207.232,-146.564"/>
</g>
<!-- Node29&#45;&gt;Node14 -->
<g id="edge45" class="edge"><title>Node29&#45;&gt;Node14</title>
<path fill="none" stroke="midnightblue" d="M400.008,-192.841C371.535,-181.169 331.526,-164.768 304.181,-153.558"/>
<polygon fill="midnightblue" stroke="midnightblue" points="305.305,-150.237 294.725,-149.682 302.65,-156.713 305.305,-150.237"/>
</g>
<!-- Node29&#45;&gt;Node15 -->
<g id="edge46" class="edge"><title>Node29&#45;&gt;Node15</title>
<path fill="none" stroke="midnightblue" d="M412.937,-192.881C400.994,-183.843 387.088,-171.01 379.546,-156 369.351,-135.708 368.265,-109.164 368.956,-91.6224"/>
<polygon fill="midnightblue" stroke="midnightblue" points="372.454,-91.7509 369.589,-81.551 365.468,-91.3117 372.454,-91.7509"/>
</g>
<!-- Node29&#45;&gt;Node27 -->
<g id="edge48" class="edge"><title>Node29&#45;&gt;Node27</title>
<path fill="none" stroke="midnightblue" d="M444.311,-192.679C451.188,-182.592 460.433,-169.033 467.727,-158.335"/>
<polygon fill="midnightblue" stroke="midnightblue" points="470.785,-160.062 473.527,-149.828 465.002,-156.119 470.785,-160.062"/>
</g>
<!-- Node30&#45;&gt;Node2 -->
<g id="edge51" class="edge"><title>Node30&#45;&gt;Node2</title>
<path fill="none" stroke="midnightblue" d="M723.814,-403.834C837.716,-387.877 1096.87,-346.49 1165.55,-292 1186.17,-275.638 1197.56,-246.461 1203.11,-227.422"/>
<polygon fill="midnightblue" stroke="midnightblue" points="1206.55,-228.121 1205.73,-217.558 1199.78,-226.324 1206.55,-228.121"/>
</g>
<!-- Node30&#45;&gt;Node6 -->
<g id="edge54" class="edge"><title>Node30&#45;&gt;Node6</title>
<path fill="none" stroke="midnightblue" d="M723.827,-409.927C766.892,-406.278 826.052,-394.646 864.546,-360 874.83,-350.744 903.173,-265.893 915.589,-227.599"/>
<polygon fill="midnightblue" stroke="midnightblue" points="919.031,-228.329 918.767,-217.738 912.368,-226.182 919.031,-228.329"/>
</g>
<!-- Node30&#45;&gt;Node11 -->
<g id="edge55" class="edge"><title>Node30&#45;&gt;Node11</title>
<path fill="none" stroke="midnightblue" d="M615.224,-399.654C560.343,-388.192 475.581,-370.488 417.491,-358.355"/>
<polygon fill="midnightblue" stroke="midnightblue" points="418.192,-354.926 407.688,-356.308 416.761,-361.779 418.192,-354.926"/>
</g>
<!-- Node30&#45;&gt;Node12 -->
<g id="edge53" class="edge"><title>Node30&#45;&gt;Node12</title>
<path fill="none" stroke="midnightblue" d="M630.493,-396.893C570.072,-374.973 450.375,-331.177 349.546,-292 347.311,-291.132 345.005,-290.224 342.687,-289.304"/>
<polygon fill="midnightblue" stroke="midnightblue" points="343.831,-285.992 333.247,-285.516 341.225,-292.488 343.831,-285.992"/>
</g>
<!-- Node30&#45;&gt;Node13 -->
<g id="edge56" class="edge"><title>Node30&#45;&gt;Node13</title>
<path fill="none" stroke="midnightblue" d="M659.061,-396.97C646.179,-380.035 623.346,-350.971 601.546,-328 589.572,-315.383 575.021,-302.187 563.752,-292.38"/>
<polygon fill="midnightblue" stroke="midnightblue" points="565.737,-289.471 555.872,-285.607 561.174,-294.78 565.737,-289.471"/>
</g>
<!-- Node31 -->
<g id="node31" class="node"><title>Node31</title>
<polygon fill="white" stroke="#bfbfbf" points="653.546,-334.5 653.546,-353.5 691.546,-353.5 691.546,-334.5 653.546,-334.5"/>
<text text-anchor="middle" x="672.546" y="-341.5" font-family="Helvetica,sans-Serif" font-size="10.00">array</text>
</g>
<!-- Node30&#45;&gt;Node31 -->
<g id="edge52" class="edge"><title>Node30&#45;&gt;Node31</title>
<path fill="none" stroke="midnightblue" d="M670.197,-396.679C670.633,-387.101 671.21,-374.394 671.684,-363.977"/>
<polygon fill="midnightblue" stroke="midnightblue" points="675.187,-363.977 672.145,-353.828 668.195,-363.659 675.187,-363.977"/>
</g>
<!-- Node32&#45;&gt;Node2 -->
<g id="edge58" class="edge"><title>Node32&#45;&gt;Node2</title>
<path fill="none" stroke="midnightblue" d="M1088.15,-260.841C1114.92,-249.221 1152.48,-232.912 1178.28,-221.706"/>
<polygon fill="midnightblue" stroke="midnightblue" points="1179.77,-224.875 1187.55,-217.682 1176.99,-218.454 1179.77,-224.875"/>
</g>
<!-- Node32&#45;&gt;Node3 -->
<g id="edge61" class="edge"><title>Node32&#45;&gt;Node3</title>
<path fill="none" stroke="midnightblue" d="M1041.66,-260.679C1031.48,-250.184 1017.66,-235.932 1007.11,-225.052"/>
<polygon fill="midnightblue" stroke="midnightblue" points="1009.58,-222.571 1000.11,-217.828 1004.56,-227.444 1009.58,-222.571"/>
</g>
<!-- Node32&#45;&gt;Node6 -->
<g id="edge63" class="edge"><title>Node32&#45;&gt;Node6</title>
<path fill="none" stroke="midnightblue" d="M1026.8,-260.841C1003.52,-249.374 970.968,-233.342 948.251,-222.153"/>
<polygon fill="midnightblue" stroke="midnightblue" points="949.691,-218.961 939.173,-217.682 946.598,-225.24 949.691,-218.961"/>
</g>
<!-- Node32&#45;&gt;Node15 -->
<g id="edge59" class="edge"><title>Node32&#45;&gt;Node15</title>
<path fill="none" stroke="midnightblue" d="M1055.67,-260.864C1054.98,-241.827 1050.62,-208.445 1029.55,-192 921.278,-107.493 527.406,-231.304 412.546,-156 390.315,-141.425 379.308,-111.276 374.283,-91.6086"/>
<polygon fill="midnightblue" stroke="midnightblue" points="377.655,-90.6551 372.024,-81.6808 370.83,-92.2081 377.655,-90.6551"/>
</g>
<!-- Node32&#45;&gt;Node23 -->
<g id="edge62" class="edge"><title>Node32&#45;&gt;Node23</title>
<path fill="none" stroke="midnightblue" d="M1091.15,-260.838C1106.82,-252.6 1123.67,-240.527 1132.55,-224 1139.28,-211.471 1140.5,-203.793 1132.55,-192 1075.43,-107.268 946.634,-82.8481 880.089,-75.8251"/>
<polygon fill="midnightblue" stroke="midnightblue" points="880.256,-72.3249 869.964,-74.8407 879.579,-79.292 880.256,-72.3249"/>
</g>
<!-- Node33 -->
<g id="node33" class="node"><title>Node33</title>
<polygon fill="white" stroke="#bfbfbf" points="1077.55,-198.5 1077.55,-217.5 1123.55,-217.5 1123.55,-198.5 1077.55,-198.5"/>
<text text-anchor="middle" x="1100.55" y="-205.5" font-family="Helvetica,sans-Serif" font-size="10.00">cstring</text>
</g>
<!-- Node32&#45;&gt;Node33 -->
<g id="edge60" class="edge"><title>Node32&#45;&gt;Node33</title>
<path fill="none" stroke="midnightblue" d="M1065.31,-260.679C1072.19,-250.592 1081.43,-237.033 1088.73,-226.335"/>
<polygon fill="midnightblue" stroke="midnightblue" points="1091.79,-228.062 1094.53,-217.828 1086,-224.119 1091.79,-228.062"/>
</g>
<!-- Node34&#45;&gt;Node2 -->
<g id="edge65" class="edge"><title>Node34&#45;&gt;Node2</title>
<path fill="none" stroke="midnightblue" d="M855.851,-339.055C937.104,-332.417 1085.78,-317.211 1132.55,-292 1161.34,-276.477 1184.71,-245.449 1197.33,-226.04"/>
<polygon fill="midnightblue" stroke="midnightblue" points="1200.3,-227.897 1202.64,-217.564 1194.37,-224.182 1200.3,-227.897"/>
</g>
<!-- Node34&#45;&gt;Node3 -->
<g id="edge67" class="edge"><title>Node34&#45;&gt;Node3</title>
<path fill="none" stroke="midnightblue" d="M821.521,-328.913C857.708,-303.391 933.771,-249.747 970.635,-223.748"/>
<polygon fill="midnightblue" stroke="midnightblue" points="972.959,-226.392 979.114,-217.768 968.925,-220.671 972.959,-226.392"/>
</g>
<!-- Node34&#45;&gt;Node4 -->
<g id="edge69" class="edge"><title>Node34&#45;&gt;Node4</title>
<path fill="none" stroke="midnightblue" d="M783.754,-328.679C770.335,-317.879 751.971,-303.098 738.32,-292.11"/>
<polygon fill="midnightblue" stroke="midnightblue" points="740.5,-289.372 730.515,-285.828 736.11,-294.825 740.5,-289.372"/>
</g>
<!-- Node34&#45;&gt;Node5 -->
<g id="edge70" class="edge"><title>Node34&#45;&gt;Node5</title>
<path fill="none" stroke="midnightblue" d="M747.341,-334.614C732.209,-332.364 715.749,-330.003 700.546,-328 561.717,-309.712 517.734,-343.567 387.546,-292 365.398,-283.227 366.627,-268.941 344.546,-260 229.884,-213.571 187.684,-257.306 68.5464,-224 66.0455,-223.301 63.4905,-222.451 60.9602,-221.514"/>
<polygon fill="midnightblue" stroke="midnightblue" points="62.0704,-218.186 51.4911,-217.613 59.4038,-224.659 62.0704,-218.186"/>
</g>
<!-- Node34&#45;&gt;Node6 -->
<g id="edge71" class="edge"><title>Node34&#45;&gt;Node6</title>
<path fill="none" stroke="midnightblue" d="M802.947,-328.849C805.372,-310.995 811.822,-280.187 828.546,-260 837.529,-249.157 868.968,-233.069 892.828,-221.872"/>
<polygon fill="midnightblue" stroke="midnightblue" points="894.571,-224.922 902.18,-217.548 891.634,-218.568 894.571,-224.922"/>
</g>
<!-- Node34&#45;&gt;Node10 -->
<g id="edge68" class="edge"><title>Node34&#45;&gt;Node10</title>
<path fill="none" stroke="midnightblue" d="M747.373,-334.928C662.239,-322.17 504.144,-298.159 478.546,-292 433.999,-281.282 425.138,-270.533 380.546,-260 327.847,-247.552 174.895,-265.021 139.546,-224 122.978,-204.773 140.646,-175.851 155.299,-157.719"/>
<polygon fill="midnightblue" stroke="midnightblue" points="158.253,-159.65 162.088,-149.774 152.931,-155.103 158.253,-159.65"/>
</g>
<!-- Node34&#45;&gt;Node12 -->
<g id="edge66" class="edge"><title>Node34&#45;&gt;Node12</title>
<path fill="none" stroke="midnightblue" d="M747.357,-334.491C732.225,-332.241 715.761,-329.909 700.546,-328 544.948,-308.476 501.732,-329.837 349.546,-292 346.484,-291.239 343.34,-290.273 340.241,-289.201"/>
<polygon fill="midnightblue" stroke="midnightblue" points="341.238,-285.835 330.648,-285.529 338.736,-292.373 341.238,-285.835"/>
</g>
<!-- Node34&#45;&gt;Node13 -->
<g id="edge73" class="edge"><title>Node34&#45;&gt;Node13</title>
<path fill="none" stroke="midnightblue" d="M747.255,-329.003C699.87,-316.787 632.041,-299.299 588.392,-288.046"/>
<polygon fill="midnightblue" stroke="midnightblue" points="589.21,-284.643 578.653,-285.535 587.463,-291.421 589.21,-284.643"/>
</g>
<!-- Node34&#45;&gt;Node32 -->
<g id="edge72" class="edge"><title>Node34&#45;&gt;Node32</title>
<path fill="none" stroke="midnightblue" d="M855.724,-328.922C895.515,-318.583 949.711,-304.501 991.622,-293.61"/>
<polygon fill="midnightblue" stroke="midnightblue" points="992.653,-296.959 1001.45,-291.056 990.893,-290.184 992.653,-296.959"/>
</g>
</g>
</svg>
