<?xml version="1.0" encoding="UTF-8" standalone="no"?>
<!DOCTYPE svg PUBLIC "-//W3C//DTD SVG 1.1//EN"
 "http://www.w3.org/Graphics/SVG/1.1/DTD/svg11.dtd">
<!-- Generated by graphviz version 2.36.0 (20140111.2315)
 -->
<!-- Title: include/shad/core/iterator.h Pages: 1 -->
<svg width="303pt" height="96pt"
 viewBox="0.00 0.00 303.00 96.00" xmlns="http://www.w3.org/2000/svg" xmlns:xlink="http://www.w3.org/1999/xlink">
<g id="graph0" class="graph" transform="scale(1 1) rotate(0) translate(4 92)">
<title>include/shad/core/iterator.h</title>
<polygon fill="white" stroke="none" points="-4,4 -4,-92 299,-92 299,4 -4,4"/>
<!-- Node1 -->
<g id="node1" class="node"><title>Node1</title>
<polygon fill="#bfbfbf" stroke="black" points="80,-68.5 80,-87.5 214,-87.5 214,-68.5 80,-68.5"/>
<text text-anchor="middle" x="147" y="-75.5" font-family="Helvetica,sans-Serif" font-size="10.00">include/shad/core/iterator.h</text>
</g>
<!-- Node2 -->
<g id="node2" class="node"><title>Node2</title>
<g id="a_node2"><a xlink:href="unordered__map_8h.html" target="_top" xlink:title="include/shad/core/unordered\l_map.h">
<polygon fill="white" stroke="black" points="-0.5,-1 -0.5,-31 138.5,-31 138.5,-1 -0.5,-1"/>
<text text-anchor="start" x="7.5" y="-19" font-family="Helvetica,sans-Serif" font-size="10.00">include/shad/core/unordered</text>
<text text-anchor="middle" x="69" y="-8" font-family="Helvetica,sans-Serif" font-size="10.00">_map.h</text>
</a>
</g>
</g>
<!-- Node1&#45;&gt;Node2 -->
<g id="edge1" class="edge"><title>Node1&#45;&gt;Node2</title>
<path fill="none" stroke="midnightblue" d="M127.592,-62.0711C115.293,-52.6097 99.4806,-40.4466 87.3831,-31.1408"/>
<polygon fill="midnightblue" stroke="midnightblue" points="125.764,-65.0805 135.825,-68.4035 130.032,-59.5321 125.764,-65.0805"/>
</g>
<!-- Node3 -->
<g id="node3" class="node"><title>Node3</title>
<g id="a_node3"><a xlink:href="unordered__set_8h.html" target="_top" xlink:title="include/shad/core/unordered\l_set.h">
<polygon fill="white" stroke="black" points="156.5,-1 156.5,-31 295.5,-31 295.5,-1 156.5,-1"/>
<text text-anchor="start" x="164.5" y="-19" font-family="Helvetica,sans-Serif" font-size="10.00">include/shad/core/unordered</text>
<text text-anchor="middle" x="226" y="-8" font-family="Helvetica,sans-Serif" font-size="10.00">_set.h</text>
</a>
</g>
</g>
<!-- Node1&#45;&gt;Node3 -->
<g id="edge2" class="edge"><title>Node1&#45;&gt;Node3</title>
<path fill="none" stroke="midnightblue" d="M166.295,-62.3459C178.803,-52.8461 195.01,-40.5369 207.381,-31.1408"/>
<polygon fill="midnightblue" stroke="midnightblue" points="164.165,-59.5679 158.319,-68.4035 168.399,-65.1424 164.165,-59.5679"/>
</g>
</g>
</svg>
