<?xml version="1.0" encoding="UTF-8" standalone="no"?>
<!DOCTYPE svg PUBLIC "-//W3C//DTD SVG 1.1//EN"
 "http://www.w3.org/Graphics/SVG/1.1/DTD/svg11.dtd">
<!-- Generated by graphviz version 2.36.0 (20140111.2315)
 -->
<!-- Title: include/shad/runtime/locality.h Pages: 1 -->
<svg width="1711pt" height="500pt"
 viewBox="0.00 0.00 1710.90 500.00" xmlns="http://www.w3.org/2000/svg" xmlns:xlink="http://www.w3.org/1999/xlink">
<g id="graph0" class="graph" transform="scale(1 1) rotate(0) translate(4 496)">
<title>include/shad/runtime/locality.h</title>
<polygon fill="white" stroke="none" points="-4,4 -4,-496 1706.9,-496 1706.9,4 -4,4"/>
<!-- Node1 -->
<g id="node1" class="node"><title>Node1</title>
<polygon fill="#bfbfbf" stroke="black" points="586.5,-461 586.5,-491 693.5,-491 693.5,-461 586.5,-461"/>
<text text-anchor="start" x="594.5" y="-479" font-family="Helvetica,sans-Serif" font-size="10.00">include/shad/runtime</text>
<text text-anchor="middle" x="640" y="-468" font-family="Helvetica,sans-Serif" font-size="10.00">/locality.h</text>
</g>
<!-- Node2 -->
<g id="node2" class="node"><title>Node2</title>
<g id="a_node2"><a xlink:href="distributed__iterator__traits_8h.html" target="_top" xlink:title="include/shad/distributed\l_iterator_traits.h">
<polygon fill="white" stroke="black" points="-0.5,-304 -0.5,-334 118.5,-334 118.5,-304 -0.5,-304"/>
<text text-anchor="start" x="7.5" y="-322" font-family="Helvetica,sans-Serif" font-size="10.00">include/shad/distributed</text>
<text text-anchor="middle" x="59" y="-311" font-family="Helvetica,sans-Serif" font-size="10.00">_iterator_traits.h</text>
</a>
</g>
</g>
<!-- Node1&#45;&gt;Node2 -->
<g id="edge1" class="edge"><title>Node1&#45;&gt;Node2</title>
<path fill="none" stroke="midnightblue" d="M576.339,-472.245C468.704,-466.857 255.756,-452.844 187,-424 137.626,-403.287 92.0853,-357.342 71.1231,-334.079"/>
<polygon fill="midnightblue" stroke="midnightblue" points="576.259,-475.745 586.418,-472.739 576.602,-468.753 576.259,-475.745"/>
</g>
<!-- Node7 -->
<g id="node7" class="node"><title>Node7</title>
<g id="a_node7"><a xlink:href="asynchronous__interface_8h.html" target="_top" xlink:title="include/shad/runtime\l/asynchronous_interface.h">
<polygon fill="white" stroke="black" points="213.5,-388 213.5,-418 344.5,-418 344.5,-388 213.5,-388"/>
<text text-anchor="start" x="221.5" y="-406" font-family="Helvetica,sans-Serif" font-size="10.00">include/shad/runtime</text>
<text text-anchor="middle" x="279" y="-395" font-family="Helvetica,sans-Serif" font-size="10.00">/asynchronous_interface.h</text>
</a>
</g>
</g>
<!-- Node1&#45;&gt;Node7 -->
<g id="edge6" class="edge"><title>Node1&#45;&gt;Node7</title>
<path fill="none" stroke="midnightblue" d="M576.484,-464.692C519.377,-455.135 433.301,-440.012 359,-424 350.603,-422.19 341.748,-420.13 333.11,-418.037"/>
<polygon fill="midnightblue" stroke="midnightblue" points="576.009,-468.161 586.448,-466.353 577.159,-461.257 576.009,-468.161"/>
</g>
<!-- Node8 -->
<g id="node8" class="node"><title>Node8</title>
<g id="a_node8"><a xlink:href="cpp__simple__asynchronous__interface_8h.html" target="_top" xlink:title="include/shad/runtime\l/mappings/cpp_simple\l/cpp_simple_asynchronous\l_interface.h">
<polygon fill="white" stroke="black" points="136.5,-293 136.5,-345 271.5,-345 271.5,-293 136.5,-293"/>
<text text-anchor="start" x="144.5" y="-333" font-family="Helvetica,sans-Serif" font-size="10.00">include/shad/runtime</text>
<text text-anchor="start" x="144.5" y="-322" font-family="Helvetica,sans-Serif" font-size="10.00">/mappings/cpp_simple</text>
<text text-anchor="start" x="144.5" y="-311" font-family="Helvetica,sans-Serif" font-size="10.00">/cpp_simple_asynchronous</text>
<text text-anchor="middle" x="204" y="-300" font-family="Helvetica,sans-Serif" font-size="10.00">_interface.h</text>
</a>
</g>
</g>
<!-- Node1&#45;&gt;Node8 -->
<g id="edge10" class="edge"><title>Node1&#45;&gt;Node8</title>
<path fill="none" stroke="midnightblue" d="M576.356,-472.151C461.303,-466.345 228.312,-451.322 204,-424 185.156,-402.823 189.425,-368.505 195.545,-345.129"/>
<polygon fill="midnightblue" stroke="midnightblue" points="576.281,-475.652 586.442,-472.652 576.628,-468.66 576.281,-475.652"/>
</g>
<!-- Node9 -->
<g id="node9" class="node"><title>Node9</title>
<g id="a_node9"><a xlink:href="gmt__asynchronous__interface_8h.html" target="_top" xlink:title="include/shad/runtime\l/mappings/gmt/gmt_asynchronous\l_interface.h">
<polygon fill="white" stroke="black" points="289.5,-298.5 289.5,-339.5 456.5,-339.5 456.5,-298.5 289.5,-298.5"/>
<text text-anchor="start" x="297.5" y="-327.5" font-family="Helvetica,sans-Serif" font-size="10.00">include/shad/runtime</text>
<text text-anchor="start" x="297.5" y="-316.5" font-family="Helvetica,sans-Serif" font-size="10.00">/mappings/gmt/gmt_asynchronous</text>
<text text-anchor="middle" x="373" y="-305.5" font-family="Helvetica,sans-Serif" font-size="10.00">_interface.h</text>
</a>
</g>
</g>
<!-- Node1&#45;&gt;Node9 -->
<g id="edge15" class="edge"><title>Node1&#45;&gt;Node9</title>
<path fill="none" stroke="midnightblue" d="M576.108,-469.898C511.321,-463.368 417.127,-449.689 392,-424 370.182,-401.694 368.962,-363.151 370.605,-339.773"/>
<polygon fill="midnightblue" stroke="midnightblue" points="575.946,-473.399 586.239,-470.886 576.625,-466.432 575.946,-473.399"/>
</g>
<!-- Node10 -->
<g id="node10" class="node"><title>Node10</title>
<g id="a_node10"><a xlink:href="tbb__asynchronous__interface_8h.html" target="_top" xlink:title="include/shad/runtime\l/mappings/tbb/tbb_asynchronous\l_interface.h">
<polygon fill="white" stroke="black" points="474.5,-298.5 474.5,-339.5 635.5,-339.5 635.5,-298.5 474.5,-298.5"/>
<text text-anchor="start" x="482.5" y="-327.5" font-family="Helvetica,sans-Serif" font-size="10.00">include/shad/runtime</text>
<text text-anchor="start" x="482.5" y="-316.5" font-family="Helvetica,sans-Serif" font-size="10.00">/mappings/tbb/tbb_asynchronous</text>
<text text-anchor="middle" x="555" y="-305.5" font-family="Helvetica,sans-Serif" font-size="10.00">_interface.h</text>
</a>
</g>
</g>
<!-- Node1&#45;&gt;Node10 -->
<g id="edge20" class="edge"><title>Node1&#45;&gt;Node10</title>
<path fill="none" stroke="midnightblue" d="M595.822,-455.815C582.741,-447.901 569.835,-437.388 562,-424 546.736,-397.917 548.408,-361.607 551.415,-339.512"/>
<polygon fill="midnightblue" stroke="midnightblue" points="594.412,-459.038 604.845,-460.882 597.84,-452.934 594.412,-459.038"/>
</g>
<!-- Node11 -->
<g id="node11" class="node"><title>Node11</title>
<g id="a_node11"><a xlink:href="cpp__simple__synchronous__interface_8h.html" target="_top" xlink:title="include/shad/runtime\l/mappings/cpp_simple\l/cpp_simple_synchronous\l_interface.h">
<polygon fill="white" stroke="black" points="654,-293 654,-345 784,-345 784,-293 654,-293"/>
<text text-anchor="start" x="662" y="-333" font-family="Helvetica,sans-Serif" font-size="10.00">include/shad/runtime</text>
<text text-anchor="start" x="662" y="-322" font-family="Helvetica,sans-Serif" font-size="10.00">/mappings/cpp_simple</text>
<text text-anchor="start" x="662" y="-311" font-family="Helvetica,sans-Serif" font-size="10.00">/cpp_simple_synchronous</text>
<text text-anchor="middle" x="719" y="-300" font-family="Helvetica,sans-Serif" font-size="10.00">_interface.h</text>
</a>
</g>
</g>
<!-- Node1&#45;&gt;Node11 -->
<g id="edge11" class="edge"><title>Node1&#45;&gt;Node11</title>
<path fill="none" stroke="midnightblue" d="M703.831,-469.376C763.391,-462.65 845.996,-449.021 866,-424 877.656,-409.42 876.321,-397.554 866,-382 860.889,-374.297 821.133,-357.768 784.255,-343.712"/>
<polygon fill="midnightblue" stroke="midnightblue" points="703.305,-465.913 693.742,-470.475 704.063,-472.872 703.305,-465.913"/>
</g>
<!-- Node12 -->
<g id="node12" class="node"><title>Node12</title>
<g id="a_node12"><a xlink:href="cpp__simple__utility_8h.html" target="_top" xlink:title="include/shad/runtime\l/mappings/cpp_simple\l/cpp_simple_utility.h">
<polygon fill="white" stroke="black" points="401,-382.5 401,-423.5 515,-423.5 515,-382.5 401,-382.5"/>
<text text-anchor="start" x="409" y="-411.5" font-family="Helvetica,sans-Serif" font-size="10.00">include/shad/runtime</text>
<text text-anchor="start" x="409" y="-400.5" font-family="Helvetica,sans-Serif" font-size="10.00">/mappings/cpp_simple</text>
<text text-anchor="middle" x="458" y="-389.5" font-family="Helvetica,sans-Serif" font-size="10.00">/cpp_simple_utility.h</text>
</a>
</g>
</g>
<!-- Node1&#45;&gt;Node12 -->
<g id="edge12" class="edge"><title>Node1&#45;&gt;Node12</title>
<path fill="none" stroke="midnightblue" d="M594.675,-457.318C568.336,-447.043 535.104,-434.079 508.005,-423.507"/>
<polygon fill="midnightblue" stroke="midnightblue" points="593.454,-460.599 604.043,-460.973 595.998,-454.078 593.454,-460.599"/>
</g>
<!-- Node13 -->
<g id="node13" class="node"><title>Node13</title>
<g id="a_node13"><a xlink:href="gmt__synchronous__interface_8h.html" target="_top" xlink:title="include/shad/runtime\l/mappings/gmt/gmt_synchronous\l_interface.h">
<polygon fill="white" stroke="black" points="802.5,-298.5 802.5,-339.5 963.5,-339.5 963.5,-298.5 802.5,-298.5"/>
<text text-anchor="start" x="810.5" y="-327.5" font-family="Helvetica,sans-Serif" font-size="10.00">include/shad/runtime</text>
<text text-anchor="start" x="810.5" y="-316.5" font-family="Helvetica,sans-Serif" font-size="10.00">/mappings/gmt/gmt_synchronous</text>
<text text-anchor="middle" x="883" y="-305.5" font-family="Helvetica,sans-Serif" font-size="10.00">_interface.h</text>
</a>
</g>
</g>
<!-- Node1&#45;&gt;Node13 -->
<g id="edge16" class="edge"><title>Node1&#45;&gt;Node13</title>
<path fill="none" stroke="midnightblue" d="M703.782,-470.655C768.594,-464.755 862.557,-451.596 885,-424 904.256,-400.322 897.217,-362.583 890.208,-339.666"/>
<polygon fill="midnightblue" stroke="midnightblue" points="703.303,-467.183 693.646,-471.541 703.912,-474.157 703.303,-467.183"/>
</g>
<!-- Node14 -->
<g id="node14" class="node"><title>Node14</title>
<g id="a_node14"><a xlink:href="gmt__utility_8h.html" target="_top" xlink:title="include/shad/runtime\l/mappings/gmt/gmt_utility.h">
<polygon fill="white" stroke="black" points="571.5,-388 571.5,-418 708.5,-418 708.5,-388 571.5,-388"/>
<text text-anchor="start" x="579.5" y="-406" font-family="Helvetica,sans-Serif" font-size="10.00">include/shad/runtime</text>
<text text-anchor="middle" x="640" y="-395" font-family="Helvetica,sans-Serif" font-size="10.00">/mappings/gmt/gmt_utility.h</text>
</a>
</g>
</g>
<!-- Node1&#45;&gt;Node14 -->
<g id="edge17" class="edge"><title>Node1&#45;&gt;Node14</title>
<path fill="none" stroke="midnightblue" d="M640,-450.898C640,-440.131 640,-427.801 640,-418.486"/>
<polygon fill="midnightblue" stroke="midnightblue" points="636.5,-450.973 640,-460.973 643.5,-450.973 636.5,-450.973"/>
</g>
<!-- Node15 -->
<g id="node15" class="node"><title>Node15</title>
<g id="a_node15"><a xlink:href="tbb__synchronous__interface_8h.html" target="_top" xlink:title="include/shad/runtime\l/mappings/tbb/tbb_synchronous\l_interface.h">
<polygon fill="white" stroke="black" points="981.5,-298.5 981.5,-339.5 1136.5,-339.5 1136.5,-298.5 981.5,-298.5"/>
<text text-anchor="start" x="989.5" y="-327.5" font-family="Helvetica,sans-Serif" font-size="10.00">include/shad/runtime</text>
<text text-anchor="start" x="989.5" y="-316.5" font-family="Helvetica,sans-Serif" font-size="10.00">/mappings/tbb/tbb_synchronous</text>
<text text-anchor="middle" x="1059" y="-305.5" font-family="Helvetica,sans-Serif" font-size="10.00">_interface.h</text>
</a>
</g>
</g>
<!-- Node1&#45;&gt;Node15 -->
<g id="edge21" class="edge"><title>Node1&#45;&gt;Node15</title>
<path fill="none" stroke="midnightblue" d="M703.907,-472.336C821.374,-466.779 1061.95,-452.073 1087,-424 1108.04,-400.423 1089.1,-362.651 1073.79,-339.701"/>
<polygon fill="midnightblue" stroke="midnightblue" points="703.443,-468.853 693.616,-472.814 703.768,-475.846 703.443,-468.853"/>
</g>
<!-- Node16 -->
<g id="node16" class="node"><title>Node16</title>
<g id="a_node16"><a xlink:href="tbb__utility_8h.html" target="_top" xlink:title="include/shad/runtime\l/mappings/tbb/tbb_utility.h">
<polygon fill="white" stroke="black" points="726.5,-388 726.5,-418 857.5,-418 857.5,-388 726.5,-388"/>
<text text-anchor="start" x="734.5" y="-406" font-family="Helvetica,sans-Serif" font-size="10.00">include/shad/runtime</text>
<text text-anchor="middle" x="792" y="-395" font-family="Helvetica,sans-Serif" font-size="10.00">/mappings/tbb/tbb_utility.h</text>
</a>
</g>
</g>
<!-- Node1&#45;&gt;Node16 -->
<g id="edge22" class="edge"><title>Node1&#45;&gt;Node16</title>
<path fill="none" stroke="midnightblue" d="M679.145,-456.715C704.884,-444.692 738.064,-429.194 761.772,-418.12"/>
<polygon fill="midnightblue" stroke="midnightblue" points="677.609,-453.569 670.03,-460.973 680.572,-459.912 677.609,-453.569"/>
</g>
<!-- Node17 -->
<g id="node17" class="node"><title>Node17</title>
<g id="a_node17"><a xlink:href="runtime_8h.html" target="_top" xlink:title="include/shad/runtime\l/runtime.h">
<polygon fill="white" stroke="black" points="1154.5,-304 1154.5,-334 1261.5,-334 1261.5,-304 1154.5,-304"/>
<text text-anchor="start" x="1162.5" y="-322" font-family="Helvetica,sans-Serif" font-size="10.00">include/shad/runtime</text>
<text text-anchor="middle" x="1208" y="-311" font-family="Helvetica,sans-Serif" font-size="10.00">/runtime.h</text>
</a>
</g>
</g>
<!-- Node1&#45;&gt;Node17 -->
<g id="edge25" class="edge"><title>Node1&#45;&gt;Node17</title>
<path fill="none" stroke="midnightblue" d="M703.813,-473.288C814.427,-469.455 1036.6,-457.699 1106,-424 1148.54,-403.342 1183.36,-357.371 1199.04,-334.091"/>
<polygon fill="midnightblue" stroke="midnightblue" points="703.664,-469.79 693.787,-473.624 703.899,-476.787 703.664,-469.79"/>
</g>
<!-- Node34 -->
<g id="node34" class="node"><title>Node34</title>
<g id="a_node34"><a xlink:href="synchronous__interface_8h.html" target="_top" xlink:title="include/shad/runtime\l/synchronous_interface.h">
<polygon fill="white" stroke="black" points="952,-388 952,-418 1078,-418 1078,-388 952,-388"/>
<text text-anchor="start" x="960" y="-406" font-family="Helvetica,sans-Serif" font-size="10.00">include/shad/runtime</text>
<text text-anchor="middle" x="1015" y="-395" font-family="Helvetica,sans-Serif" font-size="10.00">/synchronous_interface.h</text>
</a>
</g>
</g>
<!-- Node1&#45;&gt;Node34 -->
<g id="edge69" class="edge"><title>Node1&#45;&gt;Node34</title>
<path fill="none" stroke="midnightblue" d="M703.722,-465.693C764.264,-456.474 857.718,-441.264 938,-424 946.237,-422.229 954.92,-420.166 963.37,-418.051"/>
<polygon fill="midnightblue" stroke="midnightblue" points="702.918,-462.275 693.554,-467.232 703.965,-469.196 702.918,-462.275"/>
</g>
<!-- Node3 -->
<g id="node3" class="node"><title>Node3</title>
<g id="a_node3"><a xlink:href="algorithm_8h.html" target="_top" xlink:title="include/shad/core/algorithm.h">
<polygon fill="white" stroke="black" points="343,-230.5 343,-249.5 487,-249.5 487,-230.5 343,-230.5"/>
<text text-anchor="middle" x="415" y="-237.5" font-family="Helvetica,sans-Serif" font-size="10.00">include/shad/core/algorithm.h</text>
</a>
</g>
</g>
<!-- Node2&#45;&gt;Node3 -->
<g id="edge2" class="edge"><title>Node2&#45;&gt;Node3</title>
<path fill="none" stroke="midnightblue" d="M101.652,-300.279C109.965,-297.228 118.683,-294.304 127,-292 200.403,-271.667 286.664,-257.652 345.514,-249.532"/>
<polygon fill="midnightblue" stroke="midnightblue" points="100.238,-297.071 92.1269,-303.887 102.718,-303.617 100.238,-297.071"/>
</g>
<!-- Node4 -->
<g id="node4" class="node"><title>Node4</title>
<g id="a_node4"><a xlink:href="data__structures_2array_8h.html" target="_top" xlink:title="include/shad/data_structures\l/array.h">
<polygon fill="white" stroke="black" points="493,-79 493,-109 635,-109 635,-79 493,-79"/>
<text text-anchor="start" x="501" y="-97" font-family="Helvetica,sans-Serif" font-size="10.00">include/shad/data_structures</text>
<text text-anchor="middle" x="564" y="-86" font-family="Helvetica,sans-Serif" font-size="10.00">/array.h</text>
</a>
</g>
</g>
<!-- Node2&#45;&gt;Node4 -->
<g id="edge3" class="edge"><title>Node2&#45;&gt;Node4</title>
<path fill="none" stroke="midnightblue" d="M100.28,-299.771C198.475,-256.41 444.311,-147.853 532.167,-109.057"/>
<polygon fill="midnightblue" stroke="midnightblue" points="98.7071,-296.64 90.9731,-303.881 101.535,-303.043 98.7071,-296.64"/>
</g>
<!-- Node5 -->
<g id="node5" class="node"><title>Node5</title>
<g id="a_node5"><a xlink:href="core_2array_8h.html" target="_top" xlink:title="include/shad/core/array.h">
<polygon fill="white" stroke="black" points="501,-11.5 501,-30.5 627,-30.5 627,-11.5 501,-11.5"/>
<text text-anchor="middle" x="564" y="-18.5" font-family="Helvetica,sans-Serif" font-size="10.00">include/shad/core/array.h</text>
</a>
</g>
</g>
<!-- Node4&#45;&gt;Node5 -->
<g id="edge4" class="edge"><title>Node4&#45;&gt;Node5</title>
<path fill="none" stroke="midnightblue" d="M564,-68.6317C564,-55.4675 564,-40.0312 564,-30.6372"/>
<polygon fill="midnightblue" stroke="midnightblue" points="560.5,-68.9727 564,-78.9727 567.5,-68.9727 560.5,-68.9727"/>
</g>
<!-- Node6 -->
<g id="node6" class="node"><title>Node6</title>
<g id="a_node6"><a xlink:href="sssp_8h.html" target="_top" xlink:title="include/shad/extensions\l/graph_library/algorithms\l/sssp.h">
<polygon fill="white" stroke="black" points="1264.5,-0.5 1264.5,-41.5 1387.5,-41.5 1387.5,-0.5 1264.5,-0.5"/>
<text text-anchor="start" x="1272.5" y="-29.5" font-family="Helvetica,sans-Serif" font-size="10.00">include/shad/extensions</text>
<text text-anchor="start" x="1272.5" y="-18.5" font-family="Helvetica,sans-Serif" font-size="10.00">/graph_library/algorithms</text>
<text text-anchor="middle" x="1326" y="-7.5" font-family="Helvetica,sans-Serif" font-size="10.00">/sssp.h</text>
</a>
</g>
</g>
<!-- Node4&#45;&gt;Node6 -->
<g id="edge5" class="edge"><title>Node4&#45;&gt;Node6</title>
<path fill="none" stroke="midnightblue" d="M645.152,-77.9766C915.806,-45.8871 990.02,-86.5897 1255,-42 1258.03,-41.49 1261.12,-40.8998 1264.22,-40.249"/>
<polygon fill="midnightblue" stroke="midnightblue" points="644.535,-74.5256 635.027,-79.1999 645.375,-81.4751 644.535,-74.5256"/>
</g>
<!-- Node7&#45;&gt;Node8 -->
<g id="edge7" class="edge"><title>Node7&#45;&gt;Node8</title>
<path fill="none" stroke="midnightblue" d="M259.154,-380.301C249.246,-369.469 237.208,-356.308 226.91,-345.048"/>
<polygon fill="midnightblue" stroke="midnightblue" points="256.604,-382.7 265.936,-387.717 261.77,-377.975 256.604,-382.7"/>
</g>
<!-- Node7&#45;&gt;Node9 -->
<g id="edge8" class="edge"><title>Node7&#45;&gt;Node9</title>
<path fill="none" stroke="midnightblue" d="M303.031,-381.037C317.633,-368.299 336.157,-352.139 350.477,-339.648"/>
<polygon fill="midnightblue" stroke="midnightblue" points="300.608,-378.505 295.374,-387.717 305.21,-383.78 300.608,-378.505"/>
</g>
<!-- Node7&#45;&gt;Node10 -->
<g id="edge9" class="edge"><title>Node7&#45;&gt;Node10</title>
<path fill="none" stroke="midnightblue" d="M335.928,-385.087C380.482,-371.85 442.506,-353.422 489.189,-339.553"/>
<polygon fill="midnightblue" stroke="midnightblue" points="334.722,-381.794 326.132,-387.997 336.715,-388.504 334.722,-381.794"/>
</g>
<!-- Node12&#45;&gt;Node8 -->
<g id="edge13" class="edge"><title>Node12&#45;&gt;Node8</title>
<path fill="none" stroke="midnightblue" d="M391.293,-381.444C357.824,-371.021 316.699,-358.048 280,-346 277.218,-345.087 274.38,-344.148 271.516,-343.195"/>
<polygon fill="midnightblue" stroke="midnightblue" points="390.38,-384.825 400.968,-384.452 392.459,-378.141 390.38,-384.825"/>
</g>
<!-- Node12&#45;&gt;Node11 -->
<g id="edge14" class="edge"><title>Node12&#45;&gt;Node11</title>
<path fill="none" stroke="midnightblue" d="M524.939,-382.572C560.43,-372.089 604.702,-358.722 644,-346 647.147,-344.981 650.363,-343.925 653.607,-342.848"/>
<polygon fill="midnightblue" stroke="midnightblue" points="523.776,-379.266 515.173,-385.45 525.755,-385.981 523.776,-379.266"/>
</g>
<!-- Node14&#45;&gt;Node9 -->
<g id="edge18" class="edge"><title>Node14&#45;&gt;Node9</title>
<path fill="none" stroke="midnightblue" d="M584.657,-385.003C541.575,-371.772 481.731,-353.393 436.665,-339.553"/>
<polygon fill="midnightblue" stroke="midnightblue" points="583.818,-388.407 594.404,-387.997 585.873,-381.715 583.818,-388.407"/>
</g>
<!-- Node14&#45;&gt;Node13 -->
<g id="edge19" class="edge"><title>Node14&#45;&gt;Node13</title>
<path fill="none" stroke="midnightblue" d="M691.096,-384.758C730.177,-371.57 784.094,-353.376 824.83,-339.629"/>
<polygon fill="midnightblue" stroke="midnightblue" points="689.853,-381.483 681.497,-387.997 692.091,-388.116 689.853,-381.483"/>
</g>
<!-- Node16&#45;&gt;Node10 -->
<g id="edge23" class="edge"><title>Node16&#45;&gt;Node10</title>
<path fill="none" stroke="midnightblue" d="M741.68,-384.59C703.605,-371.416 651.295,-353.317 611.734,-339.629"/>
<polygon fill="midnightblue" stroke="midnightblue" points="740.933,-388.035 751.528,-387.997 743.222,-381.419 740.933,-388.035"/>
</g>
<!-- Node16&#45;&gt;Node15 -->
<g id="edge24" class="edge"><title>Node16&#45;&gt;Node15</title>
<path fill="none" stroke="midnightblue" d="M847.343,-385.003C890.425,-371.772 950.269,-353.393 995.335,-339.553"/>
<polygon fill="midnightblue" stroke="midnightblue" points="846.127,-381.715 837.596,-387.997 848.182,-388.407 846.127,-381.715"/>
</g>
<!-- Node17&#45;&gt;Node3 -->
<g id="edge26" class="edge"><title>Node17&#45;&gt;Node3</title>
<path fill="none" stroke="midnightblue" d="M1170.21,-300.081C1162.05,-296.877 1153.37,-293.945 1145,-292 906.393,-236.539 839.293,-274.172 595,-256 559.506,-253.36 520.103,-250.112 487.235,-247.315"/>
<polygon fill="midnightblue" stroke="midnightblue" points="1168.9,-303.329 1179.48,-303.923 1171.58,-296.862 1168.9,-303.329"/>
</g>
<!-- Node17&#45;&gt;Node4 -->
<g id="edge39" class="edge"><title>Node17&#45;&gt;Node4</title>
<path fill="none" stroke="midnightblue" d="M1169.67,-300.005C1161.67,-296.87 1153.18,-293.983 1145,-292 960.776,-247.317 891.28,-337.23 720,-256 649.316,-222.478 593.459,-142.344 572.72,-109.459"/>
<polygon fill="midnightblue" stroke="midnightblue" points="1168.56,-303.332 1179.14,-303.909 1171.23,-296.861 1168.56,-303.332"/>
</g>
<!-- Node17&#45;&gt;Node6 -->
<g id="edge63" class="edge"><title>Node17&#45;&gt;Node6</title>
<path fill="none" stroke="midnightblue" d="M1217.51,-294.133C1240.22,-237.187 1297.22,-94.2049 1318.14,-41.7189"/>
<polygon fill="midnightblue" stroke="midnightblue" points="1214.14,-293.138 1213.69,-303.723 1220.65,-295.73 1214.14,-293.138"/>
</g>
<!-- Node18 -->
<g id="node18" class="node"><title>Node18</title>
<g id="a_node18"><a xlink:href="abstract__data__structure_8h.html" target="_top" xlink:title="include/shad/data_structures\l/abstract_data_structure.h">
<polygon fill="white" stroke="black" points="817,-152 817,-182 959,-182 959,-152 817,-152"/>
<text text-anchor="start" x="825" y="-170" font-family="Helvetica,sans-Serif" font-size="10.00">include/shad/data_structures</text>
<text text-anchor="middle" x="888" y="-159" font-family="Helvetica,sans-Serif" font-size="10.00">/abstract_data_structure.h</text>
</a>
</g>
</g>
<!-- Node17&#45;&gt;Node18 -->
<g id="edge27" class="edge"><title>Node17&#45;&gt;Node18</title>
<path fill="none" stroke="midnightblue" d="M1169.66,-300.043C1161.66,-296.905 1153.17,-294.007 1145,-292 1058.97,-270.864 807.743,-321.406 748,-256 717.409,-222.509 777.907,-196.838 828.71,-182.091"/>
<polygon fill="midnightblue" stroke="midnightblue" points="1168.55,-303.37 1179.13,-303.947 1171.22,-296.899 1168.55,-303.37"/>
</g>
<!-- Node19 -->
<g id="node19" class="node"><title>Node19</title>
<g id="a_node19"><a xlink:href="hashmap_8h.html" target="_top" xlink:title="include/shad/data_structures\l/hashmap.h">
<polygon fill="white" stroke="black" points="973,-79 973,-109 1115,-109 1115,-79 973,-79"/>
<text text-anchor="start" x="981" y="-97" font-family="Helvetica,sans-Serif" font-size="10.00">include/shad/data_structures</text>
<text text-anchor="middle" x="1044" y="-86" font-family="Helvetica,sans-Serif" font-size="10.00">/hashmap.h</text>
</a>
</g>
</g>
<!-- Node17&#45;&gt;Node19 -->
<g id="edge46" class="edge"><title>Node17&#45;&gt;Node19</title>
<path fill="none" stroke="midnightblue" d="M1202.45,-293.84C1193.16,-257.95 1171.5,-190.061 1132,-146 1117.62,-129.958 1096.96,-117.624 1079.27,-109.106"/>
<polygon fill="midnightblue" stroke="midnightblue" points="1199.13,-295.024 1204.94,-303.889 1205.93,-293.341 1199.13,-295.024"/>
</g>
<!-- Node22 -->
<g id="node22" class="node"><title>Node22</title>
<g id="a_node22"><a xlink:href="set_8h.html" target="_top" xlink:title="include/shad/data_structures\l/set.h">
<polygon fill="white" stroke="black" points="1133,-79 1133,-109 1275,-109 1275,-79 1133,-79"/>
<text text-anchor="start" x="1141" y="-97" font-family="Helvetica,sans-Serif" font-size="10.00">include/shad/data_structures</text>
<text text-anchor="middle" x="1204" y="-86" font-family="Helvetica,sans-Serif" font-size="10.00">/set.h</text>
</a>
</g>
</g>
<!-- Node17&#45;&gt;Node22 -->
<g id="edge61" class="edge"><title>Node17&#45;&gt;Node22</title>
<path fill="none" stroke="midnightblue" d="M1207.56,-293.583C1206.72,-246.899 1204.92,-146.324 1204.25,-109.17"/>
<polygon fill="midnightblue" stroke="midnightblue" points="1204.06,-293.776 1207.74,-303.711 1211.06,-293.65 1204.06,-293.776"/>
</g>
<!-- Node24 -->
<g id="node24" class="node"><title>Node24</title>
<g id="a_node24"><a xlink:href="vector_8h.html" target="_top" xlink:title="include/shad/data_structures\l/vector.h">
<polygon fill="white" stroke="black" points="813,-79 813,-109 955,-109 955,-79 813,-79"/>
<text text-anchor="start" x="821" y="-97" font-family="Helvetica,sans-Serif" font-size="10.00">include/shad/data_structures</text>
<text text-anchor="middle" x="884" y="-86" font-family="Helvetica,sans-Serif" font-size="10.00">/vector.h</text>
</a>
</g>
</g>
<!-- Node17&#45;&gt;Node24 -->
<g id="edge62" class="edge"><title>Node17&#45;&gt;Node24</title>
<path fill="none" stroke="midnightblue" d="M1169.67,-300.026C1161.66,-296.889 1153.17,-293.996 1145,-292 1056.37,-270.347 797.623,-323.286 736,-256 686.253,-201.682 796.897,-137.231 853.408,-109.198"/>
<polygon fill="midnightblue" stroke="midnightblue" points="1168.55,-303.353 1179.13,-303.931 1171.22,-296.882 1168.55,-303.353"/>
</g>
<!-- Node25 -->
<g id="node25" class="node"><title>Node25</title>
<g id="a_node25"><a xlink:href="edge__index_8h.html" target="_top" xlink:title="include/shad/extensions\l/graph_library/edge_index.h">
<polygon fill="white" stroke="black" points="1331,-79 1331,-109 1467,-109 1467,-79 1331,-79"/>
<text text-anchor="start" x="1339" y="-97" font-family="Helvetica,sans-Serif" font-size="10.00">include/shad/extensions</text>
<text text-anchor="middle" x="1399" y="-86" font-family="Helvetica,sans-Serif" font-size="10.00">/graph_library/edge_index.h</text>
</a>
</g>
</g>
<!-- Node17&#45;&gt;Node25 -->
<g id="edge65" class="edge"><title>Node17&#45;&gt;Node25</title>
<path fill="none" stroke="midnightblue" d="M1243.1,-298.5C1260.88,-287.525 1282.02,-272.685 1298,-256 1342.97,-209.06 1378.54,-139.023 1392.54,-109.233"/>
<polygon fill="midnightblue" stroke="midnightblue" points="1240.92,-295.725 1234.16,-303.877 1244.53,-301.724 1240.92,-295.725"/>
</g>
<!-- Node26 -->
<g id="node26" class="node"><title>Node26</title>
<g id="a_node26"><a xlink:href="attributed__edge__index_8h.html" target="_top" xlink:title="include/shad/extensions\l/graph_library/attributed\l_edge_index.h">
<polygon fill="white" stroke="black" points="1520,-0.5 1520,-41.5 1642,-41.5 1642,-0.5 1520,-0.5"/>
<text text-anchor="start" x="1528" y="-29.5" font-family="Helvetica,sans-Serif" font-size="10.00">include/shad/extensions</text>
<text text-anchor="start" x="1528" y="-18.5" font-family="Helvetica,sans-Serif" font-size="10.00">/graph_library/attributed</text>
<text text-anchor="middle" x="1581" y="-7.5" font-family="Helvetica,sans-Serif" font-size="10.00">_edge_index.h</text>
</a>
</g>
</g>
<!-- Node17&#45;&gt;Node26 -->
<g id="edge64" class="edge"><title>Node17&#45;&gt;Node26</title>
<path fill="none" stroke="midnightblue" d="M1272.08,-314.175C1394.45,-306.214 1651.64,-286.067 1678,-256 1731.15,-195.375 1688.14,-144.804 1643,-78 1633.66,-64.1793 1620.2,-51.475 1608.21,-41.673"/>
<polygon fill="midnightblue" stroke="midnightblue" points="1271.49,-310.705 1261.74,-314.84 1271.94,-317.691 1271.49,-310.705"/>
</g>
<!-- Node27 -->
<g id="node27" class="node"><title>Node27</title>
<g id="a_node27"><a xlink:href="buffer_8h.html" target="_top" xlink:title="include/shad/data_structures\l/buffer.h">
<polygon fill="white" stroke="black" points="981,-152 981,-182 1123,-182 1123,-152 981,-152"/>
<text text-anchor="start" x="989" y="-170" font-family="Helvetica,sans-Serif" font-size="10.00">include/shad/data_structures</text>
<text text-anchor="middle" x="1052" y="-159" font-family="Helvetica,sans-Serif" font-size="10.00">/buffer.h</text>
</a>
</g>
</g>
<!-- Node17&#45;&gt;Node27 -->
<g id="edge40" class="edge"><title>Node17&#45;&gt;Node27</title>
<path fill="none" stroke="midnightblue" d="M1192.72,-295.696C1178.39,-275.657 1155.66,-246.075 1132,-224 1114.65,-207.807 1092.35,-192.577 1075.7,-182.1"/>
<polygon fill="midnightblue" stroke="midnightblue" points="1189.89,-297.753 1198.51,-303.91 1195.61,-293.72 1189.89,-297.753"/>
</g>
<!-- Node28 -->
<g id="node28" class="node"><title>Node28</title>
<g id="a_node28"><a xlink:href="local__hashmap_8h.html" target="_top" xlink:title="include/shad/data_structures\l/local_hashmap.h">
<polygon fill="white" stroke="black" points="1350,-225 1350,-255 1492,-255 1492,-225 1350,-225"/>
<text text-anchor="start" x="1358" y="-243" font-family="Helvetica,sans-Serif" font-size="10.00">include/shad/data_structures</text>
<text text-anchor="middle" x="1421" y="-232" font-family="Helvetica,sans-Serif" font-size="10.00">/local_hashmap.h</text>
</a>
</g>
</g>
<!-- Node17&#45;&gt;Node28 -->
<g id="edge47" class="edge"><title>Node17&#45;&gt;Node28</title>
<path fill="none" stroke="midnightblue" d="M1256.91,-300.321C1294.94,-286.573 1346.98,-267.759 1382.18,-255.033"/>
<polygon fill="midnightblue" stroke="midnightblue" points="1255.28,-297.186 1247.07,-303.877 1257.66,-303.769 1255.28,-297.186"/>
</g>
<!-- Node29 -->
<g id="node29" class="node"><title>Node29</title>
<g id="a_node29"><a xlink:href="local__edge__index_8h.html" target="_top" xlink:title="include/shad/extensions\l/graph_library/local_edge\l_index.h">
<polygon fill="white" stroke="black" points="1518.5,-146.5 1518.5,-187.5 1643.5,-187.5 1643.5,-146.5 1518.5,-146.5"/>
<text text-anchor="start" x="1526.5" y="-175.5" font-family="Helvetica,sans-Serif" font-size="10.00">include/shad/extensions</text>
<text text-anchor="start" x="1526.5" y="-164.5" font-family="Helvetica,sans-Serif" font-size="10.00">/graph_library/local_edge</text>
<text text-anchor="middle" x="1581" y="-153.5" font-family="Helvetica,sans-Serif" font-size="10.00">_index.h</text>
</a>
</g>
</g>
<!-- Node17&#45;&gt;Node29 -->
<g id="edge66" class="edge"><title>Node17&#45;&gt;Node29</title>
<path fill="none" stroke="midnightblue" d="M1271.55,-313.874C1390.21,-305.522 1635.77,-284.915 1661,-256 1681.84,-232.118 1648.92,-205.237 1619.23,-187.54"/>
<polygon fill="midnightblue" stroke="midnightblue" points="1271.24,-310.387 1261.51,-314.573 1271.73,-317.371 1271.24,-310.387"/>
</g>
<!-- Node30 -->
<g id="node30" class="node"><title>Node30</title>
<g id="a_node30"><a xlink:href="local__set_8h.html" target="_top" xlink:title="include/shad/data_structures\l/local_set.h">
<polygon fill="white" stroke="black" points="1510,-225 1510,-255 1652,-255 1652,-225 1510,-225"/>
<text text-anchor="start" x="1518" y="-243" font-family="Helvetica,sans-Serif" font-size="10.00">include/shad/data_structures</text>
<text text-anchor="middle" x="1581" y="-232" font-family="Helvetica,sans-Serif" font-size="10.00">/local_set.h</text>
</a>
</g>
</g>
<!-- Node17&#45;&gt;Node30 -->
<g id="edge53" class="edge"><title>Node17&#45;&gt;Node30</title>
<path fill="none" stroke="midnightblue" d="M1271.87,-304.815C1339.01,-290.954 1444.25,-269.229 1512.94,-255.051"/>
<polygon fill="midnightblue" stroke="midnightblue" points="1270.92,-301.436 1261.84,-306.886 1272.34,-308.292 1270.92,-301.436"/>
</g>
<!-- Node31 -->
<g id="node31" class="node"><title>Node31</title>
<g id="a_node31"><a xlink:href="object__identifier_8h.html" target="_top" xlink:title="include/shad/data_structures\l/object_identifier.h">
<polygon fill="white" stroke="black" points="981,-225 981,-255 1123,-255 1123,-225 981,-225"/>
<text text-anchor="start" x="989" y="-243" font-family="Helvetica,sans-Serif" font-size="10.00">include/shad/data_structures</text>
<text text-anchor="middle" x="1052" y="-232" font-family="Helvetica,sans-Serif" font-size="10.00">/object_identifier.h</text>
</a>
</g>
</g>
<!-- Node17&#45;&gt;Node31 -->
<g id="edge58" class="edge"><title>Node17&#45;&gt;Node31</title>
<path fill="none" stroke="midnightblue" d="M1170.39,-299.436C1142.71,-285.775 1105.66,-267.488 1080.43,-255.033"/>
<polygon fill="midnightblue" stroke="midnightblue" points="1168.87,-302.589 1179.39,-303.877 1171.97,-296.312 1168.87,-302.589"/>
</g>
<!-- Node32 -->
<g id="node32" class="node"><title>Node32</title>
<g id="a_node32"><a xlink:href="shad_8h.html" target="_top" xlink:title="The API to the shad library. ">
<polygon fill="white" stroke="black" points="757,-230.5 757,-249.5 861,-249.5 861,-230.5 757,-230.5"/>
<text text-anchor="middle" x="809" y="-237.5" font-family="Helvetica,sans-Serif" font-size="10.00">include/shad/shad.h</text>
</a>
</g>
</g>
<!-- Node17&#45;&gt;Node32 -->
<g id="edge67" class="edge"><title>Node17&#45;&gt;Node32</title>
<path fill="none" stroke="midnightblue" d="M1169.12,-300.107C1161.26,-297.02 1152.97,-294.126 1145,-292 1025.9,-260.217 991.147,-278.752 870,-256 860.461,-254.208 850.181,-251.85 840.83,-249.534"/>
<polygon fill="midnightblue" stroke="midnightblue" points="1167.85,-303.371 1178.43,-303.93 1170.51,-296.895 1167.85,-303.371"/>
</g>
<!-- Node33 -->
<g id="node33" class="node"><title>Node33</title>
<g id="a_node33"><a xlink:href="shad_8cc.html" target="_top" xlink:title="src/util/shad.cc">
<polygon fill="white" stroke="black" points="879.5,-230.5 879.5,-249.5 962.5,-249.5 962.5,-230.5 879.5,-230.5"/>
<text text-anchor="middle" x="921" y="-237.5" font-family="Helvetica,sans-Serif" font-size="10.00">src/util/shad.cc</text>
</a>
</g>
</g>
<!-- Node17&#45;&gt;Node33 -->
<g id="edge68" class="edge"><title>Node17&#45;&gt;Node33</title>
<path fill="none" stroke="midnightblue" d="M1167.27,-299.902C1159.94,-297.017 1152.31,-294.247 1145,-292 1069.93,-268.92 1048.18,-275.096 972,-256 964.301,-254.07 956.019,-251.744 948.415,-249.506"/>
<polygon fill="midnightblue" stroke="midnightblue" points="1166.43,-303.34 1177.02,-303.869 1169.07,-296.857 1166.43,-303.34"/>
</g>
<!-- Node18&#45;&gt;Node4 -->
<g id="edge28" class="edge"><title>Node18&#45;&gt;Node4</title>
<path fill="none" stroke="midnightblue" d="M814.114,-149.809C758.03,-137.519 681.694,-120.791 628.156,-109.059"/>
<polygon fill="midnightblue" stroke="midnightblue" points="813.471,-153.251 823.988,-151.973 814.969,-146.413 813.471,-153.251"/>
</g>
<!-- Node18&#45;&gt;Node19 -->
<g id="edge29" class="edge"><title>Node18&#45;&gt;Node19</title>
<path fill="none" stroke="midnightblue" d="M928.175,-147.715C954.591,-135.692 988.644,-120.194 1012.98,-109.12"/>
<polygon fill="midnightblue" stroke="midnightblue" points="926.472,-144.645 918.821,-151.973 929.372,-151.016 926.472,-144.645"/>
</g>
<!-- Node21 -->
<g id="node21" class="node"><title>Node21</title>
<g id="a_node21"><a xlink:href="one__per__locality_8h.html" target="_top" xlink:title="include/shad/data_structures\l/one_per_locality.h">
<polygon fill="white" stroke="black" points="653,-79 653,-109 795,-109 795,-79 653,-79"/>
<text text-anchor="start" x="661" y="-97" font-family="Helvetica,sans-Serif" font-size="10.00">include/shad/data_structures</text>
<text text-anchor="middle" x="724" y="-86" font-family="Helvetica,sans-Serif" font-size="10.00">/one_per_locality.h</text>
</a>
</g>
</g>
<!-- Node18&#45;&gt;Node21 -->
<g id="edge31" class="edge"><title>Node18&#45;&gt;Node21</title>
<path fill="none" stroke="midnightblue" d="M846.13,-147.873C818.308,-135.829 782.307,-120.243 756.614,-109.12"/>
<polygon fill="midnightblue" stroke="midnightblue" points="845.031,-151.212 855.599,-151.973 847.812,-144.788 845.031,-151.212"/>
</g>
<!-- Node18&#45;&gt;Node22 -->
<g id="edge32" class="edge"><title>Node18&#45;&gt;Node22</title>
<path fill="none" stroke="midnightblue" d="M955.999,-149.704C961.41,-148.439 966.794,-147.192 972,-146 1028.18,-133.138 1092.16,-119.121 1138.68,-109.042"/>
<polygon fill="midnightblue" stroke="midnightblue" points="955.197,-146.297 946.262,-151.99 956.797,-153.112 955.197,-146.297"/>
</g>
<!-- Node18&#45;&gt;Node24 -->
<g id="edge35" class="edge"><title>Node18&#45;&gt;Node24</title>
<path fill="none" stroke="midnightblue" d="M886.642,-141.898C886.036,-131.131 885.341,-118.801 884.816,-109.486"/>
<polygon fill="midnightblue" stroke="midnightblue" points="883.153,-142.185 887.21,-151.973 890.142,-141.792 883.153,-142.185"/>
</g>
<!-- Node18&#45;&gt;Node25 -->
<g id="edge36" class="edge"><title>Node18&#45;&gt;Node25</title>
<path fill="none" stroke="midnightblue" d="M952.96,-149.727C959.372,-148.364 965.799,-147.092 972,-146 1109.47,-121.792 1145.46,-127.027 1284,-110 1299.19,-108.133 1315.49,-106.053 1330.91,-104.05"/>
<polygon fill="midnightblue" stroke="midnightblue" points="951.945,-146.367 942.93,-151.933 953.448,-153.204 951.945,-146.367"/>
</g>
<!-- Node20 -->
<g id="node20" class="node"><title>Node20</title>
<g id="a_node20"><a xlink:href="unordered__map_8h.html" target="_top" xlink:title="include/shad/core/unordered\l_map.h">
<polygon fill="white" stroke="black" points="950.5,-6 950.5,-36 1089.5,-36 1089.5,-6 950.5,-6"/>
<text text-anchor="start" x="958.5" y="-24" font-family="Helvetica,sans-Serif" font-size="10.00">include/shad/core/unordered</text>
<text text-anchor="middle" x="1020" y="-13" font-family="Helvetica,sans-Serif" font-size="10.00">_map.h</text>
</a>
</g>
</g>
<!-- Node19&#45;&gt;Node20 -->
<g id="edge30" class="edge"><title>Node19&#45;&gt;Node20</title>
<path fill="none" stroke="midnightblue" d="M1035.97,-69.2336C1032.3,-58.3886 1028.08,-45.8976 1024.9,-36.4856"/>
<polygon fill="midnightblue" stroke="midnightblue" points="1032.74,-70.6201 1039.26,-78.9727 1039.37,-68.3785 1032.74,-70.6201"/>
</g>
<!-- Node22&#45;&gt;Node6 -->
<g id="edge34" class="edge"><title>Node22&#45;&gt;Node6</title>
<path fill="none" stroke="midnightblue" d="M1237.17,-73.6951C1254.27,-63.7467 1275.07,-51.6385 1292.25,-41.642"/>
<polygon fill="midnightblue" stroke="midnightblue" points="1234.99,-70.9177 1228.1,-78.9727 1238.51,-76.9678 1234.99,-70.9177"/>
</g>
<!-- Node23 -->
<g id="node23" class="node"><title>Node23</title>
<g id="a_node23"><a xlink:href="unordered__set_8h.html" target="_top" xlink:title="include/shad/core/unordered\l_set.h">
<polygon fill="white" stroke="black" points="1107.5,-6 1107.5,-36 1246.5,-36 1246.5,-6 1107.5,-6"/>
<text text-anchor="start" x="1115.5" y="-24" font-family="Helvetica,sans-Serif" font-size="10.00">include/shad/core/unordered</text>
<text text-anchor="middle" x="1177" y="-13" font-family="Helvetica,sans-Serif" font-size="10.00">_set.h</text>
</a>
</g>
</g>
<!-- Node22&#45;&gt;Node23 -->
<g id="edge33" class="edge"><title>Node22&#45;&gt;Node23</title>
<path fill="none" stroke="midnightblue" d="M1195.09,-69.5684C1190.94,-58.6465 1186.12,-45.9946 1182.51,-36.4856"/>
<polygon fill="midnightblue" stroke="midnightblue" points="1191.84,-70.8698 1198.67,-78.9727 1198.38,-68.3816 1191.84,-70.8698"/>
</g>
<!-- Node25&#45;&gt;Node6 -->
<g id="edge37" class="edge"><title>Node25&#45;&gt;Node6</title>
<path fill="none" stroke="midnightblue" d="M1377.14,-71.7346C1367.32,-62.186 1355.81,-50.9906 1346.2,-41.642"/>
<polygon fill="midnightblue" stroke="midnightblue" points="1374.97,-74.5095 1384.58,-78.9727 1379.85,-69.4915 1374.97,-74.5095"/>
</g>
<!-- Node25&#45;&gt;Node26 -->
<g id="edge38" class="edge"><title>Node25&#45;&gt;Node26</title>
<path fill="none" stroke="midnightblue" d="M1444.33,-75.3182C1470.66,-65.043 1503.9,-52.0792 1530.99,-41.5075"/>
<polygon fill="midnightblue" stroke="midnightblue" points="1443,-72.0776 1434.96,-78.9727 1445.55,-78.599 1443,-72.0776"/>
</g>
<!-- Node27&#45;&gt;Node4 -->
<g id="edge41" class="edge"><title>Node27&#45;&gt;Node4</title>
<path fill="none" stroke="midnightblue" d="M987.045,-149.7C980.632,-148.342 974.203,-147.079 968,-146 825.257,-121.174 787.302,-131.365 644,-110 641.065,-109.562 638.073,-109.096 635.054,-108.608"/>
<polygon fill="midnightblue" stroke="midnightblue" points="986.558,-153.176 997.076,-151.899 988.057,-146.339 986.558,-153.176"/>
</g>
<!-- Node27&#45;&gt;Node19 -->
<g id="edge42" class="edge"><title>Node27&#45;&gt;Node19</title>
<path fill="none" stroke="midnightblue" d="M1049.28,-141.898C1048.07,-131.131 1046.68,-118.801 1045.63,-109.486"/>
<polygon fill="midnightblue" stroke="midnightblue" points="1045.82,-142.427 1050.42,-151.973 1052.78,-141.644 1045.82,-142.427"/>
</g>
<!-- Node27&#45;&gt;Node22 -->
<g id="edge43" class="edge"><title>Node27&#45;&gt;Node22</title>
<path fill="none" stroke="midnightblue" d="M1091.15,-147.715C1116.88,-135.692 1150.06,-120.194 1173.77,-109.12"/>
<polygon fill="midnightblue" stroke="midnightblue" points="1089.61,-144.569 1082.03,-151.973 1092.57,-150.912 1089.61,-144.569"/>
</g>
<!-- Node27&#45;&gt;Node24 -->
<g id="edge44" class="edge"><title>Node27&#45;&gt;Node24</title>
<path fill="none" stroke="midnightblue" d="M1009.48,-148.031C980.931,-135.965 943.844,-120.291 917.41,-109.12"/>
<polygon fill="midnightblue" stroke="midnightblue" points="1008.23,-151.304 1018.81,-151.973 1010.96,-144.856 1008.23,-151.304"/>
</g>
<!-- Node27&#45;&gt;Node25 -->
<g id="edge45" class="edge"><title>Node27&#45;&gt;Node25</title>
<path fill="none" stroke="midnightblue" d="M1130.42,-149.955C1190.76,-137.609 1273.29,-120.722 1330.88,-108.938"/>
<polygon fill="midnightblue" stroke="midnightblue" points="1129.65,-146.539 1120.56,-151.973 1131.05,-153.397 1129.65,-146.539"/>
</g>
<!-- Node28&#45;&gt;Node19 -->
<g id="edge48" class="edge"><title>Node28&#45;&gt;Node19</title>
<path fill="none" stroke="midnightblue" d="M1380.97,-220.597C1337.59,-200.964 1266.09,-169.516 1203,-146 1166.06,-132.229 1123.49,-118.696 1091.7,-109.035"/>
<polygon fill="midnightblue" stroke="midnightblue" points="1379.77,-223.893 1390.32,-224.841 1382.66,-217.52 1379.77,-223.893"/>
</g>
<!-- Node28&#45;&gt;Node26 -->
<g id="edge49" class="edge"><title>Node28&#45;&gt;Node26</title>
<path fill="none" stroke="midnightblue" d="M1437.63,-216.45C1469.05,-173.837 1536.65,-82.1456 1566.42,-41.7723"/>
<polygon fill="midnightblue" stroke="midnightblue" points="1434.62,-214.636 1431.5,-224.762 1440.25,-218.79 1434.62,-214.636"/>
</g>
<!-- Node28&#45;&gt;Node29 -->
<g id="edge50" class="edge"><title>Node28&#45;&gt;Node29</title>
<path fill="none" stroke="midnightblue" d="M1461.76,-220.911C1484.77,-210.702 1513.53,-197.94 1537.04,-187.507"/>
<polygon fill="midnightblue" stroke="midnightblue" points="1460.33,-217.717 1452.61,-224.973 1463.17,-224.116 1460.33,-217.717"/>
</g>
<!-- Node29&#45;&gt;Node25 -->
<g id="edge52" class="edge"><title>Node29&#45;&gt;Node25</title>
<path fill="none" stroke="midnightblue" d="M1521.3,-142.712C1492.76,-131.575 1459.53,-118.613 1434.92,-109.012"/>
<polygon fill="midnightblue" stroke="midnightblue" points="1520.2,-146.037 1530.79,-146.411 1522.74,-139.516 1520.2,-146.037"/>
</g>
<!-- Node29&#45;&gt;Node26 -->
<g id="edge51" class="edge"><title>Node29&#45;&gt;Node26</title>
<path fill="none" stroke="midnightblue" d="M1581,-136.179C1581,-107.952 1581,-66.3654 1581,-41.9446"/>
<polygon fill="midnightblue" stroke="midnightblue" points="1577.5,-136.279 1581,-146.279 1584.5,-136.279 1577.5,-136.279"/>
</g>
<!-- Node30&#45;&gt;Node22 -->
<g id="edge54" class="edge"><title>Node30&#45;&gt;Node22</title>
<path fill="none" stroke="midnightblue" d="M1534.39,-221.198C1458.48,-192.2 1309.67,-135.363 1240.71,-109.02"/>
<polygon fill="midnightblue" stroke="midnightblue" points="1533.57,-224.632 1544.17,-224.93 1536.07,-218.093 1533.57,-224.632"/>
</g>
<!-- Node30&#45;&gt;Node25 -->
<g id="edge56" class="edge"><title>Node30&#45;&gt;Node25</title>
<path fill="none" stroke="midnightblue" d="M1552.32,-219.132C1539.25,-209.889 1523.67,-198.612 1510,-188 1475.45,-161.174 1436.58,-127.851 1415.23,-109.256"/>
<polygon fill="midnightblue" stroke="midnightblue" points="1550.31,-221.998 1560.51,-224.886 1554.34,-216.272 1550.31,-221.998"/>
</g>
<!-- Node30&#45;&gt;Node26 -->
<g id="edge55" class="edge"><title>Node30&#45;&gt;Node26</title>
<path fill="none" stroke="midnightblue" d="M1621.53,-219.468C1633.57,-211.499 1645.31,-201.04 1652,-188 1660.52,-171.391 1656.8,-164.039 1652,-146 1641.29,-105.725 1614.06,-64.9087 1596.6,-41.6064"/>
<polygon fill="midnightblue" stroke="midnightblue" points="1619.48,-216.621 1612.79,-224.833 1623.14,-222.588 1619.48,-216.621"/>
</g>
<!-- Node30&#45;&gt;Node29 -->
<g id="edge57" class="edge"><title>Node30&#45;&gt;Node29</title>
<path fill="none" stroke="midnightblue" d="M1581,-214.853C1581,-205.987 1581,-196.065 1581,-187.642"/>
<polygon fill="midnightblue" stroke="midnightblue" points="1577.5,-214.973 1581,-224.973 1584.5,-214.973 1577.5,-214.973"/>
</g>
<!-- Node31&#45;&gt;Node18 -->
<g id="edge59" class="edge"><title>Node31&#45;&gt;Node18</title>
<path fill="none" stroke="midnightblue" d="M1010.13,-220.873C982.308,-208.829 946.307,-193.243 920.614,-182.12"/>
<polygon fill="midnightblue" stroke="midnightblue" points="1009.03,-224.212 1019.6,-224.973 1011.81,-217.788 1009.03,-224.212"/>
</g>
<!-- Node31&#45;&gt;Node27 -->
<g id="edge60" class="edge"><title>Node31&#45;&gt;Node27</title>
<path fill="none" stroke="midnightblue" d="M1052,-214.898C1052,-204.131 1052,-191.801 1052,-182.486"/>
<polygon fill="midnightblue" stroke="midnightblue" points="1048.5,-214.973 1052,-224.973 1055.5,-214.973 1048.5,-214.973"/>
</g>
<!-- Node34&#45;&gt;Node11 -->
<g id="edge70" class="edge"><title>Node34&#45;&gt;Node11</title>
<path fill="none" stroke="midnightblue" d="M942.909,-385.567C899.255,-375.183 842.611,-360.939 793,-346 790.131,-345.136 787.209,-344.229 784.264,-343.292"/>
<polygon fill="midnightblue" stroke="midnightblue" points="942.327,-389.026 952.864,-387.922 943.938,-382.214 942.327,-389.026"/>
</g>
<!-- Node34&#45;&gt;Node13 -->
<g id="edge71" class="edge"><title>Node34&#45;&gt;Node13</title>
<path fill="none" stroke="midnightblue" d="M983.542,-382.458C962.761,-369.548 935.618,-352.687 914.773,-339.738"/>
<polygon fill="midnightblue" stroke="midnightblue" points="981.967,-385.6 992.308,-387.904 985.661,-379.654 981.967,-385.6"/>
</g>
<!-- Node34&#45;&gt;Node15 -->
<g id="edge72" class="edge"><title>Node34&#45;&gt;Node15</title>
<path fill="none" stroke="midnightblue" d="M1027.4,-378.884C1034.04,-366.515 1042.13,-351.445 1048.46,-339.648"/>
<polygon fill="midnightblue" stroke="midnightblue" points="1024.31,-377.25 1022.66,-387.717 1030.48,-380.56 1024.31,-377.25"/>
</g>
<!-- Node34&#45;&gt;Node17 -->
<g id="edge73" class="edge"><title>Node34&#45;&gt;Node17</title>
<path fill="none" stroke="midnightblue" d="M1057.75,-383.838C1093.09,-368.822 1142.56,-347.803 1174.93,-334.049"/>
<polygon fill="midnightblue" stroke="midnightblue" points="1056.01,-380.772 1048.18,-387.904 1058.75,-387.215 1056.01,-380.772"/>
</g>
</g>
</svg>
