<?xml version="1.0" encoding="UTF-8" standalone="no"?>
<!DOCTYPE svg PUBLIC "-//W3C//DTD SVG 1.1//EN"
 "http://www.w3.org/Graphics/SVG/1.1/DTD/svg11.dtd">
<!-- Generated by graphviz version 2.36.0 (20140111.2315)
 -->
<!-- Title: include/shad/extensions/graph_library/local_edge_index.h Pages: 1 -->
<svg width="1263pt" height="446pt"
 viewBox="0.00 0.00 1263.00 446.00" xmlns="http://www.w3.org/2000/svg" xmlns:xlink="http://www.w3.org/1999/xlink">
<g id="graph0" class="graph" transform="scale(1 1) rotate(0) translate(4 442)">
<title>include/shad/extensions/graph_library/local_edge_index.h</title>
<polygon fill="white" stroke="none" points="-4,4 -4,-442 1259,-442 1259,4 -4,4"/>
<!-- Node1 -->
<g id="node1" class="node"><title>Node1</title>
<polygon fill="#bfbfbf" stroke="black" points="342.472,-396.5 342.472,-437.5 467.472,-437.5 467.472,-396.5 342.472,-396.5"/>
<text text-anchor="start" x="350.472" y="-425.5" font-family="Helvetica,sans-Serif" font-size="10.00">include/shad/extensions</text>
<text text-anchor="start" x="350.472" y="-414.5" font-family="Helvetica,sans-Serif" font-size="10.00">/graph_library/local_edge</text>
<text text-anchor="middle" x="404.972" y="-403.5" font-family="Helvetica,sans-Serif" font-size="10.00">_index.h</text>
</g>
<!-- Node2 -->
<g id="node2" class="node"><title>Node2</title>
<polygon fill="white" stroke="#bfbfbf" points="31.9721,-198.5 31.9721,-217.5 87.9721,-217.5 87.9721,-198.5 31.9721,-198.5"/>
<text text-anchor="middle" x="59.9721" y="-205.5" font-family="Helvetica,sans-Serif" font-size="10.00">algorithm</text>
</g>
<!-- Node1&#45;&gt;Node2 -->
<g id="edge1" class="edge"><title>Node1&#45;&gt;Node2</title>
<path fill="none" stroke="midnightblue" d="M342.376,-415.548C258.99,-411.065 115.016,-388.837 54.9721,-292 42.8194,-272.401 47.7808,-244.942 53.2295,-227.064"/>
<polygon fill="midnightblue" stroke="midnightblue" points="56.5583,-228.146 56.4522,-217.552 49.9284,-225.9 56.5583,-228.146"/>
</g>
<!-- Node3 -->
<g id="node3" class="node"><title>Node3</title>
<polygon fill="white" stroke="#bfbfbf" points="426.972,-266.5 426.972,-285.5 472.972,-285.5 472.972,-266.5 426.972,-266.5"/>
<text text-anchor="middle" x="449.972" y="-273.5" font-family="Helvetica,sans-Serif" font-size="10.00">atomic</text>
</g>
<!-- Node1&#45;&gt;Node3 -->
<g id="edge2" class="edge"><title>Node1&#45;&gt;Node3</title>
<path fill="none" stroke="midnightblue" d="M412.732,-396.436C416.867,-385.742 421.92,-372.221 425.972,-360 433.252,-338.042 440.47,-312.419 445.06,-295.515"/>
<polygon fill="midnightblue" stroke="midnightblue" points="448.457,-296.357 447.67,-285.792 441.697,-294.542 448.457,-296.357"/>
</g>
<!-- Node4 -->
<g id="node4" class="node"><title>Node4</title>
<polygon fill="white" stroke="#bfbfbf" points="412.972,-130.5 412.972,-149.5 464.972,-149.5 464.972,-130.5 412.972,-130.5"/>
<text text-anchor="middle" x="438.972" y="-137.5" font-family="Helvetica,sans-Serif" font-size="10.00">memory</text>
</g>
<!-- Node1&#45;&gt;Node4 -->
<g id="edge3" class="edge"><title>Node1&#45;&gt;Node4</title>
<path fill="none" stroke="midnightblue" d="M342.378,-411.524C260.571,-404.61 122.895,-388.996 81.9721,-360 17.4004,-314.248 -29.4714,-251.265 22.9721,-192 47.9825,-163.736 305.688,-147.787 402.491,-142.756"/>
<polygon fill="midnightblue" stroke="midnightblue" points="402.87,-146.241 412.678,-142.236 402.513,-139.251 402.87,-146.241"/>
</g>
<!-- Node5 -->
<g id="node5" class="node"><title>Node5</title>
<polygon fill="white" stroke="#bfbfbf" points="490.972,-266.5 490.972,-285.5 528.972,-285.5 528.972,-266.5 490.972,-266.5"/>
<text text-anchor="middle" x="509.972" y="-273.5" font-family="Helvetica,sans-Serif" font-size="10.00">tuple</text>
</g>
<!-- Node1&#45;&gt;Node5 -->
<g id="edge4" class="edge"><title>Node1&#45;&gt;Node5</title>
<path fill="none" stroke="midnightblue" d="M419.793,-396.38C440.526,-368.933 477.829,-319.552 497.324,-293.744"/>
<polygon fill="midnightblue" stroke="midnightblue" points="500.186,-295.762 503.421,-285.673 494.6,-291.543 500.186,-295.762"/>
</g>
<!-- Node6 -->
<g id="node6" class="node"><title>Node6</title>
<polygon fill="white" stroke="#bfbfbf" points="466.972,-198.5 466.972,-217.5 506.972,-217.5 506.972,-198.5 466.972,-198.5"/>
<text text-anchor="middle" x="486.972" y="-205.5" font-family="Helvetica,sans-Serif" font-size="10.00">utility</text>
</g>
<!-- Node1&#45;&gt;Node6 -->
<g id="edge5" class="edge"><title>Node1&#45;&gt;Node6</title>
<path fill="none" stroke="midnightblue" d="M467.688,-413.669C520.586,-409.066 596.351,-396.055 651.972,-360 683.672,-339.451 691.026,-327.839 702.972,-292 707.47,-278.508 712.05,-270.948 702.972,-260 647.836,-193.501 592.716,-254.702 511.972,-224 510.748,-223.535 509.516,-223.01 508.29,-222.443"/>
<polygon fill="midnightblue" stroke="midnightblue" points="509.707,-219.23 499.248,-217.543 506.372,-225.385 509.707,-219.23"/>
</g>
<!-- Node7 -->
<g id="node7" class="node"><title>Node7</title>
<polygon fill="white" stroke="#bfbfbf" points="250.972,-198.5 250.972,-217.5 294.972,-217.5 294.972,-198.5 250.972,-198.5"/>
<text text-anchor="middle" x="272.972" y="-205.5" font-family="Helvetica,sans-Serif" font-size="10.00">vector</text>
</g>
<!-- Node1&#45;&gt;Node7 -->
<g id="edge6" class="edge"><title>Node1&#45;&gt;Node7</title>
<path fill="none" stroke="midnightblue" d="M346.593,-396.38C329.137,-387.8 311.578,-375.955 299.972,-360 270.94,-320.088 269.792,-258.829 271.371,-228.046"/>
<polygon fill="midnightblue" stroke="midnightblue" points="274.878,-228.061 272.057,-217.849 267.894,-227.591 274.878,-228.061"/>
</g>
<!-- Node8 -->
<g id="node8" class="node"><title>Node8</title>
<g id="a_node8"><a xlink:href="compare__and__hash__utils_8h.html" target="_top" xlink:title="shad/data_structures\l/compare_and_hash_utils.h">
<polygon fill="white" stroke="black" points="82.9721,-261 82.9721,-291 218.972,-291 218.972,-261 82.9721,-261"/>
<text text-anchor="start" x="90.9721" y="-279" font-family="Helvetica,sans-Serif" font-size="10.00">shad/data_structures</text>
<text text-anchor="middle" x="150.972" y="-268" font-family="Helvetica,sans-Serif" font-size="10.00">/compare_and_hash_utils.h</text>
</a>
</g>
</g>
<!-- Node1&#45;&gt;Node8 -->
<g id="edge7" class="edge"><title>Node1&#45;&gt;Node8</title>
<path fill="none" stroke="midnightblue" d="M342.189,-403.216C308.165,-394.457 266.374,-380.622 232.972,-360 206.815,-343.851 182.854,-317.681 167.677,-299.046"/>
<polygon fill="midnightblue" stroke="midnightblue" points="170.307,-296.729 161.346,-291.077 164.826,-301.084 170.307,-296.729"/>
</g>
<!-- Node13 -->
<g id="node13" class="node"><title>Node13</title>
<g id="a_node13"><a xlink:href="local__hashmap_8h.html" target="_top" xlink:title="shad/data_structures\l/local_hashmap.h">
<polygon fill="white" stroke="black" points="534.972,-329 534.972,-359 642.972,-359 642.972,-329 534.972,-329"/>
<text text-anchor="start" x="542.972" y="-347" font-family="Helvetica,sans-Serif" font-size="10.00">shad/data_structures</text>
<text text-anchor="middle" x="588.972" y="-336" font-family="Helvetica,sans-Serif" font-size="10.00">/local_hashmap.h</text>
</a>
</g>
</g>
<!-- Node1&#45;&gt;Node13 -->
<g id="edge14" class="edge"><title>Node1&#45;&gt;Node13</title>
<path fill="none" stroke="midnightblue" d="M455.738,-396.411C483.117,-385.846 516.64,-372.911 543.21,-362.658"/>
<polygon fill="midnightblue" stroke="midnightblue" points="544.59,-365.877 552.66,-359.012 542.07,-359.346 544.59,-365.877"/>
</g>
<!-- Node14 -->
<g id="node14" class="node"><title>Node14</title>
<g id="a_node14"><a xlink:href="runtime_8h.html" target="_top" xlink:title="shad/runtime/runtime.h">
<polygon fill="white" stroke="black" points="774.972,-266.5 774.972,-285.5 890.972,-285.5 890.972,-266.5 774.972,-266.5"/>
<text text-anchor="middle" x="832.972" y="-273.5" font-family="Helvetica,sans-Serif" font-size="10.00">shad/runtime/runtime.h</text>
</a>
</g>
</g>
<!-- Node1&#45;&gt;Node14 -->
<g id="edge66" class="edge"><title>Node1&#45;&gt;Node14</title>
<path fill="none" stroke="midnightblue" d="M467.817,-411.311C556.162,-403.848 711.791,-387.261 760.972,-360 788.947,-344.494 811.163,-313.694 823.164,-294.286"/>
<polygon fill="midnightblue" stroke="midnightblue" points="826.253,-295.939 828.35,-285.554 820.234,-292.365 826.253,-295.939"/>
</g>
<!-- Node29 -->
<g id="node29" class="node"><title>Node29</title>
<g id="a_node29"><a xlink:href="local__set_8h.html" target="_top" xlink:title="shad/data_structures\l/local_set.h">
<polygon fill="white" stroke="black" points="308.972,-329 308.972,-359 416.972,-359 416.972,-329 308.972,-329"/>
<text text-anchor="start" x="316.972" y="-347" font-family="Helvetica,sans-Serif" font-size="10.00">shad/data_structures</text>
<text text-anchor="middle" x="362.972" y="-336" font-family="Helvetica,sans-Serif" font-size="10.00">/local_set.h</text>
</a>
</g>
</g>
<!-- Node1&#45;&gt;Node29 -->
<g id="edge56" class="edge"><title>Node1&#45;&gt;Node29</title>
<path fill="none" stroke="midnightblue" d="M393.273,-396.223C388.03,-387.36 381.818,-376.858 376.387,-367.678"/>
<polygon fill="midnightblue" stroke="midnightblue" points="379.386,-365.873 371.282,-359.049 373.361,-369.437 379.386,-365.873"/>
</g>
<!-- Node8&#45;&gt;Node2 -->
<g id="edge8" class="edge"><title>Node8&#45;&gt;Node2</title>
<path fill="none" stroke="midnightblue" d="M131.226,-260.679C116.107,-249.713 95.3311,-234.645 80.1142,-223.609"/>
<polygon fill="midnightblue" stroke="midnightblue" points="82.0319,-220.676 71.8819,-217.638 77.922,-226.342 82.0319,-220.676"/>
</g>
<!-- Node8&#45;&gt;Node7 -->
<g id="edge13" class="edge"><title>Node8&#45;&gt;Node7</title>
<path fill="none" stroke="midnightblue" d="M177.144,-260.841C198.152,-249.476 227.448,-233.628 248.102,-222.454"/>
<polygon fill="midnightblue" stroke="midnightblue" points="249.794,-225.519 256.924,-217.682 246.463,-219.362 249.794,-225.519"/>
</g>
<!-- Node9 -->
<g id="node9" class="node"><title>Node9</title>
<polygon fill="white" stroke="#bfbfbf" points="582.972,-62.5 582.972,-81.5 628.972,-81.5 628.972,-62.5 582.972,-62.5"/>
<text text-anchor="middle" x="605.972" y="-69.5" font-family="Helvetica,sans-Serif" font-size="10.00">cstdint</text>
</g>
<!-- Node8&#45;&gt;Node9 -->
<g id="edge9" class="edge"><title>Node8&#45;&gt;Node9</title>
<path fill="none" stroke="midnightblue" d="M144.852,-260.91C138.413,-243.917 130.432,-214.795 139.972,-192 156.594,-152.282 170.257,-142.841 208.972,-124 273.022,-92.8286 489.095,-78.8754 572.624,-74.5538"/>
<polygon fill="midnightblue" stroke="midnightblue" points="573.008,-78.039 582.819,-74.0404 572.656,-71.0478 573.008,-78.039"/>
</g>
<!-- Node10 -->
<g id="node10" class="node"><title>Node10</title>
<polygon fill="white" stroke="#bfbfbf" points="148.972,-198.5 148.972,-217.5 194.972,-217.5 194.972,-198.5 148.972,-198.5"/>
<text text-anchor="middle" x="171.972" y="-205.5" font-family="Helvetica,sans-Serif" font-size="10.00">cstring</text>
</g>
<!-- Node8&#45;&gt;Node10 -->
<g id="edge10" class="edge"><title>Node8&#45;&gt;Node10</title>
<path fill="none" stroke="midnightblue" d="M155.529,-260.679C158.609,-250.999 162.706,-238.123 166.04,-227.645"/>
<polygon fill="midnightblue" stroke="midnightblue" points="169.466,-228.419 169.163,-217.828 162.796,-226.296 169.466,-228.419"/>
</g>
<!-- Node11 -->
<g id="node11" class="node"><title>Node11</title>
<polygon fill="white" stroke="#bfbfbf" points="351.472,-198.5 351.472,-217.5 410.472,-217.5 410.472,-198.5 351.472,-198.5"/>
<text text-anchor="middle" x="380.972" y="-205.5" font-family="Helvetica,sans-Serif" font-size="10.00">functional</text>
</g>
<!-- Node8&#45;&gt;Node11 -->
<g id="edge11" class="edge"><title>Node8&#45;&gt;Node11</title>
<path fill="none" stroke="midnightblue" d="M200.031,-260.922C242.266,-248.803 302.424,-231.54 341.58,-220.304"/>
<polygon fill="midnightblue" stroke="midnightblue" points="342.656,-223.636 351.303,-217.514 340.725,-216.908 342.656,-223.636"/>
</g>
<!-- Node12 -->
<g id="node12" class="node"><title>Node12</title>
<polygon fill="white" stroke="#bfbfbf" points="680.972,-62.5 680.972,-81.5 742.972,-81.5 742.972,-62.5 680.972,-62.5"/>
<text text-anchor="middle" x="711.972" y="-69.5" font-family="Helvetica,sans-Serif" font-size="10.00">type_traits</text>
</g>
<!-- Node8&#45;&gt;Node12 -->
<g id="edge12" class="edge"><title>Node8&#45;&gt;Node12</title>
<path fill="none" stroke="midnightblue" d="M165.783,-260.977C189.351,-238.742 233.593,-197.353 241.972,-192 395.325,-94.0438 458.825,-119.919 637.972,-88 648.632,-86.1007 660.117,-83.8654 670.785,-81.7087"/>
<polygon fill="midnightblue" stroke="midnightblue" points="671.613,-85.1118 680.709,-79.6785 670.21,-78.2538 671.613,-85.1118"/>
</g>
<!-- Node13&#45;&gt;Node2 -->
<g id="edge15" class="edge"><title>Node13&#45;&gt;Node2</title>
<path fill="none" stroke="midnightblue" d="M584.779,-328.998C578.22,-309.794 563.558,-275.864 537.972,-260 462.497,-213.204 227.936,-236.197 139.972,-224 126.277,-222.101 111.364,-219.463 98.165,-216.927"/>
<polygon fill="midnightblue" stroke="midnightblue" points="98.4899,-213.424 88.003,-214.932 97.1413,-220.293 98.4899,-213.424"/>
</g>
<!-- Node13&#45;&gt;Node3 -->
<g id="edge16" class="edge"><title>Node13&#45;&gt;Node3</title>
<path fill="none" stroke="midnightblue" d="M559.153,-328.841C534.895,-317.323 500.936,-301.199 477.359,-290.004"/>
<polygon fill="midnightblue" stroke="midnightblue" points="478.791,-286.809 468.257,-285.682 475.789,-293.133 478.791,-286.809"/>
</g>
<!-- Node13&#45;&gt;Node4 -->
<g id="edge18" class="edge"><title>Node13&#45;&gt;Node4</title>
<path fill="none" stroke="midnightblue" d="M604.1,-328.899C621.073,-311.372 644.122,-281.188 626.972,-260 578.656,-200.307 512.685,-277.89 457.972,-224 440.972,-207.256 437.857,-178.63 437.875,-159.762"/>
<polygon fill="midnightblue" stroke="midnightblue" points="441.375,-159.808 438.18,-149.706 434.378,-159.595 441.375,-159.808"/>
</g>
<!-- Node13&#45;&gt;Node5 -->
<g id="edge19" class="edge"><title>Node13&#45;&gt;Node5</title>
<path fill="none" stroke="midnightblue" d="M571.83,-328.679C559.025,-317.981 541.544,-303.377 528.432,-292.422"/>
<polygon fill="midnightblue" stroke="midnightblue" points="530.458,-289.554 520.539,-285.828 525.97,-294.926 530.458,-289.554"/>
</g>
<!-- Node13&#45;&gt;Node6 -->
<g id="edge20" class="edge"><title>Node13&#45;&gt;Node6</title>
<path fill="none" stroke="midnightblue" d="M637.854,-328.979C655.918,-321.166 674.52,-309.388 684.972,-292 692.299,-279.81 693.886,-271.082 684.972,-260 638.202,-201.85 591.906,-247.176 520.972,-224 518.695,-223.256 516.364,-222.413 514.041,-221.514"/>
<polygon fill="midnightblue" stroke="midnightblue" points="515.286,-218.241 504.709,-217.623 512.592,-224.702 515.286,-218.241"/>
</g>
<!-- Node13&#45;&gt;Node7 -->
<g id="edge21" class="edge"><title>Node13&#45;&gt;Node7</title>
<path fill="none" stroke="midnightblue" d="M590.326,-328.968C591.274,-310.364 589.843,-277.814 570.972,-260 533.512,-224.639 392.607,-233.476 341.972,-224 329.979,-221.756 316.881,-218.989 305.351,-216.446"/>
<polygon fill="midnightblue" stroke="midnightblue" points="305.802,-212.96 295.279,-214.194 304.275,-219.791 305.802,-212.96"/>
</g>
<!-- Node13&#45;&gt;Node8 -->
<g id="edge22" class="edge"><title>Node13&#45;&gt;Node8</title>
<path fill="none" stroke="midnightblue" d="M534.825,-334.841C458.02,-323.268 317.006,-302.019 228.94,-288.749"/>
<polygon fill="midnightblue" stroke="midnightblue" points="229.411,-285.28 219.001,-287.251 228.368,-292.202 229.411,-285.28"/>
</g>
<!-- Node13&#45;&gt;Node11 -->
<g id="edge17" class="edge"><title>Node13&#45;&gt;Node11</title>
<path fill="none" stroke="midnightblue" d="M599.056,-328.726C610.407,-310.741 625.27,-279.796 608.972,-260 556.008,-195.669 505.481,-245.493 424.972,-224 421.327,-223.027 417.545,-221.909 413.799,-220.731"/>
<polygon fill="midnightblue" stroke="midnightblue" points="414.676,-217.335 404.083,-217.534 412.488,-223.985 414.676,-217.335"/>
</g>
<!-- Node13&#45;&gt;Node14 -->
<g id="edge23" class="edge"><title>Node13&#45;&gt;Node14</title>
<path fill="none" stroke="midnightblue" d="M641.017,-328.922C686.013,-316.751 750.185,-299.393 791.711,-288.161"/>
<polygon fill="midnightblue" stroke="midnightblue" points="792.758,-291.504 801.497,-285.514 790.93,-284.746 792.758,-291.504"/>
</g>
<!-- Node14&#45;&gt;Node4 -->
<g id="edge30" class="edge"><title>Node14&#45;&gt;Node4</title>
<path fill="none" stroke="midnightblue" d="M793.025,-266.463C782.604,-264.294 771.377,-262.011 760.972,-260 671.436,-242.699 642.677,-260.188 558.972,-224 537.106,-214.546 535.465,-205.694 515.972,-192 497.656,-179.133 476.418,-165.133 460.892,-155.062"/>
<polygon fill="midnightblue" stroke="midnightblue" points="462.775,-152.112 452.476,-149.625 458.976,-157.992 462.775,-152.112"/>
</g>
<!-- Node14&#45;&gt;Node6 -->
<g id="edge33" class="edge"><title>Node14&#45;&gt;Node6</title>
<path fill="none" stroke="midnightblue" d="M793.814,-266.423C783.182,-264.209 771.655,-261.913 760.972,-260 654.8,-240.993 624.566,-254.035 520.972,-224 518.478,-223.277 515.928,-222.41 513.4,-221.463"/>
<polygon fill="midnightblue" stroke="midnightblue" points="514.514,-218.137 503.936,-217.546 511.837,-224.604 514.514,-218.137"/>
</g>
<!-- Node14&#45;&gt;Node7 -->
<g id="edge34" class="edge"><title>Node14&#45;&gt;Node7</title>
<path fill="none" stroke="midnightblue" d="M774.877,-271.056C682.705,-264.33 497.468,-248.899 341.972,-224 329.924,-222.071 316.814,-219.374 305.29,-216.799"/>
<polygon fill="midnightblue" stroke="midnightblue" points="305.756,-213.315 295.227,-214.493 304.193,-220.138 305.756,-213.315"/>
</g>
<!-- Node14&#45;&gt;Node9 -->
<g id="edge25" class="edge"><title>Node14&#45;&gt;Node9</title>
<path fill="none" stroke="midnightblue" d="M774.716,-266.564C707.147,-256.187 603.484,-238.203 591.972,-224 560.695,-185.411 583.124,-121.684 597.086,-90.8323"/>
<polygon fill="midnightblue" stroke="midnightblue" points="600.288,-92.2494 601.406,-81.7138 593.962,-89.2522 600.288,-92.2494"/>
</g>
<!-- Node14&#45;&gt;Node11 -->
<g id="edge26" class="edge"><title>Node14&#45;&gt;Node11</title>
<path fill="none" stroke="midnightblue" d="M774.679,-268.121C700.804,-259.163 569.632,-242.453 457.972,-224 445.813,-221.99 432.628,-219.527 420.663,-217.182"/>
<polygon fill="midnightblue" stroke="midnightblue" points="421.008,-213.683 410.518,-215.166 419.644,-220.548 421.008,-213.683"/>
</g>
<!-- Node15 -->
<g id="node15" class="node"><title>Node15</title>
<polygon fill="white" stroke="#bfbfbf" points="669.472,-130.5 669.472,-149.5 718.472,-149.5 718.472,-130.5 669.472,-130.5"/>
<text text-anchor="middle" x="693.972" y="-137.5" font-family="Helvetica,sans-Serif" font-size="10.00">cstddef</text>
</g>
<!-- Node14&#45;&gt;Node15 -->
<g id="edge24" class="edge"><title>Node14&#45;&gt;Node15</title>
<path fill="none" stroke="midnightblue" d="M823.852,-266.208C800.775,-243.961 739.812,-185.191 710.359,-156.798"/>
<polygon fill="midnightblue" stroke="midnightblue" points="712.574,-154.071 702.945,-149.65 707.715,-159.11 712.574,-154.071"/>
</g>
<!-- Node16 -->
<g id="node16" class="node"><title>Node16</title>
<polygon fill="white" stroke="#bfbfbf" points="864.972,-198.5 864.972,-217.5 918.972,-217.5 918.972,-198.5 864.972,-198.5"/>
<text text-anchor="middle" x="891.972" y="-205.5" font-family="Helvetica,sans-Serif" font-size="10.00">iostream</text>
</g>
<!-- Node14&#45;&gt;Node16 -->
<g id="edge27" class="edge"><title>Node14&#45;&gt;Node16</title>
<path fill="none" stroke="midnightblue" d="M840.685,-266.372C849.91,-256.053 865.555,-238.551 877.146,-225.585"/>
<polygon fill="midnightblue" stroke="midnightblue" points="880.013,-227.629 884.069,-217.841 874.795,-222.964 880.013,-227.629"/>
</g>
<!-- Node17 -->
<g id="node17" class="node"><title>Node17</title>
<polygon fill="white" stroke="#bfbfbf" points="937.472,-198.5 937.472,-217.5 984.472,-217.5 984.472,-198.5 937.472,-198.5"/>
<text text-anchor="middle" x="960.972" y="-205.5" font-family="Helvetica,sans-Serif" font-size="10.00">iterator</text>
</g>
<!-- Node14&#45;&gt;Node17 -->
<g id="edge28" class="edge"><title>Node14&#45;&gt;Node17</title>
<path fill="none" stroke="midnightblue" d="M849.706,-266.372C871.458,-255.156 909.669,-235.453 935.152,-222.314"/>
<polygon fill="midnightblue" stroke="midnightblue" points="936.95,-225.324 944.234,-217.63 933.742,-219.103 936.95,-225.324"/>
</g>
<!-- Node18 -->
<g id="node18" class="node"><title>Node18</title>
<polygon fill="white" stroke="#bfbfbf" points="1002.47,-198.5 1002.47,-217.5 1037.47,-217.5 1037.47,-198.5 1002.47,-198.5"/>
<text text-anchor="middle" x="1019.97" y="-205.5" font-family="Helvetica,sans-Serif" font-size="10.00">map</text>
</g>
<!-- Node14&#45;&gt;Node18 -->
<g id="edge29" class="edge"><title>Node14&#45;&gt;Node18</title>
<path fill="none" stroke="midnightblue" d="M866.46,-266.417C899.326,-257.511 950.552,-242.328 992.972,-224 994.163,-223.486 995.369,-222.934 996.578,-222.358"/>
<polygon fill="midnightblue" stroke="midnightblue" points="998.404,-225.354 1005.67,-217.639 995.179,-219.141 998.404,-225.354"/>
</g>
<!-- Node19 -->
<g id="node19" class="node"><title>Node19</title>
<polygon fill="white" stroke="#bfbfbf" points="1055.97,-198.5 1055.97,-217.5 1085.97,-217.5 1085.97,-198.5 1055.97,-198.5"/>
<text text-anchor="middle" x="1070.97" y="-205.5" font-family="Helvetica,sans-Serif" font-size="10.00">set</text>
</g>
<!-- Node14&#45;&gt;Node19 -->
<g id="edge31" class="edge"><title>Node14&#45;&gt;Node19</title>
<path fill="none" stroke="midnightblue" d="M888.688,-266.469C932.525,-258.626 994.577,-244.989 1045.97,-224 1047.16,-223.516 1048.35,-222.98 1049.55,-222.409"/>
<polygon fill="midnightblue" stroke="midnightblue" points="1051.3,-225.441 1058.39,-217.569 1047.94,-219.3 1051.3,-225.441"/>
</g>
<!-- Node20 -->
<g id="node20" class="node"><title>Node20</title>
<polygon fill="white" stroke="#bfbfbf" points="1103.97,-198.5 1103.97,-217.5 1181.97,-217.5 1181.97,-198.5 1103.97,-198.5"/>
<text text-anchor="middle" x="1142.97" y="-205.5" font-family="Helvetica,sans-Serif" font-size="10.00">unordered_set</text>
</g>
<!-- Node14&#45;&gt;Node20 -->
<g id="edge32" class="edge"><title>Node14&#45;&gt;Node20</title>
<path fill="none" stroke="midnightblue" d="M885.321,-266.423C938.27,-257.361 1022.31,-241.919 1093.97,-224 1098.31,-222.915 1102.84,-221.677 1107.31,-220.388"/>
<polygon fill="midnightblue" stroke="midnightblue" points="1108.34,-223.735 1116.92,-217.526 1106.34,-217.026 1108.34,-223.735"/>
</g>
<!-- Node21 -->
<g id="node21" class="node"><title>Node21</title>
<polygon fill="white" stroke="#bfbfbf" points="938.972,-0.5 938.972,-19.5 1042.97,-19.5 1042.97,-0.5 938.972,-0.5"/>
<text text-anchor="middle" x="990.972" y="-7.5" font-family="Helvetica,sans-Serif" font-size="10.00">shad/config/config.h</text>
</g>
<!-- Node14&#45;&gt;Node21 -->
<g id="edge35" class="edge"><title>Node14&#45;&gt;Node21</title>
<path fill="none" stroke="midnightblue" d="M890.994,-275.128C987.814,-274.121 1176.5,-266.572 1224.97,-224 1282.72,-173.281 1249.79,-95.6872 1183.97,-56 1144.26,-32.0569 1092.88,-20.8518 1053.11,-15.6086"/>
<polygon fill="midnightblue" stroke="midnightblue" points="1053.36,-12.1127 1043.01,-14.3704 1052.51,-19.0607 1053.36,-12.1127"/>
</g>
<!-- Node22 -->
<g id="node22" class="node"><title>Node22</title>
<g id="a_node22"><a xlink:href="handle_8h.html" target="_top" xlink:title="shad/runtime/handle.h">
<polygon fill="white" stroke="black" points="827.472,-130.5 827.472,-149.5 940.472,-149.5 940.472,-130.5 827.472,-130.5"/>
<text text-anchor="middle" x="883.972" y="-137.5" font-family="Helvetica,sans-Serif" font-size="10.00">shad/runtime/handle.h</text>
</a>
</g>
</g>
<!-- Node14&#45;&gt;Node22 -->
<g id="edge36" class="edge"><title>Node14&#45;&gt;Node22</title>
<path fill="none" stroke="midnightblue" d="M834.737,-266.055C837.943,-250.597 845.383,-218.041 855.972,-192 860.709,-180.351 867.461,-167.97 873.148,-158.324"/>
<polygon fill="midnightblue" stroke="midnightblue" points="876.173,-160.085 878.365,-149.719 870.188,-156.455 876.173,-160.085"/>
</g>
<!-- Node23 -->
<g id="node23" class="node"><title>Node23</title>
<g id="a_node23"><a xlink:href="mapping__traits_8h.html" target="_top" xlink:title="shad/runtime/mapping\l_traits.h">
<polygon fill="white" stroke="black" points="827.472,-57 827.472,-87 940.472,-87 940.472,-57 827.472,-57"/>
<text text-anchor="start" x="835.472" y="-75" font-family="Helvetica,sans-Serif" font-size="10.00">shad/runtime/mapping</text>
<text text-anchor="middle" x="883.972" y="-64" font-family="Helvetica,sans-Serif" font-size="10.00">_traits.h</text>
</a>
</g>
</g>
<!-- Node14&#45;&gt;Node23 -->
<g id="edge48" class="edge"><title>Node14&#45;&gt;Node23</title>
<path fill="none" stroke="midnightblue" d="M829.04,-266.253C818.817,-242.128 793.82,-173.186 817.972,-124 824.228,-111.26 835.369,-100.799 846.736,-92.7401"/>
<polygon fill="midnightblue" stroke="midnightblue" points="848.963,-95.4652 855.396,-87.0475 845.118,-89.6158 848.963,-95.4652"/>
</g>
<!-- Node26 -->
<g id="node26" class="node"><title>Node26</title>
<g id="a_node26"><a xlink:href="locality_8h.html" target="_top" xlink:title="shad/runtime/locality.h">
<polygon fill="white" stroke="black" points="958.472,-130.5 958.472,-149.5 1073.47,-149.5 1073.47,-130.5 958.472,-130.5"/>
<text text-anchor="middle" x="1015.97" y="-137.5" font-family="Helvetica,sans-Serif" font-size="10.00">shad/runtime/locality.h</text>
</a>
</g>
</g>
<!-- Node14&#45;&gt;Node26 -->
<g id="edge43" class="edge"><title>Node14&#45;&gt;Node26</title>
<path fill="none" stroke="midnightblue" d="M891.157,-275.531C982.443,-274.983 1152.86,-267.922 1190.97,-224 1200.29,-213.258 1199.51,-203.377 1190.97,-192 1177.38,-173.878 1124.25,-160.075 1080.07,-151.427"/>
<polygon fill="midnightblue" stroke="midnightblue" points="1080.69,-147.984 1070.21,-149.554 1079.38,-154.86 1080.69,-147.984"/>
</g>
<!-- Node27 -->
<g id="node27" class="node"><title>Node27</title>
<g id="a_node27"><a xlink:href="available__mappings_8h.html" target="_top" xlink:title="shad/runtime/mappings\l/available_mappings.h">
<polygon fill="white" stroke="black" points="1115.97,-125 1115.97,-155 1233.97,-155 1233.97,-125 1115.97,-125"/>
<text text-anchor="start" x="1123.97" y="-143" font-family="Helvetica,sans-Serif" font-size="10.00">shad/runtime/mappings</text>
<text text-anchor="middle" x="1174.97" y="-132" font-family="Helvetica,sans-Serif" font-size="10.00">/available_mappings.h</text>
</a>
</g>
</g>
<!-- Node14&#45;&gt;Node27 -->
<g id="edge49" class="edge"><title>Node14&#45;&gt;Node27</title>
<path fill="none" stroke="midnightblue" d="M891.208,-275.967C986.096,-276.157 1167.57,-270.274 1207.97,-224 1223.27,-206.477 1209.31,-180.987 1195.12,-162.886"/>
<polygon fill="midnightblue" stroke="midnightblue" points="1197.78,-160.602 1188.69,-155.144 1192.39,-165.074 1197.78,-160.602"/>
</g>
<!-- Node28 -->
<g id="node28" class="node"><title>Node28</title>
<g id="a_node28"><a xlink:href="synchronous__interface_8h.html" target="_top" xlink:title="shad/runtime/synchronous\l_interface.h">
<polygon fill="white" stroke="black" points="601.472,-193 601.472,-223 732.472,-223 732.472,-193 601.472,-193"/>
<text text-anchor="start" x="609.472" y="-211" font-family="Helvetica,sans-Serif" font-size="10.00">shad/runtime/synchronous</text>
<text text-anchor="middle" x="666.972" y="-200" font-family="Helvetica,sans-Serif" font-size="10.00">_interface.h</text>
</a>
</g>
</g>
<!-- Node14&#45;&gt;Node28 -->
<g id="edge51" class="edge"><title>Node14&#45;&gt;Node28</title>
<path fill="none" stroke="midnightblue" d="M811.27,-266.372C786.183,-256.397 744.213,-239.71 711.985,-226.897"/>
<polygon fill="midnightblue" stroke="midnightblue" points="712.911,-223.499 702.326,-223.056 710.325,-230.003 712.911,-223.499"/>
</g>
<!-- Node22&#45;&gt;Node12 -->
<g id="edge37" class="edge"><title>Node22&#45;&gt;Node12</title>
<path fill="none" stroke="midnightblue" d="M861.486,-130.372C831.401,-118.827 777.886,-98.2926 743.707,-85.1772"/>
<polygon fill="midnightblue" stroke="midnightblue" points="744.781,-81.8408 734.191,-81.5259 742.273,-88.3761 744.781,-81.8408"/>
</g>
<!-- Node22&#45;&gt;Node21 -->
<g id="edge38" class="edge"><title>Node22&#45;&gt;Node21</title>
<path fill="none" stroke="midnightblue" d="M898.018,-130.425C912.19,-121.254 934.052,-105.627 948.972,-88 964.144,-70.0756 976.278,-45.8034 983.529,-29.3362"/>
<polygon fill="midnightblue" stroke="midnightblue" points="986.896,-30.3605 987.571,-19.7872 980.45,-27.6317 986.896,-30.3605"/>
</g>
<!-- Node22&#45;&gt;Node23 -->
<g id="edge39" class="edge"><title>Node22&#45;&gt;Node23</title>
<path fill="none" stroke="midnightblue" d="M883.972,-130.372C883.972,-121.971 883.972,-108.811 883.972,-97.2126"/>
<polygon fill="midnightblue" stroke="midnightblue" points="887.472,-97.1814 883.972,-87.1815 880.472,-97.1815 887.472,-97.1814"/>
</g>
<!-- Node25 -->
<g id="node25" class="node"><title>Node25</title>
<g id="a_node25"><a xlink:href="available__traits__mappings_8h.html" target="_top" xlink:title="shad/runtime/mappings\l/available_traits_mappings.h">
<polygon fill="white" stroke="black" points="1034.97,-57 1034.97,-87 1174.97,-87 1174.97,-57 1034.97,-57"/>
<text text-anchor="start" x="1042.97" y="-75" font-family="Helvetica,sans-Serif" font-size="10.00">shad/runtime/mappings</text>
<text text-anchor="middle" x="1104.97" y="-64" font-family="Helvetica,sans-Serif" font-size="10.00">/available_traits_mappings.h</text>
</a>
</g>
</g>
<!-- Node22&#45;&gt;Node25 -->
<g id="edge42" class="edge"><title>Node22&#45;&gt;Node25</title>
<path fill="none" stroke="midnightblue" d="M912.864,-130.372C947.056,-120.16 1004.8,-102.915 1048.07,-89.9921"/>
<polygon fill="midnightblue" stroke="midnightblue" points="1049.32,-93.2715 1057.91,-87.0562 1047.32,-86.5642 1049.32,-93.2715"/>
</g>
<!-- Node23&#45;&gt;Node21 -->
<g id="edge41" class="edge"><title>Node23&#45;&gt;Node21</title>
<path fill="none" stroke="midnightblue" d="M909.059,-56.9327C926.466,-47.1715 949.527,-34.2401 966.744,-24.5856"/>
<polygon fill="midnightblue" stroke="midnightblue" points="968.625,-27.5439 975.635,-19.6 965.201,-21.4383 968.625,-27.5439"/>
</g>
<!-- Node24 -->
<g id="node24" class="node"><title>Node24</title>
<polygon fill="white" stroke="#bfbfbf" points="863.472,-0.5 863.472,-19.5 904.472,-19.5 904.472,-0.5 863.472,-0.5"/>
<text text-anchor="middle" x="883.972" y="-7.5" font-family="Helvetica,sans-Serif" font-size="10.00">string</text>
</g>
<!-- Node23&#45;&gt;Node24 -->
<g id="edge40" class="edge"><title>Node23&#45;&gt;Node24</title>
<path fill="none" stroke="midnightblue" d="M883.972,-56.7808C883.972,-48.7812 883.972,-38.6887 883.972,-30.0168"/>
<polygon fill="midnightblue" stroke="midnightblue" points="887.472,-29.7305 883.972,-19.7305 880.472,-29.7306 887.472,-29.7305"/>
</g>
<!-- Node26&#45;&gt;Node9 -->
<g id="edge44" class="edge"><title>Node26&#45;&gt;Node9</title>
<path fill="none" stroke="midnightblue" d="M980.626,-130.455C970.447,-128.166 959.302,-125.824 948.972,-124 826.716,-102.416 794.193,-109.781 671.972,-88 661.214,-86.0827 649.562,-83.5789 639.085,-81.1677"/>
<polygon fill="midnightblue" stroke="midnightblue" points="639.613,-77.6963 629.077,-78.8125 638.009,-84.5102 639.613,-77.6963"/>
</g>
<!-- Node26&#45;&gt;Node21 -->
<g id="edge45" class="edge"><title>Node26&#45;&gt;Node21</title>
<path fill="none" stroke="midnightblue" d="M1014.25,-130.202C1010.22,-109.551 1000.07,-57.6064 994.604,-29.5937"/>
<polygon fill="midnightblue" stroke="midnightblue" points="997.989,-28.666 992.637,-19.5224 991.119,-30.0079 997.989,-28.666"/>
</g>
<!-- Node26&#45;&gt;Node23 -->
<g id="edge46" class="edge"><title>Node26&#45;&gt;Node23</title>
<path fill="none" stroke="midnightblue" d="M998.715,-130.372C979.11,-120.569 946.539,-104.283 921.098,-91.5629"/>
<polygon fill="midnightblue" stroke="midnightblue" points="922.594,-88.3979 912.085,-87.0562 919.464,-94.6589 922.594,-88.3979"/>
</g>
<!-- Node26&#45;&gt;Node25 -->
<g id="edge47" class="edge"><title>Node26&#45;&gt;Node25</title>
<path fill="none" stroke="midnightblue" d="M1027.61,-130.372C1040.21,-121.029 1060.75,-105.797 1077.5,-93.375"/>
<polygon fill="midnightblue" stroke="midnightblue" points="1079.9,-95.9494 1085.85,-87.1815 1075.73,-90.3267 1079.9,-95.9494"/>
</g>
<!-- Node27&#45;&gt;Node25 -->
<g id="edge50" class="edge"><title>Node27&#45;&gt;Node25</title>
<path fill="none" stroke="midnightblue" d="M1159.78,-124.679C1150.34,-115.771 1138.02,-104.155 1127.45,-94.1925"/>
<polygon fill="midnightblue" stroke="midnightblue" points="1129.81,-91.6067 1120.13,-87.2931 1125.01,-96.6998 1129.81,-91.6067"/>
</g>
<!-- Node28&#45;&gt;Node4 -->
<g id="edge54" class="edge"><title>Node28&#45;&gt;Node4</title>
<path fill="none" stroke="midnightblue" d="M618.34,-192.922C575.36,-180.481 513.658,-162.619 474.974,-151.422"/>
<polygon fill="midnightblue" stroke="midnightblue" points="475.764,-148.007 465.185,-148.588 473.817,-154.731 475.764,-148.007"/>
</g>
<!-- Node28&#45;&gt;Node9 -->
<g id="edge53" class="edge"><title>Node28&#45;&gt;Node9</title>
<path fill="none" stroke="midnightblue" d="M660.444,-192.66C649.265,-168.103 626.48,-118.049 614.219,-91.1169"/>
<polygon fill="midnightblue" stroke="midnightblue" points="617.274,-89.3787 609.945,-81.7275 610.903,-92.279 617.274,-89.3787"/>
</g>
<!-- Node28&#45;&gt;Node15 -->
<g id="edge52" class="edge"><title>Node28&#45;&gt;Node15</title>
<path fill="none" stroke="midnightblue" d="M672.831,-192.679C676.832,-182.898 682.169,-169.852 686.48,-159.315"/>
<polygon fill="midnightblue" stroke="midnightblue" points="689.814,-160.409 690.36,-149.828 683.335,-157.759 689.814,-160.409"/>
</g>
<!-- Node28&#45;&gt;Node26 -->
<g id="edge55" class="edge"><title>Node28&#45;&gt;Node26</title>
<path fill="none" stroke="midnightblue" d="M732.647,-195.914C789.894,-186.062 875.093,-170.944 948.972,-156 955.566,-154.666 962.509,-153.192 969.326,-151.703"/>
<polygon fill="midnightblue" stroke="midnightblue" points="970.161,-155.103 979.17,-149.527 968.65,-148.268 970.161,-155.103"/>
</g>
<!-- Node29&#45;&gt;Node2 -->
<g id="edge57" class="edge"><title>Node29&#45;&gt;Node2</title>
<path fill="none" stroke="midnightblue" d="M308.669,-340.7C234.23,-336.37 106.048,-324.32 73.9721,-292 57.3562,-275.258 56.1279,-246.631 57.4885,-227.762"/>
<polygon fill="midnightblue" stroke="midnightblue" points="60.9812,-228.012 58.5238,-217.706 54.018,-227.295 60.9812,-228.012"/>
</g>
<!-- Node29&#45;&gt;Node3 -->
<g id="edge58" class="edge"><title>Node29&#45;&gt;Node3</title>
<path fill="none" stroke="midnightblue" d="M381.85,-328.679C396.087,-317.879 415.57,-303.098 430.054,-292.11"/>
<polygon fill="midnightblue" stroke="midnightblue" points="432.483,-294.661 438.335,-285.828 428.252,-289.084 432.483,-294.661"/>
</g>
<!-- Node29&#45;&gt;Node4 -->
<g id="edge60" class="edge"><title>Node29&#45;&gt;Node4</title>
<path fill="none" stroke="midnightblue" d="M355.418,-328.89C341.44,-300.666 315.287,-236.178 341.972,-192 355.194,-170.11 381.273,-157.147 403.062,-149.771"/>
<polygon fill="midnightblue" stroke="midnightblue" points="404.205,-153.081 412.71,-146.764 402.122,-146.398 404.205,-153.081"/>
</g>
<!-- Node29&#45;&gt;Node5 -->
<g id="edge61" class="edge"><title>Node29&#45;&gt;Node5</title>
<path fill="none" stroke="midnightblue" d="M397.957,-328.945C421.858,-319.116 454.121,-305.397 481.972,-292 483.118,-291.449 484.285,-290.875 485.46,-290.287"/>
<polygon fill="midnightblue" stroke="midnightblue" points="487.132,-293.363 494.398,-285.652 483.909,-287.149 487.132,-293.363"/>
</g>
<!-- Node29&#45;&gt;Node6 -->
<g id="edge62" class="edge"><title>Node29&#45;&gt;Node6</title>
<path fill="none" stroke="midnightblue" d="M370.403,-328.713C379.912,-311.265 397.613,-281.431 417.972,-260 431.606,-245.648 449.679,-232.453 463.907,-223.082"/>
<polygon fill="midnightblue" stroke="midnightblue" points="466.085,-225.844 472.618,-217.502 462.309,-219.949 466.085,-225.844"/>
</g>
<!-- Node29&#45;&gt;Node7 -->
<g id="edge63" class="edge"><title>Node29&#45;&gt;Node7</title>
<path fill="none" stroke="midnightblue" d="M344.629,-328.931C333.224,-319.457 318.894,-306.147 308.972,-292 294.707,-271.66 284.327,-244.769 278.476,-227.187"/>
<polygon fill="midnightblue" stroke="midnightblue" points="281.789,-226.055 275.425,-217.585 275.118,-228.175 281.789,-226.055"/>
</g>
<!-- Node29&#45;&gt;Node8 -->
<g id="edge64" class="edge"><title>Node29&#45;&gt;Node8</title>
<path fill="none" stroke="midnightblue" d="M317.753,-328.922C285.102,-318.757 240.831,-304.975 206.106,-294.164"/>
<polygon fill="midnightblue" stroke="midnightblue" points="206.71,-290.687 196.122,-291.056 204.629,-297.37 206.71,-290.687"/>
</g>
<!-- Node29&#45;&gt;Node11 -->
<g id="edge59" class="edge"><title>Node29&#45;&gt;Node11</title>
<path fill="none" stroke="midnightblue" d="M364.898,-328.66C368.168,-304.32 374.802,-254.933 378.442,-227.837"/>
<polygon fill="midnightblue" stroke="midnightblue" points="381.937,-228.104 379.8,-217.728 374.999,-227.173 381.937,-228.104"/>
</g>
<!-- Node29&#45;&gt;Node14 -->
<g id="edge65" class="edge"><title>Node29&#45;&gt;Node14</title>
<path fill="none" stroke="midnightblue" d="M417.346,-335.364C503.376,-323.284 670.73,-299.783 764.711,-286.586"/>
<polygon fill="midnightblue" stroke="midnightblue" points="765.268,-290.042 774.684,-285.185 764.294,-283.11 765.268,-290.042"/>
</g>
</g>
</svg>
