<?xml version="1.0" encoding="UTF-8" standalone="no"?>
<!DOCTYPE svg PUBLIC "-//W3C//DTD SVG 1.1//EN"
 "http://www.w3.org/Graphics/SVG/1.1/DTD/svg11.dtd">
<!-- Generated by graphviz version 2.36.0 (20140111.2315)
 -->
<!-- Title: include/shad/data_structures/local_hashmap.h Pages: 1 -->
<svg width="1398pt" height="368pt"
 viewBox="0.00 0.00 1398.00 368.00" xmlns="http://www.w3.org/2000/svg" xmlns:xlink="http://www.w3.org/1999/xlink">
<g id="graph0" class="graph" transform="scale(1 1) rotate(0) translate(4 364)">
<title>include/shad/data_structures/local_hashmap.h</title>
<polygon fill="white" stroke="none" points="-4,4 -4,-364 1394,-364 1394,4 -4,4"/>
<!-- Node1 -->
<g id="node1" class="node"><title>Node1</title>
<polygon fill="#bfbfbf" stroke="black" points="626,-329 626,-359 768,-359 768,-329 626,-329"/>
<text text-anchor="start" x="634" y="-347" font-family="Helvetica,sans-Serif" font-size="10.00">include/shad/data_structures</text>
<text text-anchor="middle" x="697" y="-336" font-family="Helvetica,sans-Serif" font-size="10.00">/local_hashmap.h</text>
</g>
<!-- Node2 -->
<g id="node2" class="node"><title>Node2</title>
<polygon fill="white" stroke="#bfbfbf" points="0,-198.5 0,-217.5 56,-217.5 56,-198.5 0,-198.5"/>
<text text-anchor="middle" x="28" y="-205.5" font-family="Helvetica,sans-Serif" font-size="10.00">algorithm</text>
</g>
<!-- Node1&#45;&gt;Node2 -->
<g id="edge1" class="edge"><title>Node1&#45;&gt;Node2</title>
<path fill="none" stroke="midnightblue" d="M625.828,-340.411C499.792,-335.142 242.662,-321.12 158,-292 113.799,-276.797 69.432,-243.735 45.6777,-224.239"/>
<polygon fill="midnightblue" stroke="midnightblue" points="47.8125,-221.461 37.8972,-217.728 43.3201,-226.83 47.8125,-221.461"/>
</g>
<!-- Node3 -->
<g id="node3" class="node"><title>Node3</title>
<polygon fill="white" stroke="#bfbfbf" points="1288,-266.5 1288,-285.5 1334,-285.5 1334,-266.5 1288,-266.5"/>
<text text-anchor="middle" x="1311" y="-273.5" font-family="Helvetica,sans-Serif" font-size="10.00">atomic</text>
</g>
<!-- Node1&#45;&gt;Node3 -->
<g id="edge2" class="edge"><title>Node1&#45;&gt;Node3</title>
<path fill="none" stroke="midnightblue" d="M768.257,-343.443C878.312,-342.627 1095.59,-335.029 1274,-292 1277.07,-291.26 1280.22,-290.309 1283.32,-289.245"/>
<polygon fill="midnightblue" stroke="midnightblue" points="1284.82,-292.418 1292.91,-285.583 1282.32,-285.879 1284.82,-292.418"/>
</g>
<!-- Node4 -->
<g id="node4" class="node"><title>Node4</title>
<polygon fill="white" stroke="#bfbfbf" points="263.5,-198.5 263.5,-217.5 322.5,-217.5 322.5,-198.5 263.5,-198.5"/>
<text text-anchor="middle" x="293" y="-205.5" font-family="Helvetica,sans-Serif" font-size="10.00">functional</text>
</g>
<!-- Node1&#45;&gt;Node4 -->
<g id="edge3" class="edge"><title>Node1&#45;&gt;Node4</title>
<path fill="none" stroke="midnightblue" d="M625.959,-329.107C584.378,-320.186 531.143,-307.397 485,-292 424.23,-271.723 356.038,-239.977 319.512,-222.198"/>
<polygon fill="midnightblue" stroke="midnightblue" points="320.601,-218.835 310.081,-217.575 317.52,-225.12 320.601,-218.835"/>
</g>
<!-- Node5 -->
<g id="node5" class="node"><title>Node5</title>
<polygon fill="white" stroke="#bfbfbf" points="757,-130.5 757,-149.5 809,-149.5 809,-130.5 757,-130.5"/>
<text text-anchor="middle" x="783" y="-137.5" font-family="Helvetica,sans-Serif" font-size="10.00">memory</text>
</g>
<!-- Node1&#45;&gt;Node5 -->
<g id="edge4" class="edge"><title>Node1&#45;&gt;Node5</title>
<path fill="none" stroke="midnightblue" d="M768.037,-338.715C902.48,-328.907 1185.65,-299.553 1241,-224 1249.4,-212.527 1250.48,-202.599 1241,-192 1213.01,-160.725 923.225,-146.457 819.596,-142.327"/>
<polygon fill="midnightblue" stroke="midnightblue" points="819.441,-138.818 809.313,-141.926 819.169,-145.813 819.441,-138.818"/>
</g>
<!-- Node6 -->
<g id="node6" class="node"><title>Node6</title>
<polygon fill="white" stroke="#bfbfbf" points="1352,-266.5 1352,-285.5 1390,-285.5 1390,-266.5 1352,-266.5"/>
<text text-anchor="middle" x="1371" y="-273.5" font-family="Helvetica,sans-Serif" font-size="10.00">tuple</text>
</g>
<!-- Node1&#45;&gt;Node6 -->
<g id="edge5" class="edge"><title>Node1&#45;&gt;Node6</title>
<path fill="none" stroke="midnightblue" d="M768.004,-341.066C912.676,-336.526 1236.87,-323.128 1343,-292 1344.91,-291.441 1346.83,-290.743 1348.73,-289.956"/>
<polygon fill="midnightblue" stroke="midnightblue" points="1350.37,-293.048 1357.81,-285.508 1347.29,-286.761 1350.37,-293.048"/>
</g>
<!-- Node7 -->
<g id="node7" class="node"><title>Node7</title>
<polygon fill="white" stroke="#bfbfbf" points="1192,-198.5 1192,-217.5 1232,-217.5 1232,-198.5 1192,-198.5"/>
<text text-anchor="middle" x="1212" y="-205.5" font-family="Helvetica,sans-Serif" font-size="10.00">utility</text>
</g>
<!-- Node1&#45;&gt;Node7 -->
<g id="edge6" class="edge"><title>Node1&#45;&gt;Node7</title>
<path fill="none" stroke="midnightblue" d="M768.19,-331.052C864.318,-313.692 1040.05,-277.601 1183,-224 1184.61,-223.398 1186.24,-222.729 1187.86,-222.017"/>
<polygon fill="midnightblue" stroke="midnightblue" points="1189.47,-225.13 1196.96,-217.639 1186.43,-218.823 1189.47,-225.13"/>
</g>
<!-- Node8 -->
<g id="node8" class="node"><title>Node8</title>
<polygon fill="white" stroke="#bfbfbf" points="341,-198.5 341,-217.5 385,-217.5 385,-198.5 341,-198.5"/>
<text text-anchor="middle" x="363" y="-205.5" font-family="Helvetica,sans-Serif" font-size="10.00">vector</text>
</g>
<!-- Node1&#45;&gt;Node8 -->
<g id="edge7" class="edge"><title>Node1&#45;&gt;Node8</title>
<path fill="none" stroke="midnightblue" d="M661.151,-328.884C605.112,-306.772 493.393,-262.51 399,-224 397.119,-223.233 395.185,-222.439 393.235,-221.636"/>
<polygon fill="midnightblue" stroke="midnightblue" points="394.117,-218.213 383.539,-217.62 391.438,-224.68 394.117,-218.213"/>
</g>
<!-- Node9 -->
<g id="node9" class="node"><title>Node9</title>
<g id="a_node9"><a xlink:href="compare__and__hash__utils_8h.html" target="_top" xlink:title="shad/data_structures\l/compare_and_hash_utils.h">
<polygon fill="white" stroke="black" points="167,-261 167,-291 303,-291 303,-261 167,-261"/>
<text text-anchor="start" x="175" y="-279" font-family="Helvetica,sans-Serif" font-size="10.00">shad/data_structures</text>
<text text-anchor="middle" x="235" y="-268" font-family="Helvetica,sans-Serif" font-size="10.00">/compare_and_hash_utils.h</text>
</a>
</g>
</g>
<!-- Node1&#45;&gt;Node9 -->
<g id="edge8" class="edge"><title>Node1&#45;&gt;Node9</title>
<path fill="none" stroke="midnightblue" d="M625.825,-332.832C541.339,-320.763 400.908,-300.701 313.382,-288.197"/>
<polygon fill="midnightblue" stroke="midnightblue" points="313.636,-284.698 303.242,-286.749 312.646,-291.628 313.636,-284.698"/>
</g>
<!-- Node13 -->
<g id="node13" class="node"><title>Node13</title>
<g id="a_node13"><a xlink:href="runtime_8h.html" target="_top" xlink:title="shad/runtime/runtime.h">
<polygon fill="white" stroke="black" points="639,-266.5 639,-285.5 755,-285.5 755,-266.5 639,-266.5"/>
<text text-anchor="middle" x="697" y="-273.5" font-family="Helvetica,sans-Serif" font-size="10.00">shad/runtime/runtime.h</text>
</a>
</g>
</g>
<!-- Node1&#45;&gt;Node13 -->
<g id="edge15" class="edge"><title>Node1&#45;&gt;Node13</title>
<path fill="none" stroke="midnightblue" d="M697,-328.679C697,-319.101 697,-306.394 697,-295.977"/>
<polygon fill="midnightblue" stroke="midnightblue" points="700.5,-295.828 697,-285.828 693.5,-295.828 700.5,-295.828"/>
</g>
<!-- Node9&#45;&gt;Node2 -->
<g id="edge9" class="edge"><title>Node9&#45;&gt;Node2</title>
<path fill="none" stroke="midnightblue" d="M183.641,-260.949C149.704,-251.333 104.386,-237.857 65,-224 62.5971,-223.155 60.1216,-222.243 57.6438,-221.301"/>
<polygon fill="midnightblue" stroke="midnightblue" points="58.8125,-218 48.2253,-217.598 56.2511,-224.514 58.8125,-218"/>
</g>
<!-- Node9&#45;&gt;Node4 -->
<g id="edge12" class="edge"><title>Node9&#45;&gt;Node4</title>
<path fill="none" stroke="midnightblue" d="M247.585,-260.679C256.718,-250.286 269.09,-236.208 278.614,-225.37"/>
<polygon fill="midnightblue" stroke="midnightblue" points="281.27,-227.65 285.242,-217.828 276.012,-223.03 281.27,-227.65"/>
</g>
<!-- Node9&#45;&gt;Node8 -->
<g id="edge14" class="edge"><title>Node9&#45;&gt;Node8</title>
<path fill="none" stroke="midnightblue" d="M262.459,-260.841C284.599,-249.425 315.514,-233.485 337.2,-222.303"/>
<polygon fill="midnightblue" stroke="midnightblue" points="338.878,-225.376 346.162,-217.682 335.67,-219.154 338.878,-225.376"/>
</g>
<!-- Node10 -->
<g id="node10" class="node"><title>Node10</title>
<polygon fill="white" stroke="#bfbfbf" points="658,-62.5 658,-81.5 704,-81.5 704,-62.5 658,-62.5"/>
<text text-anchor="middle" x="681" y="-69.5" font-family="Helvetica,sans-Serif" font-size="10.00">cstdint</text>
</g>
<!-- Node9&#45;&gt;Node10 -->
<g id="edge10" class="edge"><title>Node9&#45;&gt;Node10</title>
<path fill="none" stroke="midnightblue" d="M233.729,-260.835C232.908,-242.08 234.621,-209.36 254,-192 305.82,-145.578 500.089,-181.039 565,-156 604.977,-140.579 643.907,-108.086 664.942,-88.6442"/>
<polygon fill="midnightblue" stroke="midnightblue" points="667.467,-91.0735 672.333,-81.6622 662.66,-85.9848 667.467,-91.0735"/>
</g>
<!-- Node11 -->
<g id="node11" class="node"><title>Node11</title>
<polygon fill="white" stroke="#bfbfbf" points="74,-198.5 74,-217.5 120,-217.5 120,-198.5 74,-198.5"/>
<text text-anchor="middle" x="97" y="-205.5" font-family="Helvetica,sans-Serif" font-size="10.00">cstring</text>
</g>
<!-- Node9&#45;&gt;Node11 -->
<g id="edge11" class="edge"><title>Node9&#45;&gt;Node11</title>
<path fill="none" stroke="midnightblue" d="M205.396,-260.841C181.312,-249.323 147.598,-233.199 124.189,-222.004"/>
<polygon fill="midnightblue" stroke="midnightblue" points="125.684,-218.839 115.153,-217.682 122.664,-225.154 125.684,-218.839"/>
</g>
<!-- Node12 -->
<g id="node12" class="node"><title>Node12</title>
<polygon fill="white" stroke="#bfbfbf" points="90,-62.5 90,-81.5 152,-81.5 152,-62.5 90,-62.5"/>
<text text-anchor="middle" x="121" y="-69.5" font-family="Helvetica,sans-Serif" font-size="10.00">type_traits</text>
</g>
<!-- Node9&#45;&gt;Node12 -->
<g id="edge13" class="edge"><title>Node9&#45;&gt;Node12</title>
<path fill="none" stroke="midnightblue" d="M215.356,-260.701C189.545,-240.621 145.241,-201.4 126,-156 117.22,-135.284 117.278,-109.027 118.666,-91.6555"/>
<polygon fill="midnightblue" stroke="midnightblue" points="122.152,-91.9753 119.691,-81.6701 115.188,-91.2604 122.152,-91.9753"/>
</g>
<!-- Node13&#45;&gt;Node4 -->
<g id="edge18" class="edge"><title>Node13&#45;&gt;Node4</title>
<path fill="none" stroke="midnightblue" d="M638.993,-271.002C566.317,-265.061 438.394,-251.507 332,-224 328.769,-223.165 325.44,-222.145 322.153,-221.035"/>
<polygon fill="midnightblue" stroke="midnightblue" points="323.148,-217.672 312.554,-217.524 320.743,-224.246 323.148,-217.672"/>
</g>
<!-- Node13&#45;&gt;Node5 -->
<g id="edge22" class="edge"><title>Node13&#45;&gt;Node5</title>
<path fill="none" stroke="midnightblue" d="M717.864,-266.402C735.062,-258.165 758.576,-244.018 771,-224 783.093,-204.516 784.848,-177.59 784.408,-159.754"/>
<polygon fill="midnightblue" stroke="midnightblue" points="787.891,-159.325 783.889,-149.515 780.9,-159.68 787.891,-159.325"/>
</g>
<!-- Node13&#45;&gt;Node7 -->
<g id="edge25" class="edge"><title>Node13&#45;&gt;Node7</title>
<path fill="none" stroke="midnightblue" d="M755.268,-271.602C866.329,-264.679 1104.27,-247.576 1183,-224 1184.91,-223.427 1186.85,-222.727 1188.77,-221.947"/>
<polygon fill="midnightblue" stroke="midnightblue" points="1190.45,-225.023 1197.99,-217.582 1187.45,-218.696 1190.45,-225.023"/>
</g>
<!-- Node13&#45;&gt;Node8 -->
<g id="edge26" class="edge"><title>Node13&#45;&gt;Node8</title>
<path fill="none" stroke="midnightblue" d="M638.723,-268.964C578.009,-261.765 480.543,-247.638 399,-224 396.348,-223.231 393.627,-222.327 390.927,-221.349"/>
<polygon fill="midnightblue" stroke="midnightblue" points="391.985,-218.004 381.397,-217.602 389.423,-224.519 391.985,-218.004"/>
</g>
<!-- Node13&#45;&gt;Node10 -->
<g id="edge17" class="edge"><title>Node13&#45;&gt;Node10</title>
<path fill="none" stroke="midnightblue" d="M722.571,-266.435C743.202,-258.369 771.705,-244.447 790,-224 820.775,-189.604 844.335,-161.903 818,-124 794.741,-90.5233 746.739,-78.978 714.197,-75.0221"/>
<polygon fill="midnightblue" stroke="midnightblue" points="714.534,-71.5383 704.226,-73.9862 713.811,-78.5009 714.534,-71.5383"/>
</g>
<!-- Node14 -->
<g id="node14" class="node"><title>Node14</title>
<polygon fill="white" stroke="#bfbfbf" points="651.5,-130.5 651.5,-149.5 700.5,-149.5 700.5,-130.5 651.5,-130.5"/>
<text text-anchor="middle" x="676" y="-137.5" font-family="Helvetica,sans-Serif" font-size="10.00">cstddef</text>
</g>
<!-- Node13&#45;&gt;Node14 -->
<g id="edge16" class="edge"><title>Node13&#45;&gt;Node14</title>
<path fill="none" stroke="midnightblue" d="M674.335,-266.343C656.794,-258.295 633.739,-244.443 623,-224 616.386,-211.409 617.431,-205.087 623,-192 629.295,-177.206 642.218,-164.628 653.727,-155.664"/>
<polygon fill="midnightblue" stroke="midnightblue" points="656.106,-158.261 662.119,-149.537 651.978,-152.607 656.106,-158.261"/>
</g>
<!-- Node15 -->
<g id="node15" class="node"><title>Node15</title>
<polygon fill="white" stroke="#bfbfbf" points="857,-198.5 857,-217.5 911,-217.5 911,-198.5 857,-198.5"/>
<text text-anchor="middle" x="884" y="-205.5" font-family="Helvetica,sans-Serif" font-size="10.00">iostream</text>
</g>
<!-- Node13&#45;&gt;Node15 -->
<g id="edge19" class="edge"><title>Node13&#45;&gt;Node15</title>
<path fill="none" stroke="midnightblue" d="M721.839,-266.448C750.923,-256.405 800.527,-239.187 843,-224 845.587,-223.075 848.264,-222.111 850.952,-221.138"/>
<polygon fill="midnightblue" stroke="midnightblue" points="852.404,-224.334 860.605,-217.626 850.011,-217.756 852.404,-224.334"/>
</g>
<!-- Node16 -->
<g id="node16" class="node"><title>Node16</title>
<polygon fill="white" stroke="#bfbfbf" points="929.5,-198.5 929.5,-217.5 976.5,-217.5 976.5,-198.5 929.5,-198.5"/>
<text text-anchor="middle" x="953" y="-205.5" font-family="Helvetica,sans-Serif" font-size="10.00">iterator</text>
</g>
<!-- Node13&#45;&gt;Node16 -->
<g id="edge20" class="edge"><title>Node13&#45;&gt;Node16</title>
<path fill="none" stroke="midnightblue" d="M747.398,-266.484C793.127,-258.052 862.055,-243.572 920,-224 922.132,-223.28 924.311,-222.469 926.484,-221.605"/>
<polygon fill="midnightblue" stroke="midnightblue" points="927.986,-224.77 935.796,-217.612 925.226,-218.337 927.986,-224.77"/>
</g>
<!-- Node17 -->
<g id="node17" class="node"><title>Node17</title>
<polygon fill="white" stroke="#bfbfbf" points="994.5,-198.5 994.5,-217.5 1029.5,-217.5 1029.5,-198.5 994.5,-198.5"/>
<text text-anchor="middle" x="1012" y="-205.5" font-family="Helvetica,sans-Serif" font-size="10.00">map</text>
</g>
<!-- Node13&#45;&gt;Node17 -->
<g id="edge21" class="edge"><title>Node13&#45;&gt;Node17</title>
<path fill="none" stroke="midnightblue" d="M755.271,-270.388C814.495,-264.392 908.199,-251.27 985,-224 986.453,-223.484 987.92,-222.895 989.38,-222.255"/>
<polygon fill="midnightblue" stroke="midnightblue" points="991.337,-225.187 998.679,-217.548 988.176,-218.942 991.337,-225.187"/>
</g>
<!-- Node18 -->
<g id="node18" class="node"><title>Node18</title>
<polygon fill="white" stroke="#bfbfbf" points="1048,-198.5 1048,-217.5 1078,-217.5 1078,-198.5 1048,-198.5"/>
<text text-anchor="middle" x="1063" y="-205.5" font-family="Helvetica,sans-Serif" font-size="10.00">set</text>
</g>
<!-- Node13&#45;&gt;Node18 -->
<g id="edge23" class="edge"><title>Node13&#45;&gt;Node18</title>
<path fill="none" stroke="midnightblue" d="M755.082,-273.185C824.32,-269.477 942.638,-258.21 1038,-224 1039.23,-223.558 1040.47,-223.052 1041.7,-222.499"/>
<polygon fill="midnightblue" stroke="midnightblue" points="1043.6,-225.453 1050.76,-217.645 1040.29,-219.283 1043.6,-225.453"/>
</g>
<!-- Node19 -->
<g id="node19" class="node"><title>Node19</title>
<polygon fill="white" stroke="#bfbfbf" points="1096,-198.5 1096,-217.5 1174,-217.5 1174,-198.5 1096,-198.5"/>
<text text-anchor="middle" x="1135" y="-205.5" font-family="Helvetica,sans-Serif" font-size="10.00">unordered_set</text>
</g>
<!-- Node13&#45;&gt;Node19 -->
<g id="edge24" class="edge"><title>Node13&#45;&gt;Node19</title>
<path fill="none" stroke="midnightblue" d="M755.187,-270.42C831.698,-263.705 970.014,-249.172 1086,-224 1090.7,-222.98 1095.6,-221.723 1100.4,-220.374"/>
<polygon fill="midnightblue" stroke="midnightblue" points="1101.44,-223.716 1110.03,-217.521 1099.45,-217.004 1101.44,-223.716"/>
</g>
<!-- Node20 -->
<g id="node20" class="node"><title>Node20</title>
<polygon fill="white" stroke="#bfbfbf" points="377,-0.5 377,-19.5 481,-19.5 481,-0.5 377,-0.5"/>
<text text-anchor="middle" x="429" y="-7.5" font-family="Helvetica,sans-Serif" font-size="10.00">shad/config/config.h</text>
</g>
<!-- Node13&#45;&gt;Node20 -->
<g id="edge27" class="edge"><title>Node13&#45;&gt;Node20</title>
<path fill="none" stroke="midnightblue" d="M650.409,-266.431C613.882,-258.567 562.468,-244.92 521,-224 498.778,-212.789 443.262,-178.196 432,-156 411.181,-114.967 418.556,-58.629 424.482,-29.7455"/>
<polygon fill="midnightblue" stroke="midnightblue" points="427.94,-30.3161 426.696,-19.7946 421.107,-28.7958 427.94,-30.3161"/>
</g>
<!-- Node21 -->
<g id="node21" class="node"><title>Node21</title>
<g id="a_node21"><a xlink:href="handle_8h.html" target="_top" xlink:title="shad/runtime/handle.h">
<polygon fill="white" stroke="black" points="135.5,-130.5 135.5,-149.5 248.5,-149.5 248.5,-130.5 135.5,-130.5"/>
<text text-anchor="middle" x="192" y="-137.5" font-family="Helvetica,sans-Serif" font-size="10.00">shad/runtime/handle.h</text>
</a>
</g>
</g>
<!-- Node13&#45;&gt;Node21 -->
<g id="edge28" class="edge"><title>Node13&#45;&gt;Node21</title>
<path fill="none" stroke="midnightblue" d="M638.893,-267.908C570.974,-258.947 463.241,-242.45 427,-224 408.507,-214.585 411.193,-201.981 393,-192 379.554,-184.623 294.959,-164.472 239.886,-151.82"/>
<polygon fill="midnightblue" stroke="midnightblue" points="240.499,-148.37 229.97,-149.55 238.936,-155.193 240.499,-148.37"/>
</g>
<!-- Node22 -->
<g id="node22" class="node"><title>Node22</title>
<g id="a_node22"><a xlink:href="mapping__traits_8h.html" target="_top" xlink:title="shad/runtime/mapping\l_traits.h">
<polygon fill="white" stroke="black" points="479.5,-57 479.5,-87 592.5,-87 592.5,-57 479.5,-57"/>
<text text-anchor="start" x="487.5" y="-75" font-family="Helvetica,sans-Serif" font-size="10.00">shad/runtime/mapping</text>
<text text-anchor="middle" x="536" y="-64" font-family="Helvetica,sans-Serif" font-size="10.00">_traits.h</text>
</a>
</g>
</g>
<!-- Node13&#45;&gt;Node22 -->
<g id="edge40" class="edge"><title>Node13&#45;&gt;Node22</title>
<path fill="none" stroke="midnightblue" d="M676.314,-266.342C657.996,-257.815 631.518,-243.274 614,-224 580.711,-187.375 588.132,-167.755 565,-124 560.106,-114.742 554.465,-104.695 549.467,-95.9848"/>
<polygon fill="midnightblue" stroke="midnightblue" points="552.399,-94.0628 544.362,-87.1594 546.34,-97.568 552.399,-94.0628"/>
</g>
<!-- Node25 -->
<g id="node25" class="node"><title>Node25</title>
<g id="a_node25"><a xlink:href="locality_8h.html" target="_top" xlink:title="shad/runtime/locality.h">
<polygon fill="white" stroke="black" points="441.5,-130.5 441.5,-149.5 556.5,-149.5 556.5,-130.5 441.5,-130.5"/>
<text text-anchor="middle" x="499" y="-137.5" font-family="Helvetica,sans-Serif" font-size="10.00">shad/runtime/locality.h</text>
</a>
</g>
</g>
<!-- Node13&#45;&gt;Node25 -->
<g id="edge35" class="edge"><title>Node13&#45;&gt;Node25</title>
<path fill="none" stroke="midnightblue" d="M647.604,-266.42C617.227,-259.171 578.91,-246.275 551,-224 529.346,-206.718 514.192,-177.814 506.035,-159.082"/>
<polygon fill="midnightblue" stroke="midnightblue" points="509.184,-157.536 502.136,-149.626 502.713,-160.205 509.184,-157.536"/>
</g>
<!-- Node26 -->
<g id="node26" class="node"><title>Node26</title>
<g id="a_node26"><a xlink:href="available__mappings_8h.html" target="_top" xlink:title="shad/runtime/mappings\l/available_mappings.h">
<polygon fill="white" stroke="black" points="267,-125 267,-155 385,-155 385,-125 267,-125"/>
<text text-anchor="start" x="275" y="-143" font-family="Helvetica,sans-Serif" font-size="10.00">shad/runtime/mappings</text>
<text text-anchor="middle" x="326" y="-132" font-family="Helvetica,sans-Serif" font-size="10.00">/available_mappings.h</text>
</a>
</g>
</g>
<!-- Node13&#45;&gt;Node26 -->
<g id="edge41" class="edge"><title>Node13&#45;&gt;Node26</title>
<path fill="none" stroke="midnightblue" d="M638.628,-267.5C592.773,-260.225 528.022,-246.85 475,-224 451.454,-213.853 449.15,-204.913 427,-192 407.111,-180.405 384.264,-168.738 365.336,-159.494"/>
<polygon fill="midnightblue" stroke="midnightblue" points="366.637,-156.236 356.112,-155.029 363.587,-162.536 366.637,-156.236"/>
</g>
<!-- Node27 -->
<g id="node27" class="node"><title>Node27</title>
<g id="a_node27"><a xlink:href="synchronous__interface_8h.html" target="_top" xlink:title="shad/runtime/synchronous\l_interface.h">
<polygon fill="white" stroke="black" points="631.5,-193 631.5,-223 762.5,-223 762.5,-193 631.5,-193"/>
<text text-anchor="start" x="639.5" y="-211" font-family="Helvetica,sans-Serif" font-size="10.00">shad/runtime/synchronous</text>
<text text-anchor="middle" x="697" y="-200" font-family="Helvetica,sans-Serif" font-size="10.00">_interface.h</text>
</a>
</g>
</g>
<!-- Node13&#45;&gt;Node27 -->
<g id="edge43" class="edge"><title>Node13&#45;&gt;Node27</title>
<path fill="none" stroke="midnightblue" d="M697,-266.372C697,-257.971 697,-244.811 697,-233.213"/>
<polygon fill="midnightblue" stroke="midnightblue" points="700.5,-233.181 697,-223.181 693.5,-233.181 700.5,-233.181"/>
</g>
<!-- Node21&#45;&gt;Node12 -->
<g id="edge29" class="edge"><title>Node21&#45;&gt;Node12</title>
<path fill="none" stroke="midnightblue" d="M182.718,-130.372C171.406,-119.856 152.07,-101.882 138.05,-88.8496"/>
<polygon fill="midnightblue" stroke="midnightblue" points="140.218,-86.0861 130.511,-81.8411 135.452,-91.2131 140.218,-86.0861"/>
</g>
<!-- Node21&#45;&gt;Node20 -->
<g id="edge30" class="edge"><title>Node21&#45;&gt;Node20</title>
<path fill="none" stroke="midnightblue" d="M194.012,-130.413C198.462,-113.405 210.802,-75.4036 236,-56 273.319,-27.2631 325.916,-16.3923 366.779,-12.4973"/>
<polygon fill="midnightblue" stroke="midnightblue" points="367.226,-15.9723 376.899,-11.6507 366.642,-8.99664 367.226,-15.9723"/>
</g>
<!-- Node21&#45;&gt;Node22 -->
<g id="edge31" class="edge"><title>Node21&#45;&gt;Node22</title>
<path fill="none" stroke="midnightblue" d="M228.251,-130.473C237.902,-128.282 248.331,-125.985 258,-124 330.098,-109.201 413.146,-94.2355 469.561,-84.3794"/>
<polygon fill="midnightblue" stroke="midnightblue" points="470.176,-87.8251 479.427,-82.6605 468.974,-80.929 470.176,-87.8251"/>
</g>
<!-- Node24 -->
<g id="node24" class="node"><title>Node24</title>
<g id="a_node24"><a xlink:href="available__traits__mappings_8h.html" target="_top" xlink:title="shad/runtime/mappings\l/available_traits_mappings.h">
<polygon fill="white" stroke="black" points="245,-57 245,-87 385,-87 385,-57 245,-57"/>
<text text-anchor="start" x="253" y="-75" font-family="Helvetica,sans-Serif" font-size="10.00">shad/runtime/mappings</text>
<text text-anchor="middle" x="315" y="-64" font-family="Helvetica,sans-Serif" font-size="10.00">/available_traits_mappings.h</text>
</a>
</g>
</g>
<!-- Node21&#45;&gt;Node24 -->
<g id="edge34" class="edge"><title>Node21&#45;&gt;Node24</title>
<path fill="none" stroke="midnightblue" d="M208.08,-130.372C226.131,-120.686 255.977,-104.671 279.555,-92.0192"/>
<polygon fill="midnightblue" stroke="midnightblue" points="281.414,-94.9937 288.571,-87.1815 278.104,-88.8256 281.414,-94.9937"/>
</g>
<!-- Node22&#45;&gt;Node20 -->
<g id="edge33" class="edge"><title>Node22&#45;&gt;Node20</title>
<path fill="none" stroke="midnightblue" d="M510.913,-56.9327C493.506,-47.1715 470.445,-34.2401 453.228,-24.5856"/>
<polygon fill="midnightblue" stroke="midnightblue" points="454.771,-21.4383 444.337,-19.6 451.347,-27.5439 454.771,-21.4383"/>
</g>
<!-- Node23 -->
<g id="node23" class="node"><title>Node23</title>
<polygon fill="white" stroke="#bfbfbf" points="515.5,-0.5 515.5,-19.5 556.5,-19.5 556.5,-0.5 515.5,-0.5"/>
<text text-anchor="middle" x="536" y="-7.5" font-family="Helvetica,sans-Serif" font-size="10.00">string</text>
</g>
<!-- Node22&#45;&gt;Node23 -->
<g id="edge32" class="edge"><title>Node22&#45;&gt;Node23</title>
<path fill="none" stroke="midnightblue" d="M536,-56.7808C536,-48.7812 536,-38.6887 536,-30.0168"/>
<polygon fill="midnightblue" stroke="midnightblue" points="539.5,-29.7305 536,-19.7305 532.5,-29.7306 539.5,-29.7305"/>
</g>
<!-- Node25&#45;&gt;Node10 -->
<g id="edge36" class="edge"><title>Node25&#45;&gt;Node10</title>
<path fill="none" stroke="midnightblue" d="M522.793,-130.372C554.852,-118.746 612.054,-98.0023 648.183,-84.9006"/>
<polygon fill="midnightblue" stroke="midnightblue" points="649.569,-88.1213 657.776,-81.4218 647.182,-81.5407 649.569,-88.1213"/>
</g>
<!-- Node25&#45;&gt;Node20 -->
<g id="edge37" class="edge"><title>Node25&#45;&gt;Node20</title>
<path fill="none" stroke="midnightblue" d="M494.001,-130.378C488.162,-120.27 478.251,-102.991 470,-88 458.857,-67.7559 446.433,-44.2907 438.212,-28.6353"/>
<polygon fill="midnightblue" stroke="midnightblue" points="441.214,-26.8219 433.473,-19.5875 435.013,-30.0699 441.214,-26.8219"/>
</g>
<!-- Node25&#45;&gt;Node22 -->
<g id="edge38" class="edge"><title>Node25&#45;&gt;Node22</title>
<path fill="none" stroke="midnightblue" d="M503.837,-130.372C508.69,-121.714 516.378,-108.001 523.021,-96.152"/>
<polygon fill="midnightblue" stroke="midnightblue" points="526.213,-97.6158 528.05,-87.1815 520.107,-94.1927 526.213,-97.6158"/>
</g>
<!-- Node25&#45;&gt;Node24 -->
<g id="edge39" class="edge"><title>Node25&#45;&gt;Node24</title>
<path fill="none" stroke="midnightblue" d="M474.945,-130.372C446.897,-120.311 399.813,-103.422 363.972,-90.5662"/>
<polygon fill="midnightblue" stroke="midnightblue" points="364.782,-87.1381 354.187,-87.0562 362.418,-93.7271 364.782,-87.1381"/>
</g>
<!-- Node26&#45;&gt;Node24 -->
<g id="edge42" class="edge"><title>Node26&#45;&gt;Node24</title>
<path fill="none" stroke="midnightblue" d="M323.613,-124.679C322.287,-116.722 320.601,-106.605 319.073,-97.4356"/>
<polygon fill="midnightblue" stroke="midnightblue" points="322.479,-96.5816 317.382,-87.2931 315.574,-97.7324 322.479,-96.5816"/>
</g>
<!-- Node27&#45;&gt;Node5 -->
<g id="edge46" class="edge"><title>Node27&#45;&gt;Node5</title>
<path fill="none" stroke="midnightblue" d="M715.661,-192.679C729.734,-181.879 748.993,-167.098 763.311,-156.11"/>
<polygon fill="midnightblue" stroke="midnightblue" points="765.694,-158.693 771.496,-149.828 761.432,-153.14 765.694,-158.693"/>
</g>
<!-- Node27&#45;&gt;Node10 -->
<g id="edge45" class="edge"><title>Node27&#45;&gt;Node10</title>
<path fill="none" stroke="midnightblue" d="M702.433,-192.719C708.009,-176.034 715.076,-147.693 709,-124 705.914,-111.965 699.329,-99.722 693.321,-90.2485"/>
<polygon fill="midnightblue" stroke="midnightblue" points="696.135,-88.1607 687.655,-81.8088 690.323,-92.0622 696.135,-88.1607"/>
</g>
<!-- Node27&#45;&gt;Node14 -->
<g id="edge44" class="edge"><title>Node27&#45;&gt;Node14</title>
<path fill="none" stroke="midnightblue" d="M692.443,-192.679C689.363,-182.999 685.266,-170.123 681.932,-159.645"/>
<polygon fill="midnightblue" stroke="midnightblue" points="685.176,-158.296 678.809,-149.828 678.506,-160.419 685.176,-158.296"/>
</g>
<!-- Node27&#45;&gt;Node25 -->
<g id="edge47" class="edge"><title>Node27&#45;&gt;Node25</title>
<path fill="none" stroke="midnightblue" d="M654.524,-192.841C618.791,-180.93 568.282,-164.094 534.629,-152.876"/>
<polygon fill="midnightblue" stroke="midnightblue" points="535.354,-149.429 524.76,-149.587 533.14,-156.07 535.354,-149.429"/>
</g>
</g>
</svg>
