<?xml version="1.0" encoding="UTF-8" standalone="no"?>
<!DOCTYPE svg PUBLIC "-//W3C//DTD SVG 1.1//EN"
 "http://www.w3.org/Graphics/SVG/1.1/DTD/svg11.dtd">
<!-- Generated by graphviz version 2.36.0 (20140111.2315)
 -->
<!-- Title: include/shad/runtime/runtime.h Pages: 1 -->
<svg width="1563pt" height="332pt"
 viewBox="0.00 0.00 1563.00 332.00" xmlns="http://www.w3.org/2000/svg" xmlns:xlink="http://www.w3.org/1999/xlink">
<g id="graph0" class="graph" transform="scale(1 1) rotate(0) translate(4 328)">
<title>include/shad/runtime/runtime.h</title>
<polygon fill="white" stroke="none" points="-4,4 -4,-328 1559,-328 1559,4 -4,4"/>
<!-- Node1 -->
<g id="node1" class="node"><title>Node1</title>
<polygon fill="#bfbfbf" stroke="black" points="815.5,-293 815.5,-323 922.5,-323 922.5,-293 815.5,-293"/>
<text text-anchor="start" x="823.5" y="-311" font-family="Helvetica,sans-Serif" font-size="10.00">include/shad/runtime</text>
<text text-anchor="middle" x="869" y="-300" font-family="Helvetica,sans-Serif" font-size="10.00">/runtime.h</text>
</g>
<!-- Node2 -->
<g id="node2" class="node"><title>Node2</title>
<g id="a_node2"><a xlink:href="algorithm_8h.html" target="_top" xlink:title="include/shad/core/algorithm.h">
<polygon fill="white" stroke="black" points="0,-230.5 0,-249.5 144,-249.5 144,-230.5 0,-230.5"/>
<text text-anchor="middle" x="72" y="-237.5" font-family="Helvetica,sans-Serif" font-size="10.00">include/shad/core/algorithm.h</text>
</a>
</g>
</g>
<!-- Node1&#45;&gt;Node2 -->
<g id="edge1" class="edge"><title>Node1&#45;&gt;Node2</title>
<path fill="none" stroke="midnightblue" d="M805.17,-304.587C680.439,-299.393 395.753,-285.185 158,-256 144.311,-254.32 129.487,-251.938 116.065,-249.567"/>
<polygon fill="midnightblue" stroke="midnightblue" points="805.17,-308.09 815.306,-305.004 805.458,-301.095 805.17,-308.09"/>
</g>
<!-- Node3 -->
<g id="node3" class="node"><title>Node3</title>
<g id="a_node3"><a xlink:href="abstract__data__structure_8h.html" target="_top" xlink:title="include/shad/data_structures\l/abstract_data_structure.h">
<polygon fill="white" stroke="black" points="520,-152 520,-182 662,-182 662,-152 520,-152"/>
<text text-anchor="start" x="528" y="-170" font-family="Helvetica,sans-Serif" font-size="10.00">include/shad/data_structures</text>
<text text-anchor="middle" x="591" y="-159" font-family="Helvetica,sans-Serif" font-size="10.00">/abstract_data_structure.h</text>
</a>
</g>
</g>
<!-- Node1&#45;&gt;Node3 -->
<g id="edge2" class="edge"><title>Node1&#45;&gt;Node3</title>
<path fill="none" stroke="midnightblue" d="M805.15,-299.602C744.655,-291.479 659.263,-276.771 633,-256 609.365,-237.308 598.292,-202.065 593.739,-182.324"/>
<polygon fill="midnightblue" stroke="midnightblue" points="805.012,-303.114 815.382,-300.946 805.923,-296.174 805.012,-303.114"/>
</g>
<!-- Node4 -->
<g id="node4" class="node"><title>Node4</title>
<g id="a_node4"><a xlink:href="data__structures_2array_8h.html" target="_top" xlink:title="include/shad/data_structures\l/array.h">
<polygon fill="white" stroke="black" points="360,-79 360,-109 502,-109 502,-79 360,-79"/>
<text text-anchor="start" x="368" y="-97" font-family="Helvetica,sans-Serif" font-size="10.00">include/shad/data_structures</text>
<text text-anchor="middle" x="431" y="-86" font-family="Helvetica,sans-Serif" font-size="10.00">/array.h</text>
</a>
</g>
</g>
<!-- Node1&#45;&gt;Node4 -->
<g id="edge16" class="edge"><title>Node1&#45;&gt;Node4</title>
<path fill="none" stroke="midnightblue" d="M805.137,-303.45C720.971,-297.732 578.491,-284.147 535,-256 478.849,-219.66 446.76,-141.133 435.563,-109.069"/>
<polygon fill="midnightblue" stroke="midnightblue" points="805.144,-306.958 815.353,-304.125 805.605,-299.973 805.144,-306.958"/>
</g>
<!-- Node6 -->
<g id="node6" class="node"><title>Node6</title>
<g id="a_node6"><a xlink:href="sssp_8h.html" target="_top" xlink:title="include/shad/extensions\l/graph_library/algorithms\l/sssp.h">
<polygon fill="white" stroke="black" points="446.5,-0.5 446.5,-41.5 569.5,-41.5 569.5,-0.5 446.5,-0.5"/>
<text text-anchor="start" x="454.5" y="-29.5" font-family="Helvetica,sans-Serif" font-size="10.00">include/shad/extensions</text>
<text text-anchor="start" x="454.5" y="-18.5" font-family="Helvetica,sans-Serif" font-size="10.00">/graph_library/algorithms</text>
<text text-anchor="middle" x="508" y="-7.5" font-family="Helvetica,sans-Serif" font-size="10.00">/sssp.h</text>
</a>
</g>
</g>
<!-- Node1&#45;&gt;Node6 -->
<g id="edge40" class="edge"><title>Node1&#45;&gt;Node6</title>
<path fill="none" stroke="midnightblue" d="M805.13,-304.285C729.82,-299.717 601.54,-287.629 496,-256 352.04,-212.857 271.106,-237.157 191,-110 104.297,27.6282 105.445,-112.649 437,-42 440.006,-41.3595 443.072,-40.6633 446.161,-39.9275"/>
<polygon fill="midnightblue" stroke="midnightblue" points="805.211,-307.795 815.397,-304.881 805.617,-300.807 805.211,-307.795"/>
</g>
<!-- Node7 -->
<g id="node7" class="node"><title>Node7</title>
<g id="a_node7"><a xlink:href="hashmap_8h.html" target="_top" xlink:title="include/shad/data_structures\l/hashmap.h">
<polygon fill="white" stroke="black" points="840,-79 840,-109 982,-109 982,-79 840,-79"/>
<text text-anchor="start" x="848" y="-97" font-family="Helvetica,sans-Serif" font-size="10.00">include/shad/data_structures</text>
<text text-anchor="middle" x="911" y="-86" font-family="Helvetica,sans-Serif" font-size="10.00">/hashmap.h</text>
</a>
</g>
</g>
<!-- Node1&#45;&gt;Node7 -->
<g id="edge23" class="edge"><title>Node1&#45;&gt;Node7</title>
<path fill="none" stroke="midnightblue" d="M873.791,-282.815C882.606,-238.322 901.136,-144.789 908.191,-109.177"/>
<polygon fill="midnightblue" stroke="midnightblue" points="870.331,-282.271 871.821,-292.761 877.198,-283.632 870.331,-282.271"/>
</g>
<!-- Node10 -->
<g id="node10" class="node"><title>Node10</title>
<g id="a_node10"><a xlink:href="set_8h.html" target="_top" xlink:title="include/shad/data_structures\l/set.h">
<polygon fill="white" stroke="black" points="520,-79 520,-109 662,-109 662,-79 520,-79"/>
<text text-anchor="start" x="528" y="-97" font-family="Helvetica,sans-Serif" font-size="10.00">include/shad/data_structures</text>
<text text-anchor="middle" x="591" y="-86" font-family="Helvetica,sans-Serif" font-size="10.00">/set.h</text>
</a>
</g>
</g>
<!-- Node1&#45;&gt;Node10 -->
<g id="edge38" class="edge"><title>Node1&#45;&gt;Node10</title>
<path fill="none" stroke="midnightblue" d="M805.439,-302.644C750.26,-297.05 669.206,-284.398 604,-256 557.055,-235.555 534.177,-233.658 511,-188 502.551,-171.355 502.024,-162.367 511,-146 520.187,-129.247 537.475,-117.205 553.635,-109.045"/>
<polygon fill="midnightblue" stroke="midnightblue" points="805.142,-306.132 815.432,-303.609 805.815,-299.164 805.142,-306.132"/>
</g>
<!-- Node12 -->
<g id="node12" class="node"><title>Node12</title>
<g id="a_node12"><a xlink:href="vector_8h.html" target="_top" xlink:title="include/shad/data_structures\l/vector.h">
<polygon fill="white" stroke="black" points="680,-79 680,-109 822,-109 822,-79 680,-79"/>
<text text-anchor="start" x="688" y="-97" font-family="Helvetica,sans-Serif" font-size="10.00">include/shad/data_structures</text>
<text text-anchor="middle" x="751" y="-86" font-family="Helvetica,sans-Serif" font-size="10.00">/vector.h</text>
</a>
</g>
</g>
<!-- Node1&#45;&gt;Node12 -->
<g id="edge39" class="edge"><title>Node1&#45;&gt;Node12</title>
<path fill="none" stroke="midnightblue" d="M868.786,-282.303C867.331,-248.539 860.432,-187.443 831,-146 819.46,-129.751 800.957,-117.468 784.651,-109.033"/>
<polygon fill="midnightblue" stroke="midnightblue" points="865.297,-282.747 869.095,-292.637 872.294,-282.537 865.297,-282.747"/>
</g>
<!-- Node13 -->
<g id="node13" class="node"><title>Node13</title>
<g id="a_node13"><a xlink:href="edge__index_8h.html" target="_top" xlink:title="include/shad/extensions\l/graph_library/edge_index.h">
<polygon fill="white" stroke="black" points="1000,-79 1000,-109 1136,-109 1136,-79 1000,-79"/>
<text text-anchor="start" x="1008" y="-97" font-family="Helvetica,sans-Serif" font-size="10.00">include/shad/extensions</text>
<text text-anchor="middle" x="1068" y="-86" font-family="Helvetica,sans-Serif" font-size="10.00">/graph_library/edge_index.h</text>
</a>
</g>
</g>
<!-- Node1&#45;&gt;Node13 -->
<g id="edge42" class="edge"><title>Node1&#45;&gt;Node13</title>
<path fill="none" stroke="midnightblue" d="M888.763,-285.176C904.033,-268.373 925.741,-244.611 945,-224 984.296,-181.945 1031.42,-132.903 1054.25,-109.227"/>
<polygon fill="midnightblue" stroke="midnightblue" points="885.953,-283.065 881.823,-292.822 891.136,-287.77 885.953,-283.065"/>
</g>
<!-- Node14 -->
<g id="node14" class="node"><title>Node14</title>
<g id="a_node14"><a xlink:href="attributed__edge__index_8h.html" target="_top" xlink:title="include/shad/extensions\l/graph_library/attributed\l_edge_index.h">
<polygon fill="white" stroke="black" points="1141,-0.5 1141,-41.5 1263,-41.5 1263,-0.5 1141,-0.5"/>
<text text-anchor="start" x="1149" y="-29.5" font-family="Helvetica,sans-Serif" font-size="10.00">include/shad/extensions</text>
<text text-anchor="start" x="1149" y="-18.5" font-family="Helvetica,sans-Serif" font-size="10.00">/graph_library/attributed</text>
<text text-anchor="middle" x="1202" y="-7.5" font-family="Helvetica,sans-Serif" font-size="10.00">_edge_index.h</text>
</a>
</g>
</g>
<!-- Node1&#45;&gt;Node14 -->
<g id="edge41" class="edge"><title>Node1&#45;&gt;Node14</title>
<path fill="none" stroke="midnightblue" d="M932.788,-304.107C1047.47,-298.248 1278.84,-283.17 1303,-256 1361.66,-190.039 1267.56,-84.7753 1223.16,-41.5243"/>
<polygon fill="midnightblue" stroke="midnightblue" points="932.544,-300.615 922.732,-304.613 932.895,-307.606 932.544,-300.615"/>
</g>
<!-- Node15 -->
<g id="node15" class="node"><title>Node15</title>
<g id="a_node15"><a xlink:href="buffer_8h.html" target="_top" xlink:title="include/shad/data_structures\l/buffer.h">
<polygon fill="white" stroke="black" points="680,-152 680,-182 822,-182 822,-152 680,-152"/>
<text text-anchor="start" x="688" y="-170" font-family="Helvetica,sans-Serif" font-size="10.00">include/shad/data_structures</text>
<text text-anchor="middle" x="751" y="-159" font-family="Helvetica,sans-Serif" font-size="10.00">/buffer.h</text>
</a>
</g>
</g>
<!-- Node1&#45;&gt;Node15 -->
<g id="edge17" class="edge"><title>Node1&#45;&gt;Node15</title>
<path fill="none" stroke="midnightblue" d="M850.345,-285.025C825.865,-256.188 783.602,-206.404 762.996,-182.13"/>
<polygon fill="midnightblue" stroke="midnightblue" points="847.896,-287.549 857.036,-292.907 853.233,-283.018 847.896,-287.549"/>
</g>
<!-- Node16 -->
<g id="node16" class="node"><title>Node16</title>
<g id="a_node16"><a xlink:href="local__hashmap_8h.html" target="_top" xlink:title="include/shad/data_structures\l/local_hashmap.h">
<polygon fill="white" stroke="black" points="1152,-225 1152,-255 1294,-255 1294,-225 1152,-225"/>
<text text-anchor="start" x="1160" y="-243" font-family="Helvetica,sans-Serif" font-size="10.00">include/shad/data_structures</text>
<text text-anchor="middle" x="1223" y="-232" font-family="Helvetica,sans-Serif" font-size="10.00">/local_hashmap.h</text>
</a>
</g>
</g>
<!-- Node1&#45;&gt;Node16 -->
<g id="edge24" class="edge"><title>Node1&#45;&gt;Node16</title>
<path fill="none" stroke="midnightblue" d="M932.765,-295.112C994.466,-283.608 1087.81,-266.205 1151.88,-254.259"/>
<polygon fill="midnightblue" stroke="midnightblue" points="931.954,-291.702 922.765,-296.976 933.237,-298.584 931.954,-291.702"/>
</g>
<!-- Node17 -->
<g id="node17" class="node"><title>Node17</title>
<g id="a_node17"><a xlink:href="local__edge__index_8h.html" target="_top" xlink:title="include/shad/extensions\l/graph_library/local_edge\l_index.h">
<polygon fill="white" stroke="black" points="1129.5,-146.5 1129.5,-187.5 1254.5,-187.5 1254.5,-146.5 1129.5,-146.5"/>
<text text-anchor="start" x="1137.5" y="-175.5" font-family="Helvetica,sans-Serif" font-size="10.00">include/shad/extensions</text>
<text text-anchor="start" x="1137.5" y="-164.5" font-family="Helvetica,sans-Serif" font-size="10.00">/graph_library/local_edge</text>
<text text-anchor="middle" x="1192" y="-153.5" font-family="Helvetica,sans-Serif" font-size="10.00">_index.h</text>
</a>
</g>
</g>
<!-- Node1&#45;&gt;Node17 -->
<g id="edge43" class="edge"><title>Node1&#45;&gt;Node17</title>
<path fill="none" stroke="midnightblue" d="M932.613,-303.148C982.186,-297.885 1051.37,-285.436 1105,-256 1121.1,-247.162 1154.51,-210.867 1174.92,-187.739"/>
<polygon fill="midnightblue" stroke="midnightblue" points="932.263,-299.665 922.658,-304.137 932.954,-306.631 932.263,-299.665"/>
</g>
<!-- Node18 -->
<g id="node18" class="node"><title>Node18</title>
<g id="a_node18"><a xlink:href="local__set_8h.html" target="_top" xlink:title="include/shad/data_structures\l/local_set.h">
<polygon fill="white" stroke="black" points="954,-225 954,-255 1096,-255 1096,-225 954,-225"/>
<text text-anchor="start" x="962" y="-243" font-family="Helvetica,sans-Serif" font-size="10.00">include/shad/data_structures</text>
<text text-anchor="middle" x="1025" y="-232" font-family="Helvetica,sans-Serif" font-size="10.00">/local_set.h</text>
</a>
</g>
</g>
<!-- Node1&#45;&gt;Node18 -->
<g id="edge30" class="edge"><title>Node1&#45;&gt;Node18</title>
<path fill="none" stroke="midnightblue" d="M911.806,-288.89C937.048,-278.21 968.513,-264.898 991.858,-255.022"/>
<polygon fill="midnightblue" stroke="midnightblue" points="910.312,-285.721 902.466,-292.841 913.039,-292.168 910.312,-285.721"/>
</g>
<!-- Node19 -->
<g id="node19" class="node"><title>Node19</title>
<g id="a_node19"><a xlink:href="object__identifier_8h.html" target="_top" xlink:title="include/shad/data_structures\l/object_identifier.h">
<polygon fill="white" stroke="black" points="642,-225 642,-255 784,-255 784,-225 642,-225"/>
<text text-anchor="start" x="650" y="-243" font-family="Helvetica,sans-Serif" font-size="10.00">include/shad/data_structures</text>
<text text-anchor="middle" x="713" y="-232" font-family="Helvetica,sans-Serif" font-size="10.00">/object_identifier.h</text>
</a>
</g>
</g>
<!-- Node1&#45;&gt;Node19 -->
<g id="edge35" class="edge"><title>Node1&#45;&gt;Node19</title>
<path fill="none" stroke="midnightblue" d="M826.194,-288.89C800.952,-278.21 769.487,-264.898 746.142,-255.022"/>
<polygon fill="midnightblue" stroke="midnightblue" points="824.961,-292.168 835.534,-292.841 827.688,-285.721 824.961,-292.168"/>
</g>
<!-- Node20 -->
<g id="node20" class="node"><title>Node20</title>
<g id="a_node20"><a xlink:href="shad_8h.html" target="_top" xlink:title="The API to the shad library. ">
<polygon fill="white" stroke="black" points="1350,-230.5 1350,-249.5 1454,-249.5 1454,-230.5 1350,-230.5"/>
<text text-anchor="middle" x="1402" y="-237.5" font-family="Helvetica,sans-Serif" font-size="10.00">include/shad/shad.h</text>
</a>
</g>
</g>
<!-- Node1&#45;&gt;Node20 -->
<g id="edge44" class="edge"><title>Node1&#45;&gt;Node20</title>
<path fill="none" stroke="midnightblue" d="M932.563,-302.383C1022.72,-295.309 1192.72,-280.025 1336,-256 1346.43,-254.251 1357.68,-251.878 1367.89,-249.536"/>
<polygon fill="midnightblue" stroke="midnightblue" points="932.2,-298.901 922.501,-303.165 932.742,-305.88 932.2,-298.901"/>
</g>
<!-- Node21 -->
<g id="node21" class="node"><title>Node21</title>
<g id="a_node21"><a xlink:href="shad_8cc.html" target="_top" xlink:title="src/util/shad.cc">
<polygon fill="white" stroke="black" points="1472.5,-230.5 1472.5,-249.5 1555.5,-249.5 1555.5,-230.5 1472.5,-230.5"/>
<text text-anchor="middle" x="1514" y="-237.5" font-family="Helvetica,sans-Serif" font-size="10.00">src/util/shad.cc</text>
</a>
</g>
</g>
<!-- Node1&#45;&gt;Node21 -->
<g id="edge45" class="edge"><title>Node1&#45;&gt;Node21</title>
<path fill="none" stroke="midnightblue" d="M932.943,-305.7C1042.4,-302.544 1272.32,-291.852 1463,-256 1471.44,-254.414 1480.47,-252.001 1488.56,-249.571"/>
<polygon fill="midnightblue" stroke="midnightblue" points="932.631,-302.207 922.731,-305.982 932.824,-309.204 932.631,-302.207"/>
</g>
<!-- Node3&#45;&gt;Node4 -->
<g id="edge3" class="edge"><title>Node3&#45;&gt;Node4</title>
<path fill="none" stroke="midnightblue" d="M550.151,-147.873C523.008,-135.829 487.885,-120.243 462.819,-109.12"/>
<polygon fill="midnightblue" stroke="midnightblue" points="548.829,-151.116 559.389,-151.973 551.668,-144.717 548.829,-151.116"/>
</g>
<!-- Node3&#45;&gt;Node7 -->
<g id="edge6" class="edge"><title>Node3&#45;&gt;Node7</title>
<path fill="none" stroke="midnightblue" d="M655.859,-149.578C660.977,-148.346 666.07,-147.14 671,-146 728.377,-132.736 793.777,-118.924 841.8,-109.025"/>
<polygon fill="midnightblue" stroke="midnightblue" points="654.912,-146.207 646.023,-151.971 656.567,-153.008 654.912,-146.207"/>
</g>
<!-- Node9 -->
<g id="node9" class="node"><title>Node9</title>
<g id="a_node9"><a xlink:href="one__per__locality_8h.html" target="_top" xlink:title="include/shad/data_structures\l/one_per_locality.h">
<polygon fill="white" stroke="black" points="200,-79 200,-109 342,-109 342,-79 200,-79"/>
<text text-anchor="start" x="208" y="-97" font-family="Helvetica,sans-Serif" font-size="10.00">include/shad/data_structures</text>
<text text-anchor="middle" x="271" y="-86" font-family="Helvetica,sans-Serif" font-size="10.00">/one_per_locality.h</text>
</a>
</g>
</g>
<!-- Node3&#45;&gt;Node9 -->
<g id="edge8" class="edge"><title>Node3&#45;&gt;Node9</title>
<path fill="none" stroke="midnightblue" d="M517.682,-149.733C462.322,-137.45 387.131,-120.767 334.364,-109.059"/>
<polygon fill="midnightblue" stroke="midnightblue" points="517.258,-153.223 527.778,-151.973 518.774,-146.39 517.258,-153.223"/>
</g>
<!-- Node3&#45;&gt;Node10 -->
<g id="edge9" class="edge"><title>Node3&#45;&gt;Node10</title>
<path fill="none" stroke="midnightblue" d="M591,-141.898C591,-131.131 591,-118.801 591,-109.486"/>
<polygon fill="midnightblue" stroke="midnightblue" points="587.5,-141.973 591,-151.973 594.5,-141.973 587.5,-141.973"/>
</g>
<!-- Node3&#45;&gt;Node12 -->
<g id="edge12" class="edge"><title>Node3&#45;&gt;Node12</title>
<path fill="none" stroke="midnightblue" d="M631.849,-147.873C658.992,-135.829 694.115,-120.243 719.181,-109.12"/>
<polygon fill="midnightblue" stroke="midnightblue" points="630.332,-144.717 622.611,-151.973 633.171,-151.116 630.332,-144.717"/>
</g>
<!-- Node3&#45;&gt;Node13 -->
<g id="edge13" class="edge"><title>Node3&#45;&gt;Node13</title>
<path fill="none" stroke="midnightblue" d="M652.999,-149.642C659.059,-148.302 665.133,-147.058 671,-146 811.845,-120.588 849.535,-131.701 991,-110 993.827,-109.566 996.708,-109.103 999.616,-108.617"/>
<polygon fill="midnightblue" stroke="midnightblue" points="651.816,-146.322 642.853,-151.973 653.383,-153.145 651.816,-146.322"/>
</g>
<!-- Node5 -->
<g id="node5" class="node"><title>Node5</title>
<g id="a_node5"><a xlink:href="core_2array_8h.html" target="_top" xlink:title="include/shad/core/array.h">
<polygon fill="white" stroke="black" points="302,-11.5 302,-30.5 428,-30.5 428,-11.5 302,-11.5"/>
<text text-anchor="middle" x="365" y="-18.5" font-family="Helvetica,sans-Serif" font-size="10.00">include/shad/core/array.h</text>
</a>
</g>
</g>
<!-- Node4&#45;&gt;Node5 -->
<g id="edge4" class="edge"><title>Node4&#45;&gt;Node5</title>
<path fill="none" stroke="midnightblue" d="M410.884,-71.3599C398.147,-57.6582 382.373,-40.6888 373.029,-30.6372"/>
<polygon fill="midnightblue" stroke="midnightblue" points="408.589,-74.0314 417.961,-78.9727 413.716,-69.2654 408.589,-74.0314"/>
</g>
<!-- Node4&#45;&gt;Node6 -->
<g id="edge5" class="edge"><title>Node4&#45;&gt;Node6</title>
<path fill="none" stroke="midnightblue" d="M453.755,-72.0178C464.177,-62.4078 476.459,-51.0831 486.698,-41.642"/>
<polygon fill="midnightblue" stroke="midnightblue" points="451.192,-69.6207 446.213,-78.9727 455.937,-74.7669 451.192,-69.6207"/>
</g>
<!-- Node8 -->
<g id="node8" class="node"><title>Node8</title>
<g id="a_node8"><a xlink:href="unordered__map_8h.html" target="_top" xlink:title="include/shad/core/unordered\l_map.h">
<polygon fill="white" stroke="black" points="841.5,-6 841.5,-36 980.5,-36 980.5,-6 841.5,-6"/>
<text text-anchor="start" x="849.5" y="-24" font-family="Helvetica,sans-Serif" font-size="10.00">include/shad/core/unordered</text>
<text text-anchor="middle" x="911" y="-13" font-family="Helvetica,sans-Serif" font-size="10.00">_map.h</text>
</a>
</g>
</g>
<!-- Node7&#45;&gt;Node8 -->
<g id="edge7" class="edge"><title>Node7&#45;&gt;Node8</title>
<path fill="none" stroke="midnightblue" d="M911,-68.8976C911,-58.1314 911,-45.8005 911,-36.4856"/>
<polygon fill="midnightblue" stroke="midnightblue" points="907.5,-68.9727 911,-78.9727 914.5,-68.9727 907.5,-68.9727"/>
</g>
<!-- Node10&#45;&gt;Node6 -->
<g id="edge11" class="edge"><title>Node10&#45;&gt;Node6</title>
<path fill="none" stroke="midnightblue" d="M566.801,-72.2999C555.497,-62.6301 542.107,-51.1757 530.962,-41.642"/>
<polygon fill="midnightblue" stroke="midnightblue" points="564.728,-75.1319 574.602,-78.9727 569.278,-69.8126 564.728,-75.1319"/>
</g>
<!-- Node11 -->
<g id="node11" class="node"><title>Node11</title>
<g id="a_node11"><a xlink:href="unordered__set_8h.html" target="_top" xlink:title="include/shad/core/unordered\l_set.h">
<polygon fill="white" stroke="black" points="587.5,-6 587.5,-36 726.5,-36 726.5,-6 587.5,-6"/>
<text text-anchor="start" x="595.5" y="-24" font-family="Helvetica,sans-Serif" font-size="10.00">include/shad/core/unordered</text>
<text text-anchor="middle" x="657" y="-13" font-family="Helvetica,sans-Serif" font-size="10.00">_set.h</text>
</a>
</g>
</g>
<!-- Node10&#45;&gt;Node11 -->
<g id="edge10" class="edge"><title>Node10&#45;&gt;Node11</title>
<path fill="none" stroke="midnightblue" d="M610.936,-71.5539C621.483,-60.2075 634.154,-46.5768 643.534,-36.4856"/>
<polygon fill="midnightblue" stroke="midnightblue" points="608.284,-69.2654 604.039,-78.9727 613.411,-74.0314 608.284,-69.2654"/>
</g>
<!-- Node13&#45;&gt;Node6 -->
<g id="edge14" class="edge"><title>Node13&#45;&gt;Node6</title>
<path fill="none" stroke="midnightblue" d="M989.705,-77.9203C807.214,-53.1713 756.632,-74.4827 579,-42 575.977,-41.4471 572.896,-40.8222 569.796,-40.1434"/>
<polygon fill="midnightblue" stroke="midnightblue" points="989.244,-81.3897 999.629,-79.2936 990.203,-74.4558 989.244,-81.3897"/>
</g>
<!-- Node13&#45;&gt;Node14 -->
<g id="edge15" class="edge"><title>Node13&#45;&gt;Node14</title>
<path fill="none" stroke="midnightblue" d="M1103.43,-74.2269C1122.48,-64.1362 1145.93,-51.7082 1165.18,-41.5075"/>
<polygon fill="midnightblue" stroke="midnightblue" points="1101.67,-71.198 1094.47,-78.9727 1104.95,-77.3834 1101.67,-71.198"/>
</g>
<!-- Node15&#45;&gt;Node4 -->
<g id="edge18" class="edge"><title>Node15&#45;&gt;Node4</title>
<path fill="none" stroke="midnightblue" d="M686.141,-149.578C681.023,-148.346 675.93,-147.14 671,-146 613.623,-132.736 548.223,-118.924 500.2,-109.025"/>
<polygon fill="midnightblue" stroke="midnightblue" points="685.433,-153.008 695.977,-151.971 687.088,-146.207 685.433,-153.008"/>
</g>
<!-- Node15&#45;&gt;Node7 -->
<g id="edge19" class="edge"><title>Node15&#45;&gt;Node7</title>
<path fill="none" stroke="midnightblue" d="M791.849,-147.873C818.992,-135.829 854.115,-120.243 879.181,-109.12"/>
<polygon fill="midnightblue" stroke="midnightblue" points="790.332,-144.717 782.611,-151.973 793.171,-151.116 790.332,-144.717"/>
</g>
<!-- Node15&#45;&gt;Node10 -->
<g id="edge20" class="edge"><title>Node15&#45;&gt;Node10</title>
<path fill="none" stroke="midnightblue" d="M710.151,-147.873C683.008,-135.829 647.885,-120.243 622.819,-109.12"/>
<polygon fill="midnightblue" stroke="midnightblue" points="708.829,-151.116 719.389,-151.973 711.668,-144.717 708.829,-151.116"/>
</g>
<!-- Node15&#45;&gt;Node12 -->
<g id="edge21" class="edge"><title>Node15&#45;&gt;Node12</title>
<path fill="none" stroke="midnightblue" d="M751,-141.898C751,-131.131 751,-118.801 751,-109.486"/>
<polygon fill="midnightblue" stroke="midnightblue" points="747.5,-141.973 751,-151.973 754.5,-141.973 747.5,-141.973"/>
</g>
<!-- Node15&#45;&gt;Node13 -->
<g id="edge22" class="edge"><title>Node15&#45;&gt;Node13</title>
<path fill="none" stroke="midnightblue" d="M823.631,-149.733C878.471,-137.45 952.957,-120.767 1005.23,-109.059"/>
<polygon fill="midnightblue" stroke="midnightblue" points="822.622,-146.372 813.629,-151.973 824.152,-153.202 822.622,-146.372"/>
</g>
<!-- Node16&#45;&gt;Node7 -->
<g id="edge25" class="edge"><title>Node16&#45;&gt;Node7</title>
<path fill="none" stroke="midnightblue" d="M1183.28,-220.668C1120.2,-191.552 998.437,-135.355 941.608,-109.127"/>
<polygon fill="midnightblue" stroke="midnightblue" points="1181.97,-223.918 1192.52,-224.93 1184.9,-217.562 1181.97,-223.918"/>
</g>
<!-- Node16&#45;&gt;Node14 -->
<g id="edge26" class="edge"><title>Node16&#45;&gt;Node14</title>
<path fill="none" stroke="midnightblue" d="M1245.36,-217.123C1252.42,-208.751 1259.33,-198.639 1263,-188 1269.09,-170.356 1267.23,-164.181 1263,-146 1253.81,-106.509 1230.17,-65.1184 1215.16,-41.5468"/>
<polygon fill="midnightblue" stroke="midnightblue" points="1242.74,-214.803 1238.65,-224.577 1247.94,-219.486 1242.74,-214.803"/>
</g>
<!-- Node16&#45;&gt;Node17 -->
<g id="edge27" class="edge"><title>Node16&#45;&gt;Node17</title>
<path fill="none" stroke="midnightblue" d="M1212.84,-215.727C1208.87,-206.643 1204.37,-196.343 1200.58,-187.642"/>
<polygon fill="midnightblue" stroke="midnightblue" points="1209.67,-217.209 1216.88,-224.973 1216.08,-214.408 1209.67,-217.209"/>
</g>
<!-- Node17&#45;&gt;Node13 -->
<g id="edge29" class="edge"><title>Node17&#45;&gt;Node13</title>
<path fill="none" stroke="midnightblue" d="M1149.06,-141.414C1130.21,-130.623 1108.76,-118.341 1092.67,-109.123"/>
<polygon fill="midnightblue" stroke="midnightblue" points="1147.37,-144.479 1157.79,-146.411 1150.85,-138.405 1147.37,-144.479"/>
</g>
<!-- Node17&#45;&gt;Node14 -->
<g id="edge28" class="edge"><title>Node17&#45;&gt;Node14</title>
<path fill="none" stroke="midnightblue" d="M1194.07,-136.179C1196.03,-107.952 1198.92,-66.3654 1200.61,-41.9446"/>
<polygon fill="midnightblue" stroke="midnightblue" points="1190.57,-136.061 1193.37,-146.279 1197.55,-136.546 1190.57,-136.061"/>
</g>
<!-- Node18&#45;&gt;Node10 -->
<g id="edge31" class="edge"><title>Node18&#45;&gt;Node10</title>
<path fill="none" stroke="midnightblue" d="M991.33,-219.812C953.435,-198.947 889.507,-165.923 831,-146 814.946,-140.533 725.992,-122.133 661.049,-109.005"/>
<polygon fill="midnightblue" stroke="midnightblue" points="989.942,-223.044 1000.38,-224.839 993.34,-216.924 989.942,-223.044"/>
</g>
<!-- Node18&#45;&gt;Node13 -->
<g id="edge33" class="edge"><title>Node18&#45;&gt;Node13</title>
<path fill="none" stroke="midnightblue" d="M1032.1,-215.218C1041.1,-185.084 1056.33,-134.095 1063.72,-109.34"/>
<polygon fill="midnightblue" stroke="midnightblue" points="1028.71,-214.347 1029.2,-224.93 1035.42,-216.35 1028.71,-214.347"/>
</g>
<!-- Node18&#45;&gt;Node14 -->
<g id="edge32" class="edge"><title>Node18&#45;&gt;Node14</title>
<path fill="none" stroke="midnightblue" d="M1047.15,-217.564C1072.22,-192.783 1113.65,-150.23 1145,-110 1162.46,-87.6025 1179.8,-59.8242 1190.69,-41.54"/>
<polygon fill="midnightblue" stroke="midnightblue" points="1044.61,-215.158 1039.93,-224.662 1049.51,-220.152 1044.61,-215.158"/>
</g>
<!-- Node18&#45;&gt;Node17 -->
<g id="edge34" class="edge"><title>Node18&#45;&gt;Node17</title>
<path fill="none" stroke="midnightblue" d="M1067.23,-221.047C1091.29,-210.816 1121.47,-197.986 1146.12,-187.507"/>
<polygon fill="midnightblue" stroke="midnightblue" points="1065.83,-217.839 1057.99,-224.973 1068.57,-224.281 1065.83,-217.839"/>
</g>
<!-- Node19&#45;&gt;Node3 -->
<g id="edge36" class="edge"><title>Node19&#45;&gt;Node3</title>
<path fill="none" stroke="midnightblue" d="M680.243,-219.936C659.859,-208.074 634.076,-193.069 615.471,-182.241"/>
<polygon fill="midnightblue" stroke="midnightblue" points="678.493,-222.968 688.897,-224.973 682.014,-216.918 678.493,-222.968"/>
</g>
<!-- Node19&#45;&gt;Node15 -->
<g id="edge37" class="edge"><title>Node19&#45;&gt;Node15</title>
<path fill="none" stroke="midnightblue" d="M725.362,-215.902C731.248,-204.905 738.106,-192.092 743.247,-182.486"/>
<polygon fill="midnightblue" stroke="midnightblue" points="722.141,-214.504 720.508,-224.973 728.312,-217.808 722.141,-214.504"/>
</g>
</g>
</svg>
