<?xml version="1.0" encoding="UTF-8" standalone="no"?>
<!DOCTYPE svg PUBLIC "-//W3C//DTD SVG 1.1//EN"
 "http://www.w3.org/Graphics/SVG/1.1/DTD/svg11.dtd">
<!-- Generated by graphviz version 2.36.0 (20140111.2315)
 -->
<!-- Title: include/shad/runtime/synchronous_interface.h Pages: 1 -->
<svg width="1563pt" height="422pt"
 viewBox="0.00 0.00 1563.00 422.00" xmlns="http://www.w3.org/2000/svg" xmlns:xlink="http://www.w3.org/1999/xlink">
<g id="graph0" class="graph" transform="scale(1 1) rotate(0) translate(4 418)">
<title>include/shad/runtime/synchronous_interface.h</title>
<polygon fill="white" stroke="none" points="-4,4 -4,-418 1559,-418 1559,4 -4,4"/>
<!-- Node1 -->
<g id="node1" class="node"><title>Node1</title>
<polygon fill="#bfbfbf" stroke="black" points="569,-383 569,-413 695,-413 695,-383 569,-383"/>
<text text-anchor="start" x="577" y="-401" font-family="Helvetica,sans-Serif" font-size="10.00">include/shad/runtime</text>
<text text-anchor="middle" x="632" y="-390" font-family="Helvetica,sans-Serif" font-size="10.00">/synchronous_interface.h</text>
</g>
<!-- Node2 -->
<g id="node2" class="node"><title>Node2</title>
<g id="a_node2"><a xlink:href="cpp__simple__synchronous__interface_8h.html" target="_top" xlink:title="include/shad/runtime\l/mappings/cpp_simple\l/cpp_simple_synchronous\l_interface.h">
<polygon fill="white" stroke="black" points="315,-293 315,-345 445,-345 445,-293 315,-293"/>
<text text-anchor="start" x="323" y="-333" font-family="Helvetica,sans-Serif" font-size="10.00">include/shad/runtime</text>
<text text-anchor="start" x="323" y="-322" font-family="Helvetica,sans-Serif" font-size="10.00">/mappings/cpp_simple</text>
<text text-anchor="start" x="323" y="-311" font-family="Helvetica,sans-Serif" font-size="10.00">/cpp_simple_synchronous</text>
<text text-anchor="middle" x="380" y="-300" font-family="Helvetica,sans-Serif" font-size="10.00">_interface.h</text>
</a>
</g>
</g>
<!-- Node1&#45;&gt;Node2 -->
<g id="edge1" class="edge"><title>Node1&#45;&gt;Node2</title>
<path fill="none" stroke="midnightblue" d="M570.069,-380.22C535.724,-370.674 492.331,-358.213 454,-346 451.146,-345.091 448.235,-344.145 445.3,-343.177"/>
<polygon fill="midnightblue" stroke="midnightblue" points="569.39,-383.664 579.962,-382.959 571.258,-376.918 569.39,-383.664"/>
</g>
<!-- Node3 -->
<g id="node3" class="node"><title>Node3</title>
<g id="a_node3"><a xlink:href="gmt__synchronous__interface_8h.html" target="_top" xlink:title="include/shad/runtime\l/mappings/gmt/gmt_synchronous\l_interface.h">
<polygon fill="white" stroke="black" points="463.5,-298.5 463.5,-339.5 624.5,-339.5 624.5,-298.5 463.5,-298.5"/>
<text text-anchor="start" x="471.5" y="-327.5" font-family="Helvetica,sans-Serif" font-size="10.00">include/shad/runtime</text>
<text text-anchor="start" x="471.5" y="-316.5" font-family="Helvetica,sans-Serif" font-size="10.00">/mappings/gmt/gmt_synchronous</text>
<text text-anchor="middle" x="544" y="-305.5" font-family="Helvetica,sans-Serif" font-size="10.00">_interface.h</text>
</a>
</g>
</g>
<!-- Node1&#45;&gt;Node3 -->
<g id="edge2" class="edge"><title>Node1&#45;&gt;Node3</title>
<path fill="none" stroke="midnightblue" d="M608.194,-376.17C595.166,-364.771 579.123,-350.733 566.334,-339.542"/>
<polygon fill="midnightblue" stroke="midnightblue" points="606.029,-378.926 615.859,-382.877 610.638,-373.658 606.029,-378.926"/>
</g>
<!-- Node4 -->
<g id="node4" class="node"><title>Node4</title>
<g id="a_node4"><a xlink:href="tbb__synchronous__interface_8h.html" target="_top" xlink:title="include/shad/runtime\l/mappings/tbb/tbb_synchronous\l_interface.h">
<polygon fill="white" stroke="black" points="642.5,-298.5 642.5,-339.5 797.5,-339.5 797.5,-298.5 642.5,-298.5"/>
<text text-anchor="start" x="650.5" y="-327.5" font-family="Helvetica,sans-Serif" font-size="10.00">include/shad/runtime</text>
<text text-anchor="start" x="650.5" y="-316.5" font-family="Helvetica,sans-Serif" font-size="10.00">/mappings/tbb/tbb_synchronous</text>
<text text-anchor="middle" x="720" y="-305.5" font-family="Helvetica,sans-Serif" font-size="10.00">_interface.h</text>
</a>
</g>
</g>
<!-- Node1&#45;&gt;Node4 -->
<g id="edge3" class="edge"><title>Node1&#45;&gt;Node4</title>
<path fill="none" stroke="midnightblue" d="M655.806,-376.17C668.834,-364.771 684.877,-350.733 697.666,-339.542"/>
<polygon fill="midnightblue" stroke="midnightblue" points="653.362,-373.658 648.141,-382.877 657.971,-378.926 653.362,-373.658"/>
</g>
<!-- Node5 -->
<g id="node5" class="node"><title>Node5</title>
<g id="a_node5"><a xlink:href="runtime_8h.html" target="_top" xlink:title="include/shad/runtime\l/runtime.h">
<polygon fill="white" stroke="black" points="815.5,-304 815.5,-334 922.5,-334 922.5,-304 815.5,-304"/>
<text text-anchor="start" x="823.5" y="-322" font-family="Helvetica,sans-Serif" font-size="10.00">include/shad/runtime</text>
<text text-anchor="middle" x="869" y="-311" font-family="Helvetica,sans-Serif" font-size="10.00">/runtime.h</text>
</a>
</g>
</g>
<!-- Node1&#45;&gt;Node5 -->
<g id="edge4" class="edge"><title>Node1&#45;&gt;Node5</title>
<path fill="none" stroke="midnightblue" d="M695.424,-380.159C728.63,-370.903 769.804,-358.733 806,-346 816.157,-342.427 827.054,-338.109 836.881,-334.027"/>
<polygon fill="midnightblue" stroke="midnightblue" points="694.093,-376.895 685.389,-382.935 695.96,-383.642 694.093,-376.895"/>
</g>
<!-- Node6 -->
<g id="node6" class="node"><title>Node6</title>
<g id="a_node6"><a xlink:href="algorithm_8h.html" target="_top" xlink:title="include/shad/core/algorithm.h">
<polygon fill="white" stroke="black" points="0,-230.5 0,-249.5 144,-249.5 144,-230.5 0,-230.5"/>
<text text-anchor="middle" x="72" y="-237.5" font-family="Helvetica,sans-Serif" font-size="10.00">include/shad/core/algorithm.h</text>
</a>
</g>
</g>
<!-- Node5&#45;&gt;Node6 -->
<g id="edge5" class="edge"><title>Node5&#45;&gt;Node6</title>
<path fill="none" stroke="midnightblue" d="M831.464,-300.112C823.24,-296.876 814.459,-293.922 806,-292 524.727,-228.082 444.569,-288.837 158,-256 143.997,-254.395 128.818,-251.977 115.166,-249.548"/>
<polygon fill="midnightblue" stroke="midnightblue" points="830.234,-303.391 840.811,-303.997 832.92,-296.927 830.234,-303.391"/>
</g>
<!-- Node7 -->
<g id="node7" class="node"><title>Node7</title>
<g id="a_node7"><a xlink:href="abstract__data__structure_8h.html" target="_top" xlink:title="include/shad/data_structures\l/abstract_data_structure.h">
<polygon fill="white" stroke="black" points="520,-152 520,-182 662,-182 662,-152 520,-152"/>
<text text-anchor="start" x="528" y="-170" font-family="Helvetica,sans-Serif" font-size="10.00">include/shad/data_structures</text>
<text text-anchor="middle" x="591" y="-159" font-family="Helvetica,sans-Serif" font-size="10.00">/abstract_data_structure.h</text>
</a>
</g>
</g>
<!-- Node5&#45;&gt;Node7 -->
<g id="edge6" class="edge"><title>Node5&#45;&gt;Node7</title>
<path fill="none" stroke="midnightblue" d="M828.271,-299.902C820.943,-297.017 813.309,-294.247 806,-292 730.932,-268.92 694.785,-304.482 633,-256 609.161,-237.294 598.125,-201.723 593.643,-182.018"/>
<polygon fill="midnightblue" stroke="midnightblue" points="827.435,-303.34 838.016,-303.869 830.074,-296.857 827.435,-303.34"/>
</g>
<!-- Node8 -->
<g id="node8" class="node"><title>Node8</title>
<g id="a_node8"><a xlink:href="data__structures_2array_8h.html" target="_top" xlink:title="include/shad/data_structures\l/array.h">
<polygon fill="white" stroke="black" points="360,-79 360,-109 502,-109 502,-79 360,-79"/>
<text text-anchor="start" x="368" y="-97" font-family="Helvetica,sans-Serif" font-size="10.00">include/shad/data_structures</text>
<text text-anchor="middle" x="431" y="-86" font-family="Helvetica,sans-Serif" font-size="10.00">/array.h</text>
</a>
</g>
</g>
<!-- Node5&#45;&gt;Node8 -->
<g id="edge20" class="edge"><title>Node5&#45;&gt;Node8</title>
<path fill="none" stroke="midnightblue" d="M830.115,-300.116C822.259,-297.028 813.964,-294.131 806,-292 688.202,-260.474 636.886,-321.457 534,-256 477.728,-220.199 446.324,-141.365 435.428,-109.144"/>
<polygon fill="midnightblue" stroke="midnightblue" points="828.849,-303.38 839.429,-303.939 831.507,-296.904 828.849,-303.38"/>
</g>
<!-- Node10 -->
<g id="node10" class="node"><title>Node10</title>
<g id="a_node10"><a xlink:href="sssp_8h.html" target="_top" xlink:title="include/shad/extensions\l/graph_library/algorithms\l/sssp.h">
<polygon fill="white" stroke="black" points="446.5,-0.5 446.5,-41.5 569.5,-41.5 569.5,-0.5 446.5,-0.5"/>
<text text-anchor="start" x="454.5" y="-29.5" font-family="Helvetica,sans-Serif" font-size="10.00">include/shad/extensions</text>
<text text-anchor="start" x="454.5" y="-18.5" font-family="Helvetica,sans-Serif" font-size="10.00">/graph_library/algorithms</text>
<text text-anchor="middle" x="508" y="-7.5" font-family="Helvetica,sans-Serif" font-size="10.00">/sssp.h</text>
</a>
</g>
</g>
<!-- Node5&#45;&gt;Node10 -->
<g id="edge44" class="edge"><title>Node5&#45;&gt;Node10</title>
<path fill="none" stroke="midnightblue" d="M830.383,-300.107C822.453,-296.992 814.062,-294.087 806,-292 530.046,-220.56 342.785,-351.279 191,-110 104.406,27.6513 106.288,-112.469 437,-42 440.006,-41.3595 443.072,-40.6633 446.161,-39.9275"/>
<polygon fill="midnightblue" stroke="midnightblue" points="829.194,-303.402 839.774,-303.97 831.857,-296.929 829.194,-303.402"/>
</g>
<!-- Node11 -->
<g id="node11" class="node"><title>Node11</title>
<g id="a_node11"><a xlink:href="hashmap_8h.html" target="_top" xlink:title="include/shad/data_structures\l/hashmap.h">
<polygon fill="white" stroke="black" points="840,-79 840,-109 982,-109 982,-79 840,-79"/>
<text text-anchor="start" x="848" y="-97" font-family="Helvetica,sans-Serif" font-size="10.00">include/shad/data_structures</text>
<text text-anchor="middle" x="911" y="-86" font-family="Helvetica,sans-Serif" font-size="10.00">/hashmap.h</text>
</a>
</g>
</g>
<!-- Node5&#45;&gt;Node11 -->
<g id="edge27" class="edge"><title>Node5&#45;&gt;Node11</title>
<path fill="none" stroke="midnightblue" d="M873.543,-293.878C882.311,-247.324 901.319,-146.402 908.331,-109.17"/>
<polygon fill="midnightblue" stroke="midnightblue" points="870.103,-293.236 871.691,-303.711 876.982,-294.532 870.103,-293.236"/>
</g>
<!-- Node14 -->
<g id="node14" class="node"><title>Node14</title>
<g id="a_node14"><a xlink:href="set_8h.html" target="_top" xlink:title="include/shad/data_structures\l/set.h">
<polygon fill="white" stroke="black" points="520,-79 520,-109 662,-109 662,-79 520,-79"/>
<text text-anchor="start" x="528" y="-97" font-family="Helvetica,sans-Serif" font-size="10.00">include/shad/data_structures</text>
<text text-anchor="middle" x="591" y="-86" font-family="Helvetica,sans-Serif" font-size="10.00">/set.h</text>
</a>
</g>
</g>
<!-- Node5&#45;&gt;Node14 -->
<g id="edge42" class="edge"><title>Node5&#45;&gt;Node14</title>
<path fill="none" stroke="midnightblue" d="M829.299,-300.114C821.67,-297.107 813.666,-294.24 806,-292 672.561,-253.005 574.241,-311.803 511,-188 502.508,-171.377 502.024,-162.367 511,-146 520.187,-129.247 537.475,-117.205 553.635,-109.045"/>
<polygon fill="midnightblue" stroke="midnightblue" points="828.13,-303.416 838.711,-303.96 830.778,-296.937 828.13,-303.416"/>
</g>
<!-- Node16 -->
<g id="node16" class="node"><title>Node16</title>
<g id="a_node16"><a xlink:href="vector_8h.html" target="_top" xlink:title="include/shad/data_structures\l/vector.h">
<polygon fill="white" stroke="black" points="680,-79 680,-109 822,-109 822,-79 680,-79"/>
<text text-anchor="start" x="688" y="-97" font-family="Helvetica,sans-Serif" font-size="10.00">include/shad/data_structures</text>
<text text-anchor="middle" x="751" y="-86" font-family="Helvetica,sans-Serif" font-size="10.00">/vector.h</text>
</a>
</g>
</g>
<!-- Node5&#45;&gt;Node16 -->
<g id="edge43" class="edge"><title>Node5&#45;&gt;Node16</title>
<path fill="none" stroke="midnightblue" d="M869.277,-293.192C868.49,-257.495 862.474,-190.999 831,-146 819.671,-129.803 801.385,-117.585 785.153,-109.174"/>
<polygon fill="midnightblue" stroke="midnightblue" points="865.782,-293.666 869.375,-303.633 872.781,-293.601 865.782,-293.666"/>
</g>
<!-- Node17 -->
<g id="node17" class="node"><title>Node17</title>
<g id="a_node17"><a xlink:href="edge__index_8h.html" target="_top" xlink:title="include/shad/extensions\l/graph_library/edge_index.h">
<polygon fill="white" stroke="black" points="1000,-79 1000,-109 1136,-109 1136,-79 1000,-79"/>
<text text-anchor="start" x="1008" y="-97" font-family="Helvetica,sans-Serif" font-size="10.00">include/shad/extensions</text>
<text text-anchor="middle" x="1068" y="-86" font-family="Helvetica,sans-Serif" font-size="10.00">/graph_library/edge_index.h</text>
</a>
</g>
</g>
<!-- Node5&#45;&gt;Node17 -->
<g id="edge46" class="edge"><title>Node5&#45;&gt;Node17</title>
<path fill="none" stroke="midnightblue" d="M886.143,-295.766C901.232,-276.449 924.008,-247.898 945,-224 982.781,-180.989 1030.19,-132.775 1053.58,-109.339"/>
<polygon fill="midnightblue" stroke="midnightblue" points="883.357,-293.647 879.98,-303.69 888.882,-297.945 883.357,-293.647"/>
</g>
<!-- Node18 -->
<g id="node18" class="node"><title>Node18</title>
<g id="a_node18"><a xlink:href="attributed__edge__index_8h.html" target="_top" xlink:title="include/shad/extensions\l/graph_library/attributed\l_edge_index.h">
<polygon fill="white" stroke="black" points="1141,-0.5 1141,-41.5 1263,-41.5 1263,-0.5 1141,-0.5"/>
<text text-anchor="start" x="1149" y="-29.5" font-family="Helvetica,sans-Serif" font-size="10.00">include/shad/extensions</text>
<text text-anchor="start" x="1149" y="-18.5" font-family="Helvetica,sans-Serif" font-size="10.00">/graph_library/attributed</text>
<text text-anchor="middle" x="1202" y="-7.5" font-family="Helvetica,sans-Serif" font-size="10.00">_edge_index.h</text>
</a>
</g>
</g>
<!-- Node5&#45;&gt;Node18 -->
<g id="edge45" class="edge"><title>Node5&#45;&gt;Node18</title>
<path fill="none" stroke="midnightblue" d="M933.1,-318.648C1041.99,-318.228 1255.9,-310.31 1303,-256 1360.69,-189.48 1267.66,-84.9802 1223.37,-41.7429"/>
<polygon fill="midnightblue" stroke="midnightblue" points="932.893,-315.148 922.9,-318.666 932.906,-322.148 932.893,-315.148"/>
</g>
<!-- Node19 -->
<g id="node19" class="node"><title>Node19</title>
<g id="a_node19"><a xlink:href="buffer_8h.html" target="_top" xlink:title="include/shad/data_structures\l/buffer.h">
<polygon fill="white" stroke="black" points="680,-152 680,-182 822,-182 822,-152 680,-152"/>
<text text-anchor="start" x="688" y="-170" font-family="Helvetica,sans-Serif" font-size="10.00">include/shad/data_structures</text>
<text text-anchor="middle" x="751" y="-159" font-family="Helvetica,sans-Serif" font-size="10.00">/buffer.h</text>
</a>
</g>
</g>
<!-- Node5&#45;&gt;Node19 -->
<g id="edge21" class="edge"><title>Node5&#45;&gt;Node19</title>
<path fill="none" stroke="midnightblue" d="M851.511,-295.768C826.901,-264.484 782.758,-208.37 762.158,-182.183"/>
<polygon fill="midnightblue" stroke="midnightblue" points="848.965,-298.193 857.899,-303.888 854.467,-293.865 848.965,-298.193"/>
</g>
<!-- Node20 -->
<g id="node20" class="node"><title>Node20</title>
<g id="a_node20"><a xlink:href="local__hashmap_8h.html" target="_top" xlink:title="include/shad/data_structures\l/local_hashmap.h">
<polygon fill="white" stroke="black" points="1152,-225 1152,-255 1294,-255 1294,-225 1152,-225"/>
<text text-anchor="start" x="1160" y="-243" font-family="Helvetica,sans-Serif" font-size="10.00">include/shad/data_structures</text>
<text text-anchor="middle" x="1223" y="-232" font-family="Helvetica,sans-Serif" font-size="10.00">/local_hashmap.h</text>
</a>
</g>
</g>
<!-- Node5&#45;&gt;Node20 -->
<g id="edge28" class="edge"><title>Node5&#45;&gt;Node20</title>
<path fill="none" stroke="midnightblue" d="M932.712,-304.142C996.573,-290.251 1094.37,-268.979 1158.51,-255.029"/>
<polygon fill="midnightblue" stroke="midnightblue" points="931.793,-300.76 922.765,-306.305 933.28,-307.6 931.793,-300.76"/>
</g>
<!-- Node21 -->
<g id="node21" class="node"><title>Node21</title>
<g id="a_node21"><a xlink:href="local__edge__index_8h.html" target="_top" xlink:title="include/shad/extensions\l/graph_library/local_edge\l_index.h">
<polygon fill="white" stroke="black" points="1129.5,-146.5 1129.5,-187.5 1254.5,-187.5 1254.5,-146.5 1129.5,-146.5"/>
<text text-anchor="start" x="1137.5" y="-175.5" font-family="Helvetica,sans-Serif" font-size="10.00">include/shad/extensions</text>
<text text-anchor="start" x="1137.5" y="-164.5" font-family="Helvetica,sans-Serif" font-size="10.00">/graph_library/local_edge</text>
<text text-anchor="middle" x="1192" y="-153.5" font-family="Helvetica,sans-Serif" font-size="10.00">_index.h</text>
</a>
</g>
</g>
<!-- Node5&#45;&gt;Node21 -->
<g id="edge47" class="edge"><title>Node5&#45;&gt;Node21</title>
<path fill="none" stroke="midnightblue" d="M932.668,-310.628C982.272,-302.749 1051.47,-286.935 1105,-256 1120.9,-246.809 1154.38,-210.633 1174.86,-187.622"/>
<polygon fill="midnightblue" stroke="midnightblue" points="932.065,-307.18 922.706,-312.146 933.12,-314.1 932.065,-307.18"/>
</g>
<!-- Node22 -->
<g id="node22" class="node"><title>Node22</title>
<g id="a_node22"><a xlink:href="local__set_8h.html" target="_top" xlink:title="include/shad/data_structures\l/local_set.h">
<polygon fill="white" stroke="black" points="954,-225 954,-255 1096,-255 1096,-225 954,-225"/>
<text text-anchor="start" x="962" y="-243" font-family="Helvetica,sans-Serif" font-size="10.00">include/shad/data_structures</text>
<text text-anchor="middle" x="1025" y="-232" font-family="Helvetica,sans-Serif" font-size="10.00">/local_set.h</text>
</a>
</g>
</g>
<!-- Node5&#45;&gt;Node22 -->
<g id="edge34" class="edge"><title>Node5&#45;&gt;Node22</title>
<path fill="none" stroke="midnightblue" d="M906.609,-299.436C934.287,-285.775 971.336,-267.488 996.569,-255.033"/>
<polygon fill="midnightblue" stroke="midnightblue" points="905.031,-296.312 897.613,-303.877 908.129,-302.589 905.031,-296.312"/>
</g>
<!-- Node23 -->
<g id="node23" class="node"><title>Node23</title>
<g id="a_node23"><a xlink:href="object__identifier_8h.html" target="_top" xlink:title="include/shad/data_structures\l/object_identifier.h">
<polygon fill="white" stroke="black" points="642,-225 642,-255 784,-255 784,-225 642,-225"/>
<text text-anchor="start" x="650" y="-243" font-family="Helvetica,sans-Serif" font-size="10.00">include/shad/data_structures</text>
<text text-anchor="middle" x="713" y="-232" font-family="Helvetica,sans-Serif" font-size="10.00">/object_identifier.h</text>
</a>
</g>
</g>
<!-- Node5&#45;&gt;Node23 -->
<g id="edge39" class="edge"><title>Node5&#45;&gt;Node23</title>
<path fill="none" stroke="midnightblue" d="M831.391,-299.436C803.713,-285.775 766.664,-267.488 741.431,-255.033"/>
<polygon fill="midnightblue" stroke="midnightblue" points="829.871,-302.589 840.387,-303.877 832.969,-296.312 829.871,-302.589"/>
</g>
<!-- Node24 -->
<g id="node24" class="node"><title>Node24</title>
<g id="a_node24"><a xlink:href="shad_8h.html" target="_top" xlink:title="The API to the shad library. ">
<polygon fill="white" stroke="black" points="1350,-230.5 1350,-249.5 1454,-249.5 1454,-230.5 1350,-230.5"/>
<text text-anchor="middle" x="1402" y="-237.5" font-family="Helvetica,sans-Serif" font-size="10.00">include/shad/shad.h</text>
</a>
</g>
</g>
<!-- Node5&#45;&gt;Node24 -->
<g id="edge48" class="edge"><title>Node5&#45;&gt;Node24</title>
<path fill="none" stroke="midnightblue" d="M932.897,-311.391C1023.11,-301.635 1192.8,-281.724 1336,-256 1346.18,-254.172 1357.16,-251.828 1367.18,-249.539"/>
<polygon fill="midnightblue" stroke="midnightblue" points="932.396,-307.925 922.827,-312.474 933.144,-314.885 932.396,-307.925"/>
</g>
<!-- Node25 -->
<g id="node25" class="node"><title>Node25</title>
<g id="a_node25"><a xlink:href="shad_8cc.html" target="_top" xlink:title="src/util/shad.cc">
<polygon fill="white" stroke="black" points="1472.5,-230.5 1472.5,-249.5 1555.5,-249.5 1555.5,-230.5 1472.5,-230.5"/>
<text text-anchor="middle" x="1514" y="-237.5" font-family="Helvetica,sans-Serif" font-size="10.00">src/util/shad.cc</text>
</a>
</g>
</g>
<!-- Node5&#45;&gt;Node25 -->
<g id="edge49" class="edge"><title>Node5&#45;&gt;Node25</title>
<path fill="none" stroke="midnightblue" d="M932.944,-315.146C1042.4,-309.414 1272.32,-293.666 1463,-256 1471.33,-254.355 1480.26,-251.954 1488.28,-249.555"/>
<polygon fill="midnightblue" stroke="midnightblue" points="932.54,-311.662 922.732,-315.67 932.899,-318.653 932.54,-311.662"/>
</g>
<!-- Node7&#45;&gt;Node8 -->
<g id="edge7" class="edge"><title>Node7&#45;&gt;Node8</title>
<path fill="none" stroke="midnightblue" d="M550.151,-147.873C523.008,-135.829 487.885,-120.243 462.819,-109.12"/>
<polygon fill="midnightblue" stroke="midnightblue" points="548.829,-151.116 559.389,-151.973 551.668,-144.717 548.829,-151.116"/>
</g>
<!-- Node7&#45;&gt;Node11 -->
<g id="edge10" class="edge"><title>Node7&#45;&gt;Node11</title>
<path fill="none" stroke="midnightblue" d="M655.859,-149.578C660.977,-148.346 666.07,-147.14 671,-146 728.377,-132.736 793.777,-118.924 841.8,-109.025"/>
<polygon fill="midnightblue" stroke="midnightblue" points="654.912,-146.207 646.023,-151.971 656.567,-153.008 654.912,-146.207"/>
</g>
<!-- Node13 -->
<g id="node13" class="node"><title>Node13</title>
<g id="a_node13"><a xlink:href="one__per__locality_8h.html" target="_top" xlink:title="include/shad/data_structures\l/one_per_locality.h">
<polygon fill="white" stroke="black" points="200,-79 200,-109 342,-109 342,-79 200,-79"/>
<text text-anchor="start" x="208" y="-97" font-family="Helvetica,sans-Serif" font-size="10.00">include/shad/data_structures</text>
<text text-anchor="middle" x="271" y="-86" font-family="Helvetica,sans-Serif" font-size="10.00">/one_per_locality.h</text>
</a>
</g>
</g>
<!-- Node7&#45;&gt;Node13 -->
<g id="edge12" class="edge"><title>Node7&#45;&gt;Node13</title>
<path fill="none" stroke="midnightblue" d="M517.682,-149.733C462.322,-137.45 387.131,-120.767 334.364,-109.059"/>
<polygon fill="midnightblue" stroke="midnightblue" points="517.258,-153.223 527.778,-151.973 518.774,-146.39 517.258,-153.223"/>
</g>
<!-- Node7&#45;&gt;Node14 -->
<g id="edge13" class="edge"><title>Node7&#45;&gt;Node14</title>
<path fill="none" stroke="midnightblue" d="M591,-141.898C591,-131.131 591,-118.801 591,-109.486"/>
<polygon fill="midnightblue" stroke="midnightblue" points="587.5,-141.973 591,-151.973 594.5,-141.973 587.5,-141.973"/>
</g>
<!-- Node7&#45;&gt;Node16 -->
<g id="edge16" class="edge"><title>Node7&#45;&gt;Node16</title>
<path fill="none" stroke="midnightblue" d="M631.849,-147.873C658.992,-135.829 694.115,-120.243 719.181,-109.12"/>
<polygon fill="midnightblue" stroke="midnightblue" points="630.332,-144.717 622.611,-151.973 633.171,-151.116 630.332,-144.717"/>
</g>
<!-- Node7&#45;&gt;Node17 -->
<g id="edge17" class="edge"><title>Node7&#45;&gt;Node17</title>
<path fill="none" stroke="midnightblue" d="M652.999,-149.642C659.059,-148.302 665.133,-147.058 671,-146 811.845,-120.588 849.535,-131.701 991,-110 993.827,-109.566 996.708,-109.103 999.616,-108.617"/>
<polygon fill="midnightblue" stroke="midnightblue" points="651.816,-146.322 642.853,-151.973 653.383,-153.145 651.816,-146.322"/>
</g>
<!-- Node9 -->
<g id="node9" class="node"><title>Node9</title>
<g id="a_node9"><a xlink:href="core_2array_8h.html" target="_top" xlink:title="include/shad/core/array.h">
<polygon fill="white" stroke="black" points="302,-11.5 302,-30.5 428,-30.5 428,-11.5 302,-11.5"/>
<text text-anchor="middle" x="365" y="-18.5" font-family="Helvetica,sans-Serif" font-size="10.00">include/shad/core/array.h</text>
</a>
</g>
</g>
<!-- Node8&#45;&gt;Node9 -->
<g id="edge8" class="edge"><title>Node8&#45;&gt;Node9</title>
<path fill="none" stroke="midnightblue" d="M410.884,-71.3599C398.147,-57.6582 382.373,-40.6888 373.029,-30.6372"/>
<polygon fill="midnightblue" stroke="midnightblue" points="408.589,-74.0314 417.961,-78.9727 413.716,-69.2654 408.589,-74.0314"/>
</g>
<!-- Node8&#45;&gt;Node10 -->
<g id="edge9" class="edge"><title>Node8&#45;&gt;Node10</title>
<path fill="none" stroke="midnightblue" d="M453.755,-72.0178C464.177,-62.4078 476.459,-51.0831 486.698,-41.642"/>
<polygon fill="midnightblue" stroke="midnightblue" points="451.192,-69.6207 446.213,-78.9727 455.937,-74.7669 451.192,-69.6207"/>
</g>
<!-- Node12 -->
<g id="node12" class="node"><title>Node12</title>
<g id="a_node12"><a xlink:href="unordered__map_8h.html" target="_top" xlink:title="include/shad/core/unordered\l_map.h">
<polygon fill="white" stroke="black" points="841.5,-6 841.5,-36 980.5,-36 980.5,-6 841.5,-6"/>
<text text-anchor="start" x="849.5" y="-24" font-family="Helvetica,sans-Serif" font-size="10.00">include/shad/core/unordered</text>
<text text-anchor="middle" x="911" y="-13" font-family="Helvetica,sans-Serif" font-size="10.00">_map.h</text>
</a>
</g>
</g>
<!-- Node11&#45;&gt;Node12 -->
<g id="edge11" class="edge"><title>Node11&#45;&gt;Node12</title>
<path fill="none" stroke="midnightblue" d="M911,-68.8976C911,-58.1314 911,-45.8005 911,-36.4856"/>
<polygon fill="midnightblue" stroke="midnightblue" points="907.5,-68.9727 911,-78.9727 914.5,-68.9727 907.5,-68.9727"/>
</g>
<!-- Node14&#45;&gt;Node10 -->
<g id="edge15" class="edge"><title>Node14&#45;&gt;Node10</title>
<path fill="none" stroke="midnightblue" d="M566.801,-72.2999C555.497,-62.6301 542.107,-51.1757 530.962,-41.642"/>
<polygon fill="midnightblue" stroke="midnightblue" points="564.728,-75.1319 574.602,-78.9727 569.278,-69.8126 564.728,-75.1319"/>
</g>
<!-- Node15 -->
<g id="node15" class="node"><title>Node15</title>
<g id="a_node15"><a xlink:href="unordered__set_8h.html" target="_top" xlink:title="include/shad/core/unordered\l_set.h">
<polygon fill="white" stroke="black" points="587.5,-6 587.5,-36 726.5,-36 726.5,-6 587.5,-6"/>
<text text-anchor="start" x="595.5" y="-24" font-family="Helvetica,sans-Serif" font-size="10.00">include/shad/core/unordered</text>
<text text-anchor="middle" x="657" y="-13" font-family="Helvetica,sans-Serif" font-size="10.00">_set.h</text>
</a>
</g>
</g>
<!-- Node14&#45;&gt;Node15 -->
<g id="edge14" class="edge"><title>Node14&#45;&gt;Node15</title>
<path fill="none" stroke="midnightblue" d="M610.936,-71.5539C621.483,-60.2075 634.154,-46.5768 643.534,-36.4856"/>
<polygon fill="midnightblue" stroke="midnightblue" points="608.284,-69.2654 604.039,-78.9727 613.411,-74.0314 608.284,-69.2654"/>
</g>
<!-- Node17&#45;&gt;Node10 -->
<g id="edge18" class="edge"><title>Node17&#45;&gt;Node10</title>
<path fill="none" stroke="midnightblue" d="M989.682,-77.9178C806.767,-53.144 756.003,-74.8737 578,-42 575.266,-41.495 572.484,-40.9291 569.684,-40.3165"/>
<polygon fill="midnightblue" stroke="midnightblue" points="989.244,-81.3904 999.629,-79.2928 990.203,-74.4564 989.244,-81.3904"/>
</g>
<!-- Node17&#45;&gt;Node18 -->
<g id="edge19" class="edge"><title>Node17&#45;&gt;Node18</title>
<path fill="none" stroke="midnightblue" d="M1103.43,-74.2269C1122.48,-64.1362 1145.93,-51.7082 1165.18,-41.5075"/>
<polygon fill="midnightblue" stroke="midnightblue" points="1101.67,-71.198 1094.47,-78.9727 1104.95,-77.3834 1101.67,-71.198"/>
</g>
<!-- Node19&#45;&gt;Node8 -->
<g id="edge22" class="edge"><title>Node19&#45;&gt;Node8</title>
<path fill="none" stroke="midnightblue" d="M686.141,-149.578C681.023,-148.346 675.93,-147.14 671,-146 613.623,-132.736 548.223,-118.924 500.2,-109.025"/>
<polygon fill="midnightblue" stroke="midnightblue" points="685.433,-153.008 695.977,-151.971 687.088,-146.207 685.433,-153.008"/>
</g>
<!-- Node19&#45;&gt;Node11 -->
<g id="edge23" class="edge"><title>Node19&#45;&gt;Node11</title>
<path fill="none" stroke="midnightblue" d="M791.849,-147.873C818.992,-135.829 854.115,-120.243 879.181,-109.12"/>
<polygon fill="midnightblue" stroke="midnightblue" points="790.332,-144.717 782.611,-151.973 793.171,-151.116 790.332,-144.717"/>
</g>
<!-- Node19&#45;&gt;Node14 -->
<g id="edge24" class="edge"><title>Node19&#45;&gt;Node14</title>
<path fill="none" stroke="midnightblue" d="M710.151,-147.873C683.008,-135.829 647.885,-120.243 622.819,-109.12"/>
<polygon fill="midnightblue" stroke="midnightblue" points="708.829,-151.116 719.389,-151.973 711.668,-144.717 708.829,-151.116"/>
</g>
<!-- Node19&#45;&gt;Node16 -->
<g id="edge25" class="edge"><title>Node19&#45;&gt;Node16</title>
<path fill="none" stroke="midnightblue" d="M751,-141.898C751,-131.131 751,-118.801 751,-109.486"/>
<polygon fill="midnightblue" stroke="midnightblue" points="747.5,-141.973 751,-151.973 754.5,-141.973 747.5,-141.973"/>
</g>
<!-- Node19&#45;&gt;Node17 -->
<g id="edge26" class="edge"><title>Node19&#45;&gt;Node17</title>
<path fill="none" stroke="midnightblue" d="M823.631,-149.733C878.471,-137.45 952.957,-120.767 1005.23,-109.059"/>
<polygon fill="midnightblue" stroke="midnightblue" points="822.622,-146.372 813.629,-151.973 824.152,-153.202 822.622,-146.372"/>
</g>
<!-- Node20&#45;&gt;Node11 -->
<g id="edge29" class="edge"><title>Node20&#45;&gt;Node11</title>
<path fill="none" stroke="midnightblue" d="M1183.28,-220.668C1120.2,-191.552 998.437,-135.355 941.608,-109.127"/>
<polygon fill="midnightblue" stroke="midnightblue" points="1181.97,-223.918 1192.52,-224.93 1184.9,-217.562 1181.97,-223.918"/>
</g>
<!-- Node20&#45;&gt;Node18 -->
<g id="edge30" class="edge"><title>Node20&#45;&gt;Node18</title>
<path fill="none" stroke="midnightblue" d="M1245.36,-217.123C1252.42,-208.751 1259.33,-198.639 1263,-188 1269.09,-170.356 1267.23,-164.181 1263,-146 1253.81,-106.509 1230.17,-65.1184 1215.16,-41.5468"/>
<polygon fill="midnightblue" stroke="midnightblue" points="1242.74,-214.803 1238.65,-224.577 1247.94,-219.486 1242.74,-214.803"/>
</g>
<!-- Node20&#45;&gt;Node21 -->
<g id="edge31" class="edge"><title>Node20&#45;&gt;Node21</title>
<path fill="none" stroke="midnightblue" d="M1212.84,-215.727C1208.87,-206.643 1204.37,-196.343 1200.58,-187.642"/>
<polygon fill="midnightblue" stroke="midnightblue" points="1209.67,-217.209 1216.88,-224.973 1216.08,-214.408 1209.67,-217.209"/>
</g>
<!-- Node21&#45;&gt;Node17 -->
<g id="edge33" class="edge"><title>Node21&#45;&gt;Node17</title>
<path fill="none" stroke="midnightblue" d="M1149.06,-141.414C1130.21,-130.623 1108.76,-118.341 1092.67,-109.123"/>
<polygon fill="midnightblue" stroke="midnightblue" points="1147.37,-144.479 1157.79,-146.411 1150.85,-138.405 1147.37,-144.479"/>
</g>
<!-- Node21&#45;&gt;Node18 -->
<g id="edge32" class="edge"><title>Node21&#45;&gt;Node18</title>
<path fill="none" stroke="midnightblue" d="M1194.07,-136.179C1196.03,-107.952 1198.92,-66.3654 1200.61,-41.9446"/>
<polygon fill="midnightblue" stroke="midnightblue" points="1190.57,-136.061 1193.37,-146.279 1197.55,-136.546 1190.57,-136.061"/>
</g>
<!-- Node22&#45;&gt;Node14 -->
<g id="edge35" class="edge"><title>Node22&#45;&gt;Node14</title>
<path fill="none" stroke="midnightblue" d="M991.33,-219.812C953.435,-198.947 889.507,-165.923 831,-146 814.946,-140.533 725.992,-122.133 661.049,-109.005"/>
<polygon fill="midnightblue" stroke="midnightblue" points="989.942,-223.044 1000.38,-224.839 993.34,-216.924 989.942,-223.044"/>
</g>
<!-- Node22&#45;&gt;Node17 -->
<g id="edge37" class="edge"><title>Node22&#45;&gt;Node17</title>
<path fill="none" stroke="midnightblue" d="M1032.1,-215.218C1041.1,-185.084 1056.33,-134.095 1063.72,-109.34"/>
<polygon fill="midnightblue" stroke="midnightblue" points="1028.71,-214.347 1029.2,-224.93 1035.42,-216.35 1028.71,-214.347"/>
</g>
<!-- Node22&#45;&gt;Node18 -->
<g id="edge36" class="edge"><title>Node22&#45;&gt;Node18</title>
<path fill="none" stroke="midnightblue" d="M1047.15,-217.564C1072.22,-192.783 1113.65,-150.23 1145,-110 1162.46,-87.6025 1179.8,-59.8242 1190.69,-41.54"/>
<polygon fill="midnightblue" stroke="midnightblue" points="1044.61,-215.158 1039.93,-224.662 1049.51,-220.152 1044.61,-215.158"/>
</g>
<!-- Node22&#45;&gt;Node21 -->
<g id="edge38" class="edge"><title>Node22&#45;&gt;Node21</title>
<path fill="none" stroke="midnightblue" d="M1067.23,-221.047C1091.29,-210.816 1121.47,-197.986 1146.12,-187.507"/>
<polygon fill="midnightblue" stroke="midnightblue" points="1065.83,-217.839 1057.99,-224.973 1068.57,-224.281 1065.83,-217.839"/>
</g>
<!-- Node23&#45;&gt;Node7 -->
<g id="edge40" class="edge"><title>Node23&#45;&gt;Node7</title>
<path fill="none" stroke="midnightblue" d="M680.243,-219.936C659.859,-208.074 634.076,-193.069 615.471,-182.241"/>
<polygon fill="midnightblue" stroke="midnightblue" points="678.493,-222.968 688.897,-224.973 682.014,-216.918 678.493,-222.968"/>
</g>
<!-- Node23&#45;&gt;Node19 -->
<g id="edge41" class="edge"><title>Node23&#45;&gt;Node19</title>
<path fill="none" stroke="midnightblue" d="M725.362,-215.902C731.248,-204.905 738.106,-192.092 743.247,-182.486"/>
<polygon fill="midnightblue" stroke="midnightblue" points="722.141,-214.504 720.508,-224.973 728.312,-217.808 722.141,-214.504"/>
</g>
</g>
</svg>
