<?xml version="1.0" encoding="UTF-8" standalone="no"?>
<!DOCTYPE svg PUBLIC "-//W3C//DTD SVG 1.1//EN"
 "http://www.w3.org/Graphics/SVG/1.1/DTD/svg11.dtd">
<!-- Generated by graphviz version 2.36.0 (20140111.2315)
 -->
<!-- Title: include/shad/core/unordered_set.h Pages: 1 -->
<svg width="1323pt" height="572pt"
 viewBox="0.00 0.00 1323.00 572.00" xmlns="http://www.w3.org/2000/svg" xmlns:xlink="http://www.w3.org/1999/xlink">
<g id="graph0" class="graph" transform="scale(1 1) rotate(0) translate(4 568)">
<title>include/shad/core/unordered_set.h</title>
<polygon fill="white" stroke="none" points="-4,4 -4,-568 1319,-568 1319,4 -4,4"/>
<!-- Node1 -->
<g id="node1" class="node"><title>Node1</title>
<polygon fill="#bfbfbf" stroke="black" points="668.5,-533 668.5,-563 807.5,-563 807.5,-533 668.5,-533"/>
<text text-anchor="start" x="676.5" y="-551" font-family="Helvetica,sans-Serif" font-size="10.00">include/shad/core/unordered</text>
<text text-anchor="middle" x="738" y="-540" font-family="Helvetica,sans-Serif" font-size="10.00">_set.h</text>
</g>
<!-- Node2 -->
<g id="node2" class="node"><title>Node2</title>
<g id="a_node2"><a xlink:href="iterator_8h.html" target="_top" xlink:title="shad/core/iterator.h">
<polygon fill="white" stroke="black" points="-0.5,-266.5 -0.5,-285.5 100.5,-285.5 100.5,-266.5 -0.5,-266.5"/>
<text text-anchor="middle" x="50" y="-273.5" font-family="Helvetica,sans-Serif" font-size="10.00">shad/core/iterator.h</text>
</a>
</g>
</g>
<!-- Node1&#45;&gt;Node2 -->
<g id="edge1" class="edge"><title>Node1&#45;&gt;Node2</title>
<path fill="none" stroke="midnightblue" d="M668.244,-542.391C564.331,-533.107 365.14,-505.858 216,-428 149.391,-393.227 88.9265,-325.143 63.1548,-293.677"/>
<polygon fill="midnightblue" stroke="midnightblue" points="65.8306,-291.419 56.8295,-285.831 60.381,-295.812 65.8306,-291.419"/>
</g>
<!-- Node5 -->
<g id="node5" class="node"><title>Node5</title>
<g id="a_node5"><a xlink:href="compare__and__hash__utils_8h.html" target="_top" xlink:title="shad/data_structures\l/compare_and_hash_utils.h">
<polygon fill="white" stroke="black" points="1135,-261 1135,-291 1271,-291 1271,-261 1135,-261"/>
<text text-anchor="start" x="1143" y="-279" font-family="Helvetica,sans-Serif" font-size="10.00">shad/data_structures</text>
<text text-anchor="middle" x="1203" y="-268" font-family="Helvetica,sans-Serif" font-size="10.00">/compare_and_hash_utils.h</text>
</a>
</g>
</g>
<!-- Node1&#45;&gt;Node5 -->
<g id="edge4" class="edge"><title>Node1&#45;&gt;Node5</title>
<path fill="none" stroke="midnightblue" d="M807.674,-542.884C895.597,-534.367 1047.34,-508.227 1147,-428 1185.91,-396.674 1197.79,-335.525 1201.41,-301.439"/>
<polygon fill="midnightblue" stroke="midnightblue" points="1204.9,-301.67 1202.32,-291.395 1197.93,-301.038 1204.9,-301.67"/>
</g>
<!-- Node12 -->
<g id="node12" class="node"><title>Node12</title>
<g id="a_node12"><a xlink:href="set_8h.html" target="_top" xlink:title="shad/data_structures\l/set.h">
<polygon fill="white" stroke="black" points="684,-465 684,-495 792,-495 792,-465 684,-465"/>
<text text-anchor="start" x="692" y="-483" font-family="Helvetica,sans-Serif" font-size="10.00">shad/data_structures</text>
<text text-anchor="middle" x="738" y="-472" font-family="Helvetica,sans-Serif" font-size="10.00">/set.h</text>
</a>
</g>
</g>
<!-- Node1&#45;&gt;Node12 -->
<g id="edge11" class="edge"><title>Node1&#45;&gt;Node12</title>
<path fill="none" stroke="midnightblue" d="M738,-532.679C738,-524.722 738,-514.605 738,-505.436"/>
<polygon fill="midnightblue" stroke="midnightblue" points="741.5,-505.293 738,-495.293 734.5,-505.293 741.5,-505.293"/>
</g>
<!-- Node3 -->
<g id="node3" class="node"><title>Node3</title>
<polygon fill="white" stroke="#bfbfbf" points="55.5,-198.5 55.5,-217.5 102.5,-217.5 102.5,-198.5 55.5,-198.5"/>
<text text-anchor="middle" x="79" y="-205.5" font-family="Helvetica,sans-Serif" font-size="10.00">iterator</text>
</g>
<!-- Node2&#45;&gt;Node3 -->
<g id="edge2" class="edge"><title>Node2&#45;&gt;Node3</title>
<path fill="none" stroke="midnightblue" d="M53.7912,-266.372C58.1525,-256.446 65.434,-239.874 71.053,-227.086"/>
<polygon fill="midnightblue" stroke="midnightblue" points="74.2968,-228.404 75.1153,-217.841 67.8881,-225.588 74.2968,-228.404"/>
</g>
<!-- Node4 -->
<g id="node4" class="node"><title>Node4</title>
<polygon fill="white" stroke="#bfbfbf" points="353,-130.5 353,-149.5 405,-149.5 405,-130.5 353,-130.5"/>
<text text-anchor="middle" x="379" y="-137.5" font-family="Helvetica,sans-Serif" font-size="10.00">memory</text>
</g>
<!-- Node2&#45;&gt;Node4 -->
<g id="edge3" class="edge"><title>Node2&#45;&gt;Node4</title>
<path fill="none" stroke="midnightblue" d="M46.1429,-266.438C39.3045,-249.81 27.4346,-212.943 46,-192 90.2479,-142.085 279.582,-173.313 344,-156 346.661,-155.285 349.384,-154.405 352.078,-153.432"/>
<polygon fill="midnightblue" stroke="midnightblue" points="353.564,-156.607 361.543,-149.637 350.959,-150.11 353.564,-156.607"/>
</g>
<!-- Node6 -->
<g id="node6" class="node"><title>Node6</title>
<polygon fill="white" stroke="#bfbfbf" points="1119,-198.5 1119,-217.5 1175,-217.5 1175,-198.5 1119,-198.5"/>
<text text-anchor="middle" x="1147" y="-205.5" font-family="Helvetica,sans-Serif" font-size="10.00">algorithm</text>
</g>
<!-- Node5&#45;&gt;Node6 -->
<g id="edge5" class="edge"><title>Node5&#45;&gt;Node6</title>
<path fill="none" stroke="midnightblue" d="M1190.85,-260.679C1182.12,-250.388 1170.32,-236.484 1161.16,-225.69"/>
<polygon fill="midnightblue" stroke="midnightblue" points="1163.63,-223.189 1154.49,-217.828 1158.29,-227.718 1163.63,-223.189"/>
</g>
<!-- Node7 -->
<g id="node7" class="node"><title>Node7</title>
<polygon fill="white" stroke="#bfbfbf" points="865,-62.5 865,-81.5 911,-81.5 911,-62.5 865,-62.5"/>
<text text-anchor="middle" x="888" y="-69.5" font-family="Helvetica,sans-Serif" font-size="10.00">cstdint</text>
</g>
<!-- Node5&#45;&gt;Node7 -->
<g id="edge6" class="edge"><title>Node5&#45;&gt;Node7</title>
<path fill="none" stroke="midnightblue" d="M1203.34,-260.918C1203.03,-242.853 1199.85,-211.526 1183,-192 1113.77,-111.764 982.567,-84.9516 921.203,-76.5548"/>
<polygon fill="midnightblue" stroke="midnightblue" points="921.645,-73.083 911.28,-75.2757 920.75,-80.0255 921.645,-73.083"/>
</g>
<!-- Node8 -->
<g id="node8" class="node"><title>Node8</title>
<polygon fill="white" stroke="#bfbfbf" points="1269,-198.5 1269,-217.5 1315,-217.5 1315,-198.5 1269,-198.5"/>
<text text-anchor="middle" x="1292" y="-205.5" font-family="Helvetica,sans-Serif" font-size="10.00">cstring</text>
</g>
<!-- Node5&#45;&gt;Node8 -->
<g id="edge7" class="edge"><title>Node5&#45;&gt;Node8</title>
<path fill="none" stroke="midnightblue" d="M1222.31,-260.679C1237.1,-249.713 1257.42,-234.645 1272.3,-223.609"/>
<polygon fill="midnightblue" stroke="midnightblue" points="1274.4,-226.406 1280.35,-217.638 1270.23,-220.783 1274.4,-226.406"/>
</g>
<!-- Node9 -->
<g id="node9" class="node"><title>Node9</title>
<polygon fill="white" stroke="#bfbfbf" points="1041.5,-198.5 1041.5,-217.5 1100.5,-217.5 1100.5,-198.5 1041.5,-198.5"/>
<text text-anchor="middle" x="1071" y="-205.5" font-family="Helvetica,sans-Serif" font-size="10.00">functional</text>
</g>
<!-- Node5&#45;&gt;Node9 -->
<g id="edge8" class="edge"><title>Node5&#45;&gt;Node9</title>
<path fill="none" stroke="midnightblue" d="M1174.68,-260.841C1151.85,-249.425 1119.97,-233.485 1097.61,-222.303"/>
<polygon fill="midnightblue" stroke="midnightblue" points="1098.87,-219.024 1088.36,-217.682 1095.74,-225.285 1098.87,-219.024"/>
</g>
<!-- Node10 -->
<g id="node10" class="node"><title>Node10</title>
<polygon fill="white" stroke="#bfbfbf" points="1101,-62.5 1101,-81.5 1163,-81.5 1163,-62.5 1101,-62.5"/>
<text text-anchor="middle" x="1132" y="-69.5" font-family="Helvetica,sans-Serif" font-size="10.00">type_traits</text>
</g>
<!-- Node5&#45;&gt;Node10 -->
<g id="edge9" class="edge"><title>Node5&#45;&gt;Node10</title>
<path fill="none" stroke="midnightblue" d="M1209.31,-260.975C1220.93,-232.903 1242.29,-168.675 1217,-124 1206.77,-105.931 1187.3,-93.5653 1169.57,-85.5407"/>
<polygon fill="midnightblue" stroke="midnightblue" points="1170.55,-82.1554 1159.98,-81.5206 1167.85,-88.612 1170.55,-82.1554"/>
</g>
<!-- Node11 -->
<g id="node11" class="node"><title>Node11</title>
<polygon fill="white" stroke="#bfbfbf" points="979,-198.5 979,-217.5 1023,-217.5 1023,-198.5 979,-198.5"/>
<text text-anchor="middle" x="1001" y="-205.5" font-family="Helvetica,sans-Serif" font-size="10.00">vector</text>
</g>
<!-- Node5&#45;&gt;Node11 -->
<g id="edge10" class="edge"><title>Node5&#45;&gt;Node11</title>
<path fill="none" stroke="midnightblue" d="M1147.57,-260.9C1113.72,-251.696 1069.83,-238.685 1032,-224 1030.35,-223.36 1028.67,-222.669 1026.99,-221.945"/>
<polygon fill="midnightblue" stroke="midnightblue" points="1028.06,-218.587 1017.51,-217.597 1025.14,-224.949 1028.06,-218.587"/>
</g>
<!-- Node12&#45;&gt;Node5 -->
<g id="edge68" class="edge"><title>Node12&#45;&gt;Node5</title>
<path fill="none" stroke="midnightblue" d="M792.241,-477.734C884.91,-474.611 1068.78,-463.942 1121,-428 1144.01,-412.163 1177.23,-338.695 1193.42,-300.386"/>
<polygon fill="midnightblue" stroke="midnightblue" points="1196.7,-301.601 1197.33,-291.024 1190.24,-298.902 1196.7,-301.601"/>
</g>
<!-- Node12&#45;&gt;Node6 -->
<g id="edge12" class="edge"><title>Node12&#45;&gt;Node6</title>
<path fill="none" stroke="midnightblue" d="M792.116,-470.475C830.281,-462.967 881.741,-449.754 923,-428 1005.86,-384.314 1019.52,-359.938 1084,-292 1103.97,-270.965 1123.63,-243.727 1135.54,-226.303"/>
<polygon fill="midnightblue" stroke="midnightblue" points="1138.63,-227.984 1141.32,-217.735 1132.83,-224.072 1138.63,-227.984"/>
</g>
<!-- Node12&#45;&gt;Node9 -->
<g id="edge13" class="edge"><title>Node12&#45;&gt;Node9</title>
<path fill="none" stroke="midnightblue" d="M792.099,-466.562C821.744,-458.316 858.372,-445.714 888,-428 974.222,-376.452 1038.65,-269.191 1061.73,-226.796"/>
<polygon fill="midnightblue" stroke="midnightblue" points="1064.85,-228.382 1066.47,-217.912 1058.68,-225.086 1064.85,-228.382"/>
</g>
<!-- Node12&#45;&gt;Node11 -->
<g id="edge16" class="edge"><title>Node12&#45;&gt;Node11</title>
<path fill="none" stroke="midnightblue" d="M775.225,-464.96C818.981,-446.77 891.285,-411.203 936,-360 967.823,-323.56 959.863,-304.433 979,-260 983.706,-249.073 988.986,-236.833 993.193,-227.084"/>
<polygon fill="midnightblue" stroke="midnightblue" points="996.51,-228.23 997.26,-217.662 990.084,-225.456 996.51,-228.23"/>
</g>
<!-- Node13 -->
<g id="node13" class="node"><title>Node13</title>
<polygon fill="white" stroke="#bfbfbf" points="215,-266.5 215,-285.5 253,-285.5 253,-266.5 215,-266.5"/>
<text text-anchor="middle" x="234" y="-273.5" font-family="Helvetica,sans-Serif" font-size="10.00">tuple</text>
</g>
<!-- Node12&#45;&gt;Node13 -->
<g id="edge14" class="edge"><title>Node12&#45;&gt;Node13</title>
<path fill="none" stroke="midnightblue" d="M683.783,-478.615C578.888,-476.951 352.788,-468.609 288,-428 243.052,-399.827 235.099,-329.945 233.97,-296.046"/>
<polygon fill="midnightblue" stroke="midnightblue" points="237.464,-295.627 233.806,-285.684 230.465,-295.738 237.464,-295.627"/>
</g>
<!-- Node14 -->
<g id="node14" class="node"><title>Node14</title>
<polygon fill="white" stroke="#bfbfbf" points="121,-198.5 121,-217.5 161,-217.5 161,-198.5 121,-198.5"/>
<text text-anchor="middle" x="141" y="-205.5" font-family="Helvetica,sans-Serif" font-size="10.00">utility</text>
</g>
<!-- Node12&#45;&gt;Node14 -->
<g id="edge15" class="edge"><title>Node12&#45;&gt;Node14</title>
<path fill="none" stroke="midnightblue" d="M683.899,-478.917C573.558,-477.849 326.97,-470.612 256,-428 181.488,-383.261 152.915,-272.389 144.215,-227.908"/>
<polygon fill="midnightblue" stroke="midnightblue" points="147.624,-227.094 142.378,-217.889 140.739,-228.357 147.624,-227.094"/>
</g>
<!-- Node15 -->
<g id="node15" class="node"><title>Node15</title>
<g id="a_node15"><a xlink:href="abstract__data__structure_8h.html" target="_top" xlink:title="shad/data_structures\l/abstract_data_structure.h">
<polygon fill="white" stroke="black" points="297.5,-397 297.5,-427 428.5,-427 428.5,-397 297.5,-397"/>
<text text-anchor="start" x="305.5" y="-415" font-family="Helvetica,sans-Serif" font-size="10.00">shad/data_structures</text>
<text text-anchor="middle" x="363" y="-404" font-family="Helvetica,sans-Serif" font-size="10.00">/abstract_data_structure.h</text>
</a>
</g>
</g>
<!-- Node12&#45;&gt;Node15 -->
<g id="edge17" class="edge"><title>Node12&#45;&gt;Node15</title>
<path fill="none" stroke="midnightblue" d="M683.859,-469.876C624.66,-459.845 527.016,-443.138 443,-428 441.709,-427.767 440.407,-427.532 439.096,-427.294"/>
<polygon fill="midnightblue" stroke="midnightblue" points="439.374,-423.787 428.908,-425.434 438.116,-430.673 439.374,-423.787"/>
</g>
<!-- Node20 -->
<g id="node20" class="node"><title>Node20</title>
<g id="a_node20"><a xlink:href="runtime_8h.html" target="_top" xlink:title="shad/runtime/runtime.h">
<polygon fill="white" stroke="black" points="471,-266.5 471,-285.5 587,-285.5 587,-266.5 471,-266.5"/>
<text text-anchor="middle" x="529" y="-273.5" font-family="Helvetica,sans-Serif" font-size="10.00">shad/runtime/runtime.h</text>
</a>
</g>
</g>
<!-- Node12&#45;&gt;Node20 -->
<g id="edge79" class="edge"><title>Node12&#45;&gt;Node20</title>
<path fill="none" stroke="midnightblue" d="M683.906,-471.755C621.55,-460.191 521.787,-431.084 476,-360 460.702,-336.25 487.232,-308.581 507.968,-291.946"/>
<polygon fill="midnightblue" stroke="midnightblue" points="510.268,-294.593 516.084,-285.738 506.015,-289.033 510.268,-294.593"/>
</g>
<!-- Node34 -->
<g id="node34" class="node"><title>Node34</title>
<g id="a_node34"><a xlink:href="buffer_8h.html" target="_top" xlink:title="shad/data_structures\l/buffer.h">
<polygon fill="white" stroke="black" points="643,-397 643,-427 751,-427 751,-397 643,-397"/>
<text text-anchor="start" x="651" y="-415" font-family="Helvetica,sans-Serif" font-size="10.00">shad/data_structures</text>
<text text-anchor="middle" x="697" y="-404" font-family="Helvetica,sans-Serif" font-size="10.00">/buffer.h</text>
</a>
</g>
</g>
<!-- Node12&#45;&gt;Node34 -->
<g id="edge61" class="edge"><title>Node12&#45;&gt;Node34</title>
<path fill="none" stroke="midnightblue" d="M729.104,-464.679C723.892,-456.29 717.189,-445.499 711.256,-435.949"/>
<polygon fill="midnightblue" stroke="midnightblue" points="714.129,-433.941 705.879,-427.293 708.183,-437.634 714.129,-433.941"/>
</g>
<!-- Node36 -->
<g id="node36" class="node"><title>Node36</title>
<g id="a_node36"><a xlink:href="local__set_8h.html" target="_top" xlink:title="shad/data_structures\l/local_set.h">
<polygon fill="white" stroke="black" points="725,-329 725,-359 833,-359 833,-329 725,-329"/>
<text text-anchor="start" x="733" y="-347" font-family="Helvetica,sans-Serif" font-size="10.00">shad/data_structures</text>
<text text-anchor="middle" x="779" y="-336" font-family="Helvetica,sans-Serif" font-size="10.00">/local_set.h</text>
</a>
</g>
</g>
<!-- Node12&#45;&gt;Node36 -->
<g id="edge69" class="edge"><title>Node12&#45;&gt;Node36</title>
<path fill="none" stroke="midnightblue" d="M744.872,-464.979C749.617,-454.881 755.803,-440.831 760,-428 766.372,-408.522 771.414,-385.8 774.699,-369.059"/>
<polygon fill="midnightblue" stroke="midnightblue" points="778.179,-369.492 776.6,-359.016 771.301,-368.19 778.179,-369.492"/>
</g>
<!-- Node15&#45;&gt;Node4 -->
<g id="edge20" class="edge"><title>Node15&#45;&gt;Node4</title>
<path fill="none" stroke="midnightblue" d="M349.779,-396.855C317.712,-360.766 241.466,-263.109 284,-192 287.873,-185.526 324.538,-166.983 351.161,-154.137"/>
<polygon fill="midnightblue" stroke="midnightblue" points="352.928,-157.171 360.436,-149.695 349.905,-150.858 352.928,-157.171"/>
</g>
<!-- Node15&#45;&gt;Node11 -->
<g id="edge23" class="edge"><title>Node15&#45;&gt;Node11</title>
<path fill="none" stroke="midnightblue" d="M428.538,-403.981C489.988,-396.191 576.167,-381.77 602,-360 638.603,-329.153 604.057,-289.184 642,-260 694.523,-219.601 872.777,-235.692 938,-224 948.185,-222.174 959.189,-219.723 969.107,-217.331"/>
<polygon fill="midnightblue" stroke="midnightblue" points="970.104,-220.69 978.969,-214.889 968.421,-213.895 970.104,-220.69"/>
</g>
<!-- Node15&#45;&gt;Node13 -->
<g id="edge21" class="edge"><title>Node15&#45;&gt;Node13</title>
<path fill="none" stroke="midnightblue" d="M322.339,-396.979C303.416,-388.72 281.858,-376.588 267,-360 250.55,-341.634 241.804,-314.064 237.538,-295.808"/>
<polygon fill="midnightblue" stroke="midnightblue" points="240.918,-294.874 235.432,-285.81 234.068,-296.317 240.918,-294.874"/>
</g>
<!-- Node15&#45;&gt;Node14 -->
<g id="edge22" class="edge"><title>Node15&#45;&gt;Node14</title>
<path fill="none" stroke="midnightblue" d="M314.548,-396.988C291.782,-388.757 265.261,-376.648 245,-360 198.598,-321.873 164.103,-257.927 149.168,-226.928"/>
<polygon fill="midnightblue" stroke="midnightblue" points="152.283,-225.327 144.864,-217.764 145.947,-228.303 152.283,-225.327"/>
</g>
<!-- Node16 -->
<g id="node16" class="node"><title>Node16</title>
<polygon fill="white" stroke="#bfbfbf" points="347.5,-334.5 347.5,-353.5 390.5,-353.5 390.5,-334.5 347.5,-334.5"/>
<text text-anchor="middle" x="369" y="-341.5" font-family="Helvetica,sans-Serif" font-size="10.00">deque</text>
</g>
<!-- Node15&#45;&gt;Node16 -->
<g id="edge18" class="edge"><title>Node15&#45;&gt;Node16</title>
<path fill="none" stroke="midnightblue" d="M364.302,-396.679C365.173,-387.101 366.328,-374.394 367.275,-363.977"/>
<polygon fill="midnightblue" stroke="midnightblue" points="370.778,-364.104 368.197,-353.828 363.806,-363.47 370.778,-364.104"/>
</g>
<!-- Node17 -->
<g id="node17" class="node"><title>Node17</title>
<polygon fill="white" stroke="#bfbfbf" points="321,-266.5 321,-285.5 361,-285.5 361,-266.5 321,-266.5"/>
<text text-anchor="middle" x="341" y="-273.5" font-family="Helvetica,sans-Serif" font-size="10.00">limits</text>
</g>
<!-- Node15&#45;&gt;Node17 -->
<g id="edge19" class="edge"><title>Node15&#45;&gt;Node17</title>
<path fill="none" stroke="midnightblue" d="M353.921,-396.931C348.099,-387.04 341.074,-373.256 338,-360 333.024,-338.544 335.054,-313.143 337.501,-296.143"/>
<polygon fill="midnightblue" stroke="midnightblue" points="341.022,-296.302 339.181,-285.868 334.114,-295.172 341.022,-296.302"/>
</g>
<!-- Node18 -->
<g id="node18" class="node"><title>Node18</title>
<g id="a_node18"><a xlink:href="object__identifier_8h.html" target="_top" xlink:title="shad/data_structures\l/object_identifier.h">
<polygon fill="white" stroke="black" points="485,-329 485,-359 593,-359 593,-329 485,-329"/>
<text text-anchor="start" x="493" y="-347" font-family="Helvetica,sans-Serif" font-size="10.00">shad/data_structures</text>
<text text-anchor="middle" x="539" y="-336" font-family="Helvetica,sans-Serif" font-size="10.00">/object_identifier.h</text>
</a>
</g>
</g>
<!-- Node15&#45;&gt;Node18 -->
<g id="edge24" class="edge"><title>Node15&#45;&gt;Node18</title>
<path fill="none" stroke="midnightblue" d="M400.756,-396.841C427.527,-386.802 463.626,-373.265 492.223,-362.542"/>
<polygon fill="midnightblue" stroke="midnightblue" points="493.474,-365.81 501.608,-359.022 491.016,-359.256 493.474,-365.81"/>
</g>
<!-- Node15&#45;&gt;Node20 -->
<g id="edge60" class="edge"><title>Node15&#45;&gt;Node20</title>
<path fill="none" stroke="midnightblue" d="M374.469,-396.956C389.173,-379.488 416.008,-349.364 443,-328 461.604,-313.275 484.859,-299.735 502.495,-290.312"/>
<polygon fill="midnightblue" stroke="midnightblue" points="504.413,-293.259 511.649,-285.52 501.166,-287.057 504.413,-293.259"/>
</g>
<!-- Node18&#45;&gt;Node17 -->
<g id="edge26" class="edge"><title>Node18&#45;&gt;Node17</title>
<path fill="none" stroke="midnightblue" d="M496.524,-328.841C458.628,-316.209 404.115,-298.038 370.711,-286.904"/>
<polygon fill="midnightblue" stroke="midnightblue" points="371.657,-283.53 361.063,-283.688 369.443,-290.171 371.657,-283.53"/>
</g>
<!-- Node19 -->
<g id="node19" class="node"><title>Node19</title>
<polygon fill="white" stroke="#bfbfbf" points="651,-266.5 651,-285.5 697,-285.5 697,-266.5 651,-266.5"/>
<text text-anchor="middle" x="674" y="-273.5" font-family="Helvetica,sans-Serif" font-size="10.00">atomic</text>
</g>
<!-- Node18&#45;&gt;Node19 -->
<g id="edge25" class="edge"><title>Node18&#45;&gt;Node19</title>
<path fill="none" stroke="midnightblue" d="M567.961,-328.841C591.417,-317.374 624.209,-301.342 647.096,-290.153"/>
<polygon fill="midnightblue" stroke="midnightblue" points="648.795,-293.218 656.242,-285.682 645.72,-286.93 648.795,-293.218"/>
</g>
<!-- Node18&#45;&gt;Node20 -->
<g id="edge27" class="edge"><title>Node18&#45;&gt;Node20</title>
<path fill="none" stroke="midnightblue" d="M536.83,-328.679C535.379,-319.101 533.454,-306.394 531.875,-295.977"/>
<polygon fill="midnightblue" stroke="midnightblue" points="535.296,-295.191 530.338,-285.828 528.375,-296.24 535.296,-295.191"/>
</g>
<!-- Node20&#45;&gt;Node3 -->
<g id="edge32" class="edge"><title>Node20&#45;&gt;Node3</title>
<path fill="none" stroke="midnightblue" d="M470.994,-268.897C364.548,-257.552 145.789,-233.503 112,-224 109.649,-223.339 107.252,-222.533 104.877,-221.642"/>
<polygon fill="midnightblue" stroke="midnightblue" points="105.989,-218.313 95.4152,-217.651 103.269,-224.762 105.989,-218.313"/>
</g>
<!-- Node20&#45;&gt;Node4 -->
<g id="edge34" class="edge"><title>Node20&#45;&gt;Node4</title>
<path fill="none" stroke="midnightblue" d="M519.158,-266.208C494.149,-243.866 427.905,-184.688 396.278,-156.435"/>
<polygon fill="midnightblue" stroke="midnightblue" points="398.473,-153.702 388.683,-149.65 393.809,-158.923 398.473,-153.702"/>
</g>
<!-- Node20&#45;&gt;Node7 -->
<g id="edge29" class="edge"><title>Node20&#45;&gt;Node7</title>
<path fill="none" stroke="midnightblue" d="M570.192,-266.497C582.043,-264.208 595.008,-261.856 607,-260 674.663,-249.528 863.549,-271.356 913,-224 945.293,-193.075 937.526,-166.617 924,-124 919.933,-111.188 911.357,-98.8187 903.595,-89.4711"/>
<polygon fill="midnightblue" stroke="midnightblue" points="906.084,-87.0017 896.848,-81.81 900.831,-91.628 906.084,-87.0017"/>
</g>
<!-- Node20&#45;&gt;Node9 -->
<g id="edge30" class="edge"><title>Node20&#45;&gt;Node9</title>
<path fill="none" stroke="midnightblue" d="M587.013,-266.85C604.653,-264.493 624.104,-262.015 642,-260 814.537,-240.572 861.769,-262.827 1031,-224 1034.5,-223.196 1038.11,-222.159 1041.67,-221.006"/>
<polygon fill="midnightblue" stroke="midnightblue" points="1043.14,-224.198 1051.38,-217.545 1040.79,-217.603 1043.14,-224.198"/>
</g>
<!-- Node20&#45;&gt;Node11 -->
<g id="edge38" class="edge"><title>Node20&#45;&gt;Node11</title>
<path fill="none" stroke="midnightblue" d="M569.769,-266.444C581.728,-264.128 594.856,-261.775 607,-260 765.233,-236.877 809.96,-263.177 965,-224 967.989,-223.245 971.053,-222.284 974.072,-221.214"/>
<polygon fill="midnightblue" stroke="midnightblue" points="975.383,-224.459 983.41,-217.545 972.823,-217.944 975.383,-224.459"/>
</g>
<!-- Node20&#45;&gt;Node14 -->
<g id="edge37" class="edge"><title>Node20&#45;&gt;Node14</title>
<path fill="none" stroke="midnightblue" d="M479.527,-266.484C466.368,-264.293 452.156,-261.993 439,-260 321.916,-242.264 288.953,-256.214 175,-224 172.501,-223.294 169.948,-222.438 167.418,-221.499"/>
<polygon fill="midnightblue" stroke="midnightblue" points="168.53,-218.171 157.951,-217.593 165.86,-224.642 168.53,-218.171"/>
</g>
<!-- Node21 -->
<g id="node21" class="node"><title>Node21</title>
<polygon fill="white" stroke="#bfbfbf" points="866.5,-130.5 866.5,-149.5 915.5,-149.5 915.5,-130.5 866.5,-130.5"/>
<text text-anchor="middle" x="891" y="-137.5" font-family="Helvetica,sans-Serif" font-size="10.00">cstddef</text>
</g>
<!-- Node20&#45;&gt;Node21 -->
<g id="edge28" class="edge"><title>Node20&#45;&gt;Node21</title>
<path fill="none" stroke="midnightblue" d="M570.607,-266.482C582.348,-264.218 595.152,-261.883 607,-260 670.263,-249.946 850.628,-272.04 893,-224 908.462,-206.469 903.532,-177.841 897.84,-159.211"/>
<polygon fill="midnightblue" stroke="midnightblue" points="901.089,-157.893 894.55,-149.557 894.463,-160.151 901.089,-157.893"/>
</g>
<!-- Node22 -->
<g id="node22" class="node"><title>Node22</title>
<polygon fill="white" stroke="#bfbfbf" points="589,-198.5 589,-217.5 643,-217.5 643,-198.5 589,-198.5"/>
<text text-anchor="middle" x="616" y="-205.5" font-family="Helvetica,sans-Serif" font-size="10.00">iostream</text>
</g>
<!-- Node20&#45;&gt;Node22 -->
<g id="edge31" class="edge"><title>Node20&#45;&gt;Node22</title>
<path fill="none" stroke="midnightblue" d="M540.374,-266.372C554.572,-255.6 579.088,-237.002 596.351,-223.906"/>
<polygon fill="midnightblue" stroke="midnightblue" points="598.772,-226.463 604.623,-217.63 594.541,-220.886 598.772,-226.463"/>
</g>
<!-- Node23 -->
<g id="node23" class="node"><title>Node23</title>
<polygon fill="white" stroke="#bfbfbf" points="661.5,-198.5 661.5,-217.5 696.5,-217.5 696.5,-198.5 661.5,-198.5"/>
<text text-anchor="middle" x="679" y="-205.5" font-family="Helvetica,sans-Serif" font-size="10.00">map</text>
</g>
<!-- Node20&#45;&gt;Node23 -->
<g id="edge33" class="edge"><title>Node20&#45;&gt;Node23</title>
<path fill="none" stroke="midnightblue" d="M552.013,-266.364C576.985,-256.785 617.864,-240.493 652,-224 653.141,-223.449 654.301,-222.872 655.467,-222.278"/>
<polygon fill="midnightblue" stroke="midnightblue" points="657.131,-225.357 664.306,-217.561 653.836,-219.182 657.131,-225.357"/>
</g>
<!-- Node24 -->
<g id="node24" class="node"><title>Node24</title>
<polygon fill="white" stroke="#bfbfbf" points="293,-198.5 293,-217.5 323,-217.5 323,-198.5 293,-198.5"/>
<text text-anchor="middle" x="308" y="-205.5" font-family="Helvetica,sans-Serif" font-size="10.00">set</text>
</g>
<!-- Node20&#45;&gt;Node24 -->
<g id="edge35" class="edge"><title>Node20&#45;&gt;Node24</title>
<path fill="none" stroke="midnightblue" d="M479.047,-266.453C438.374,-258.468 380.037,-244.648 332,-224 331.131,-223.626 330.257,-223.224 329.384,-222.8"/>
<polygon fill="midnightblue" stroke="midnightblue" points="330.741,-219.548 320.309,-217.695 327.309,-225.649 330.741,-219.548"/>
</g>
<!-- Node25 -->
<g id="node25" class="node"><title>Node25</title>
<polygon fill="white" stroke="#bfbfbf" points="341,-198.5 341,-217.5 419,-217.5 419,-198.5 341,-198.5"/>
<text text-anchor="middle" x="380" y="-205.5" font-family="Helvetica,sans-Serif" font-size="10.00">unordered_set</text>
</g>
<!-- Node20&#45;&gt;Node25 -->
<g id="edge36" class="edge"><title>Node20&#45;&gt;Node25</title>
<path fill="none" stroke="midnightblue" d="M509.521,-266.372C483.865,-255.007 438.541,-234.931 408.888,-221.796"/>
<polygon fill="midnightblue" stroke="midnightblue" points="410.045,-218.48 399.484,-217.63 407.21,-224.881 410.045,-218.48"/>
</g>
<!-- Node26 -->
<g id="node26" class="node"><title>Node26</title>
<polygon fill="white" stroke="#bfbfbf" points="426,-0.5 426,-19.5 530,-19.5 530,-0.5 426,-0.5"/>
<text text-anchor="middle" x="478" y="-7.5" font-family="Helvetica,sans-Serif" font-size="10.00">shad/config/config.h</text>
</g>
<!-- Node20&#45;&gt;Node26 -->
<g id="edge39" class="edge"><title>Node20&#45;&gt;Node26</title>
<path fill="none" stroke="midnightblue" d="M475.741,-266.477C404.711,-254.824 285.801,-234.201 268,-224 233.03,-203.959 222.255,-193.7 208,-156 173.619,-65.0693 325.845,-30.0746 415.826,-17.4902"/>
<polygon fill="midnightblue" stroke="midnightblue" points="416.492,-20.9322 425.938,-16.1331 415.561,-13.9944 416.492,-20.9322"/>
</g>
<!-- Node27 -->
<g id="node27" class="node"><title>Node27</title>
<g id="a_node27"><a xlink:href="handle_8h.html" target="_top" xlink:title="shad/runtime/handle.h">
<polygon fill="white" stroke="black" points="556.5,-130.5 556.5,-149.5 669.5,-149.5 669.5,-130.5 556.5,-130.5"/>
<text text-anchor="middle" x="613" y="-137.5" font-family="Helvetica,sans-Serif" font-size="10.00">shad/runtime/handle.h</text>
</a>
</g>
</g>
<!-- Node20&#45;&gt;Node27 -->
<g id="edge40" class="edge"><title>Node20&#45;&gt;Node27</title>
<path fill="none" stroke="midnightblue" d="M528.984,-266.27C529.344,-250.295 531.963,-215.812 547,-192 556.894,-176.332 573.388,-163.584 587.412,-154.752"/>
<polygon fill="midnightblue" stroke="midnightblue" points="589.382,-157.652 596.177,-149.523 585.796,-151.641 589.382,-157.652"/>
</g>
<!-- Node28 -->
<g id="node28" class="node"><title>Node28</title>
<g id="a_node28"><a xlink:href="mapping__traits_8h.html" target="_top" xlink:title="shad/runtime/mapping\l_traits.h">
<polygon fill="white" stroke="black" points="607.5,-57 607.5,-87 720.5,-87 720.5,-57 607.5,-57"/>
<text text-anchor="start" x="615.5" y="-75" font-family="Helvetica,sans-Serif" font-size="10.00">shad/runtime/mapping</text>
<text text-anchor="middle" x="664" y="-64" font-family="Helvetica,sans-Serif" font-size="10.00">_traits.h</text>
</a>
</g>
</g>
<!-- Node20&#45;&gt;Node28 -->
<g id="edge52" class="edge"><title>Node20&#45;&gt;Node28</title>
<path fill="none" stroke="midnightblue" d="M532.058,-266.41C538.414,-249.731 554.61,-212.782 580,-192 615.907,-162.61 651.442,-194.049 678,-156 690.138,-138.61 684.015,-114.263 676.434,-96.4351"/>
<polygon fill="midnightblue" stroke="midnightblue" points="679.57,-94.8783 672.179,-87.2872 673.223,-97.8305 679.57,-94.8783"/>
</g>
<!-- Node31 -->
<g id="node31" class="node"><title>Node31</title>
<g id="a_node31"><a xlink:href="locality_8h.html" target="_top" xlink:title="shad/runtime/locality.h">
<polygon fill="white" stroke="black" points="423.5,-130.5 423.5,-149.5 538.5,-149.5 538.5,-130.5 423.5,-130.5"/>
<text text-anchor="middle" x="481" y="-137.5" font-family="Helvetica,sans-Serif" font-size="10.00">shad/runtime/locality.h</text>
</a>
</g>
</g>
<!-- Node20&#45;&gt;Node31 -->
<g id="edge47" class="edge"><title>Node20&#45;&gt;Node31</title>
<path fill="none" stroke="midnightblue" d="M525.475,-266.386C521.375,-256.284 514.472,-239.012 509,-224 500.968,-201.965 492.452,-176.358 486.95,-159.478"/>
<polygon fill="midnightblue" stroke="midnightblue" points="490.217,-158.206 483.805,-149.772 483.558,-160.364 490.217,-158.206"/>
</g>
<!-- Node32 -->
<g id="node32" class="node"><title>Node32</title>
<g id="a_node32"><a xlink:href="available__mappings_8h.html" target="_top" xlink:title="shad/runtime/mappings\l/available_mappings.h">
<polygon fill="white" stroke="black" points="217,-125 217,-155 335,-155 335,-125 217,-125"/>
<text text-anchor="start" x="225" y="-143" font-family="Helvetica,sans-Serif" font-size="10.00">shad/runtime/mappings</text>
<text text-anchor="middle" x="276" y="-132" font-family="Helvetica,sans-Serif" font-size="10.00">/available_mappings.h</text>
</a>
</g>
</g>
<!-- Node20&#45;&gt;Node32 -->
<g id="edge53" class="edge"><title>Node20&#45;&gt;Node32</title>
<path fill="none" stroke="midnightblue" d="M480.788,-266.473C411.313,-253.97 290.588,-231.35 284,-224 269.864,-208.231 269.272,-183.381 271.36,-164.977"/>
<polygon fill="midnightblue" stroke="midnightblue" points="274.835,-165.405 272.817,-155.004 267.908,-164.393 274.835,-165.405"/>
</g>
<!-- Node33 -->
<g id="node33" class="node"><title>Node33</title>
<g id="a_node33"><a xlink:href="synchronous__interface_8h.html" target="_top" xlink:title="shad/runtime/synchronous\l_interface.h">
<polygon fill="white" stroke="black" points="753.5,-193 753.5,-223 884.5,-223 884.5,-193 753.5,-193"/>
<text text-anchor="start" x="761.5" y="-211" font-family="Helvetica,sans-Serif" font-size="10.00">shad/runtime/synchronous</text>
<text text-anchor="middle" x="819" y="-200" font-family="Helvetica,sans-Serif" font-size="10.00">_interface.h</text>
</a>
</g>
</g>
<!-- Node20&#45;&gt;Node33 -->
<g id="edge55" class="edge"><title>Node20&#45;&gt;Node33</title>
<path fill="none" stroke="midnightblue" d="M566.615,-266.439C612.229,-256.058 690.097,-238.337 747.306,-225.317"/>
<polygon fill="midnightblue" stroke="midnightblue" points="748.402,-228.657 757.376,-223.025 746.849,-221.831 748.402,-228.657"/>
</g>
<!-- Node27&#45;&gt;Node10 -->
<g id="edge41" class="edge"><title>Node27&#45;&gt;Node10</title>
<path fill="none" stroke="midnightblue" d="M669.53,-131.811C774.766,-118.429 998.403,-89.9892 1090.77,-78.2434"/>
<polygon fill="midnightblue" stroke="midnightblue" points="1091.37,-81.6952 1100.85,-76.9616 1090.49,-74.7511 1091.37,-81.6952"/>
</g>
<!-- Node27&#45;&gt;Node26 -->
<g id="edge42" class="edge"><title>Node27&#45;&gt;Node26</title>
<path fill="none" stroke="midnightblue" d="M609.213,-130.237C601.797,-113.902 583.969,-78.4285 560,-56 545.33,-42.2731 525.688,-31.3039 509.306,-23.633"/>
<polygon fill="midnightblue" stroke="midnightblue" points="510.655,-20.4025 500.099,-19.5017 507.79,-26.789 510.655,-20.4025"/>
</g>
<!-- Node27&#45;&gt;Node28 -->
<g id="edge43" class="edge"><title>Node27&#45;&gt;Node28</title>
<path fill="none" stroke="midnightblue" d="M619.667,-130.372C626.556,-121.457 637.587,-107.182 646.922,-95.1013"/>
<polygon fill="midnightblue" stroke="midnightblue" points="649.697,-97.2344 653.042,-87.1815 644.158,-92.9542 649.697,-97.2344"/>
</g>
<!-- Node30 -->
<g id="node30" class="node"><title>Node30</title>
<g id="a_node30"><a xlink:href="available__traits__mappings_8h.html" target="_top" xlink:title="shad/runtime/mappings\l/available_traits_mappings.h">
<polygon fill="white" stroke="black" points="411,-57 411,-87 551,-87 551,-57 411,-57"/>
<text text-anchor="start" x="419" y="-75" font-family="Helvetica,sans-Serif" font-size="10.00">shad/runtime/mappings</text>
<text text-anchor="middle" x="481" y="-64" font-family="Helvetica,sans-Serif" font-size="10.00">/available_traits_mappings.h</text>
</a>
</g>
</g>
<!-- Node27&#45;&gt;Node30 -->
<g id="edge46" class="edge"><title>Node27&#45;&gt;Node30</title>
<path fill="none" stroke="midnightblue" d="M595.743,-130.372C576.138,-120.569 543.567,-104.283 518.126,-91.5629"/>
<polygon fill="midnightblue" stroke="midnightblue" points="519.622,-88.3979 509.112,-87.0562 516.491,-94.6589 519.622,-88.3979"/>
</g>
<!-- Node28&#45;&gt;Node26 -->
<g id="edge45" class="edge"><title>Node28&#45;&gt;Node26</title>
<path fill="none" stroke="midnightblue" d="M620.391,-56.9327C588.074,-46.5077 544.547,-32.4667 514.157,-22.6635"/>
<polygon fill="midnightblue" stroke="midnightblue" points="514.981,-19.2518 504.389,-19.5127 512.832,-25.9138 514.981,-19.2518"/>
</g>
<!-- Node29 -->
<g id="node29" class="node"><title>Node29</title>
<polygon fill="white" stroke="#bfbfbf" points="643.5,-0.5 643.5,-19.5 684.5,-19.5 684.5,-0.5 643.5,-0.5"/>
<text text-anchor="middle" x="664" y="-7.5" font-family="Helvetica,sans-Serif" font-size="10.00">string</text>
</g>
<!-- Node28&#45;&gt;Node29 -->
<g id="edge44" class="edge"><title>Node28&#45;&gt;Node29</title>
<path fill="none" stroke="midnightblue" d="M664,-56.7808C664,-48.7812 664,-38.6887 664,-30.0168"/>
<polygon fill="midnightblue" stroke="midnightblue" points="667.5,-29.7305 664,-19.7305 660.5,-29.7306 667.5,-29.7305"/>
</g>
<!-- Node31&#45;&gt;Node7 -->
<g id="edge48" class="edge"><title>Node31&#45;&gt;Node7</title>
<path fill="none" stroke="midnightblue" d="M516.178,-130.491C526.113,-128.228 536.953,-125.89 547,-124 659.101,-102.909 793.256,-84.9586 854.519,-77.1595"/>
<polygon fill="midnightblue" stroke="midnightblue" points="855.263,-80.5933 864.745,-75.866 854.385,-73.6487 855.263,-80.5933"/>
</g>
<!-- Node31&#45;&gt;Node26 -->
<g id="edge49" class="edge"><title>Node31&#45;&gt;Node26</title>
<path fill="none" stroke="midnightblue" d="M456.092,-130.437C437.493,-122.575 413.401,-108.931 402,-88 395.197,-75.5105 394.957,-68.3557 402,-56 410.41,-41.2475 425.765,-30.8375 440.484,-23.7738"/>
<polygon fill="midnightblue" stroke="midnightblue" points="442.235,-26.8275 449.985,-19.603 439.421,-20.4179 442.235,-26.8275"/>
</g>
<!-- Node31&#45;&gt;Node28 -->
<g id="edge50" class="edge"><title>Node31&#45;&gt;Node28</title>
<path fill="none" stroke="midnightblue" d="M504.924,-130.372C532.82,-120.311 579.648,-103.422 615.294,-90.5662"/>
<polygon fill="midnightblue" stroke="midnightblue" points="616.806,-93.7414 625.026,-87.0562 614.432,-87.1565 616.806,-93.7414"/>
</g>
<!-- Node31&#45;&gt;Node30 -->
<g id="edge51" class="edge"><title>Node31&#45;&gt;Node30</title>
<path fill="none" stroke="midnightblue" d="M481,-130.372C481,-121.971 481,-108.811 481,-97.2126"/>
<polygon fill="midnightblue" stroke="midnightblue" points="484.5,-97.1814 481,-87.1815 477.5,-97.1815 484.5,-97.1814"/>
</g>
<!-- Node32&#45;&gt;Node30 -->
<g id="edge54" class="edge"><title>Node32&#45;&gt;Node30</title>
<path fill="none" stroke="midnightblue" d="M319.726,-124.922C351.299,-114.757 394.108,-100.975 427.687,-90.1643"/>
<polygon fill="midnightblue" stroke="midnightblue" points="428.895,-93.4523 437.341,-87.0561 426.75,-86.7891 428.895,-93.4523"/>
</g>
<!-- Node33&#45;&gt;Node4 -->
<g id="edge58" class="edge"><title>Node33&#45;&gt;Node4</title>
<path fill="none" stroke="midnightblue" d="M753.145,-194.247C748.365,-193.446 743.612,-192.687 739,-192 595.257,-170.594 554.532,-193.025 414,-156 411.183,-155.258 408.299,-154.327 405.454,-153.294"/>
<polygon fill="midnightblue" stroke="midnightblue" points="406.673,-150.011 396.089,-149.516 404.054,-156.503 406.673,-150.011"/>
</g>
<!-- Node33&#45;&gt;Node7 -->
<g id="edge57" class="edge"><title>Node33&#45;&gt;Node7</title>
<path fill="none" stroke="midnightblue" d="M824.834,-192.955C831.908,-176.253 844.448,-147.66 857,-124 863.046,-112.604 870.543,-100.23 876.65,-90.525"/>
<polygon fill="midnightblue" stroke="midnightblue" points="879.76,-92.1571 882.188,-81.8442 873.859,-88.392 879.76,-92.1571"/>
</g>
<!-- Node33&#45;&gt;Node21 -->
<g id="edge56" class="edge"><title>Node33&#45;&gt;Node21</title>
<path fill="none" stroke="midnightblue" d="M834.623,-192.679C846.183,-182.082 861.922,-167.655 873.833,-156.736"/>
<polygon fill="midnightblue" stroke="midnightblue" points="876.363,-159.166 881.369,-149.828 871.633,-154.006 876.363,-159.166"/>
</g>
<!-- Node33&#45;&gt;Node31 -->
<g id="edge59" class="edge"><title>Node33&#45;&gt;Node31</title>
<path fill="none" stroke="midnightblue" d="M753.353,-194.695C673.067,-179.646 547.64,-156.133 547,-156 540.657,-154.685 533.986,-153.241 527.422,-151.784"/>
<polygon fill="midnightblue" stroke="midnightblue" points="527.781,-148.278 517.257,-149.501 526.247,-155.108 527.781,-148.278"/>
</g>
<!-- Node34&#45;&gt;Node6 -->
<g id="edge62" class="edge"><title>Node34&#45;&gt;Node6</title>
<path fill="none" stroke="midnightblue" d="M751.157,-405.85C800.913,-399.651 875.838,-386.556 936,-360 1016.16,-324.617 1096.32,-255.826 1130.2,-224.824"/>
<polygon fill="midnightblue" stroke="midnightblue" points="1132.83,-227.161 1137.79,-217.799 1128.08,-222.023 1132.83,-227.161"/>
</g>
<!-- Node34&#45;&gt;Node11 -->
<g id="edge65" class="edge"><title>Node34&#45;&gt;Node11</title>
<path fill="none" stroke="midnightblue" d="M751.289,-398.222C779.709,-390.014 814.266,-377.555 842,-360 868.422,-343.275 918.066,-281.257 941,-260 954.394,-247.586 970.146,-234.242 982.149,-224.317"/>
<polygon fill="midnightblue" stroke="midnightblue" points="984.63,-226.808 990.138,-217.758 980.189,-221.398 984.63,-226.808"/>
</g>
<!-- Node34&#45;&gt;Node18 -->
<g id="edge66" class="edge"><title>Node34&#45;&gt;Node18</title>
<path fill="none" stroke="midnightblue" d="M663.105,-396.841C639.386,-386.933 607.509,-373.618 582.001,-362.963"/>
<polygon fill="midnightblue" stroke="midnightblue" points="583.144,-359.647 572.567,-359.022 580.446,-366.106 583.144,-359.647"/>
</g>
<!-- Node34&#45;&gt;Node19 -->
<g id="edge64" class="edge"><title>Node34&#45;&gt;Node19</title>
<path fill="none" stroke="midnightblue" d="M694.539,-396.66C690.361,-372.32 681.884,-322.933 677.233,-295.837"/>
<polygon fill="midnightblue" stroke="midnightblue" points="680.639,-294.991 675.498,-285.728 673.74,-296.176 680.639,-294.991"/>
</g>
<!-- Node34&#45;&gt;Node20 -->
<g id="edge67" class="edge"><title>Node34&#45;&gt;Node20</title>
<path fill="none" stroke="midnightblue" d="M681.967,-396.96C663.594,-380.016 631.323,-350.943 602,-328 585.262,-314.903 565.45,-301.166 550.692,-291.253"/>
<polygon fill="midnightblue" stroke="midnightblue" points="552.492,-288.246 542.229,-285.614 548.611,-294.072 552.492,-288.246"/>
</g>
<!-- Node35 -->
<g id="node35" class="node"><title>Node35</title>
<polygon fill="white" stroke="#bfbfbf" points="889,-334.5 889,-353.5 927,-353.5 927,-334.5 889,-334.5"/>
<text text-anchor="middle" x="908" y="-341.5" font-family="Helvetica,sans-Serif" font-size="10.00">array</text>
</g>
<!-- Node34&#45;&gt;Node35 -->
<g id="edge63" class="edge"><title>Node34&#45;&gt;Node35</title>
<path fill="none" stroke="midnightblue" d="M751.018,-397.743C786.653,-388.458 834.125,-375.052 875,-360 876.905,-359.299 878.853,-358.536 880.804,-357.739"/>
<polygon fill="midnightblue" stroke="midnightblue" points="882.605,-360.772 890.389,-353.585 879.822,-354.35 882.605,-360.772"/>
</g>
<!-- Node36&#45;&gt;Node4 -->
<g id="edge73" class="edge"><title>Node36&#45;&gt;Node4</title>
<path fill="none" stroke="midnightblue" d="M776.665,-328.89C770.785,-298.257 752.313,-225.714 705,-192 598.868,-116.375 539.805,-190.005 414,-156 411.34,-155.281 408.617,-154.398 405.924,-153.424"/>
<polygon fill="midnightblue" stroke="midnightblue" points="407.044,-150.102 396.459,-149.627 404.437,-156.599 407.044,-150.102"/>
</g>
<!-- Node36&#45;&gt;Node5 -->
<g id="edge77" class="edge"><title>Node36&#45;&gt;Node5</title>
<path fill="none" stroke="midnightblue" d="M833.131,-334.574C907.037,-323.07 1040,-302.373 1124.75,-289.181"/>
<polygon fill="midnightblue" stroke="midnightblue" points="1125.5,-292.607 1134.84,-287.61 1124.42,-285.69 1125.5,-292.607"/>
</g>
<!-- Node36&#45;&gt;Node6 -->
<g id="edge70" class="edge"><title>Node36&#45;&gt;Node6</title>
<path fill="none" stroke="midnightblue" d="M826.202,-328.92C858.221,-319.134 901.4,-305.475 939,-292 1003.28,-268.964 1077.25,-238.474 1117.37,-221.597"/>
<polygon fill="midnightblue" stroke="midnightblue" points="1118.96,-224.725 1126.81,-217.613 1116.24,-218.276 1118.96,-224.725"/>
</g>
<!-- Node36&#45;&gt;Node9 -->
<g id="edge72" class="edge"><title>Node36&#45;&gt;Node9</title>
<path fill="none" stroke="midnightblue" d="M809.697,-328.913C866.746,-302.733 988.279,-246.961 1043.12,-221.793"/>
<polygon fill="midnightblue" stroke="midnightblue" points="1044.62,-224.955 1052.25,-217.603 1041.7,-218.593 1044.62,-224.955"/>
</g>
<!-- Node36&#45;&gt;Node11 -->
<g id="edge76" class="edge"><title>Node36&#45;&gt;Node11</title>
<path fill="none" stroke="midnightblue" d="M779.514,-328.697C780.985,-310.094 786.408,-277.87 806,-260 859.532,-211.172 895.97,-246.015 965,-224 967.572,-223.18 970.217,-222.251 972.848,-221.268"/>
<polygon fill="midnightblue" stroke="midnightblue" points="974.171,-224.508 982.171,-217.562 971.586,-218.003 974.171,-224.508"/>
</g>
<!-- Node36&#45;&gt;Node13 -->
<g id="edge74" class="edge"><title>Node36&#45;&gt;Node13</title>
<path fill="none" stroke="midnightblue" d="M724.884,-338.528C637.684,-331 460.799,-314.395 312,-292 295.76,-289.556 277.749,-286.139 263.13,-283.184"/>
<polygon fill="midnightblue" stroke="midnightblue" points="263.658,-279.72 253.158,-281.135 262.249,-286.576 263.658,-279.72"/>
</g>
<!-- Node36&#45;&gt;Node14 -->
<g id="edge75" class="edge"><title>Node36&#45;&gt;Node14</title>
<path fill="none" stroke="midnightblue" d="M724.851,-337.218C661.269,-329.757 552.937,-314.942 462,-292 420.024,-281.41 411.852,-271.073 370,-260 284.8,-237.458 259.22,-249.963 175,-224 172.572,-223.252 170.087,-222.379 167.62,-221.437"/>
<polygon fill="midnightblue" stroke="midnightblue" points="168.926,-218.19 158.349,-217.584 166.24,-224.654 168.926,-218.19"/>
</g>
<!-- Node36&#45;&gt;Node19 -->
<g id="edge71" class="edge"><title>Node36&#45;&gt;Node19</title>
<path fill="none" stroke="midnightblue" d="M756.475,-328.841C738.72,-317.681 714.087,-302.198 696.372,-291.063"/>
<polygon fill="midnightblue" stroke="midnightblue" points="698.141,-288.04 687.812,-285.682 694.416,-293.967 698.141,-288.04"/>
</g>
<!-- Node36&#45;&gt;Node20 -->
<g id="edge78" class="edge"><title>Node36&#45;&gt;Node20</title>
<path fill="none" stroke="midnightblue" d="M725.675,-328.922C679.475,-316.725 613.544,-299.32 571.006,-288.09"/>
<polygon fill="midnightblue" stroke="midnightblue" points="571.811,-284.682 561.249,-285.514 570.024,-291.45 571.811,-284.682"/>
</g>
</g>
</svg>
