<?xml version="1.0" encoding="UTF-8" standalone="no"?>
<!DOCTYPE svg PUBLIC "-//W3C//DTD SVG 1.1//EN"
 "http://www.w3.org/Graphics/SVG/1.1/DTD/svg11.dtd">
<!-- Generated by graphviz version 2.36.0 (20140111.2315)
 -->
<!-- Title: include/shad/core/algorithm.h Pages: 1 -->
<svg width="1059pt" height="356pt"
 viewBox="0.00 0.00 1059.00 356.00" xmlns="http://www.w3.org/2000/svg" xmlns:xlink="http://www.w3.org/1999/xlink">
<g id="graph0" class="graph" transform="scale(1 1) rotate(0) translate(4 352)">
<title>include/shad/core/algorithm.h</title>
<polygon fill="white" stroke="none" points="-4,4 -4,-352 1055,-352 1055,4 -4,4"/>
<!-- Node1 -->
<g id="node1" class="node"><title>Node1</title>
<polygon fill="#bfbfbf" stroke="black" points="508,-328.5 508,-347.5 652,-347.5 652,-328.5 508,-328.5"/>
<text text-anchor="middle" x="580" y="-335.5" font-family="Helvetica,sans-Serif" font-size="10.00">include/shad/core/algorithm.h</text>
</g>
<!-- Node2 -->
<g id="node2" class="node"><title>Node2</title>
<polygon fill="white" stroke="#bfbfbf" points="0,-266.5 0,-285.5 56,-285.5 56,-266.5 0,-266.5"/>
<text text-anchor="middle" x="28" y="-273.5" font-family="Helvetica,sans-Serif" font-size="10.00">algorithm</text>
</g>
<!-- Node1&#45;&gt;Node2 -->
<g id="edge1" class="edge"><title>Node1&#45;&gt;Node2</title>
<path fill="none" stroke="midnightblue" d="M507.924,-337.643C407.127,-336.987 219.005,-330.079 64,-292 61.0062,-291.265 57.9385,-290.316 54.918,-289.254"/>
<polygon fill="midnightblue" stroke="midnightblue" points="56.1655,-285.984 45.5779,-285.594 53.6115,-292.501 56.1655,-285.984"/>
</g>
<!-- Node3 -->
<g id="node3" class="node"><title>Node3</title>
<polygon fill="white" stroke="#bfbfbf" points="147.5,-198.5 147.5,-217.5 206.5,-217.5 206.5,-198.5 147.5,-198.5"/>
<text text-anchor="middle" x="177" y="-205.5" font-family="Helvetica,sans-Serif" font-size="10.00">functional</text>
</g>
<!-- Node1&#45;&gt;Node3 -->
<g id="edge2" class="edge"><title>Node1&#45;&gt;Node3</title>
<path fill="none" stroke="midnightblue" d="M551.999,-328.433C491.463,-309.857 343.939,-264.298 221,-224 217.856,-222.969 214.59,-221.884 211.322,-220.788"/>
<polygon fill="midnightblue" stroke="midnightblue" points="212.227,-217.4 201.633,-217.512 209.985,-224.031 212.227,-217.4"/>
</g>
<!-- Node4 -->
<g id="node4" class="node"><title>Node4</title>
<polygon fill="white" stroke="#bfbfbf" points="82.5,-198.5 82.5,-217.5 129.5,-217.5 129.5,-198.5 82.5,-198.5"/>
<text text-anchor="middle" x="106" y="-205.5" font-family="Helvetica,sans-Serif" font-size="10.00">iterator</text>
</g>
<!-- Node1&#45;&gt;Node4 -->
<g id="edge3" class="edge"><title>Node1&#45;&gt;Node4</title>
<path fill="none" stroke="midnightblue" d="M520.04,-328.486C470.31,-320.818 397.977,-308.261 336,-292 246.001,-268.386 224.249,-258.907 138,-224 136.358,-223.335 134.679,-222.63 132.992,-221.901"/>
<polygon fill="midnightblue" stroke="midnightblue" points="134.01,-218.52 123.455,-217.596 131.13,-224.9 134.01,-218.52"/>
</g>
<!-- Node5 -->
<g id="node5" class="node"><title>Node5</title>
<polygon fill="white" stroke="#bfbfbf" points="689.5,-266.5 689.5,-285.5 740.5,-285.5 740.5,-266.5 689.5,-266.5"/>
<text text-anchor="middle" x="715" y="-273.5" font-family="Helvetica,sans-Serif" font-size="10.00">numeric</text>
</g>
<!-- Node1&#45;&gt;Node5 -->
<g id="edge4" class="edge"><title>Node1&#45;&gt;Node5</title>
<path fill="none" stroke="midnightblue" d="M599.342,-328.403C622.099,-318.29 660.092,-301.404 686.288,-289.761"/>
<polygon fill="midnightblue" stroke="midnightblue" points="687.977,-292.84 695.694,-285.581 685.134,-286.444 687.977,-292.84"/>
</g>
<!-- Node6 -->
<g id="node6" class="node"><title>Node6</title>
<polygon fill="white" stroke="#bfbfbf" points="759,-266.5 759,-285.5 797,-285.5 797,-266.5 759,-266.5"/>
<text text-anchor="middle" x="778" y="-273.5" font-family="Helvetica,sans-Serif" font-size="10.00">tuple</text>
</g>
<!-- Node1&#45;&gt;Node6 -->
<g id="edge5" class="edge"><title>Node1&#45;&gt;Node6</title>
<path fill="none" stroke="midnightblue" d="M622.126,-328.457C656.812,-320.793 706.943,-308.254 749,-292 750.599,-291.382 752.226,-290.7 753.85,-289.979"/>
<polygon fill="midnightblue" stroke="midnightblue" points="755.462,-293.088 762.936,-285.578 752.41,-286.788 755.462,-293.088"/>
</g>
<!-- Node7 -->
<g id="node7" class="node"><title>Node7</title>
<polygon fill="white" stroke="#bfbfbf" points="949,-198.5 949,-217.5 989,-217.5 989,-198.5 949,-198.5"/>
<text text-anchor="middle" x="969" y="-205.5" font-family="Helvetica,sans-Serif" font-size="10.00">utility</text>
</g>
<!-- Node1&#45;&gt;Node7 -->
<g id="edge6" class="edge"><title>Node1&#45;&gt;Node7</title>
<path fill="none" stroke="midnightblue" d="M584.544,-328.477C593.819,-312.034 616.643,-276.133 647,-260 762.856,-198.428 814.651,-262.748 940,-224 941.909,-223.41 943.842,-222.698 945.756,-221.909"/>
<polygon fill="midnightblue" stroke="midnightblue" points="947.445,-224.982 954.974,-217.528 944.44,-218.659 947.445,-224.982"/>
</g>
<!-- Node8 -->
<g id="node8" class="node"><title>Node8</title>
<polygon fill="white" stroke="#bfbfbf" points="1007,-198.5 1007,-217.5 1051,-217.5 1051,-198.5 1007,-198.5"/>
<text text-anchor="middle" x="1029" y="-205.5" font-family="Helvetica,sans-Serif" font-size="10.00">vector</text>
</g>
<!-- Node1&#45;&gt;Node8 -->
<g id="edge7" class="edge"><title>Node1&#45;&gt;Node8</title>
<path fill="none" stroke="midnightblue" d="M592.767,-328.325C605.649,-319.468 626.012,-305.187 643,-292 660.442,-278.461 660.72,-268.73 681,-260 811.24,-203.937 861.801,-263.441 998,-224 1000.19,-223.365 1002.42,-222.586 1004.63,-221.719"/>
<polygon fill="midnightblue" stroke="midnightblue" points="1006.26,-224.823 1013.95,-217.54 1003.4,-218.434 1006.26,-224.823"/>
</g>
<!-- Node9 -->
<g id="node9" class="node"><title>Node9</title>
<g id="a_node9"><a xlink:href="execution_8h.html" target="_top" xlink:title="shad/core/execution.h">
<polygon fill="white" stroke="black" points="815.5,-266.5 815.5,-285.5 928.5,-285.5 928.5,-266.5 815.5,-266.5"/>
<text text-anchor="middle" x="872" y="-273.5" font-family="Helvetica,sans-Serif" font-size="10.00">shad/core/execution.h</text>
</a>
</g>
</g>
<!-- Node1&#45;&gt;Node9 -->
<g id="edge8" class="edge"><title>Node1&#45;&gt;Node9</title>
<path fill="none" stroke="midnightblue" d="M624.669,-328.474C670.312,-319.675 743.201,-305.386 806,-292 812.26,-290.666 818.844,-289.22 825.33,-287.771"/>
<polygon fill="midnightblue" stroke="midnightblue" points="826.397,-291.119 835.383,-285.507 824.858,-284.29 826.397,-291.119"/>
</g>
<!-- Node10 -->
<g id="node10" class="node"><title>Node10</title>
<g id="a_node10"><a xlink:href="distributed__iterator__traits_8h.html" target="_top" xlink:title="shad/distributed_iterator\l_traits.h">
<polygon fill="white" stroke="black" points="73.5,-261 73.5,-291 194.5,-291 194.5,-261 73.5,-261"/>
<text text-anchor="start" x="81.5" y="-279" font-family="Helvetica,sans-Serif" font-size="10.00">shad/distributed_iterator</text>
<text text-anchor="middle" x="134" y="-268" font-family="Helvetica,sans-Serif" font-size="10.00">_traits.h</text>
</a>
</g>
</g>
<!-- Node1&#45;&gt;Node10 -->
<g id="edge9" class="edge"><title>Node1&#45;&gt;Node10</title>
<path fill="none" stroke="midnightblue" d="M512.4,-328.48C443.001,-319.658 331.9,-305.323 236,-292 225.857,-290.591 215.152,-289.062 204.645,-287.538"/>
<polygon fill="midnightblue" stroke="midnightblue" points="205.055,-284.061 194.655,-286.082 204.046,-290.988 205.055,-284.061"/>
</g>
<!-- Node17 -->
<g id="node17" class="node"><title>Node17</title>
<g id="a_node17"><a xlink:href="runtime_8h.html" target="_top" xlink:title="shad/runtime/runtime.h">
<polygon fill="white" stroke="black" points="479,-266.5 479,-285.5 595,-285.5 595,-266.5 479,-266.5"/>
<text text-anchor="middle" x="537" y="-273.5" font-family="Helvetica,sans-Serif" font-size="10.00">shad/runtime/runtime.h</text>
</a>
</g>
</g>
<!-- Node1&#45;&gt;Node17 -->
<g id="edge18" class="edge"><title>Node1&#45;&gt;Node17</title>
<path fill="none" stroke="midnightblue" d="M573.839,-328.403C567.389,-319.403 557.096,-305.041 549.027,-293.782"/>
<polygon fill="midnightblue" stroke="midnightblue" points="551.82,-291.67 543.149,-285.581 546.13,-295.748 551.82,-291.67"/>
</g>
<!-- Node10&#45;&gt;Node4 -->
<g id="edge10" class="edge"><title>Node10&#45;&gt;Node4</title>
<path fill="none" stroke="midnightblue" d="M127.924,-260.679C123.775,-250.898 118.24,-237.852 113.77,-227.315"/>
<polygon fill="midnightblue" stroke="midnightblue" points="116.873,-225.667 109.745,-217.828 110.429,-228.401 116.873,-225.667"/>
</g>
<!-- Node11 -->
<g id="node11" class="node"><title>Node11</title>
<g id="a_node11"><a xlink:href="locality_8h.html" target="_top" xlink:title="shad/runtime/locality.h">
<polygon fill="white" stroke="black" points="240.5,-130.5 240.5,-149.5 355.5,-149.5 355.5,-130.5 240.5,-130.5"/>
<text text-anchor="middle" x="298" y="-137.5" font-family="Helvetica,sans-Serif" font-size="10.00">shad/runtime/locality.h</text>
</a>
</g>
</g>
<!-- Node10&#45;&gt;Node11 -->
<g id="edge11" class="edge"><title>Node10&#45;&gt;Node11</title>
<path fill="none" stroke="midnightblue" d="M111.118,-260.939C86.7648,-244.222 54.1392,-215.614 73,-192 83.2026,-179.226 171.907,-162.002 234.833,-151.2"/>
<polygon fill="midnightblue" stroke="midnightblue" points="235.423,-154.65 244.695,-149.523 234.249,-147.749 235.423,-154.65"/>
</g>
<!-- Node12 -->
<g id="node12" class="node"><title>Node12</title>
<polygon fill="white" stroke="#bfbfbf" points="189,-62.5 189,-81.5 235,-81.5 235,-62.5 189,-62.5"/>
<text text-anchor="middle" x="212" y="-69.5" font-family="Helvetica,sans-Serif" font-size="10.00">cstdint</text>
</g>
<!-- Node11&#45;&gt;Node12 -->
<g id="edge12" class="edge"><title>Node11&#45;&gt;Node12</title>
<path fill="none" stroke="midnightblue" d="M286.757,-130.372C272.722,-119.6 248.488,-101.002 231.424,-87.9065"/>
<polygon fill="midnightblue" stroke="midnightblue" points="233.31,-84.9421 223.246,-81.6305 229.048,-90.4953 233.31,-84.9421"/>
</g>
<!-- Node13 -->
<g id="node13" class="node"><title>Node13</title>
<polygon fill="white" stroke="#bfbfbf" points="458,-0.5 458,-19.5 562,-19.5 562,-0.5 458,-0.5"/>
<text text-anchor="middle" x="510" y="-7.5" font-family="Helvetica,sans-Serif" font-size="10.00">shad/config/config.h</text>
</g>
<!-- Node11&#45;&gt;Node13 -->
<g id="edge13" class="edge"><title>Node11&#45;&gt;Node13</title>
<path fill="none" stroke="midnightblue" d="M299.077,-130.495C301.675,-113.635 309.881,-75.8858 333,-56 364.64,-28.7853 410.536,-17.6598 447.663,-13.2732"/>
<polygon fill="midnightblue" stroke="midnightblue" points="448.301,-16.7257 457.884,-12.2068 447.574,-9.76353 448.301,-16.7257"/>
</g>
<!-- Node14 -->
<g id="node14" class="node"><title>Node14</title>
<g id="a_node14"><a xlink:href="mapping__traits_8h.html" target="_top" xlink:title="shad/runtime/mapping\l_traits.h">
<polygon fill="white" stroke="black" points="538.5,-57 538.5,-87 651.5,-87 651.5,-57 538.5,-57"/>
<text text-anchor="start" x="546.5" y="-75" font-family="Helvetica,sans-Serif" font-size="10.00">shad/runtime/mapping</text>
<text text-anchor="middle" x="595" y="-64" font-family="Helvetica,sans-Serif" font-size="10.00">_traits.h</text>
</a>
</g>
</g>
<!-- Node11&#45;&gt;Node14 -->
<g id="edge14" class="edge"><title>Node11&#45;&gt;Node14</title>
<path fill="none" stroke="midnightblue" d="M335.91,-130.498C345.408,-128.372 355.576,-126.1 365,-124 420.045,-111.735 482.517,-97.8876 528.447,-87.7198"/>
<polygon fill="midnightblue" stroke="midnightblue" points="529.273,-91.1216 538.281,-85.5431 527.761,-84.2871 529.273,-91.1216"/>
</g>
<!-- Node16 -->
<g id="node16" class="node"><title>Node16</title>
<g id="a_node16"><a xlink:href="available__traits__mappings_8h.html" target="_top" xlink:title="shad/runtime/mappings\l/available_traits_mappings.h">
<polygon fill="white" stroke="black" points="342,-57 342,-87 482,-87 482,-57 342,-57"/>
<text text-anchor="start" x="350" y="-75" font-family="Helvetica,sans-Serif" font-size="10.00">shad/runtime/mappings</text>
<text text-anchor="middle" x="412" y="-64" font-family="Helvetica,sans-Serif" font-size="10.00">/available_traits_mappings.h</text>
</a>
</g>
</g>
<!-- Node11&#45;&gt;Node16 -->
<g id="edge17" class="edge"><title>Node11&#45;&gt;Node16</title>
<path fill="none" stroke="midnightblue" d="M312.904,-130.372C329.486,-120.771 356.807,-104.954 378.567,-92.3559"/>
<polygon fill="midnightblue" stroke="midnightblue" points="380.604,-95.2209 387.505,-87.1815 377.097,-89.1629 380.604,-95.2209"/>
</g>
<!-- Node14&#45;&gt;Node13 -->
<g id="edge16" class="edge"><title>Node14&#45;&gt;Node13</title>
<path fill="none" stroke="midnightblue" d="M574.856,-56.7808C561.405,-47.2862 543.778,-34.8434 530.296,-25.3267"/>
<polygon fill="midnightblue" stroke="midnightblue" points="532.309,-22.4632 522.121,-19.5557 528.272,-28.182 532.309,-22.4632"/>
</g>
<!-- Node15 -->
<g id="node15" class="node"><title>Node15</title>
<polygon fill="white" stroke="#bfbfbf" points="580.5,-0.5 580.5,-19.5 621.5,-19.5 621.5,-0.5 580.5,-0.5"/>
<text text-anchor="middle" x="601" y="-7.5" font-family="Helvetica,sans-Serif" font-size="10.00">string</text>
</g>
<!-- Node14&#45;&gt;Node15 -->
<g id="edge15" class="edge"><title>Node14&#45;&gt;Node15</title>
<path fill="none" stroke="midnightblue" d="M596.422,-56.7808C597.231,-48.6913 598.254,-38.4617 599.127,-29.725"/>
<polygon fill="midnightblue" stroke="midnightblue" points="602.614,-30.0292 600.127,-19.7305 595.649,-29.3326 602.614,-30.0292"/>
</g>
<!-- Node17&#45;&gt;Node3 -->
<g id="edge21" class="edge"><title>Node17&#45;&gt;Node3</title>
<path fill="none" stroke="midnightblue" d="M478.745,-268.585C414.885,-260.863 309.7,-246.11 221,-224 217.146,-223.039 213.147,-221.894 209.202,-220.669"/>
<polygon fill="midnightblue" stroke="midnightblue" points="210.212,-217.317 199.619,-217.526 208.03,-223.968 210.212,-217.317"/>
</g>
<!-- Node17&#45;&gt;Node4 -->
<g id="edge23" class="edge"><title>Node17&#45;&gt;Node4</title>
<path fill="none" stroke="midnightblue" d="M478.702,-273.201C399.948,-269.504 255.861,-258.241 138,-224 135.713,-223.336 133.384,-222.528 131.078,-221.636"/>
<polygon fill="midnightblue" stroke="midnightblue" points="132.464,-218.422 121.898,-217.642 129.672,-224.841 132.464,-218.422"/>
</g>
<!-- Node17&#45;&gt;Node7 -->
<g id="edge28" class="edge"><title>Node17&#45;&gt;Node7</title>
<path fill="none" stroke="midnightblue" d="M574.614,-266.445C585.653,-264.129 597.776,-261.775 609,-260 755.162,-236.882 798.321,-266.717 940,-224 941.913,-223.423 943.849,-222.721 945.766,-221.938"/>
<polygon fill="midnightblue" stroke="midnightblue" points="947.448,-225.014 954.987,-217.57 944.451,-218.688 947.448,-225.014"/>
</g>
<!-- Node17&#45;&gt;Node8 -->
<g id="edge29" class="edge"><title>Node17&#45;&gt;Node8</title>
<path fill="none" stroke="midnightblue" d="M595.183,-266.697C611.898,-264.412 630.159,-262.011 647,-260 802.712,-241.403 847.135,-266.8 998,-224 1000.2,-223.377 1002.43,-222.606 1004.63,-221.745"/>
<polygon fill="midnightblue" stroke="midnightblue" points="1006.26,-224.851 1013.96,-217.575 1003.41,-218.46 1006.26,-224.851"/>
</g>
<!-- Node17&#45;&gt;Node11 -->
<g id="edge36" class="edge"><title>Node17&#45;&gt;Node11</title>
<path fill="none" stroke="midnightblue" d="M525.839,-266.19C513.281,-256.192 492.368,-239.286 475,-224 459.423,-210.29 458.704,-202.826 441,-192 411.028,-173.672 373.503,-160.604 344.413,-152.287"/>
<polygon fill="midnightblue" stroke="midnightblue" points="345.074,-148.838 334.502,-149.543 343.206,-155.585 345.074,-148.838"/>
</g>
<!-- Node17&#45;&gt;Node12 -->
<g id="edge20" class="edge"><title>Node17&#45;&gt;Node12</title>
<path fill="none" stroke="midnightblue" d="M478.813,-268.681C406.66,-260.162 288.369,-243.76 249,-224 230.454,-214.691 232.495,-203.16 215,-192 178.679,-168.832 149.153,-191.674 125,-156 117.027,-144.223 117.93,-136.34 125,-124 136.616,-103.727 159.763,-90.7309 179.263,-82.9344"/>
<polygon fill="midnightblue" stroke="midnightblue" points="180.599,-86.1723 188.761,-79.418 178.168,-79.6078 180.599,-86.1723"/>
</g>
<!-- Node17&#45;&gt;Node13 -->
<g id="edge30" class="edge"><title>Node17&#45;&gt;Node13</title>
<path fill="none" stroke="midnightblue" d="M575.057,-266.451C615.225,-256.754 675.036,-240.179 692,-224 748.194,-170.405 789.358,-115.95 740,-56 734.604,-49.4456 638.449,-32.3051 572.193,-21.1713"/>
<polygon fill="midnightblue" stroke="midnightblue" points="572.682,-17.7046 562.242,-19.5064 571.527,-24.6086 572.682,-17.7046"/>
</g>
<!-- Node17&#45;&gt;Node14 -->
<g id="edge37" class="edge"><title>Node17&#45;&gt;Node14</title>
<path fill="none" stroke="midnightblue" d="M578.774,-266.451C606.202,-259.066 641.419,-246.007 666,-224 691.478,-201.191 693.757,-189.188 702,-156 705.428,-142.197 709.591,-136.027 702,-124 692.497,-108.944 677.196,-98.239 661.101,-90.6644"/>
<polygon fill="midnightblue" stroke="midnightblue" points="662.139,-87.3008 651.571,-86.5571 659.369,-93.7292 662.139,-87.3008"/>
</g>
<!-- Node18 -->
<g id="node18" class="node"><title>Node18</title>
<polygon fill="white" stroke="#bfbfbf" points="134.5,-130.5 134.5,-149.5 183.5,-149.5 183.5,-130.5 134.5,-130.5"/>
<text text-anchor="middle" x="159" y="-137.5" font-family="Helvetica,sans-Serif" font-size="10.00">cstddef</text>
</g>
<!-- Node17&#45;&gt;Node18 -->
<g id="edge19" class="edge"><title>Node17&#45;&gt;Node18</title>
<path fill="none" stroke="midnightblue" d="M478.874,-270.054C427.804,-264.066 352.43,-251.168 292,-224 270.272,-214.232 268.957,-205.009 249,-192 227.86,-178.22 202.814,-164.203 184.517,-154.361"/>
<polygon fill="midnightblue" stroke="midnightblue" points="186.092,-151.234 175.621,-149.617 182.799,-157.411 186.092,-151.234"/>
</g>
<!-- Node19 -->
<g id="node19" class="node"><title>Node19</title>
<polygon fill="white" stroke="#bfbfbf" points="603,-198.5 603,-217.5 657,-217.5 657,-198.5 603,-198.5"/>
<text text-anchor="middle" x="630" y="-205.5" font-family="Helvetica,sans-Serif" font-size="10.00">iostream</text>
</g>
<!-- Node17&#45;&gt;Node19 -->
<g id="edge22" class="edge"><title>Node17&#45;&gt;Node19</title>
<path fill="none" stroke="midnightblue" d="M549.158,-266.372C564.475,-255.502 591.024,-236.66 609.501,-223.547"/>
<polygon fill="midnightblue" stroke="midnightblue" points="611.709,-226.272 617.839,-217.63 607.658,-220.564 611.709,-226.272"/>
</g>
<!-- Node20 -->
<g id="node20" class="node"><title>Node20</title>
<polygon fill="white" stroke="#bfbfbf" points="751.5,-198.5 751.5,-217.5 786.5,-217.5 786.5,-198.5 751.5,-198.5"/>
<text text-anchor="middle" x="769" y="-205.5" font-family="Helvetica,sans-Serif" font-size="10.00">map</text>
</g>
<!-- Node17&#45;&gt;Node20 -->
<g id="edge24" class="edge"><title>Node17&#45;&gt;Node20</title>
<path fill="none" stroke="midnightblue" d="M573.854,-266.483C622.966,-254.981 707.146,-234.695 737,-224 738.906,-223.317 740.853,-222.561 742.797,-221.762"/>
<polygon fill="midnightblue" stroke="midnightblue" points="744.585,-224.798 752.311,-217.548 741.751,-218.398 744.585,-224.798"/>
</g>
<!-- Node21 -->
<g id="node21" class="node"><title>Node21</title>
<polygon fill="white" stroke="#bfbfbf" points="374,-130.5 374,-149.5 426,-149.5 426,-130.5 374,-130.5"/>
<text text-anchor="middle" x="400" y="-137.5" font-family="Helvetica,sans-Serif" font-size="10.00">memory</text>
</g>
<!-- Node17&#45;&gt;Node21 -->
<g id="edge25" class="edge"><title>Node17&#45;&gt;Node21</title>
<path fill="none" stroke="midnightblue" d="M531.84,-266.257C522.119,-250.261 499.825,-215.746 475,-192 459.829,-177.488 440.117,-164.259 424.709,-154.912"/>
<polygon fill="midnightblue" stroke="midnightblue" points="426.141,-151.693 415.751,-149.618 422.579,-157.719 426.141,-151.693"/>
</g>
<!-- Node22 -->
<g id="node22" class="node"><title>Node22</title>
<polygon fill="white" stroke="#bfbfbf" points="805,-198.5 805,-217.5 835,-217.5 835,-198.5 805,-198.5"/>
<text text-anchor="middle" x="820" y="-205.5" font-family="Helvetica,sans-Serif" font-size="10.00">set</text>
</g>
<!-- Node17&#45;&gt;Node22 -->
<g id="edge26" class="edge"><title>Node17&#45;&gt;Node22</title>
<path fill="none" stroke="midnightblue" d="M577.344,-266.49C587.659,-264.343 598.735,-262.063 609,-260 691.551,-243.413 716.37,-254.118 795,-224 796.223,-223.532 797.454,-223.005 798.679,-222.436"/>
<polygon fill="midnightblue" stroke="midnightblue" points="800.6,-225.376 807.72,-217.53 797.261,-219.223 800.6,-225.376"/>
</g>
<!-- Node23 -->
<g id="node23" class="node"><title>Node23</title>
<polygon fill="white" stroke="#bfbfbf" points="853,-198.5 853,-217.5 931,-217.5 931,-198.5 853,-198.5"/>
<text text-anchor="middle" x="892" y="-205.5" font-family="Helvetica,sans-Serif" font-size="10.00">unordered_set</text>
</g>
<!-- Node17&#45;&gt;Node23 -->
<g id="edge27" class="edge"><title>Node17&#45;&gt;Node23</title>
<path fill="none" stroke="midnightblue" d="M576.163,-266.45C586.795,-264.235 598.32,-261.933 609,-260 712.542,-241.263 740.425,-247.461 843,-224 847.462,-222.979 852.11,-221.763 856.689,-220.471"/>
<polygon fill="midnightblue" stroke="midnightblue" points="857.907,-223.761 866.503,-217.568 855.921,-217.048 857.907,-223.761"/>
</g>
<!-- Node24 -->
<g id="node24" class="node"><title>Node24</title>
<g id="a_node24"><a xlink:href="handle_8h.html" target="_top" xlink:title="shad/runtime/handle.h">
<polygon fill="white" stroke="black" points="580.5,-130.5 580.5,-149.5 693.5,-149.5 693.5,-130.5 580.5,-130.5"/>
<text text-anchor="middle" x="637" y="-137.5" font-family="Helvetica,sans-Serif" font-size="10.00">shad/runtime/handle.h</text>
</a>
</g>
</g>
<!-- Node17&#45;&gt;Node24 -->
<g id="edge31" class="edge"><title>Node17&#45;&gt;Node24</title>
<path fill="none" stroke="midnightblue" d="M542.713,-266.075C552.678,-250.649 574.082,-218.139 594,-192 603.012,-180.173 613.8,-167.381 622.316,-157.567"/>
<polygon fill="midnightblue" stroke="midnightblue" points="625.157,-159.636 629.113,-149.808 619.891,-155.024 625.157,-159.636"/>
</g>
<!-- Node26 -->
<g id="node26" class="node"><title>Node26</title>
<g id="a_node26"><a xlink:href="available__mappings_8h.html" target="_top" xlink:title="shad/runtime/mappings\l/available_mappings.h">
<polygon fill="white" stroke="black" points="444,-125 444,-155 562,-155 562,-125 444,-125"/>
<text text-anchor="start" x="452" y="-143" font-family="Helvetica,sans-Serif" font-size="10.00">shad/runtime/mappings</text>
<text text-anchor="middle" x="503" y="-132" font-family="Helvetica,sans-Serif" font-size="10.00">/available_mappings.h</text>
</a>
</g>
</g>
<!-- Node17&#45;&gt;Node26 -->
<g id="edge38" class="edge"><title>Node17&#45;&gt;Node26</title>
<path fill="none" stroke="midnightblue" d="M534.769,-266.208C529.615,-245.895 516.735,-195.132 509.051,-164.846"/>
<polygon fill="midnightblue" stroke="midnightblue" points="512.422,-163.903 506.57,-155.071 505.637,-165.625 512.422,-163.903"/>
</g>
<!-- Node27 -->
<g id="node27" class="node"><title>Node27</title>
<g id="a_node27"><a xlink:href="synchronous__interface_8h.html" target="_top" xlink:title="shad/runtime/synchronous\l_interface.h">
<polygon fill="white" stroke="black" points="301.5,-193 301.5,-223 432.5,-223 432.5,-193 301.5,-193"/>
<text text-anchor="start" x="309.5" y="-211" font-family="Helvetica,sans-Serif" font-size="10.00">shad/runtime/synchronous</text>
<text text-anchor="middle" x="367" y="-200" font-family="Helvetica,sans-Serif" font-size="10.00">_interface.h</text>
</a>
</g>
</g>
<!-- Node17&#45;&gt;Node27 -->
<g id="edge40" class="edge"><title>Node17&#45;&gt;Node27</title>
<path fill="none" stroke="midnightblue" d="M514.775,-266.372C488.972,-256.354 445.731,-239.566 412.671,-226.731"/>
<polygon fill="midnightblue" stroke="midnightblue" points="413.794,-223.413 403.205,-223.056 411.261,-229.938 413.794,-223.413"/>
</g>
<!-- Node24&#45;&gt;Node13 -->
<g id="edge33" class="edge"><title>Node24&#45;&gt;Node13</title>
<path fill="none" stroke="midnightblue" d="M601.28,-130.442C577.759,-123.01 548.078,-109.901 530,-88 516.427,-71.5567 511.951,-46.9445 510.536,-29.995"/>
<polygon fill="midnightblue" stroke="midnightblue" points="514.013,-29.4733 509.971,-19.6795 507.023,-29.8558 514.013,-29.4733"/>
</g>
<!-- Node24&#45;&gt;Node14 -->
<g id="edge34" class="edge"><title>Node24&#45;&gt;Node14</title>
<path fill="none" stroke="midnightblue" d="M631.509,-130.372C625.945,-121.629 617.1,-107.729 609.509,-95.8006"/>
<polygon fill="midnightblue" stroke="midnightblue" points="612.346,-93.739 604.025,-87.1815 606.441,-97.4972 612.346,-93.739"/>
</g>
<!-- Node24&#45;&gt;Node16 -->
<g id="edge35" class="edge"><title>Node24&#45;&gt;Node16</title>
<path fill="none" stroke="midnightblue" d="M607.585,-130.372C572.701,-120.139 513.736,-102.842 469.65,-89.9105"/>
<polygon fill="midnightblue" stroke="midnightblue" points="470.5,-86.5125 459.919,-87.0562 468.529,-93.2295 470.5,-86.5125"/>
</g>
<!-- Node25 -->
<g id="node25" class="node"><title>Node25</title>
<polygon fill="white" stroke="#bfbfbf" points="670,-62.5 670,-81.5 732,-81.5 732,-62.5 670,-62.5"/>
<text text-anchor="middle" x="701" y="-69.5" font-family="Helvetica,sans-Serif" font-size="10.00">type_traits</text>
</g>
<!-- Node24&#45;&gt;Node25 -->
<g id="edge32" class="edge"><title>Node24&#45;&gt;Node25</title>
<path fill="none" stroke="midnightblue" d="M645.367,-130.372C655.468,-119.955 672.668,-102.217 685.275,-89.2162"/>
<polygon fill="midnightblue" stroke="midnightblue" points="687.978,-91.4567 692.427,-81.8411 682.953,-86.5836 687.978,-91.4567"/>
</g>
<!-- Node26&#45;&gt;Node16 -->
<g id="edge39" class="edge"><title>Node26&#45;&gt;Node16</title>
<path fill="none" stroke="midnightblue" d="M483.254,-124.679C470.527,-115.449 453.792,-103.311 439.739,-93.1181"/>
<polygon fill="midnightblue" stroke="midnightblue" points="441.544,-90.1042 431.394,-87.0663 437.435,-95.7708 441.544,-90.1042"/>
</g>
<!-- Node27&#45;&gt;Node11 -->
<g id="edge44" class="edge"><title>Node27&#45;&gt;Node11</title>
<path fill="none" stroke="midnightblue" d="M352.028,-192.679C341.056,-182.184 326.156,-167.932 314.782,-157.052"/>
<polygon fill="midnightblue" stroke="midnightblue" points="316.875,-154.211 307.23,-149.828 312.037,-159.27 316.875,-154.211"/>
</g>
<!-- Node27&#45;&gt;Node12 -->
<g id="edge42" class="edge"><title>Node27&#45;&gt;Node12</title>
<path fill="none" stroke="midnightblue" d="M301.168,-196.128C275.934,-188.781 248.928,-176.501 231,-156 215.447,-138.215 211.909,-110.285 211.445,-91.81"/>
<polygon fill="midnightblue" stroke="midnightblue" points="214.945,-91.7138 211.473,-81.7039 207.945,-91.6939 214.945,-91.7138"/>
</g>
<!-- Node27&#45;&gt;Node18 -->
<g id="edge41" class="edge"><title>Node27&#45;&gt;Node18</title>
<path fill="none" stroke="midnightblue" d="M316.774,-192.901C282.994,-183.16 237.574,-169.561 198,-156 195.388,-155.105 192.69,-154.144 189.991,-153.158"/>
<polygon fill="midnightblue" stroke="midnightblue" points="190.944,-149.777 180.352,-149.54 188.484,-156.331 190.944,-149.777"/>
</g>
<!-- Node27&#45;&gt;Node21 -->
<g id="edge43" class="edge"><title>Node27&#45;&gt;Node21</title>
<path fill="none" stroke="midnightblue" d="M374.161,-192.679C379.102,-182.796 385.71,-169.579 391.007,-158.986"/>
<polygon fill="midnightblue" stroke="midnightblue" points="394.244,-160.338 395.586,-149.828 387.983,-157.207 394.244,-160.338"/>
</g>
</g>
</svg>
