<?xml version="1.0" encoding="UTF-8" standalone="no"?>
<!DOCTYPE svg PUBLIC "-//W3C//DTD SVG 1.1//EN"
 "http://www.w3.org/Graphics/SVG/1.1/DTD/svg11.dtd">
<!-- Generated by graphviz version 2.36.0 (20140111.2315)
 -->
<!-- Title: include/shad/data_structures/buffer.h Pages: 1 -->
<svg width="896pt" height="186pt"
 viewBox="0.00 0.00 896.00 186.00" xmlns="http://www.w3.org/2000/svg" xmlns:xlink="http://www.w3.org/1999/xlink">
<g id="graph0" class="graph" transform="scale(1 1) rotate(0) translate(4 182)">
<title>include/shad/data_structures/buffer.h</title>
<polygon fill="white" stroke="none" points="-4,4 -4,-182 892,-182 892,4 -4,4"/>
<!-- Node1 -->
<g id="node1" class="node"><title>Node1</title>
<polygon fill="#bfbfbf" stroke="black" points="429,-147 429,-177 571,-177 571,-147 429,-147"/>
<text text-anchor="start" x="437" y="-165" font-family="Helvetica,sans-Serif" font-size="10.00">include/shad/data_structures</text>
<text text-anchor="middle" x="500" y="-154" font-family="Helvetica,sans-Serif" font-size="10.00">/buffer.h</text>
</g>
<!-- Node2 -->
<g id="node2" class="node"><title>Node2</title>
<g id="a_node2"><a xlink:href="data__structures_2array_8h.html" target="_top" xlink:title="include/shad/data_structures\l/array.h">
<polygon fill="white" stroke="black" points="112,-79 112,-109 254,-109 254,-79 112,-79"/>
<text text-anchor="start" x="120" y="-97" font-family="Helvetica,sans-Serif" font-size="10.00">include/shad/data_structures</text>
<text text-anchor="middle" x="183" y="-86" font-family="Helvetica,sans-Serif" font-size="10.00">/array.h</text>
</a>
</g>
</g>
<!-- Node1&#45;&gt;Node2 -->
<g id="edge1" class="edge"><title>Node1&#45;&gt;Node2</title>
<path fill="none" stroke="midnightblue" d="M422.42,-144.848C369.784,-133.889 300.88,-119.543 250.512,-109.056"/>
<polygon fill="midnightblue" stroke="midnightblue" points="421.881,-148.31 432.384,-146.922 423.308,-141.457 421.881,-148.31"/>
</g>
<!-- Node5 -->
<g id="node5" class="node"><title>Node5</title>
<g id="a_node5"><a xlink:href="hashmap_8h.html" target="_top" xlink:title="include/shad/data_structures\l/hashmap.h">
<polygon fill="white" stroke="black" points="586,-79 586,-109 728,-109 728,-79 586,-79"/>
<text text-anchor="start" x="594" y="-97" font-family="Helvetica,sans-Serif" font-size="10.00">include/shad/data_structures</text>
<text text-anchor="middle" x="657" y="-86" font-family="Helvetica,sans-Serif" font-size="10.00">/hashmap.h</text>
</a>
</g>
</g>
<!-- Node1&#45;&gt;Node5 -->
<g id="edge4" class="edge"><title>Node1&#45;&gt;Node5</title>
<path fill="none" stroke="midnightblue" d="M543.08,-142.89C568.485,-132.21 600.151,-118.898 623.645,-109.022"/>
<polygon fill="midnightblue" stroke="midnightblue" points="541.543,-139.739 533.68,-146.841 544.255,-146.192 541.543,-139.739"/>
</g>
<!-- Node7 -->
<g id="node7" class="node"><title>Node7</title>
<g id="a_node7"><a xlink:href="set_8h.html" target="_top" xlink:title="include/shad/data_structures\l/set.h">
<polygon fill="white" stroke="black" points="272,-79 272,-109 414,-109 414,-79 272,-79"/>
<text text-anchor="start" x="280" y="-97" font-family="Helvetica,sans-Serif" font-size="10.00">include/shad/data_structures</text>
<text text-anchor="middle" x="343" y="-86" font-family="Helvetica,sans-Serif" font-size="10.00">/set.h</text>
</a>
</g>
</g>
<!-- Node1&#45;&gt;Node7 -->
<g id="edge6" class="edge"><title>Node1&#45;&gt;Node7</title>
<path fill="none" stroke="midnightblue" d="M456.92,-142.89C431.515,-132.21 399.849,-118.898 376.355,-109.022"/>
<polygon fill="midnightblue" stroke="midnightblue" points="455.745,-146.192 466.32,-146.841 458.457,-139.739 455.745,-146.192"/>
</g>
<!-- Node9 -->
<g id="node9" class="node"><title>Node9</title>
<g id="a_node9"><a xlink:href="vector_8h.html" target="_top" xlink:title="include/shad/data_structures\l/vector.h">
<polygon fill="white" stroke="black" points="746,-79 746,-109 888,-109 888,-79 746,-79"/>
<text text-anchor="start" x="754" y="-97" font-family="Helvetica,sans-Serif" font-size="10.00">include/shad/data_structures</text>
<text text-anchor="middle" x="817" y="-86" font-family="Helvetica,sans-Serif" font-size="10.00">/vector.h</text>
</a>
</g>
</g>
<!-- Node1&#45;&gt;Node9 -->
<g id="edge9" class="edge"><title>Node1&#45;&gt;Node9</title>
<path fill="none" stroke="midnightblue" d="M577.58,-144.848C630.216,-133.889 699.12,-119.543 749.488,-109.056"/>
<polygon fill="midnightblue" stroke="midnightblue" points="576.692,-141.457 567.616,-146.922 578.119,-148.31 576.692,-141.457"/>
</g>
<!-- Node10 -->
<g id="node10" class="node"><title>Node10</title>
<g id="a_node10"><a xlink:href="edge__index_8h.html" target="_top" xlink:title="include/shad/extensions\l/graph_library/edge_index.h">
<polygon fill="white" stroke="black" points="432,-79 432,-109 568,-109 568,-79 432,-79"/>
<text text-anchor="start" x="440" y="-97" font-family="Helvetica,sans-Serif" font-size="10.00">include/shad/extensions</text>
<text text-anchor="middle" x="500" y="-86" font-family="Helvetica,sans-Serif" font-size="10.00">/graph_library/edge_index.h</text>
</a>
</g>
</g>
<!-- Node1&#45;&gt;Node10 -->
<g id="edge10" class="edge"><title>Node1&#45;&gt;Node10</title>
<path fill="none" stroke="midnightblue" d="M500,-136.532C500,-127.361 500,-117.245 500,-109.293"/>
<polygon fill="midnightblue" stroke="midnightblue" points="496.5,-136.679 500,-146.679 503.5,-136.679 496.5,-136.679"/>
</g>
<!-- Node3 -->
<g id="node3" class="node"><title>Node3</title>
<g id="a_node3"><a xlink:href="core_2array_8h.html" target="_top" xlink:title="include/shad/core/array.h">
<polygon fill="white" stroke="black" points="0,-11.5 0,-30.5 126,-30.5 126,-11.5 0,-11.5"/>
<text text-anchor="middle" x="63" y="-18.5" font-family="Helvetica,sans-Serif" font-size="10.00">include/shad/core/array.h</text>
</a>
</g>
</g>
<!-- Node2&#45;&gt;Node3 -->
<g id="edge2" class="edge"><title>Node2&#45;&gt;Node3</title>
<path fill="none" stroke="midnightblue" d="M150.581,-73.8185C126.795,-59.7455 95.6187,-41.2994 77.5981,-30.6372"/>
<polygon fill="midnightblue" stroke="midnightblue" points="148.903,-76.8928 159.292,-78.9727 152.468,-70.8683 148.903,-76.8928"/>
</g>
<!-- Node4 -->
<g id="node4" class="node"><title>Node4</title>
<g id="a_node4"><a xlink:href="sssp_8h.html" target="_top" xlink:title="include/shad/extensions\l/graph_library/algorithms\l/sssp.h">
<polygon fill="white" stroke="black" points="301.5,-0.5 301.5,-41.5 424.5,-41.5 424.5,-0.5 301.5,-0.5"/>
<text text-anchor="start" x="309.5" y="-29.5" font-family="Helvetica,sans-Serif" font-size="10.00">include/shad/extensions</text>
<text text-anchor="start" x="309.5" y="-18.5" font-family="Helvetica,sans-Serif" font-size="10.00">/graph_library/algorithms</text>
<text text-anchor="middle" x="363" y="-7.5" font-family="Helvetica,sans-Serif" font-size="10.00">/sssp.h</text>
</a>
</g>
</g>
<!-- Node2&#45;&gt;Node4 -->
<g id="edge3" class="edge"><title>Node2&#45;&gt;Node4</title>
<path fill="none" stroke="midnightblue" d="M228.17,-75.1828C254.165,-64.9293 286.861,-52.0328 313.544,-41.5075"/>
<polygon fill="midnightblue" stroke="midnightblue" points="226.58,-72.0474 218.562,-78.9727 229.149,-78.5592 226.58,-72.0474"/>
</g>
<!-- Node6 -->
<g id="node6" class="node"><title>Node6</title>
<g id="a_node6"><a xlink:href="unordered__map_8h.html" target="_top" xlink:title="include/shad/core/unordered\l_map.h">
<polygon fill="white" stroke="black" points="587.5,-6 587.5,-36 726.5,-36 726.5,-6 587.5,-6"/>
<text text-anchor="start" x="595.5" y="-24" font-family="Helvetica,sans-Serif" font-size="10.00">include/shad/core/unordered</text>
<text text-anchor="middle" x="657" y="-13" font-family="Helvetica,sans-Serif" font-size="10.00">_map.h</text>
</a>
</g>
</g>
<!-- Node5&#45;&gt;Node6 -->
<g id="edge5" class="edge"><title>Node5&#45;&gt;Node6</title>
<path fill="none" stroke="midnightblue" d="M657,-68.8976C657,-58.1314 657,-45.8005 657,-36.4856"/>
<polygon fill="midnightblue" stroke="midnightblue" points="653.5,-68.9727 657,-78.9727 660.5,-68.9727 653.5,-68.9727"/>
</g>
<!-- Node7&#45;&gt;Node4 -->
<g id="edge8" class="edge"><title>Node7&#45;&gt;Node4</title>
<path fill="none" stroke="midnightblue" d="M349.72,-69.1453C352.238,-60.2054 355.068,-50.1575 357.467,-41.642"/>
<polygon fill="midnightblue" stroke="midnightblue" points="346.294,-68.3983 346.951,-78.9727 353.032,-70.2963 346.294,-68.3983"/>
</g>
<!-- Node8 -->
<g id="node8" class="node"><title>Node8</title>
<g id="a_node8"><a xlink:href="unordered__set_8h.html" target="_top" xlink:title="include/shad/core/unordered\l_set.h">
<polygon fill="white" stroke="black" points="144.5,-6 144.5,-36 283.5,-36 283.5,-6 144.5,-6"/>
<text text-anchor="start" x="152.5" y="-24" font-family="Helvetica,sans-Serif" font-size="10.00">include/shad/core/unordered</text>
<text text-anchor="middle" x="214" y="-13" font-family="Helvetica,sans-Serif" font-size="10.00">_set.h</text>
</a>
</g>
</g>
<!-- Node7&#45;&gt;Node8 -->
<g id="edge7" class="edge"><title>Node7&#45;&gt;Node8</title>
<path fill="none" stroke="midnightblue" d="M308.653,-74.0959C287.055,-62.2085 259.636,-47.1176 239.875,-36.2412"/>
<polygon fill="midnightblue" stroke="midnightblue" points="307.065,-77.2171 317.514,-78.9727 310.441,-71.0846 307.065,-77.2171"/>
</g>
<!-- Node10&#45;&gt;Node4 -->
<g id="edge11" class="edge"><title>Node10&#45;&gt;Node4</title>
<path fill="none" stroke="midnightblue" d="M464.041,-74.3643C444.523,-64.2492 420.414,-51.7546 400.641,-41.5075"/>
<polygon fill="midnightblue" stroke="midnightblue" points="462.444,-77.4788 472.933,-78.9727 465.665,-71.2639 462.444,-77.4788"/>
</g>
<!-- Node11 -->
<g id="node11" class="node"><title>Node11</title>
<g id="a_node11"><a xlink:href="attributed__edge__index_8h.html" target="_top" xlink:title="include/shad/extensions\l/graph_library/attributed\l_edge_index.h">
<polygon fill="white" stroke="black" points="443,-0.5 443,-41.5 565,-41.5 565,-0.5 443,-0.5"/>
<text text-anchor="start" x="451" y="-29.5" font-family="Helvetica,sans-Serif" font-size="10.00">include/shad/extensions</text>
<text text-anchor="start" x="451" y="-18.5" font-family="Helvetica,sans-Serif" font-size="10.00">/graph_library/attributed</text>
<text text-anchor="middle" x="504" y="-7.5" font-family="Helvetica,sans-Serif" font-size="10.00">_edge_index.h</text>
</a>
</g>
</g>
<!-- Node10&#45;&gt;Node11 -->
<g id="edge12" class="edge"><title>Node10&#45;&gt;Node11</title>
<path fill="none" stroke="midnightblue" d="M501.36,-68.8534C501.86,-59.9872 502.419,-50.065 502.893,-41.642"/>
<polygon fill="midnightblue" stroke="midnightblue" points="497.858,-68.7916 500.79,-78.9727 504.847,-69.1854 497.858,-68.7916"/>
</g>
</g>
</svg>
