<?xml version="1.0" encoding="UTF-8" standalone="no"?>
<!DOCTYPE svg PUBLIC "-//W3C//DTD SVG 1.1//EN"
 "http://www.w3.org/Graphics/SVG/1.1/DTD/svg11.dtd">
<!-- Generated by graphviz version 2.36.0 (20140111.2315)
 -->
<!-- Title: include/shad/data_structures/array.h Pages: 1 -->
<svg width="275pt" height="118pt"
 viewBox="0.00 0.00 275.00 118.00" xmlns="http://www.w3.org/2000/svg" xmlns:xlink="http://www.w3.org/1999/xlink">
<g id="graph0" class="graph" transform="scale(1 1) rotate(0) translate(4 114)">
<title>include/shad/data_structures/array.h</title>
<polygon fill="white" stroke="none" points="-4,4 -4,-114 271,-114 271,4 -4,4"/>
<!-- Node1 -->
<g id="node1" class="node"><title>Node1</title>
<polygon fill="#bfbfbf" stroke="black" points="63,-79 63,-109 205,-109 205,-79 63,-79"/>
<text text-anchor="start" x="71" y="-97" font-family="Helvetica,sans-Serif" font-size="10.00">include/shad/data_structures</text>
<text text-anchor="middle" x="134" y="-86" font-family="Helvetica,sans-Serif" font-size="10.00">/array.h</text>
</g>
<!-- Node2 -->
<g id="node2" class="node"><title>Node2</title>
<g id="a_node2"><a xlink:href="core_2array_8h.html" target="_top" xlink:title="include/shad/core/array.h">
<polygon fill="white" stroke="black" points="0,-11.5 0,-30.5 126,-30.5 126,-11.5 0,-11.5"/>
<text text-anchor="middle" x="63" y="-18.5" font-family="Helvetica,sans-Serif" font-size="10.00">include/shad/core/array.h</text>
</a>
</g>
</g>
<!-- Node1&#45;&gt;Node2 -->
<g id="edge1" class="edge"><title>Node1&#45;&gt;Node2</title>
<path fill="none" stroke="midnightblue" d="M112.743,-71.7432C98.976,-57.976 81.7828,-40.7828 71.6372,-30.6372"/>
<polygon fill="midnightblue" stroke="midnightblue" points="110.427,-74.3765 119.973,-78.9727 115.376,-69.4267 110.427,-74.3765"/>
</g>
<!-- Node3 -->
<g id="node3" class="node"><title>Node3</title>
<g id="a_node3"><a xlink:href="sssp_8h.html" target="_top" xlink:title="include/shad/extensions\l/graph_library/algorithms\l/sssp.h">
<polygon fill="white" stroke="black" points="144.5,-0.5 144.5,-41.5 267.5,-41.5 267.5,-0.5 144.5,-0.5"/>
<text text-anchor="start" x="152.5" y="-29.5" font-family="Helvetica,sans-Serif" font-size="10.00">include/shad/extensions</text>
<text text-anchor="start" x="152.5" y="-18.5" font-family="Helvetica,sans-Serif" font-size="10.00">/graph_library/algorithms</text>
<text text-anchor="middle" x="206" y="-7.5" font-family="Helvetica,sans-Serif" font-size="10.00">/sssp.h</text>
</a>
</g>
</g>
<!-- Node1&#45;&gt;Node3 -->
<g id="edge2" class="edge"><title>Node1&#45;&gt;Node3</title>
<path fill="none" stroke="midnightblue" d="M155.565,-71.7346C165.248,-62.186 176.601,-50.9906 186.081,-41.642"/>
<polygon fill="midnightblue" stroke="midnightblue" points="152.888,-69.4591 148.225,-78.9727 157.803,-74.4433 152.888,-69.4591"/>
</g>
</g>
</svg>
