<?xml version="1.0" encoding="UTF-8" standalone="no"?>
<!DOCTYPE svg PUBLIC "-//W3C//DTD SVG 1.1//EN"
 "http://www.w3.org/Graphics/SVG/1.1/DTD/svg11.dtd">
<!-- Generated by graphviz version 2.36.0 (20140111.2315)
 -->
<!-- Title: include/shad/data_structures/array.h Pages: 1 -->
<svg width="1363pt" height="504pt"
 viewBox="0.00 0.00 1363.24 504.00" xmlns="http://www.w3.org/2000/svg" xmlns:xlink="http://www.w3.org/1999/xlink">
<g id="graph0" class="graph" transform="scale(1 1) rotate(0) translate(4 500)">
<title>include/shad/data_structures/array.h</title>
<polygon fill="white" stroke="none" points="-4,4 -4,-500 1359.24,-500 1359.24,4 -4,4"/>
<!-- Node1 -->
<g id="node1" class="node"><title>Node1</title>
<polygon fill="#bfbfbf" stroke="black" points="332.241,-465 332.241,-495 474.241,-495 474.241,-465 332.241,-465"/>
<text text-anchor="start" x="340.241" y="-483" font-family="Helvetica,sans-Serif" font-size="10.00">include/shad/data_structures</text>
<text text-anchor="middle" x="403.241" y="-472" font-family="Helvetica,sans-Serif" font-size="10.00">/array.h</text>
</g>
<!-- Node2 -->
<g id="node2" class="node"><title>Node2</title>
<polygon fill="white" stroke="#bfbfbf" points="680.241,-334.5 680.241,-353.5 736.241,-353.5 736.241,-334.5 680.241,-334.5"/>
<text text-anchor="middle" x="708.241" y="-341.5" font-family="Helvetica,sans-Serif" font-size="10.00">algorithm</text>
</g>
<!-- Node1&#45;&gt;Node2 -->
<g id="edge1" class="edge"><title>Node1&#45;&gt;Node2</title>
<path fill="none" stroke="midnightblue" d="M474.247,-472.289C541.537,-464.697 636.598,-450.392 666.241,-428 687.345,-412.058 698.636,-382.546 704.033,-363.35"/>
<polygon fill="midnightblue" stroke="midnightblue" points="707.424,-364.213 706.504,-353.659 700.641,-362.484 707.424,-364.213"/>
</g>
<!-- Node3 -->
<g id="node3" class="node"><title>Node3</title>
<polygon fill="white" stroke="#bfbfbf" points="30.2413,-402.5 30.2413,-421.5 76.2413,-421.5 76.2413,-402.5 30.2413,-402.5"/>
<text text-anchor="middle" x="53.2413" y="-409.5" font-family="Helvetica,sans-Serif" font-size="10.00">cstring</text>
</g>
<!-- Node1&#45;&gt;Node3 -->
<g id="edge2" class="edge"><title>Node1&#45;&gt;Node3</title>
<path fill="none" stroke="midnightblue" d="M332.025,-471.991C267.938,-464.605 171.616,-450.814 90.2413,-428 87.4257,-427.211 84.5332,-426.274 81.6658,-425.26"/>
<polygon fill="midnightblue" stroke="midnightblue" points="82.751,-421.928 72.1607,-421.617 80.2459,-428.464 82.751,-421.928"/>
</g>
<!-- Node4 -->
<g id="node4" class="node"><title>Node4</title>
<polygon fill="white" stroke="#bfbfbf" points="302.741,-198.5 302.741,-217.5 361.741,-217.5 361.741,-198.5 302.741,-198.5"/>
<text text-anchor="middle" x="332.241" y="-205.5" font-family="Helvetica,sans-Serif" font-size="10.00">functional</text>
</g>
<!-- Node1&#45;&gt;Node4 -->
<g id="edge3" class="edge"><title>Node1&#45;&gt;Node4</title>
<path fill="none" stroke="midnightblue" d="M332.029,-468.598C271.738,-455.322 190.575,-425.608 161.241,-360 130.907,-292.155 236.915,-242.641 295.689,-221.037"/>
<polygon fill="midnightblue" stroke="midnightblue" points="297.143,-224.234 305.38,-217.569 294.785,-217.643 297.143,-224.234"/>
</g>
<!-- Node5 -->
<g id="node5" class="node"><title>Node5</title>
<polygon fill="white" stroke="#bfbfbf" points="1166.74,-198.5 1166.74,-217.5 1213.74,-217.5 1213.74,-198.5 1166.74,-198.5"/>
<text text-anchor="middle" x="1190.24" y="-205.5" font-family="Helvetica,sans-Serif" font-size="10.00">iterator</text>
</g>
<!-- Node1&#45;&gt;Node5 -->
<g id="edge4" class="edge"><title>Node1&#45;&gt;Node5</title>
<path fill="none" stroke="midnightblue" d="M474.394,-474.345C579.374,-466.844 770.341,-450.603 835.241,-428 907.919,-402.689 1104.63,-268.443 1169.31,-223.599"/>
<polygon fill="midnightblue" stroke="midnightblue" points="1171.65,-226.235 1177.87,-217.655 1167.66,-220.487 1171.65,-226.235"/>
</g>
<!-- Node6 -->
<g id="node6" class="node"><title>Node6</title>
<polygon fill="white" stroke="#bfbfbf" points="329.241,-130.5 329.241,-149.5 381.241,-149.5 381.241,-130.5 329.241,-130.5"/>
<text text-anchor="middle" x="355.241" y="-137.5" font-family="Helvetica,sans-Serif" font-size="10.00">memory</text>
</g>
<!-- Node1&#45;&gt;Node6 -->
<g id="edge5" class="edge"><title>Node1&#45;&gt;Node6</title>
<path fill="none" stroke="midnightblue" d="M331.953,-478.876C234.152,-477.179 65.4316,-468.288 21.2413,-428 -6.72397,-402.504 2.24132,-382.843 2.24132,-345 2.24132,-345 2.24132,-345 2.24132,-275 2.24132,-207.767 228.886,-162.244 318.963,-146.807"/>
<polygon fill="midnightblue" stroke="midnightblue" points="319.718,-150.229 328.997,-145.115 318.555,-143.326 319.718,-150.229"/>
</g>
<!-- Node7 -->
<g id="node7" class="node"><title>Node7</title>
<polygon fill="white" stroke="#bfbfbf" points="170.241,-334.5 170.241,-353.5 208.241,-353.5 208.241,-334.5 170.241,-334.5"/>
<text text-anchor="middle" x="189.241" y="-341.5" font-family="Helvetica,sans-Serif" font-size="10.00">tuple</text>
</g>
<!-- Node1&#45;&gt;Node7 -->
<g id="edge6" class="edge"><title>Node1&#45;&gt;Node7</title>
<path fill="none" stroke="midnightblue" d="M359.998,-464.988C335.845,-456.183 305.769,-443.548 281.241,-428 250.99,-408.824 221.173,-379.482 204.021,-361.309"/>
<polygon fill="midnightblue" stroke="midnightblue" points="206.443,-358.773 197.076,-353.822 201.311,-363.534 206.443,-358.773"/>
</g>
<!-- Node8 -->
<g id="node8" class="node"><title>Node8</title>
<polygon fill="white" stroke="#bfbfbf" points="206.241,-198.5 206.241,-217.5 246.241,-217.5 246.241,-198.5 206.241,-198.5"/>
<text text-anchor="middle" x="226.241" y="-205.5" font-family="Helvetica,sans-Serif" font-size="10.00">utility</text>
</g>
<!-- Node1&#45;&gt;Node8 -->
<g id="edge7" class="edge"><title>Node1&#45;&gt;Node8</title>
<path fill="none" stroke="midnightblue" d="M332.232,-477.982C285.627,-473.866 225.832,-461.624 184.241,-428 147.953,-398.662 139.428,-372.871 152.241,-328 163.808,-287.496 193.579,-247.345 211.639,-225.599"/>
<polygon fill="midnightblue" stroke="midnightblue" points="214.541,-227.589 218.358,-217.705 209.211,-223.051 214.541,-227.589"/>
</g>
<!-- Node9 -->
<g id="node9" class="node"><title>Node9</title>
<polygon fill="white" stroke="#bfbfbf" points="380.241,-198.5 380.241,-217.5 424.241,-217.5 424.241,-198.5 380.241,-198.5"/>
<text text-anchor="middle" x="402.241" y="-205.5" font-family="Helvetica,sans-Serif" font-size="10.00">vector</text>
</g>
<!-- Node1&#45;&gt;Node9 -->
<g id="edge8" class="edge"><title>Node1&#45;&gt;Node9</title>
<path fill="none" stroke="midnightblue" d="M412.541,-464.896C418.605,-454.989 426.129,-441.2 430.241,-428 452.55,-356.39 472.377,-330.304 446.241,-260 441.148,-246.299 430.538,-233.818 421.013,-224.633"/>
<polygon fill="midnightblue" stroke="midnightblue" points="423.171,-221.865 413.413,-217.738 418.468,-227.049 423.171,-221.865"/>
</g>
<!-- Node10 -->
<g id="node10" class="node"><title>Node10</title>
<g id="a_node10"><a xlink:href="abstract__data__structure_8h.html" target="_top" xlink:title="shad/data_structures\l/abstract_data_structure.h">
<polygon fill="white" stroke="black" points="290.741,-397 290.741,-427 421.741,-427 421.741,-397 290.741,-397"/>
<text text-anchor="start" x="298.741" y="-415" font-family="Helvetica,sans-Serif" font-size="10.00">shad/data_structures</text>
<text text-anchor="middle" x="356.241" y="-404" font-family="Helvetica,sans-Serif" font-size="10.00">/abstract_data_structure.h</text>
</a>
</g>
</g>
<!-- Node1&#45;&gt;Node10 -->
<g id="edge9" class="edge"><title>Node1&#45;&gt;Node10</title>
<path fill="none" stroke="midnightblue" d="M393.043,-464.679C387.007,-456.203 379.226,-445.276 372.374,-435.655"/>
<polygon fill="midnightblue" stroke="midnightblue" points="375.071,-433.408 366.42,-427.293 369.369,-437.469 375.071,-433.408"/>
</g>
<!-- Node15 -->
<g id="node15" class="node"><title>Node15</title>
<g id="a_node15"><a xlink:href="runtime_8h.html" target="_top" xlink:title="shad/runtime/runtime.h">
<polygon fill="white" stroke="black" points="702.241,-266.5 702.241,-285.5 818.241,-285.5 818.241,-266.5 702.241,-266.5"/>
<text text-anchor="middle" x="760.241" y="-273.5" font-family="Helvetica,sans-Serif" font-size="10.00">shad/runtime/runtime.h</text>
</a>
</g>
</g>
<!-- Node1&#45;&gt;Node15 -->
<g id="edge63" class="edge"><title>Node1&#45;&gt;Node15</title>
<path fill="none" stroke="midnightblue" d="M435.75,-464.965C481.488,-444.61 566.685,-404.436 633.241,-360 651.604,-347.74 653.145,-340.651 671.241,-328 691.625,-313.75 716.255,-299.87 734.433,-290.197"/>
<polygon fill="midnightblue" stroke="midnightblue" points="736.069,-293.291 743.294,-285.542 732.813,-287.094 736.069,-293.291"/>
</g>
<!-- Node31 -->
<g id="node31" class="node"><title>Node31</title>
<g id="a_node31"><a xlink:href="buffer_8h.html" target="_top" xlink:title="shad/data_structures\l/buffer.h">
<polygon fill="white" stroke="black" points="718.241,-397 718.241,-427 826.241,-427 826.241,-397 718.241,-397"/>
<text text-anchor="start" x="726.241" y="-415" font-family="Helvetica,sans-Serif" font-size="10.00">shad/data_structures</text>
<text text-anchor="middle" x="772.241" y="-404" font-family="Helvetica,sans-Serif" font-size="10.00">/buffer.h</text>
</a>
</g>
</g>
<!-- Node1&#45;&gt;Node31 -->
<g id="edge53" class="edge"><title>Node1&#45;&gt;Node31</title>
<path fill="none" stroke="midnightblue" d="M474.272,-467.977C535.379,-458.253 625.817,-443.284 704.241,-428 705.51,-427.753 706.79,-427.5 708.081,-427.243"/>
<polygon fill="midnightblue" stroke="midnightblue" points="709.004,-430.627 718.101,-425.195 707.603,-423.768 709.004,-430.627"/>
</g>
<!-- Node33 -->
<g id="node33" class="node"><title>Node33</title>
<g id="a_node33"><a xlink:href="distributed__iterator__traits_8h.html" target="_top" xlink:title="shad/distributed_iterator\l_traits.h">
<polygon fill="white" stroke="black" points="1129.74,-261 1129.74,-291 1250.74,-291 1250.74,-261 1129.74,-261"/>
<text text-anchor="start" x="1137.74" y="-279" font-family="Helvetica,sans-Serif" font-size="10.00">shad/distributed_iterator</text>
<text text-anchor="middle" x="1190.24" y="-268" font-family="Helvetica,sans-Serif" font-size="10.00">_traits.h</text>
</a>
</g>
</g>
<!-- Node1&#45;&gt;Node33 -->
<g id="edge60" class="edge"><title>Node1&#45;&gt;Node33</title>
<path fill="none" stroke="midnightblue" d="M474.285,-479.154C617.212,-478.51 934.222,-471.988 1032.24,-428 1095.8,-399.479 1149.46,-334.204 1174.73,-299.561"/>
<polygon fill="midnightblue" stroke="midnightblue" points="1177.84,-301.226 1180.81,-291.055 1172.14,-297.154 1177.84,-301.226"/>
</g>
<!-- Node10&#45;&gt;Node6 -->
<g id="edge12" class="edge"><title>Node10&#45;&gt;Node6</title>
<path fill="none" stroke="midnightblue" d="M349.573,-396.878C330.031,-354.633 275.375,-229.831 293.241,-192 300.689,-176.231 315.668,-163.693 329.036,-154.995"/>
<polygon fill="midnightblue" stroke="midnightblue" points="331.195,-157.779 337.922,-149.594 327.559,-151.797 331.195,-157.779"/>
</g>
<!-- Node10&#45;&gt;Node7 -->
<g id="edge13" class="edge"><title>Node10&#45;&gt;Node7</title>
<path fill="none" stroke="midnightblue" d="M317.285,-396.911C290.407,-387.01 253.945,-373.223 222.241,-360 220.604,-359.317 218.927,-358.603 217.24,-357.872"/>
<polygon fill="midnightblue" stroke="midnightblue" points="218.212,-354.475 207.652,-353.616 215.372,-360.872 218.212,-354.475"/>
</g>
<!-- Node10&#45;&gt;Node8 -->
<g id="edge14" class="edge"><title>Node10&#45;&gt;Node8</title>
<path fill="none" stroke="midnightblue" d="M307.86,-396.986C288.735,-389.089 268.257,-377.248 255.241,-360 225.299,-320.322 223.572,-258.474 224.856,-227.701"/>
<polygon fill="midnightblue" stroke="midnightblue" points="228.36,-227.725 225.443,-217.54 221.372,-227.321 228.36,-227.725"/>
</g>
<!-- Node10&#45;&gt;Node9 -->
<g id="edge15" class="edge"><title>Node10&#45;&gt;Node9</title>
<path fill="none" stroke="midnightblue" d="M358.963,-396.781C364.167,-369.936 376.093,-309.996 388.241,-260 390.888,-249.109 394.193,-237.01 396.928,-227.33"/>
<polygon fill="midnightblue" stroke="midnightblue" points="400.319,-228.2 399.707,-217.622 393.59,-226.273 400.319,-228.2"/>
</g>
<!-- Node11 -->
<g id="node11" class="node"><title>Node11</title>
<polygon fill="white" stroke="#bfbfbf" points="264.741,-334.5 264.741,-353.5 307.741,-353.5 307.741,-334.5 264.741,-334.5"/>
<text text-anchor="middle" x="286.241" y="-341.5" font-family="Helvetica,sans-Serif" font-size="10.00">deque</text>
</g>
<!-- Node10&#45;&gt;Node11 -->
<g id="edge10" class="edge"><title>Node10&#45;&gt;Node11</title>
<path fill="none" stroke="midnightblue" d="M341.052,-396.679C329.814,-386.082 314.511,-371.655 302.931,-360.736"/>
<polygon fill="midnightblue" stroke="midnightblue" points="305.282,-358.142 295.605,-353.828 300.48,-363.235 305.282,-358.142"/>
</g>
<!-- Node12 -->
<g id="node12" class="node"><title>Node12</title>
<polygon fill="white" stroke="#bfbfbf" points="397.241,-266.5 397.241,-285.5 437.241,-285.5 437.241,-266.5 397.241,-266.5"/>
<text text-anchor="middle" x="417.241" y="-273.5" font-family="Helvetica,sans-Serif" font-size="10.00">limits</text>
</g>
<!-- Node10&#45;&gt;Node12 -->
<g id="edge11" class="edge"><title>Node10&#45;&gt;Node12</title>
<path fill="none" stroke="midnightblue" d="M366.385,-396.768C373.179,-386.804 381.99,-373 388.241,-360 398.443,-338.786 406.878,-313.01 411.972,-295.867"/>
<polygon fill="midnightblue" stroke="midnightblue" points="415.414,-296.562 414.822,-285.983 408.688,-294.622 415.414,-296.562"/>
</g>
<!-- Node13 -->
<g id="node13" class="node"><title>Node13</title>
<g id="a_node13"><a xlink:href="object__identifier_8h.html" target="_top" xlink:title="shad/data_structures\l/object_identifier.h">
<polygon fill="white" stroke="black" points="516.241,-329 516.241,-359 624.241,-359 624.241,-329 516.241,-329"/>
<text text-anchor="start" x="524.241" y="-347" font-family="Helvetica,sans-Serif" font-size="10.00">shad/data_structures</text>
<text text-anchor="middle" x="570.241" y="-336" font-family="Helvetica,sans-Serif" font-size="10.00">/object_identifier.h</text>
</a>
</g>
</g>
<!-- Node10&#45;&gt;Node13 -->
<g id="edge16" class="edge"><title>Node10&#45;&gt;Node13</title>
<path fill="none" stroke="midnightblue" d="M401.887,-396.922C434.987,-386.714 479.919,-372.857 515.038,-362.025"/>
<polygon fill="midnightblue" stroke="midnightblue" points="516.141,-365.348 524.666,-359.056 514.078,-358.659 516.141,-365.348"/>
</g>
<!-- Node10&#45;&gt;Node15 -->
<g id="edge52" class="edge"><title>Node10&#45;&gt;Node15</title>
<path fill="none" stroke="midnightblue" d="M377.261,-396.733C405.568,-378.169 458.078,-345.988 507.241,-328 567.796,-305.844 640.217,-292.482 692.029,-285.028"/>
<polygon fill="midnightblue" stroke="midnightblue" points="692.69,-288.469 702.107,-283.615 691.718,-281.537 692.69,-288.469"/>
</g>
<!-- Node13&#45;&gt;Node12 -->
<g id="edge18" class="edge"><title>Node13&#45;&gt;Node12</title>
<path fill="none" stroke="midnightblue" d="M537.419,-328.841C510.48,-317.221 472.673,-300.912 446.697,-289.706"/>
<polygon fill="midnightblue" stroke="midnightblue" points="447.936,-286.429 437.368,-285.682 445.163,-292.857 447.936,-286.429"/>
</g>
<!-- Node14 -->
<g id="node14" class="node"><title>Node14</title>
<polygon fill="white" stroke="#bfbfbf" points="849.241,-266.5 849.241,-285.5 895.241,-285.5 895.241,-266.5 849.241,-266.5"/>
<text text-anchor="middle" x="872.241" y="-273.5" font-family="Helvetica,sans-Serif" font-size="10.00">atomic</text>
</g>
<!-- Node13&#45;&gt;Node14 -->
<g id="edge17" class="edge"><title>Node13&#45;&gt;Node14</title>
<path fill="none" stroke="midnightblue" d="M624.604,-334.098C676.719,-325.112 757.41,-310.011 826.241,-292 830.447,-290.9 834.832,-289.631 839.152,-288.307"/>
<polygon fill="midnightblue" stroke="midnightblue" points="840.532,-291.541 848.999,-285.172 838.408,-284.871 840.532,-291.541"/>
</g>
<!-- Node13&#45;&gt;Node15 -->
<g id="edge19" class="edge"><title>Node13&#45;&gt;Node15</title>
<path fill="none" stroke="midnightblue" d="M611.001,-328.841C645.291,-316.93 693.758,-300.094 726.052,-288.876"/>
<polygon fill="midnightblue" stroke="midnightblue" points="727.224,-292.174 735.522,-285.587 724.927,-285.562 727.224,-292.174"/>
</g>
<!-- Node15&#45;&gt;Node4 -->
<g id="edge22" class="edge"><title>Node15&#45;&gt;Node4</title>
<path fill="none" stroke="midnightblue" d="M702.093,-271.682C625.333,-266.329 486.439,-253.264 371.241,-224 368.007,-223.178 364.676,-222.168 361.387,-221.063"/>
<polygon fill="midnightblue" stroke="midnightblue" points="362.381,-217.699 351.787,-217.558 359.98,-224.275 362.381,-217.699"/>
</g>
<!-- Node15&#45;&gt;Node5 -->
<g id="edge24" class="edge"><title>Node15&#45;&gt;Node5</title>
<path fill="none" stroke="midnightblue" d="M802.91,-266.423C814.953,-264.16 828.086,-261.839 840.241,-260 978.258,-239.125 1016.84,-257.914 1152.24,-224 1155.31,-223.232 1158.46,-222.277 1161.57,-221.223"/>
<polygon fill="midnightblue" stroke="midnightblue" points="1163.08,-224.396 1171.23,-217.629 1160.64,-217.836 1163.08,-224.396"/>
</g>
<!-- Node15&#45;&gt;Node6 -->
<g id="edge26" class="edge"><title>Node15&#45;&gt;Node6</title>
<path fill="none" stroke="midnightblue" d="M720.682,-266.483C710.155,-264.292 698.78,-261.992 688.241,-260 594.333,-242.251 564.324,-261.085 476.241,-224 453.956,-214.617 452.104,-205.791 432.241,-192 413.854,-179.234 392.623,-165.225 377.118,-155.125"/>
<polygon fill="midnightblue" stroke="midnightblue" points="379.008,-152.179 368.715,-149.669 375.196,-158.05 379.008,-152.179"/>
</g>
<!-- Node15&#45;&gt;Node8 -->
<g id="edge29" class="edge"><title>Node15&#45;&gt;Node8</title>
<path fill="none" stroke="midnightblue" d="M702.078,-270.744C613.456,-263.788 439.472,-248.276 293.241,-224 281.087,-221.982 267.826,-219.149 256.332,-216.487"/>
<polygon fill="midnightblue" stroke="midnightblue" points="256.895,-213.023 246.357,-214.119 255.278,-219.834 256.895,-213.023"/>
</g>
<!-- Node15&#45;&gt;Node9 -->
<g id="edge30" class="edge"><title>Node15&#45;&gt;Node9</title>
<path fill="none" stroke="midnightblue" d="M721.466,-266.459C710.73,-264.221 699.056,-261.903 688.241,-260 577.683,-240.543 546.464,-253.824 438.241,-224 435.426,-223.224 432.538,-222.284 429.681,-221.257"/>
<polygon fill="midnightblue" stroke="midnightblue" points="430.828,-217.947 420.241,-217.543 428.265,-224.461 430.828,-217.947"/>
</g>
<!-- Node16 -->
<g id="node16" class="node"><title>Node16</title>
<polygon fill="white" stroke="#bfbfbf" points="663.741,-130.5 663.741,-149.5 712.741,-149.5 712.741,-130.5 663.741,-130.5"/>
<text text-anchor="middle" x="688.241" y="-137.5" font-family="Helvetica,sans-Serif" font-size="10.00">cstddef</text>
</g>
<!-- Node15&#45;&gt;Node16 -->
<g id="edge20" class="edge"><title>Node15&#45;&gt;Node16</title>
<path fill="none" stroke="midnightblue" d="M730.775,-266.339C710.66,-258.716 685.514,-245.42 673.241,-224 661.618,-203.714 670.328,-176.446 678.53,-158.797"/>
<polygon fill="midnightblue" stroke="midnightblue" points="681.768,-160.147 683.142,-149.642 675.517,-156.998 681.768,-160.147"/>
</g>
<!-- Node17 -->
<g id="node17" class="node"><title>Node17</title>
<polygon fill="white" stroke="#bfbfbf" points="819.241,-62.5 819.241,-81.5 865.241,-81.5 865.241,-62.5 819.241,-62.5"/>
<text text-anchor="middle" x="842.241" y="-69.5" font-family="Helvetica,sans-Serif" font-size="10.00">cstdint</text>
</g>
<!-- Node15&#45;&gt;Node17 -->
<g id="edge21" class="edge"><title>Node15&#45;&gt;Node17</title>
<path fill="none" stroke="midnightblue" d="M776.398,-266.434C790.97,-257.787 811.683,-243.007 822.241,-224 845.935,-181.348 845.864,-121.739 843.977,-91.7724"/>
<polygon fill="midnightblue" stroke="midnightblue" points="847.444,-91.2138 843.18,-81.5147 840.465,-91.7556 847.444,-91.2138"/>
</g>
<!-- Node18 -->
<g id="node18" class="node"><title>Node18</title>
<polygon fill="white" stroke="#bfbfbf" points="518.241,-198.5 518.241,-217.5 572.241,-217.5 572.241,-198.5 518.241,-198.5"/>
<text text-anchor="middle" x="545.241" y="-205.5" font-family="Helvetica,sans-Serif" font-size="10.00">iostream</text>
</g>
<!-- Node15&#45;&gt;Node18 -->
<g id="edge23" class="edge"><title>Node15&#45;&gt;Node18</title>
<path fill="none" stroke="midnightblue" d="M725.887,-266.492C689.574,-257.202 630.811,-241.322 581.241,-224 578.836,-223.16 576.361,-222.242 573.887,-221.289"/>
<polygon fill="midnightblue" stroke="midnightblue" points="575.094,-218.002 564.511,-217.518 572.482,-224.496 575.094,-218.002"/>
</g>
<!-- Node19 -->
<g id="node19" class="node"><title>Node19</title>
<polygon fill="white" stroke="#bfbfbf" points="590.741,-198.5 590.741,-217.5 625.741,-217.5 625.741,-198.5 590.741,-198.5"/>
<text text-anchor="middle" x="608.241" y="-205.5" font-family="Helvetica,sans-Serif" font-size="10.00">map</text>
</g>
<!-- Node15&#45;&gt;Node19 -->
<g id="edge25" class="edge"><title>Node15&#45;&gt;Node19</title>
<path fill="none" stroke="midnightblue" d="M739.33,-266.384C715.307,-256.424 674.758,-239.418 640.241,-224 638.624,-223.277 636.964,-222.527 635.292,-221.764"/>
<polygon fill="midnightblue" stroke="midnightblue" points="636.339,-218.392 625.794,-217.368 633.399,-224.745 636.339,-218.392"/>
</g>
<!-- Node20 -->
<g id="node20" class="node"><title>Node20</title>
<polygon fill="white" stroke="#bfbfbf" points="870.241,-198.5 870.241,-217.5 900.241,-217.5 900.241,-198.5 870.241,-198.5"/>
<text text-anchor="middle" x="885.241" y="-205.5" font-family="Helvetica,sans-Serif" font-size="10.00">set</text>
</g>
<!-- Node15&#45;&gt;Node20 -->
<g id="edge27" class="edge"><title>Node15&#45;&gt;Node20</title>
<path fill="none" stroke="midnightblue" d="M776.583,-266.372C798.082,-255.02 836.046,-234.975 860.924,-221.84"/>
<polygon fill="midnightblue" stroke="midnightblue" points="862.861,-224.775 870.07,-217.01 859.593,-218.585 862.861,-224.775"/>
</g>
<!-- Node21 -->
<g id="node21" class="node"><title>Node21</title>
<polygon fill="white" stroke="#bfbfbf" points="918.241,-198.5 918.241,-217.5 996.241,-217.5 996.241,-198.5 918.241,-198.5"/>
<text text-anchor="middle" x="957.241" y="-205.5" font-family="Helvetica,sans-Serif" font-size="10.00">unordered_set</text>
</g>
<!-- Node15&#45;&gt;Node21 -->
<g id="edge28" class="edge"><title>Node15&#45;&gt;Node21</title>
<path fill="none" stroke="midnightblue" d="M785.996,-266.372C820.823,-254.704 883.065,-233.851 922.147,-220.758"/>
<polygon fill="midnightblue" stroke="midnightblue" points="923.423,-224.021 931.793,-217.526 921.199,-217.384 923.423,-224.021"/>
</g>
<!-- Node22 -->
<g id="node22" class="node"><title>Node22</title>
<polygon fill="white" stroke="#bfbfbf" points="885.241,-0.5 885.241,-19.5 989.241,-19.5 989.241,-0.5 885.241,-0.5"/>
<text text-anchor="middle" x="937.241" y="-7.5" font-family="Helvetica,sans-Serif" font-size="10.00">shad/config/config.h</text>
</g>
<!-- Node15&#45;&gt;Node22 -->
<g id="edge31" class="edge"><title>Node15&#45;&gt;Node22</title>
<path fill="none" stroke="midnightblue" d="M702.034,-267.089C631.76,-256.947 521.411,-238.891 509.241,-224 500.241,-212.988 501.613,-204.003 509.241,-192 589.278,-66.0655 777.07,-27.6234 875.139,-15.9857"/>
<polygon fill="midnightblue" stroke="midnightblue" points="875.661,-19.449 885.205,-14.8481 874.875,-12.4933 875.661,-19.449"/>
</g>
<!-- Node23 -->
<g id="node23" class="node"><title>Node23</title>
<g id="a_node23"><a xlink:href="handle_8h.html" target="_top" xlink:title="shad/runtime/handle.h">
<polygon fill="white" stroke="black" points="1226.74,-130.5 1226.74,-149.5 1339.74,-149.5 1339.74,-130.5 1226.74,-130.5"/>
<text text-anchor="middle" x="1283.24" y="-137.5" font-family="Helvetica,sans-Serif" font-size="10.00">shad/runtime/handle.h</text>
</a>
</g>
</g>
<!-- Node15&#45;&gt;Node23 -->
<g id="edge32" class="edge"><title>Node15&#45;&gt;Node23</title>
<path fill="none" stroke="midnightblue" d="M803.349,-266.494C815.278,-264.255 828.243,-261.929 840.241,-260 958.898,-240.92 995.405,-265.37 1108.24,-224 1133.01,-214.918 1134.82,-204.145 1158.24,-192 1188,-176.57 1223.52,-162.463 1249.08,-153.017"/>
<polygon fill="midnightblue" stroke="midnightblue" points="1250.5,-156.225 1258.69,-149.509 1248.1,-149.649 1250.5,-156.225"/>
</g>
<!-- Node25 -->
<g id="node25" class="node"><title>Node25</title>
<g id="a_node25"><a xlink:href="mapping__traits_8h.html" target="_top" xlink:title="shad/runtime/mapping\l_traits.h">
<polygon fill="white" stroke="black" points="965.741,-57 965.741,-87 1078.74,-87 1078.74,-57 965.741,-57"/>
<text text-anchor="start" x="973.741" y="-75" font-family="Helvetica,sans-Serif" font-size="10.00">shad/runtime/mapping</text>
<text text-anchor="middle" x="1022.24" y="-64" font-family="Helvetica,sans-Serif" font-size="10.00">_traits.h</text>
</a>
</g>
</g>
<!-- Node15&#45;&gt;Node25 -->
<g id="edge44" class="edge"><title>Node15&#45;&gt;Node25</title>
<path fill="none" stroke="midnightblue" d="M805.749,-266.448C880.247,-252.407 1020.23,-225.83 1022.24,-224 1055.76,-193.488 1050.66,-168.536 1042.24,-124 1040.49,-114.731 1037.09,-104.988 1033.59,-96.5307"/>
<polygon fill="midnightblue" stroke="midnightblue" points="1036.75,-95.0362 1029.52,-87.2979 1030.35,-97.86 1036.75,-95.0362"/>
</g>
<!-- Node28 -->
<g id="node28" class="node"><title>Node28</title>
<g id="a_node28"><a xlink:href="locality_8h.html" target="_top" xlink:title="shad/runtime/locality.h">
<polygon fill="white" stroke="black" points="918.741,-130.5 918.741,-149.5 1033.74,-149.5 1033.74,-130.5 918.741,-130.5"/>
<text text-anchor="middle" x="976.241" y="-137.5" font-family="Helvetica,sans-Serif" font-size="10.00">shad/runtime/locality.h</text>
</a>
</g>
</g>
<!-- Node15&#45;&gt;Node28 -->
<g id="edge39" class="edge"><title>Node15&#45;&gt;Node28</title>
<path fill="none" stroke="midnightblue" d="M804.745,-266.47C874.508,-252.998 1002.06,-227.913 1005.24,-224 1021.13,-204.461 1004.49,-175.629 990.653,-157.6"/>
<polygon fill="midnightblue" stroke="midnightblue" points="993.262,-155.26 984.24,-149.706 987.829,-159.674 993.262,-155.26"/>
</g>
<!-- Node29 -->
<g id="node29" class="node"><title>Node29</title>
<g id="a_node29"><a xlink:href="available__mappings_8h.html" target="_top" xlink:title="shad/runtime/mappings\l/available_mappings.h">
<polygon fill="white" stroke="black" points="1090.24,-125 1090.24,-155 1208.24,-155 1208.24,-125 1090.24,-125"/>
<text text-anchor="start" x="1098.24" y="-143" font-family="Helvetica,sans-Serif" font-size="10.00">shad/runtime/mappings</text>
<text text-anchor="middle" x="1149.24" y="-132" font-family="Helvetica,sans-Serif" font-size="10.00">/available_mappings.h</text>
</a>
</g>
</g>
<!-- Node15&#45;&gt;Node29 -->
<g id="edge45" class="edge"><title>Node15&#45;&gt;Node29</title>
<path fill="none" stroke="midnightblue" d="M804.206,-266.479C815.903,-264.288 828.539,-261.989 840.241,-260 944.843,-242.221 983.148,-274.905 1076.24,-224 1101.97,-209.932 1122.99,-183.088 1135.76,-163.731"/>
<polygon fill="midnightblue" stroke="midnightblue" points="1138.78,-165.496 1141.19,-155.178 1132.88,-161.744 1138.78,-165.496"/>
</g>
<!-- Node30 -->
<g id="node30" class="node"><title>Node30</title>
<g id="a_node30"><a xlink:href="synchronous__interface_8h.html" target="_top" xlink:title="shad/runtime/synchronous\l_interface.h">
<polygon fill="white" stroke="black" points="682.741,-193 682.741,-223 813.741,-223 813.741,-193 682.741,-193"/>
<text text-anchor="start" x="690.741" y="-211" font-family="Helvetica,sans-Serif" font-size="10.00">shad/runtime/synchronous</text>
<text text-anchor="middle" x="748.241" y="-200" font-family="Helvetica,sans-Serif" font-size="10.00">_interface.h</text>
</a>
</g>
</g>
<!-- Node15&#45;&gt;Node30 -->
<g id="edge47" class="edge"><title>Node15&#45;&gt;Node30</title>
<path fill="none" stroke="midnightblue" d="M758.673,-266.372C757.145,-257.971 754.752,-244.811 752.644,-233.213"/>
<polygon fill="midnightblue" stroke="midnightblue" points="756.052,-232.394 750.82,-223.181 749.165,-233.646 756.052,-232.394"/>
</g>
<!-- Node23&#45;&gt;Node22 -->
<g id="edge34" class="edge"><title>Node23&#45;&gt;Node22</title>
<path fill="none" stroke="midnightblue" d="M1282.12,-130.271C1279.4,-113.008 1270.77,-74.5701 1246.24,-56 1246.09,-55.8835 1089.58,-33.1316 999.396,-20.0282"/>
<polygon fill="midnightblue" stroke="midnightblue" points="999.676,-16.5323 989.277,-18.5581 998.67,-23.4595 999.676,-16.5323"/>
</g>
<!-- Node24 -->
<g id="node24" class="node"><title>Node24</title>
<polygon fill="white" stroke="#bfbfbf" points="1293.24,-62.5 1293.24,-81.5 1355.24,-81.5 1355.24,-62.5 1293.24,-62.5"/>
<text text-anchor="middle" x="1324.24" y="-69.5" font-family="Helvetica,sans-Serif" font-size="10.00">type_traits</text>
</g>
<!-- Node23&#45;&gt;Node24 -->
<g id="edge33" class="edge"><title>Node23&#45;&gt;Node24</title>
<path fill="none" stroke="midnightblue" d="M1288.6,-130.372C1294.83,-120.348 1305.27,-103.546 1313.24,-90.7076"/>
<polygon fill="midnightblue" stroke="midnightblue" points="1316.45,-92.1825 1318.75,-81.8411 1310.5,-88.4886 1316.45,-92.1825"/>
</g>
<!-- Node23&#45;&gt;Node25 -->
<g id="edge35" class="edge"><title>Node23&#45;&gt;Node25</title>
<path fill="none" stroke="midnightblue" d="M1249.39,-130.439C1208.57,-120.118 1139.05,-102.539 1087.65,-89.5404"/>
<polygon fill="midnightblue" stroke="midnightblue" points="1088.5,-86.1458 1077.95,-87.0873 1086.79,-92.9322 1088.5,-86.1458"/>
</g>
<!-- Node27 -->
<g id="node27" class="node"><title>Node27</title>
<g id="a_node27"><a xlink:href="available__traits__mappings_8h.html" target="_top" xlink:title="shad/runtime/mappings\l/available_traits_mappings.h">
<polygon fill="white" stroke="black" points="1097.24,-57 1097.24,-87 1237.24,-87 1237.24,-57 1097.24,-57"/>
<text text-anchor="start" x="1105.24" y="-75" font-family="Helvetica,sans-Serif" font-size="10.00">shad/runtime/mappings</text>
<text text-anchor="middle" x="1167.24" y="-64" font-family="Helvetica,sans-Serif" font-size="10.00">/available_traits_mappings.h</text>
</a>
</g>
</g>
<!-- Node23&#45;&gt;Node27 -->
<g id="edge38" class="edge"><title>Node23&#45;&gt;Node27</title>
<path fill="none" stroke="midnightblue" d="M1268.08,-130.372C1251.13,-120.729 1223.15,-104.812 1200.96,-92.1874"/>
<polygon fill="midnightblue" stroke="midnightblue" points="1202.59,-89.0847 1192.17,-87.1815 1199.13,-95.1688 1202.59,-89.0847"/>
</g>
<!-- Node25&#45;&gt;Node22 -->
<g id="edge37" class="edge"><title>Node25&#45;&gt;Node22</title>
<path fill="none" stroke="midnightblue" d="M1002.1,-56.7808C988.647,-47.2862 971.02,-34.8434 957.537,-25.3267"/>
<polygon fill="midnightblue" stroke="midnightblue" points="959.55,-22.4632 949.362,-19.5557 955.513,-28.182 959.55,-22.4632"/>
</g>
<!-- Node26 -->
<g id="node26" class="node"><title>Node26</title>
<polygon fill="white" stroke="#bfbfbf" points="1007.74,-0.5 1007.74,-19.5 1048.74,-19.5 1048.74,-0.5 1007.74,-0.5"/>
<text text-anchor="middle" x="1028.24" y="-7.5" font-family="Helvetica,sans-Serif" font-size="10.00">string</text>
</g>
<!-- Node25&#45;&gt;Node26 -->
<g id="edge36" class="edge"><title>Node25&#45;&gt;Node26</title>
<path fill="none" stroke="midnightblue" d="M1023.66,-56.7808C1024.47,-48.6913 1025.5,-38.4617 1026.37,-29.725"/>
<polygon fill="midnightblue" stroke="midnightblue" points="1029.86,-30.0292 1027.37,-19.7305 1022.89,-29.3326 1029.86,-30.0292"/>
</g>
<!-- Node28&#45;&gt;Node17 -->
<g id="edge40" class="edge"><title>Node28&#45;&gt;Node17</title>
<path fill="none" stroke="midnightblue" d="M958.723,-130.372C935.851,-119.106 895.596,-99.2794 868.92,-86.1403"/>
<polygon fill="midnightblue" stroke="midnightblue" points="870.281,-82.9092 859.764,-81.6305 867.188,-89.1888 870.281,-82.9092"/>
</g>
<!-- Node28&#45;&gt;Node22 -->
<g id="edge41" class="edge"><title>Node28&#45;&gt;Node22</title>
<path fill="none" stroke="midnightblue" d="M972.741,-130.431C968.705,-120.372 962.014,-103.139 957.241,-88 951.026,-68.2843 945.242,-45.302 941.509,-29.6122"/>
<polygon fill="midnightblue" stroke="midnightblue" points="944.86,-28.5691 939.177,-19.6273 938.044,-30.1613 944.86,-28.5691"/>
</g>
<!-- Node28&#45;&gt;Node25 -->
<g id="edge42" class="edge"><title>Node28&#45;&gt;Node25</title>
<path fill="none" stroke="midnightblue" d="M982.255,-130.372C988.408,-121.543 998.227,-107.456 1006.59,-95.4503"/>
<polygon fill="midnightblue" stroke="midnightblue" points="1009.51,-97.3867 1012.36,-87.1815 1003.77,-93.3842 1009.51,-97.3867"/>
</g>
<!-- Node28&#45;&gt;Node27 -->
<g id="edge43" class="edge"><title>Node28&#45;&gt;Node27</title>
<path fill="none" stroke="midnightblue" d="M1001.21,-130.372C1030.45,-120.268 1079.62,-103.277 1116.88,-90.4016"/>
<polygon fill="midnightblue" stroke="midnightblue" points="1118.25,-93.6304 1126.56,-87.0562 1115.97,-87.0142 1118.25,-93.6304"/>
</g>
<!-- Node29&#45;&gt;Node27 -->
<g id="edge46" class="edge"><title>Node29&#45;&gt;Node27</title>
<path fill="none" stroke="midnightblue" d="M1153.15,-124.679C1155.34,-116.636 1158.14,-106.385 1160.66,-97.1369"/>
<polygon fill="midnightblue" stroke="midnightblue" points="1164.09,-97.8616 1163.34,-87.2931 1157.34,-96.0198 1164.09,-97.8616"/>
</g>
<!-- Node30&#45;&gt;Node6 -->
<g id="edge50" class="edge"><title>Node30&#45;&gt;Node6</title>
<path fill="none" stroke="midnightblue" d="M682.462,-195.953C598.874,-181.915 457.53,-158.178 391.393,-147.071"/>
<polygon fill="midnightblue" stroke="midnightblue" points="391.886,-143.605 381.445,-145.401 390.727,-150.509 391.886,-143.605"/>
</g>
<!-- Node30&#45;&gt;Node16 -->
<g id="edge48" class="edge"><title>Node30&#45;&gt;Node16</title>
<path fill="none" stroke="midnightblue" d="M735.222,-192.679C725.774,-182.286 712.976,-168.208 703.123,-157.37"/>
<polygon fill="midnightblue" stroke="midnightblue" points="705.584,-154.873 696.267,-149.828 700.404,-159.582 705.584,-154.873"/>
</g>
<!-- Node30&#45;&gt;Node17 -->
<g id="edge49" class="edge"><title>Node30&#45;&gt;Node17</title>
<path fill="none" stroke="midnightblue" d="M758.301,-192.66C775.756,-167.777 811.575,-116.716 830.276,-90.0567"/>
<polygon fill="midnightblue" stroke="midnightblue" points="833.241,-91.9241 836.119,-81.7275 827.511,-87.9041 833.241,-91.9241"/>
</g>
<!-- Node30&#45;&gt;Node28 -->
<g id="edge51" class="edge"><title>Node30&#45;&gt;Node28</title>
<path fill="none" stroke="midnightblue" d="M796.873,-192.922C838.653,-180.828 898.123,-163.613 936.945,-152.375"/>
<polygon fill="midnightblue" stroke="midnightblue" points="938.198,-155.656 946.83,-149.514 936.251,-148.932 938.198,-155.656"/>
</g>
<!-- Node31&#45;&gt;Node2 -->
<g id="edge54" class="edge"><title>Node31&#45;&gt;Node2</title>
<path fill="none" stroke="midnightblue" d="M758.354,-396.679C748.178,-386.184 734.357,-371.932 723.807,-361.052"/>
<polygon fill="midnightblue" stroke="midnightblue" points="726.276,-358.571 716.802,-353.828 721.251,-363.444 726.276,-358.571"/>
</g>
<!-- Node31&#45;&gt;Node9 -->
<g id="edge57" class="edge"><title>Node31&#45;&gt;Node9</title>
<path fill="none" stroke="midnightblue" d="M771.279,-396.961C769.278,-378.65 763.129,-346.749 744.241,-328 691.773,-275.919 495.725,-254.186 428.241,-224 427.219,-223.543 426.184,-223.056 425.147,-222.549"/>
<polygon fill="midnightblue" stroke="midnightblue" points="426.464,-219.283 415.998,-217.638 423.154,-225.451 426.464,-219.283"/>
</g>
<!-- Node31&#45;&gt;Node13 -->
<g id="edge58" class="edge"><title>Node31&#45;&gt;Node13</title>
<path fill="none" stroke="midnightblue" d="M728.907,-396.841C697.915,-386.715 656.029,-373.03 623.075,-362.262"/>
<polygon fill="midnightblue" stroke="midnightblue" points="623.749,-358.801 613.157,-359.022 621.575,-365.455 623.749,-358.801"/>
</g>
<!-- Node31&#45;&gt;Node14 -->
<g id="edge56" class="edge"><title>Node31&#45;&gt;Node14</title>
<path fill="none" stroke="midnightblue" d="M826.403,-397.744C845.882,-390.082 865.843,-378.208 877.241,-360 889.478,-340.453 884.496,-312.981 879.019,-295.086"/>
<polygon fill="midnightblue" stroke="midnightblue" points="882.314,-293.904 875.78,-285.564 875.687,-296.158 882.314,-293.904"/>
</g>
<!-- Node31&#45;&gt;Node15 -->
<g id="edge59" class="edge"><title>Node31&#45;&gt;Node15</title>
<path fill="none" stroke="midnightblue" d="M775.334,-396.8C778.475,-380.192 782.339,-351.923 778.241,-328 776.309,-316.718 772.135,-304.616 768.293,-295.033"/>
<polygon fill="midnightblue" stroke="midnightblue" points="771.498,-293.626 764.376,-285.782 765.052,-296.355 771.498,-293.626"/>
</g>
<!-- Node32 -->
<g id="node32" class="node"><title>Node32</title>
<polygon fill="white" stroke="#bfbfbf" points="830.241,-334.5 830.241,-353.5 868.241,-353.5 868.241,-334.5 830.241,-334.5"/>
<text text-anchor="middle" x="849.241" y="-341.5" font-family="Helvetica,sans-Serif" font-size="10.00">array</text>
</g>
<!-- Node31&#45;&gt;Node32 -->
<g id="edge55" class="edge"><title>Node31&#45;&gt;Node32</title>
<path fill="none" stroke="midnightblue" d="M788.949,-396.679C801.431,-385.981 818.468,-371.377 831.249,-360.422"/>
<polygon fill="midnightblue" stroke="midnightblue" points="833.627,-362.994 838.942,-353.828 829.071,-357.679 833.627,-362.994"/>
</g>
<!-- Node33&#45;&gt;Node5 -->
<g id="edge61" class="edge"><title>Node33&#45;&gt;Node5</title>
<path fill="none" stroke="midnightblue" d="M1190.24,-260.679C1190.24,-251.101 1190.24,-238.394 1190.24,-227.977"/>
<polygon fill="midnightblue" stroke="midnightblue" points="1193.74,-227.828 1190.24,-217.828 1186.74,-227.828 1193.74,-227.828"/>
</g>
<!-- Node33&#45;&gt;Node28 -->
<g id="edge62" class="edge"><title>Node33&#45;&gt;Node28</title>
<path fill="none" stroke="midnightblue" d="M1203.73,-260.71C1218.8,-242.987 1239.01,-212.601 1222.24,-192 1210.92,-178.096 1112.67,-161.015 1043.82,-150.573"/>
<polygon fill="midnightblue" stroke="midnightblue" points="1044.3,-147.106 1033.89,-149.082 1043.26,-154.028 1044.3,-147.106"/>
</g>
</g>
</svg>
