<?xml version="1.0" encoding="UTF-8" standalone="no"?>
<!DOCTYPE svg PUBLIC "-//W3C//DTD SVG 1.1//EN"
 "http://www.w3.org/Graphics/SVG/1.1/DTD/svg11.dtd">
<!-- Generated by graphviz version 2.36.0 (20140111.2315)
 -->
<!-- Title: include/shad/data_structures Pages: 1 -->
<svg width="124pt" height="151pt"
 viewBox="0.00 0.00 124.00 151.00" xmlns="http://www.w3.org/2000/svg" xmlns:xlink="http://www.w3.org/1999/xlink">
<g id="graph0" class="graph" transform="scale(1 1) rotate(0) translate(4 147)">
<title>include/shad/data_structures</title>
<polygon fill="white" stroke="none" points="-4,4 -4,-147 120,-147 120,4 -4,4"/>
<g id="clust1" class="cluster"><title>clusterdir_9f4b75f0797092e60f89150fa08197c6</title>
<g id="a_clust1"><a xlink:href="dir_9f4b75f0797092e60f89150fa08197c6.html" target="_top" xlink:title="shad">
<polygon fill="#ddddee" stroke="black" points="8,-64 8,-135 108,-135 108,-64 8,-64"/>
<text text-anchor="middle" x="58" y="-123" font-family="Helvetica,sans-Serif" font-size="10.00">shad</text>
</a>
</g>
</g>
<!-- dir_d92486b4c1fe4d8b6a38d0915b7a9263 -->
<g id="node1" class="node"><title>dir_d92486b4c1fe4d8b6a38d0915b7a9263</title>
<g id="a_node1"><a xlink:href="dir_d92486b4c1fe4d8b6a38d0915b7a9263.html" target="_top" xlink:title="data_structures">
<polygon fill="#eeeeff" stroke="black" points="99.5,-108 16.5,-108 16.5,-72 99.5,-72 99.5,-108"/>
<text text-anchor="middle" x="58" y="-87.5" font-family="Helvetica,sans-Serif" font-size="10.00">data_structures</text>
</a>
</g>
</g>
<!-- dir_3f01395c42c30902c27ec001a70001a2 -->
<g id="node2" class="node"><title>dir_3f01395c42c30902c27ec001a70001a2</title>
<g id="a_node2"><a xlink:href="dir_3f01395c42c30902c27ec001a70001a2.html" target="_top" xlink:title="runtime">
<polygon fill="white" stroke="red" points="85,-36 31,-36 31,-0 85,-0 85,-36"/>
<text text-anchor="middle" x="58" y="-15.5" font-family="Helvetica,sans-Serif" font-size="10.00">runtime</text>
</a>
</g>
</g>
<!-- dir_d92486b4c1fe4d8b6a38d0915b7a9263&#45;&gt;dir_3f01395c42c30902c27ec001a70001a2 -->
<g id="edge1" class="edge"><title>dir_d92486b4c1fe4d8b6a38d0915b7a9263&#45;&gt;dir_3f01395c42c30902c27ec001a70001a2</title>
<path fill="none" stroke="black" d="M58,-71.6966C58,-63.9827 58,-54.7125 58,-46.1124"/>
<polygon fill="black" stroke="black" points="61.5001,-46.1043 58,-36.1043 54.5001,-46.1044 61.5001,-46.1043"/>
<g id="a_edge1&#45;headlabel"><a xlink:href="dir_000003_000007.html" target="_top" xlink:title="9">
<text text-anchor="middle" x="64.3393" y="-47.199" font-family="Helvetica,sans-Serif" font-size="10.00">9</text>
</a>
</g>
</g>
</g>
</svg>
