<?xml version="1.0" encoding="UTF-8" standalone="no"?>
<!DOCTYPE svg PUBLIC "-//W3C//DTD SVG 1.1//EN"
 "http://www.w3.org/Graphics/SVG/1.1/DTD/svg11.dtd">
<!-- Generated by graphviz version 2.36.0 (20140111.2315)
 -->
<!-- Title: include/shad/data_structures/object_identifier.h Pages: 1 -->
<svg width="944pt" height="254pt"
 viewBox="0.00 0.00 944.00 254.00" xmlns="http://www.w3.org/2000/svg" xmlns:xlink="http://www.w3.org/1999/xlink">
<g id="graph0" class="graph" transform="scale(1 1) rotate(0) translate(4 250)">
<title>include/shad/data_structures/object_identifier.h</title>
<polygon fill="white" stroke="none" points="-4,4 -4,-250 940,-250 940,4 -4,4"/>
<!-- Node1 -->
<g id="node1" class="node"><title>Node1</title>
<polygon fill="#bfbfbf" stroke="black" points="397,-215 397,-245 539,-245 539,-215 397,-215"/>
<text text-anchor="start" x="405" y="-233" font-family="Helvetica,sans-Serif" font-size="10.00">include/shad/data_structures</text>
<text text-anchor="middle" x="468" y="-222" font-family="Helvetica,sans-Serif" font-size="10.00">/object_identifier.h</text>
</g>
<!-- Node2 -->
<g id="node2" class="node"><title>Node2</title>
<g id="a_node2"><a xlink:href="abstract__data__structure_8h.html" target="_top" xlink:title="include/shad/data_structures\l/abstract_data_structure.h">
<polygon fill="white" stroke="black" points="477,-147 477,-177 619,-177 619,-147 477,-147"/>
<text text-anchor="start" x="485" y="-165" font-family="Helvetica,sans-Serif" font-size="10.00">include/shad/data_structures</text>
<text text-anchor="middle" x="548" y="-154" font-family="Helvetica,sans-Serif" font-size="10.00">/abstract_data_structure.h</text>
</a>
</g>
</g>
<!-- Node1&#45;&gt;Node2 -->
<g id="edge1" class="edge"><title>Node1&#45;&gt;Node2</title>
<path fill="none" stroke="midnightblue" d="M493.08,-208.309C505.403,-198.143 519.932,-186.156 530.95,-177.066"/>
<polygon fill="midnightblue" stroke="midnightblue" points="490.845,-205.615 485.359,-214.679 495.3,-211.015 490.845,-205.615"/>
</g>
<!-- Node14 -->
<g id="node14" class="node"><title>Node14</title>
<g id="a_node14"><a xlink:href="buffer_8h.html" target="_top" xlink:title="include/shad/data_structures\l/buffer.h">
<polygon fill="white" stroke="black" points="317,-147 317,-177 459,-177 459,-147 317,-147"/>
<text text-anchor="start" x="325" y="-165" font-family="Helvetica,sans-Serif" font-size="10.00">include/shad/data_structures</text>
<text text-anchor="middle" x="388" y="-154" font-family="Helvetica,sans-Serif" font-size="10.00">/buffer.h</text>
</a>
</g>
</g>
<!-- Node1&#45;&gt;Node14 -->
<g id="edge15" class="edge"><title>Node1&#45;&gt;Node14</title>
<path fill="none" stroke="midnightblue" d="M442.92,-208.309C430.597,-198.143 416.068,-186.156 405.05,-177.066"/>
<polygon fill="midnightblue" stroke="midnightblue" points="440.7,-211.015 450.641,-214.679 445.155,-205.615 440.7,-211.015"/>
</g>
<!-- Node3 -->
<g id="node3" class="node"><title>Node3</title>
<g id="a_node3"><a xlink:href="data__structures_2array_8h.html" target="_top" xlink:title="include/shad/data_structures\l/array.h">
<polygon fill="white" stroke="black" points="160,-79 160,-109 302,-109 302,-79 160,-79"/>
<text text-anchor="start" x="168" y="-97" font-family="Helvetica,sans-Serif" font-size="10.00">include/shad/data_structures</text>
<text text-anchor="middle" x="231" y="-86" font-family="Helvetica,sans-Serif" font-size="10.00">/array.h</text>
</a>
</g>
</g>
<!-- Node2&#45;&gt;Node3 -->
<g id="edge2" class="edge"><title>Node2&#45;&gt;Node3</title>
<path fill="none" stroke="midnightblue" d="M470.42,-144.848C417.784,-133.889 348.88,-119.543 298.512,-109.056"/>
<polygon fill="midnightblue" stroke="midnightblue" points="469.881,-148.31 480.384,-146.922 471.308,-141.457 469.881,-148.31"/>
</g>
<!-- Node6 -->
<g id="node6" class="node"><title>Node6</title>
<g id="a_node6"><a xlink:href="hashmap_8h.html" target="_top" xlink:title="include/shad/data_structures\l/hashmap.h">
<polygon fill="white" stroke="black" points="634,-79 634,-109 776,-109 776,-79 634,-79"/>
<text text-anchor="start" x="642" y="-97" font-family="Helvetica,sans-Serif" font-size="10.00">include/shad/data_structures</text>
<text text-anchor="middle" x="705" y="-86" font-family="Helvetica,sans-Serif" font-size="10.00">/hashmap.h</text>
</a>
</g>
</g>
<!-- Node2&#45;&gt;Node6 -->
<g id="edge5" class="edge"><title>Node2&#45;&gt;Node6</title>
<path fill="none" stroke="midnightblue" d="M591.08,-142.89C616.485,-132.21 648.151,-118.898 671.645,-109.022"/>
<polygon fill="midnightblue" stroke="midnightblue" points="589.543,-139.739 581.68,-146.841 592.255,-146.192 589.543,-139.739"/>
</g>
<!-- Node8 -->
<g id="node8" class="node"><title>Node8</title>
<g id="a_node8"><a xlink:href="one__per__locality_8h.html" target="_top" xlink:title="include/shad/data_structures\l/one_per_locality.h">
<polygon fill="white" stroke="black" points="794,-79 794,-109 936,-109 936,-79 794,-79"/>
<text text-anchor="start" x="802" y="-97" font-family="Helvetica,sans-Serif" font-size="10.00">include/shad/data_structures</text>
<text text-anchor="middle" x="865" y="-86" font-family="Helvetica,sans-Serif" font-size="10.00">/one_per_locality.h</text>
</a>
</g>
</g>
<!-- Node2&#45;&gt;Node8 -->
<g id="edge7" class="edge"><title>Node2&#45;&gt;Node8</title>
<path fill="none" stroke="midnightblue" d="M625.58,-144.848C678.216,-133.889 747.12,-119.543 797.488,-109.056"/>
<polygon fill="midnightblue" stroke="midnightblue" points="624.692,-141.457 615.616,-146.922 626.119,-148.31 624.692,-141.457"/>
</g>
<!-- Node9 -->
<g id="node9" class="node"><title>Node9</title>
<g id="a_node9"><a xlink:href="set_8h.html" target="_top" xlink:title="include/shad/data_structures\l/set.h">
<polygon fill="white" stroke="black" points="320,-79 320,-109 462,-109 462,-79 320,-79"/>
<text text-anchor="start" x="328" y="-97" font-family="Helvetica,sans-Serif" font-size="10.00">include/shad/data_structures</text>
<text text-anchor="middle" x="391" y="-86" font-family="Helvetica,sans-Serif" font-size="10.00">/set.h</text>
</a>
</g>
</g>
<!-- Node2&#45;&gt;Node9 -->
<g id="edge8" class="edge"><title>Node2&#45;&gt;Node9</title>
<path fill="none" stroke="midnightblue" d="M504.92,-142.89C479.515,-132.21 447.849,-118.898 424.355,-109.022"/>
<polygon fill="midnightblue" stroke="midnightblue" points="503.745,-146.192 514.32,-146.841 506.457,-139.739 503.745,-146.192"/>
</g>
<!-- Node11 -->
<g id="node11" class="node"><title>Node11</title>
<g id="a_node11"><a xlink:href="vector_8h.html" target="_top" xlink:title="include/shad/data_structures\l/vector.h">
<polygon fill="white" stroke="black" points="0,-79 0,-109 142,-109 142,-79 0,-79"/>
<text text-anchor="start" x="8" y="-97" font-family="Helvetica,sans-Serif" font-size="10.00">include/shad/data_structures</text>
<text text-anchor="middle" x="71" y="-86" font-family="Helvetica,sans-Serif" font-size="10.00">/vector.h</text>
</a>
</g>
</g>
<!-- Node2&#45;&gt;Node11 -->
<g id="edge11" class="edge"><title>Node2&#45;&gt;Node11</title>
<path fill="none" stroke="midnightblue" d="M466.64,-145.867C326.01,-125.194 287.933,-130.585 151,-110 148.065,-109.559 145.074,-109.089 142.055,-108.599"/>
<polygon fill="midnightblue" stroke="midnightblue" points="466.539,-149.391 476.945,-147.401 467.57,-142.467 466.539,-149.391"/>
</g>
<!-- Node12 -->
<g id="node12" class="node"><title>Node12</title>
<g id="a_node12"><a xlink:href="edge__index_8h.html" target="_top" xlink:title="include/shad/extensions\l/graph_library/edge_index.h">
<polygon fill="white" stroke="black" points="480,-79 480,-109 616,-109 616,-79 480,-79"/>
<text text-anchor="start" x="488" y="-97" font-family="Helvetica,sans-Serif" font-size="10.00">include/shad/extensions</text>
<text text-anchor="middle" x="548" y="-86" font-family="Helvetica,sans-Serif" font-size="10.00">/graph_library/edge_index.h</text>
</a>
</g>
</g>
<!-- Node2&#45;&gt;Node12 -->
<g id="edge12" class="edge"><title>Node2&#45;&gt;Node12</title>
<path fill="none" stroke="midnightblue" d="M548,-136.532C548,-127.361 548,-117.245 548,-109.293"/>
<polygon fill="midnightblue" stroke="midnightblue" points="544.5,-136.679 548,-146.679 551.5,-136.679 544.5,-136.679"/>
</g>
<!-- Node4 -->
<g id="node4" class="node"><title>Node4</title>
<g id="a_node4"><a xlink:href="core_2array_8h.html" target="_top" xlink:title="include/shad/core/array.h">
<polygon fill="white" stroke="black" points="48,-11.5 48,-30.5 174,-30.5 174,-11.5 48,-11.5"/>
<text text-anchor="middle" x="111" y="-18.5" font-family="Helvetica,sans-Serif" font-size="10.00">include/shad/core/array.h</text>
</a>
</g>
</g>
<!-- Node3&#45;&gt;Node4 -->
<g id="edge3" class="edge"><title>Node3&#45;&gt;Node4</title>
<path fill="none" stroke="midnightblue" d="M198.581,-73.8185C174.795,-59.7455 143.619,-41.2994 125.598,-30.6372"/>
<polygon fill="midnightblue" stroke="midnightblue" points="196.903,-76.8928 207.292,-78.9727 200.468,-70.8683 196.903,-76.8928"/>
</g>
<!-- Node5 -->
<g id="node5" class="node"><title>Node5</title>
<g id="a_node5"><a xlink:href="sssp_8h.html" target="_top" xlink:title="include/shad/extensions\l/graph_library/algorithms\l/sssp.h">
<polygon fill="white" stroke="black" points="192.5,-0.5 192.5,-41.5 315.5,-41.5 315.5,-0.5 192.5,-0.5"/>
<text text-anchor="start" x="200.5" y="-29.5" font-family="Helvetica,sans-Serif" font-size="10.00">include/shad/extensions</text>
<text text-anchor="start" x="200.5" y="-18.5" font-family="Helvetica,sans-Serif" font-size="10.00">/graph_library/algorithms</text>
<text text-anchor="middle" x="254" y="-7.5" font-family="Helvetica,sans-Serif" font-size="10.00">/sssp.h</text>
</a>
</g>
</g>
<!-- Node3&#45;&gt;Node5 -->
<g id="edge4" class="edge"><title>Node3&#45;&gt;Node5</title>
<path fill="none" stroke="midnightblue" d="M238.633,-69.4364C241.553,-60.424 244.849,-50.2501 247.637,-41.642"/>
<polygon fill="midnightblue" stroke="midnightblue" points="235.296,-68.3807 235.544,-78.9727 241.956,-70.538 235.296,-68.3807"/>
</g>
<!-- Node7 -->
<g id="node7" class="node"><title>Node7</title>
<g id="a_node7"><a xlink:href="unordered__map_8h.html" target="_top" xlink:title="include/shad/core/unordered\l_map.h">
<polygon fill="white" stroke="black" points="635.5,-6 635.5,-36 774.5,-36 774.5,-6 635.5,-6"/>
<text text-anchor="start" x="643.5" y="-24" font-family="Helvetica,sans-Serif" font-size="10.00">include/shad/core/unordered</text>
<text text-anchor="middle" x="705" y="-13" font-family="Helvetica,sans-Serif" font-size="10.00">_map.h</text>
</a>
</g>
</g>
<!-- Node6&#45;&gt;Node7 -->
<g id="edge6" class="edge"><title>Node6&#45;&gt;Node7</title>
<path fill="none" stroke="midnightblue" d="M705,-68.8976C705,-58.1314 705,-45.8005 705,-36.4856"/>
<polygon fill="midnightblue" stroke="midnightblue" points="701.5,-68.9727 705,-78.9727 708.5,-68.9727 701.5,-68.9727"/>
</g>
<!-- Node9&#45;&gt;Node5 -->
<g id="edge10" class="edge"><title>Node9&#45;&gt;Node5</title>
<path fill="none" stroke="midnightblue" d="M355.041,-74.3643C335.523,-64.2492 311.414,-51.7546 291.641,-41.5075"/>
<polygon fill="midnightblue" stroke="midnightblue" points="353.444,-77.4788 363.933,-78.9727 356.665,-71.2639 353.444,-77.4788"/>
</g>
<!-- Node10 -->
<g id="node10" class="node"><title>Node10</title>
<g id="a_node10"><a xlink:href="unordered__set_8h.html" target="_top" xlink:title="include/shad/core/unordered\l_set.h">
<polygon fill="white" stroke="black" points="333.5,-6 333.5,-36 472.5,-36 472.5,-6 333.5,-6"/>
<text text-anchor="start" x="341.5" y="-24" font-family="Helvetica,sans-Serif" font-size="10.00">include/shad/core/unordered</text>
<text text-anchor="middle" x="403" y="-13" font-family="Helvetica,sans-Serif" font-size="10.00">_set.h</text>
</a>
</g>
</g>
<!-- Node9&#45;&gt;Node10 -->
<g id="edge9" class="edge"><title>Node9&#45;&gt;Node10</title>
<path fill="none" stroke="midnightblue" d="M395.074,-68.8976C396.893,-58.1314 398.977,-45.8005 400.552,-36.4856"/>
<polygon fill="midnightblue" stroke="midnightblue" points="391.586,-68.5292 393.371,-78.9727 398.488,-69.6958 391.586,-68.5292"/>
</g>
<!-- Node12&#45;&gt;Node5 -->
<g id="edge13" class="edge"><title>Node12&#45;&gt;Node5</title>
<path fill="none" stroke="midnightblue" d="M472.165,-76.8103C428.663,-67.2545 373.103,-54.5946 324,-42 321.307,-41.3092 318.559,-40.5893 315.787,-39.8507"/>
<polygon fill="midnightblue" stroke="midnightblue" points="471.586,-80.2662 482.103,-78.9853 473.083,-73.4281 471.586,-80.2662"/>
</g>
<!-- Node13 -->
<g id="node13" class="node"><title>Node13</title>
<g id="a_node13"><a xlink:href="attributed__edge__index_8h.html" target="_top" xlink:title="include/shad/extensions\l/graph_library/attributed\l_edge_index.h">
<polygon fill="white" stroke="black" points="491,-0.5 491,-41.5 613,-41.5 613,-0.5 491,-0.5"/>
<text text-anchor="start" x="499" y="-29.5" font-family="Helvetica,sans-Serif" font-size="10.00">include/shad/extensions</text>
<text text-anchor="start" x="499" y="-18.5" font-family="Helvetica,sans-Serif" font-size="10.00">/graph_library/attributed</text>
<text text-anchor="middle" x="552" y="-7.5" font-family="Helvetica,sans-Serif" font-size="10.00">_edge_index.h</text>
</a>
</g>
</g>
<!-- Node12&#45;&gt;Node13 -->
<g id="edge14" class="edge"><title>Node12&#45;&gt;Node13</title>
<path fill="none" stroke="midnightblue" d="M549.36,-68.8534C549.86,-59.9872 550.419,-50.065 550.893,-41.642"/>
<polygon fill="midnightblue" stroke="midnightblue" points="545.858,-68.7916 548.79,-78.9727 552.847,-69.1854 545.858,-68.7916"/>
</g>
<!-- Node14&#45;&gt;Node3 -->
<g id="edge16" class="edge"><title>Node14&#45;&gt;Node3</title>
<path fill="none" stroke="midnightblue" d="M344.92,-142.89C319.515,-132.21 287.849,-118.898 264.355,-109.022"/>
<polygon fill="midnightblue" stroke="midnightblue" points="343.745,-146.192 354.32,-146.841 346.457,-139.739 343.745,-146.192"/>
</g>
<!-- Node14&#45;&gt;Node6 -->
<g id="edge17" class="edge"><title>Node14&#45;&gt;Node6</title>
<path fill="none" stroke="midnightblue" d="M465.58,-144.848C518.216,-133.889 587.12,-119.543 637.488,-109.056"/>
<polygon fill="midnightblue" stroke="midnightblue" points="464.692,-141.457 455.616,-146.922 466.119,-148.31 464.692,-141.457"/>
</g>
<!-- Node14&#45;&gt;Node9 -->
<g id="edge18" class="edge"><title>Node14&#45;&gt;Node9</title>
<path fill="none" stroke="midnightblue" d="M389.112,-136.532C389.529,-127.361 389.989,-117.245 390.35,-109.293"/>
<polygon fill="midnightblue" stroke="midnightblue" points="385.609,-136.53 388.651,-146.679 392.602,-136.848 385.609,-136.53"/>
</g>
<!-- Node14&#45;&gt;Node11 -->
<g id="edge19" class="edge"><title>Node14&#45;&gt;Node11</title>
<path fill="none" stroke="midnightblue" d="M310.42,-144.848C257.784,-133.889 188.88,-119.543 138.512,-109.056"/>
<polygon fill="midnightblue" stroke="midnightblue" points="309.881,-148.31 320.384,-146.922 311.308,-141.457 309.881,-148.31"/>
</g>
<!-- Node14&#45;&gt;Node12 -->
<g id="edge20" class="edge"><title>Node14&#45;&gt;Node12</title>
<path fill="none" stroke="midnightblue" d="M431.903,-142.89C457.793,-132.21 490.065,-118.898 514.008,-109.022"/>
<polygon fill="midnightblue" stroke="midnightblue" points="430.234,-139.792 422.324,-146.841 432.903,-146.264 430.234,-139.792"/>
</g>
</g>
</svg>
